<?xml version="1.0" encoding="UTF-8" standalone="no"?>
<!-- Created with Inkscape (http://www.inkscape.org/) -->

<svg
   xmlns:dc="http://purl.org/dc/elements/1.1/"
   xmlns:cc="http://creativecommons.org/ns#"
   xmlns:rdf="http://www.w3.org/1999/02/22-rdf-syntax-ns#"
   xmlns:svg="http://www.w3.org/2000/svg"
   xmlns="http://www.w3.org/2000/svg"
   xmlns:sodipodi="http://sodipodi.sourceforge.net/DTD/sodipodi-0.dtd"
   xmlns:inkscape="http://www.inkscape.org/namespaces/inkscape"
   version="1.1"
   id="svg2"
   xml:space="preserve"
   width="253"
   height="253"
   viewBox="0 0 253 252.99999"
   sodipodi:docname="2-1-2.svg"
   inkscape:version="0.92.2 5c3e80d, 2017-08-06"><metadata
     id="metadata8"><rdf:RDF><cc:Work
         rdf:about=""><dc:format>image/svg+xml</dc:format><dc:type
           rdf:resource="http://purl.org/dc/dcmitype/StillImage" /><dc:title></dc:title></cc:Work></rdf:RDF></metadata><defs
     id="defs6"><clipPath
       clipPathUnits="userSpaceOnUse"
       id="clipPath20"><path
         d="M 0.0714,153.9164 H 594.9762 V 687.5398 H 0.0714 Z"
         id="path18"
         inkscape:connector-curvature="0" /></clipPath><clipPath
       clipPathUnits="userSpaceOnUse"
       id="clipPath32"><path
         d="m 0,153.845 h 595 v 534.31 H 0 Z"
         id="path30"
         inkscape:connector-curvature="0" /></clipPath><clipPath
       clipPathUnits="userSpaceOnUse"
       id="clipPath78"><path
         d="M 0.0714,153.9164 H 594.9762 V 687.5398 H 0.0714 Z"
         id="path76"
         inkscape:connector-curvature="0" /></clipPath><clipPath
       clipPathUnits="userSpaceOnUse"
       id="clipPath94"><path
         d="m 0,153.845 h 595 v 534.31 H 0 Z"
         id="path92"
         inkscape:connector-curvature="0" /></clipPath><clipPath
       clipPathUnits="userSpaceOnUse"
       id="clipPath306"><path
         d="M 0.0714,153.9164 H 594.9762 V 687.5398 H 0.0714 Z"
         id="path304"
         inkscape:connector-curvature="0" /></clipPath><clipPath
       clipPathUnits="userSpaceOnUse"
       id="clipPath318"><path
         d="m 0,153.845 h 595 v 534.31 H 0 Z"
         id="path316"
         inkscape:connector-curvature="0" /></clipPath></defs><sodipodi:namedview
     pagecolor="#ffffff"
     bordercolor="#666666"
     borderopacity="1"
     objecttolerance="10"
     gridtolerance="10"
     guidetolerance="10"
     inkscape:pageopacity="0"
     inkscape:pageshadow="2"
     inkscape:window-width="1366"
     inkscape:window-height="724"
     id="namedview4"
     showgrid="false"
     inkscape:zoom="0.84085505"
     inkscape:cx="87.562911"
     inkscape:cy="49.809673"
     inkscape:window-x="0"
     inkscape:window-y="0"
     inkscape:window-maximized="1"
     inkscape:current-layer="g10" /><g
     id="g10"
     inkscape:groupmode="layer"
     inkscape:label="491631-PHF59X-955"
     transform="matrix(1.3333333,0,0,-1.3333333,0,252.99995)"><g
       id="g12" /><g
       id="g1479"
       transform="matrix(0.31951816,0,0,0.31951816,-0.0228136,-49.675614)"><g
         id="g14"><g
           clip-path="url(#clipPath20)"
           id="g16"><path
             inkscape:connector-curvature="0"
             id="path22"
             style="fill:#a0dfda;fill-opacity:1;fill-rule:nonzero;stroke:none"
             d="M 343.8731,479.6825 H 72.29369 c -15.92101,0 -28.82775,12.9067 -28.82775,28.8265 v 150.2006 c 0,15.9199 12.90674,28.8266 28.82775,28.8266 H 343.8731 c 15.9198,0 28.8266,-12.9067 28.8266,-28.8266 V 508.509 c 0,-15.9198 -12.9068,-28.8265 -28.8266,-28.8265" /><path
             inkscape:connector-curvature="0"
             id="path24"
             style="fill:#d1f0f7;fill-opacity:1;fill-rule:nonzero;stroke:none"
             d="M 343.8779,479.6825 H 72.29607 343.8731 c 2.4871,0 4.8992,0.3141 7.2007,0.9067 -2.3003,-0.5926 -4.7112,-0.9067 -7.1959,-0.9067 m 7.1995,0.9079 c 0.003,0 0.006,0.001 0.008,0.001 -0.002,0 -0.005,-0.001 -0.008,-0.001 M 51.10098,488.968 c -4.74096,5.1373 -7.63861,12.0012 -7.63861,19.5363 v 150.2018 c 0,15.9222 12.9115,28.8337 28.8337,28.8337 H 343.8779 c 7.8456,0 14.9618,-3.1392 20.1598,-8.2313 -5.198,5.0897 -12.3153,8.2277 -20.1646,8.2277 H 72.29369 c -15.92101,0 -28.82775,-12.9067 -28.82775,-28.8266 V 508.509 c 0,-7.541 2.89527,-14.4037 7.63504,-19.541 m 320.71212,12.4189 c 0,10e-4 0,0.002 10e-4,0.004 0,-10e-4 -10e-4,-0.004 -10e-4,-0.004 m 0.002,0.0107 c 0.5772,2.2741 0.8842,4.6565 0.8842,7.1114 v 150.2006 c 0,-0.004 0,-0.004 0,-0.004 V 508.5038 c 0,-2.4514 -0.307,-4.8338 -0.8842,-7.1067" /></g></g><g
         id="g26"><g
           clip-path="url(#clipPath32)"
           id="g28"><path
             inkscape:connector-curvature="0"
             id="path34"
             style="fill:#87d7d8;fill-opacity:1;fill-rule:nonzero;stroke:none"
             d="M 343.8731,479.6825 H 72.29369 c -8.37879,0 -15.92458,3.5759 -21.19271,9.2855 -4.73977,5.1373 -7.63504,12 -7.63504,19.541 v 150.2006 c 0,15.9199 12.90674,28.8266 28.82775,28.8266 H 343.8731 c 7.8493,0 14.9666,-3.138 20.1646,-8.2277 5.3443,-5.2336 8.662,-12.5318 8.662,-20.6024 V 508.509 c 0,-2.4549 -0.307,-4.8373 -0.8842,-7.1114 0,-0.004 -10e-4,-0.005 -10e-4,-0.007 -0.001,-0.001 -0.001,-0.002 -0.001,-0.004 -2.5847,-10.165 -10.5755,-18.1785 -20.7274,-20.7953 -0.002,0 -0.005,-10e-4 -0.008,-10e-4 -0.001,-0.001 -0.002,-0.001 -0.004,-0.001 -2.3015,-0.5926 -4.7136,-0.9067 -7.2007,-0.9067 M 96.48877,676.4728 c -15.9222,0 -28.8218,-12.8996 -28.8218,-28.8218 V 520.0235 c 0,-15.9103 12.8996,-28.8218 28.8218,-28.8218 H 330.3833 c 15.9222,0 28.8337,12.9115 28.8337,28.8218 V 647.651 c 0,15.9222 -12.9115,28.8218 -28.8337,28.8218 H 96.48877" /><path
             inkscape:connector-curvature="0"
             id="path36"
             style="fill:#d1efed;fill-opacity:1;fill-rule:nonzero;stroke:none"
             d="m 345.9687,635.012 h -0.0107 c -2.1539,0 -3.902,1.7421 -3.908,3.8984 -0.006,2.0671 -0.764,20.1991 -25.3803,20.1991 h -6.5057 c -2.1587,0 -3.908,1.7505 -3.908,3.9079 0,2.1587 1.7493,3.9092 3.908,3.9092 h 6.5057 c 32.7476,0 33.1951,-26.8524 33.1962,-27.9959 0.006,-2.1575 -1.7385,-3.9128 -3.8972,-3.9187" /><path
             inkscape:connector-curvature="0"
             id="path38"
             style="fill:#d1efed;fill-opacity:1;fill-rule:nonzero;stroke:none"
             d="m 345.8985,623.5832 c -2.192,0 -3.9687,1.7112 -3.9687,3.8211 v 0.2654 c 0,2.111 1.7767,3.8211 3.9687,3.8211 2.1908,0 3.9674,-1.7101 3.9674,-3.8211 v -0.2654 c 0,-2.1099 -1.7766,-3.8211 -3.9674,-3.8211" /><path
             inkscape:connector-curvature="0"
             id="path40"
             style="fill:#d1efed;fill-opacity:1;fill-rule:nonzero;stroke:none"
             d="m 345.8985,612.8732 c -2.192,0 -3.9687,1.7112 -3.9687,3.8211 v 0.2654 c 0,2.111 1.7767,3.8211 3.9687,3.8211 2.1908,0 3.9674,-1.7101 3.9674,-3.8211 v -0.2654 c 0,-2.1099 -1.7766,-3.8211 -3.9674,-3.8211" /><path
             inkscape:connector-curvature="0"
             id="path42"
             style="fill:#31939c;fill-opacity:1;fill-rule:nonzero;stroke:none"
             d="m 166.6012,521.7026 h -51.1093 c -6.6985,0 -12.1285,5.4311 -12.1285,12.1296 v 100.9156 c 0,6.6997 5.43,12.1297 12.1285,12.1297 h 51.1093 c 6.6985,0 12.1285,-5.43 12.1285,-12.1297 V 533.8322 c 0,-6.6985 -5.43,-12.1296 -12.1285,-12.1296" /><path
             inkscape:connector-curvature="0"
             id="path44"
             style="fill:#83ccc6;fill-opacity:1;fill-rule:nonzero;stroke:none"
             d="m 166.6036,521.7014 h -51.1105 c -4.4685,0 -8.3717,2.4145 -10.4744,6.0107 2.1051,-3.595 6.0071,-6.0095 10.4732,-6.0095 h 51.1093 c 6.6985,0 12.1285,5.4311 12.1285,12.1296 v 100.9156 c 0,6.6997 -5.43,12.1297 -12.1285,12.1297 h 0.002 c 6.6997,0 12.1261,-5.4264 12.1261,-12.1261 V 533.8275 c 0,-6.6997 -5.4264,-12.1261 -12.1261,-12.1261 M 107.666,644.0155 c 0.006,0.005 0.0107,0.01 0.0167,0.0143 -0.005,-0.005 -0.0107,-0.01 -0.0167,-0.0143 m 0.0274,0.0226 c 1.2793,1.0758 2.7822,1.8909 4.4328,2.3658 -1.6494,-0.4749 -3.1535,-1.2912 -4.4328,-2.3658 m 4.4423,2.3693 c 0.004,10e-4 0.008,0.002 0.0119,0.004 -0.005,-10e-4 -0.007,-0.002 -0.0119,-0.004" /><path
             inkscape:connector-curvature="0"
             id="path46"
             style="fill:#2e848e;fill-opacity:1;fill-rule:nonzero;stroke:none"
             d="m 166.6012,521.7026 h -51.1093 c -4.4661,0 -8.3681,2.4145 -10.4732,6.0095 -1.0496,1.7945 -1.6517,3.8841 -1.6517,6.1154 v 100.9239 c 0,3.7163 1.6695,7.04 4.2994,9.2641 0.006,0.005 0.0119,0.01 0.0167,0.0143 0.004,0.002 0.007,0.006 0.0107,0.008 1.2793,1.0746 2.7834,1.8909 4.4328,2.3658 0.004,10e-4 0.006,0.002 0.01,0.004 0.005,10e-4 0.007,0.002 0.0119,0.004 1.0627,0.3034 2.1848,0.4665 3.3451,0.4665 h 51.1081 c 6.6985,0 12.1285,-5.43 12.1285,-12.1297 V 533.8328 c 0,-6.6985 -5.43,-12.1296 -12.1285,-12.1296 m -45.4556,121.6049 c -6.6878,0 -12.1261,-5.4264 -12.1261,-12.1261 v -91.9513 c 0,-6.6997 5.4383,-12.1261 12.1261,-12.1261 h 43.0423 c 6.6997,0 12.1261,5.4264 12.1261,12.1261 v 91.9513 c 0,6.6997 -5.4264,12.1261 -12.1261,12.1261 h -43.0423" /><path
             inkscape:connector-curvature="0"
             id="path48"
             style="fill:#76c5c3;fill-opacity:1;fill-rule:nonzero;stroke:none"
             d="m 112.5383,540.0702 v 88.4396 c 0,5.0766 4.115,9.1928 9.1927,9.1928 h 38.631 c 5.0778,0 9.1928,-4.1162 9.1928,-9.1928 v -88.4396 c 0,-5.0765 -4.115,-9.1916 -9.1928,-9.1916 h -38.631 c -5.0777,0 -9.1927,4.1151 -9.1927,9.1916" /><path
             inkscape:connector-curvature="0"
             id="path50"
             style="fill:#2e848e;fill-opacity:1;fill-rule:nonzero;stroke:none"
             d="m 160.368,530.8763 h -38.6393 c -1.6672,0 -3.2309,0.445 -4.5791,1.2233 1.3482,-0.7771 2.9131,-1.221 4.5814,-1.221 h 38.631 c 3.0631,0 5.7763,1.4983 7.447,3.8009 -1.6707,-2.305 -4.3827,-3.8032 -7.441,-3.8032 m 9.1868,93.8791 v 3.7544 c 0,5.0766 -4.115,9.1928 -9.1928,9.1928 h 0.006 c 5.0694,0 9.1868,-4.1174 9.1868,-9.1868 v -3.7604 M 120.5756,637.63 c 0.3784,0.0476 0.7628,0.0726 1.1531,0.0726 h 0.002 c -0.3915,0 -0.777,-0.025 -1.1554,-0.0726" /><path
             inkscape:connector-curvature="0"
             id="path52"
             style="fill:#63aeb2;fill-opacity:1;fill-rule:nonzero;stroke:none"
             d="m 160.362,530.8786 h -38.631 c -1.6683,0 -3.2332,0.4439 -4.5814,1.221 -2.7525,1.5886 -4.6077,4.5648 -4.6077,7.9754 v 88.4408 c 0,4.6791 3.5081,8.5465 8.0337,9.1142 0.3784,0.0476 0.7639,0.0726 1.1554,0.0726 h 38.631 c 5.0778,0 9.1928,-4.1162 9.1928,-9.1928 v -3.7544 c 0,5.0813 -4.1174,9.1987 -9.1868,9.1987 h -32.2966 c -5.0813,0 -9.1987,-4.1174 -9.1987,-9.1987 v -79.7538 c 0,-5.0813 4.1174,-9.1987 9.1987,-9.1987 h 32.2966 c 5.0694,0 9.1868,4.1174 9.1868,9.1987 v -4.9266 c 0,-2.0159 -0.6474,-3.8794 -1.7458,-5.3955 -1.6707,-2.3026 -4.3839,-3.8009 -7.447,-3.8009" /><path
             inkscape:connector-curvature="0"
             id="path54"
             style="fill:#4b909c;fill-opacity:1;fill-rule:nonzero;stroke:none"
             d="m 152.6532,602.6059 h -21.0713 c -1.4209,0 -2.5728,1.1519 -2.5728,2.574 v 2.4668 c 0,1.4209 1.1519,2.5728 2.5728,2.5728 h 21.0713 c 1.422,0 2.574,-1.1519 2.574,-2.5728 v -2.4668 c 0,-1.4221 -1.152,-2.574 -2.574,-2.574" /><path
             inkscape:connector-curvature="0"
             id="path56"
             style="fill:#4b909c;fill-opacity:1;fill-rule:nonzero;stroke:none"
             d="m 152.652,557.4061 h -21.0713 c -1.4221,0 -2.574,1.1531 -2.574,2.574 v 3.0952 c 0,1.4208 1.1519,2.574 2.574,2.574 h 21.0713 c 1.4209,0 2.5728,-1.1532 2.5728,-2.574 v -3.0952 c 0,-1.4209 -1.1519,-2.574 -2.5728,-2.574" /><path
             inkscape:connector-curvature="0"
             id="path58"
             style="fill:#31939c;fill-opacity:1;fill-rule:nonzero;stroke:none"
             d="m 298.7781,521.7026 h -51.1094 c -6.6985,0 -12.1284,5.4311 -12.1284,12.1296 v 100.9156 c 0,6.6997 5.4299,12.1297 12.1284,12.1297 h 51.1094 c 6.6985,0 12.1284,-5.43 12.1284,-12.1297 V 533.8322 c 0,-6.6985 -5.4299,-12.1296 -12.1284,-12.1296" /><path
             inkscape:connector-curvature="0"
             id="path60"
             style="fill:#83ccc6;fill-opacity:1;fill-rule:nonzero;stroke:none"
             d="m 298.7804,521.7014 h -51.1105 c -4.2161,0 -7.9277,2.1491 -10.1007,5.4121 2.1741,-3.2618 5.8858,-5.4109 10.0995,-5.4109 h 51.1094 c 6.6985,0 12.1284,5.4311 12.1284,12.1296 v 100.9156 c 0,6.6997 -5.4299,12.1297 -12.1284,12.1297 h 0.002 c 6.6997,0 12.1261,-5.4264 12.1261,-12.1261 V 533.8275 c 0,-6.6997 -5.4264,-12.1261 -12.1261,-12.1261 m -57.8613,123.1257 c 0.008,0.006 0.0178,0.0119 0.0261,0.0179 -0.008,-0.006 -0.0178,-0.012 -0.0261,-0.0179 m 0.0297,0.0202 c 0.9306,0.62 1.9528,1.1162 3.0417,1.4625 -1.0889,-0.3463 -2.1111,-0.8425 -3.0417,-1.4625 m 3.0428,1.4625 c 0.007,0.002 0.0155,0.005 0.0227,0.007 -0.007,-0.002 -0.0155,-0.005 -0.0227,-0.007 m 0.0357,0.0108 c 0.004,10e-4 0.008,0.004 0.012,0.005 -0.004,-10e-4 -0.007,-0.002 -0.012,-0.005" /><path
             inkscape:connector-curvature="0"
             id="path62"
             style="fill:#2e848e;fill-opacity:1;fill-rule:nonzero;stroke:none"
             d="m 298.7781,521.7026 h -51.1094 c -4.2137,0 -7.9254,2.1491 -10.0995,5.4109 -1.2792,1.9218 -2.0254,4.2304 -2.0254,6.714 v 100.9239 c 0,4.1995 2.1325,7.8992 5.3753,10.0757 0.008,0.006 0.0178,0.0119 0.0261,0.0179 0.001,0 0.002,10e-4 0.004,0.002 0.9306,0.62 1.9528,1.1162 3.0417,1.4625 0,0 0,0 10e-4,0 0.007,0.002 0.0155,0.005 0.0227,0.007 0.005,10e-4 0.008,0.002 0.013,0.004 0.005,0.002 0.008,0.004 0.012,0.005 1.1459,0.3582 2.3657,0.5522 3.6306,0.5522 h 51.1082 c 6.6985,0 12.1284,-5.43 12.1284,-12.1297 V 533.8324 c 0,-6.6985 -5.4299,-12.1296 -12.1284,-12.1296 m -45.4557,121.6049 c -6.6878,0 -12.1261,-5.4264 -12.1261,-12.1261 v -91.9513 c 0,-6.6997 5.4383,-12.1261 12.1261,-12.1261 h 43.0423 c 6.6997,0 12.1261,5.4264 12.1261,12.1261 v 91.9513 c 0,6.6997 -5.4264,12.1261 -12.1261,12.1261 h -43.0423" /><path
             inkscape:connector-curvature="0"
             id="path64"
             style="fill:#76c5c3;fill-opacity:1;fill-rule:nonzero;stroke:none"
             d="m 244.7152,540.0702 v 88.4396 c 0,5.0766 4.115,9.1928 9.1915,9.1928 h 38.6322 c 5.0765,0 9.1927,-4.1162 9.1927,-9.1928 v -88.4396 c 0,-5.0765 -4.1162,-9.1916 -9.1927,-9.1916 h -38.6322 c -5.0765,0 -9.1915,4.1151 -9.1915,9.1916" /><path
             inkscape:connector-curvature="0"
             id="path66"
             style="fill:#2e848e;fill-opacity:1;fill-rule:nonzero;stroke:none"
             d="m 292.5448,530.8763 h -38.6393 c -1.6672,0 -3.2308,0.445 -4.5803,1.2233 1.3495,-0.7771 2.9131,-1.221 4.5815,-1.221 h 38.6322 c 3.063,0 5.7763,1.4983 7.447,3.8009 -1.6707,-2.305 -4.3828,-3.8032 -7.4411,-3.8032 m 9.1868,93.8791 v 3.7544 c 0,5.0766 -4.1162,9.1928 -9.1927,9.1928 h 0.006 c 5.0694,0 9.1868,-4.1174 9.1868,-9.1868 v -3.7604 M 252.7524,637.63 c 0.3784,0.0476 0.7628,0.0726 1.1531,0.0726 h 0.001 c -0.3903,0 -0.7759,-0.025 -1.1543,-0.0726" /><path
             inkscape:connector-curvature="0"
             id="path68"
             style="fill:#63aeb2;fill-opacity:1;fill-rule:nonzero;stroke:none"
             d="m 292.5389,530.8786 h -38.6322 c -1.6684,0 -3.232,0.4439 -4.5815,1.221 -2.7513,1.5886 -4.6065,4.5648 -4.6065,7.9754 v 88.4408 c 0,4.6791 3.5082,8.5465 8.0337,9.1142 0.3784,0.0476 0.764,0.0726 1.1543,0.0726 h 38.6322 c 5.0765,0 9.1927,-4.1162 9.1927,-9.1928 v -3.7544 c 0,5.0813 -4.1174,9.1987 -9.1868,9.1987 h -32.2966 c -5.0813,0 -9.1987,-4.1174 -9.1987,-9.1987 v -79.7538 c 0,-5.0813 4.1174,-9.1987 9.1987,-9.1987 h 32.2966 c 5.0694,0 9.1868,4.1174 9.1868,9.1987 v -4.9266 c 0,-2.0159 -0.6473,-3.8794 -1.7457,-5.3955 -1.6707,-2.3026 -4.384,-3.8009 -7.447,-3.8009" /><path
             inkscape:connector-curvature="0"
             id="path70"
             style="fill:#4b909c;fill-opacity:1;fill-rule:nonzero;stroke:none"
             d="m 284.8301,602.6059 h -21.0714 c -1.4208,0 -2.5739,1.1519 -2.5739,2.574 v 2.4668 c 0,1.4209 1.1531,2.5728 2.5739,2.5728 h 21.0714 c 1.4208,0 2.5739,-1.1519 2.5739,-2.5728 v -2.4668 c 0,-1.4221 -1.1531,-2.574 -2.5739,-2.574" /></g></g><g
         id="g72"><g
           clip-path="url(#clipPath78)"
           id="g74"><path
             inkscape:connector-curvature="0"
             id="path80"
             style="fill:#4b909c;fill-opacity:1;fill-rule:nonzero;stroke:none"
             d="m 284.8289,557.4061 h -21.0714 c -1.422,0 -2.5739,1.1531 -2.5739,2.574 v 3.0952 c 0,1.4208 1.1519,2.574 2.5739,2.574 h 21.0714 c 1.4208,0 2.5728,-1.1532 2.5728,-2.574 v -3.0952 c 0,-1.4209 -1.152,-2.574 -2.5728,-2.574" /><path
             inkscape:connector-curvature="0"
             id="path82"
             style="fill:#31939c;fill-opacity:1;fill-rule:nonzero;stroke:none"
             d="M 0,412.9318 V 398.528 c 9.5081,-9.3069 22.73376,-15.7663 35.39774,-17.5049 18.99002,-2.6203 36.56156,5.5359 53.63925,12.6509 15.57951,6.4855 37.63141,15.1511 53.21081,4.1055 8.411,-5.9654 12.5569,-16.4481 11.7679,-26.4382 0.7628,0.1345 1.5506,0.2142 2.3396,0.2416 0.2142,0.0119 0.4284,0.0119 0.6426,0.0119 h 2.5002 c 1.3375,0 2.6346,-0.1464 3.8913,-0.413 0.3891,5.643 -0.4808,11.4193 -2.6073,16.9147 -11.9024,30.7448 -46.8051,25.8242 -71.61183,15.6878 C 74.70106,397.8723 59.88318,390.1433 43.90386,389.8494 27.57468,389.5412 8.22409,398.6221 0,412.9318" /><path
             inkscape:connector-curvature="0"
             id="path84"
             style="fill:#dadddd;fill-opacity:1;fill-rule:nonzero;stroke:none"
             d="m 42.7924,380.521 c -1.87901,0 -3.77111,0.094 -5.67749,0.2939 1.90519,-0.1999 3.7961,-0.2927 5.67392,-0.2927 16.19352,0 31.40767,6.9686 46.24816,13.1518 10.17093,4.2341 23.10381,9.3987 35.19071,9.3987 6.426,0 12.6116,-1.459 18.0201,-5.2932 0.5748,-0.4081 1.1305,-0.8365 1.666,-1.2852 -0.5355,0.4475 -1.09,0.8771 -1.6648,1.284 -5.4073,3.8342 -11.5965,5.2944 -18.0213,5.2944 -12.0881,0 -25.0174,-5.1635 -35.18952,-9.3987 -14.8393,-6.182 -30.05345,-13.1518 -46.24578,-13.153" /><path
             inkscape:connector-curvature="0"
             id="path86"
             style="fill:#2f8690;fill-opacity:1;fill-rule:nonzero;stroke:none"
             d="m 163.4417,372.1922 c -0.3463,0.1059 -0.6985,0.1999 -1.0567,0.282 -0.8223,0.1928 -1.666,0.3141 -2.5323,0.3594 0.002,0 0.006,0 0.01,0 -0.2499,0.0119 -0.5129,0.0226 -0.764,0.0226 h -1.9373 c -1.0555,0 -2.0825,-0.1107 -3.0737,-0.3273 0.3558,8.9393 -3.194,18.1142 -10.1734,23.9654 -0.5355,0.4487 -1.0912,0.8771 -1.666,1.2852 -5.4085,3.8342 -11.5941,5.2932 -18.0201,5.2932 -12.0869,0 -25.01978,-5.1646 -35.19071,-9.3987 -14.84049,-6.1832 -30.05464,-13.1518 -46.24816,-13.1518 -1.87782,0 -3.76873,0.0928 -5.67392,0.2927 -0.57001,0.0595 -1.1424,0.1297 -1.71598,0.2082 -12.66398,1.7386 -25.88964,8.198 -35.39774,17.5049 v 3.8509 c 9.57474,-9.5474 22.89441,-16.1805 35.63931,-17.9726 2.50257,-0.3522 4.98253,-0.5141 7.43869,-0.5141 16.30895,0 31.62663,7.1555 46.57422,13.5125 10.23995,4.3471 23.26329,9.6473 35.43579,9.6473 6.4724,0 12.7033,-1.4982 18.1487,-5.4347 7.3816,-5.336 12.3844,-14.6977 13.0258,-23.8036 0.1475,-2.2074 1.8861,-3.9722 4.0924,-4.1186 1.1221,-0.0809 2.2729,-0.1749 3.1154,-0.2689 0,-0.4177 -0.0119,-0.8271 -0.0298,-1.234" /></g></g><path
         inkscape:connector-curvature="0"
         id="path96"
         style="fill:#a0dfda;fill-opacity:1;fill-rule:nonzero;stroke:none"
         d="M 205.5499,315.8897 V 275.5606 H 111.071 v 40.3291 c 0,19.5136 13.3352,35.9225 31.3875,40.598 3.3665,0.8771 6.9067,1.3423 10.5541,1.3423 h 10.5957 c 3.5177,0 6.927,-0.4319 10.1853,-1.2447 18.2474,-4.5565 31.7563,-21.0511 31.7563,-40.6956" /><path
         inkscape:connector-curvature="0"
         id="path98"
         style="fill:#76c5c3;fill-opacity:1;fill-rule:nonzero;stroke:none"
         d="m 207.6669,263.8891 h -97.4931 c -2.8691,0 -5.1956,2.3264 -5.1956,5.1955 v 1.2852 c 0,2.8691 2.3265,5.1955 5.1956,5.1955 h 97.4931 c 2.8691,0 5.1955,-2.3264 5.1955,-5.1955 v -1.2852 c 0,-2.8691 -2.3264,-5.1955 -5.1955,-5.1955" /><path
         inkscape:connector-curvature="0"
         id="path100"
         style="fill:#729196;fill-opacity:1;fill-rule:nonzero;stroke:none"
         d="m 184.6844,211.8051 h -0.9401 c -2.0956,0 -3.7961,1.6994 -3.7961,3.7961 V 264.02 h 8.5335 v -48.4188 c 0,-2.0967 -1.6993,-3.7961 -3.7973,-3.7961" /><path
         inkscape:connector-curvature="0"
         id="path102"
         style="fill:#729196;fill-opacity:1;fill-rule:nonzero;stroke:none"
         d="m 132.2661,211.8051 h -0.9389 c -2.098,0 -3.7973,1.6994 -3.7973,3.7961 V 264.02 h 8.5335 v -48.4188 c 0,-2.0967 -1.7005,-3.7961 -3.7973,-3.7961" /><path
         inkscape:connector-curvature="0"
         id="path104"
         style="fill:#889fa2;fill-opacity:1;fill-rule:nonzero;stroke:none"
         d="m 158.7174,236.4905 h -1.81 c -2.3002,0 -4.165,1.8647 -4.165,4.165 V 264.02 h 10.14 v -23.3645 c 0,-2.3003 -1.8647,-4.165 -4.165,-4.165" /><path
         inkscape:connector-curvature="0"
         id="path106"
         style="fill:#d7dbd9;fill-opacity:1;fill-rule:nonzero;stroke:none"
         d="m 179.9482,215.6405 c -0.002,0.0512 -0.004,0.1035 -0.004,0.1547 v 48.0939 h 0.004 v -48.2486 m 8.5335,0.0857 v 4.0746 c 0,0.0249 0,0.0499 0,0.0749 v -4.0805 c 0,-0.0226 0,-0.0452 0,-0.069" /><path
         inkscape:connector-curvature="0"
         id="path108"
         style="fill:#65afb2;fill-opacity:1;fill-rule:nonzero;stroke:none"
         d="m 179.9447,263.8891 h 0.004 v 0.005 h -0.004 z" /><path
         inkscape:connector-curvature="0"
         id="path110"
         style="fill:#648188;fill-opacity:1;fill-rule:nonzero;stroke:none"
         d="m 184.4928,211.8063 h -0.5581 c -2.1479,0 -3.9044,1.7065 -3.9865,3.8342 v 48.2533 h 1.7303 v -44.0181 c 0,-2.1991 1.5149,-3.9889 3.3962,-3.9889 1.8588,0 3.3725,1.7482 3.407,3.914 v -4.0746 c -0.0369,-2.1682 -1.8112,-3.9199 -3.9889,-3.9199" /><path
         inkscape:connector-curvature="0"
         id="path112"
         style="fill:#d7dbd9;fill-opacity:1;fill-rule:nonzero;stroke:none"
         d="m 127.5299,215.6441 c -0.001,0.05 -0.002,0.1011 -0.002,0.1511 v 48.0939 h 0.002 v -48.245 m 8.5335,0.0821 v 4.0746 c 0,0.0249 0.001,0.0499 0.001,0.0749 v -4.0805 c 0,-0.0226 -0.001,-0.0452 -0.001,-0.069" /><path
         inkscape:connector-curvature="0"
         id="path114"
         style="fill:#65afb2;fill-opacity:1;fill-rule:nonzero;stroke:none"
         d="m 127.5275,263.8891 h 0.002 v 0.005 h -0.002 z" /><path
         inkscape:connector-curvature="0"
         id="path116"
         style="fill:#648188;fill-opacity:1;fill-rule:nonzero;stroke:none"
         d="m 132.0745,211.8063 h -0.5581 c -2.1491,0 -3.9068,1.7077 -3.9865,3.8378 v 48.2497 h 1.7184 v -44.0181 c 0,-2.1991 1.5267,-3.9889 3.4081,-3.9889 1.8588,0 3.3725,1.7493 3.407,3.914 v -4.0746 c -0.0369,-2.1682 -1.8124,-3.9199 -3.9889,-3.9199" /><path
         inkscape:connector-curvature="0"
         id="path118"
         style="fill:#d7dbd9;fill-opacity:1;fill-rule:nonzero;stroke:none"
         d="m 158.8936,236.4941 h -0.006 c 2.2217,0.0892 3.9948,1.9171 3.9948,4.1614 v 2.2824 c 0,0.0322 0.001,0.0655 0.001,0.0976 l -0.001,-2.5561 c 0,-2.211 -1.7885,-3.9853 -3.9888,-3.9853 m -2.1575,0 h -0.008 c -2.1992,0 -3.9889,1.7778 -3.9889,3.9889 v 23.4061 h 0.004 v -23.2336 c 0,-2.2443 1.7731,-4.0722 3.9937,-4.1614" /><path
         inkscape:connector-curvature="0"
         id="path120"
         style="fill:#65afb2;fill-opacity:1;fill-rule:nonzero;stroke:none"
         d="m 152.7389,263.8891 h 0.004 v 0.005 h -0.004 z" /><path
         inkscape:connector-curvature="0"
         id="path122"
         style="fill:#768e95;fill-opacity:1;fill-rule:nonzero;stroke:none"
         d="m 158.8876,236.4941 h -2.1515 c -2.2206,0.0892 -3.9937,1.9171 -3.9937,4.1614 v 23.2383 h 1.478 v -20.8583 c 0,-2.2003 1.7779,-3.9877 3.9889,-3.9877 h 0.6843 c 2.1669,0 3.9365,1.735 3.9888,3.8901 v -2.2824 c 0,-2.2443 -1.7731,-4.0722 -3.9948,-4.1614" /><path
         inkscape:connector-curvature="0"
         id="path124"
         style="fill:#76c5c3;fill-opacity:1;fill-rule:nonzero;stroke:none"
         d="m 173.7936,358.1549 v -1.5696 c -3.2583,0.8128 -6.6676,1.2447 -10.1853,1.2447 h -10.5957 c -3.6474,0 -7.1876,-0.4652 -10.5541,-1.3423 v 1.6672 c 0,6.808 4.6338,12.5343 10.9218,14.2003 1.2019,0.3237 2.4669,0.4974 3.777,0.4974 h 1.9374 c 1.1364,0 2.23,-0.1297 3.2903,-0.3784 6.5379,-1.4839 11.4086,-7.3376 11.4086,-14.3193" /><path
         inkscape:connector-curvature="0"
         id="path126"
         style="fill:#d1f0f7;fill-opacity:1;fill-rule:nonzero;stroke:none"
         d="m 111.071,275.5653 h -0.002 v 40.3256 c 0,19.5124 13.3351,35.9249 31.3886,40.598 10e-4,0 10e-4,0 10e-4,0 v -10e-4 c -18.0523,-4.6755 -31.3875,-21.0844 -31.3875,-40.598 v -40.3244" /><path
         inkscape:connector-curvature="0"
         id="path128"
         style="fill:#87d7d8;fill-opacity:1;fill-rule:nonzero;stroke:none"
         d="M 205.5451,275.5653 H 111.071 v 40.3244 c 0,19.5136 13.3352,35.9225 31.3875,40.598 3.3665,0.8771 6.9067,1.3423 10.5541,1.3423 h 10.5957 c 2.5526,0 5.048,-0.2272 7.4697,-0.6628 0.9151,-0.1654 1.8195,-0.3617 2.7132,-0.5867 6.0975,-1.5267 11.6703,-4.3768 16.3898,-8.2633 -3.6366,2.712 -7.7742,4.7409 -12.2415,5.9048 -2.8274,0.7401 -5.7905,1.1388 -8.856,1.1388 h -9.2094 c -3.1689,0 -6.2463,-0.4332 -9.1749,-1.2317 -15.6949,-4.2506 -27.2867,-19.1816 -27.2867,-36.928 v -19.3304 c 0,-9.5962 7.4316,-17.3704 16.5946,-17.3704 h 56.431 c 5.0265,0 9.107,4.2745 9.107,9.5402 v -14.4752" /><path
         inkscape:connector-curvature="0"
         id="path130"
         style="fill:#61bfc4;fill-opacity:1;fill-rule:nonzero;stroke:none"
         d="m 205.5451,275.5653 h -94.4764 94.4764" /><path
         inkscape:connector-curvature="0"
         id="path132"
         style="fill:#61bfc4;fill-opacity:1;fill-rule:nonzero;stroke:none"
         d="m 142.4585,356.4877 v 10e-4 c 3.3629,0.8782 6.9079,1.3459 10.5541,1.3459 h 10.5993 c 2.549,0 5.0432,-0.2285 7.4661,-0.6676 -2.4217,0.4356 -4.9171,0.6628 -7.4697,0.6628 h -10.5957 c -3.6474,0 -7.1876,-0.4652 -10.5541,-1.3423" /><path
         inkscape:connector-curvature="0"
         id="path134"
         style="fill:#64aeb3;fill-opacity:1;fill-rule:nonzero;stroke:none"
         d="m 207.0267,263.8938 h -18.545 v 0.1262 h -8.5335 l -0.004,-10e-4 v -0.125 h -17.0623 v 0.1262 h -10.14 v -10e-4 h -0.004 v -0.125 h -16.6755 0.001 v 0.125 h -0.001 v 10e-4 h -8.5335 l -0.002,-10e-4 v -0.125 H 110.817 c -3.2249,0 -5.8358,2.6109 -5.8358,5.8358 0,1.6184 0.6497,3.0773 1.71,4.1257 1.0603,1.0603 2.5193,1.71 4.1258,1.71 h 96.2091 c 3.2249,0 5.8357,-2.6096 5.8357,-5.8357 0,-1.6196 -0.6497,-3.0774 -1.71,-4.1257 -1.0484,-1.0603 -2.5073,-1.7101 -4.1257,-1.7101 M 134.73,274.0497 c -3.1118,0 -4.5482,-1.9147 -4.5482,-4.2745 0,-2.3598 1.4364,-4.2733 4.5482,-4.2733 h 69.4912 c 3.1012,0 4.9136,1.9135 4.9136,4.2733 0,2.3598 -1.8124,4.2745 -4.9136,4.2745 H 134.73" /><path
         inkscape:connector-curvature="0"
         id="path136"
         style="fill:#618389;fill-opacity:1;fill-rule:nonzero;stroke:none"
         d="m 179.9482,264.0188 h 8.53349 v 10e-4 h -8.53349 z" /><path
         inkscape:connector-curvature="0"
         id="path138"
         style="fill:#618389;fill-opacity:1;fill-rule:nonzero;stroke:none"
         d="m 127.5299,264.0188 h 8.53349 v 10e-4 h -8.53349 z" /><path
         inkscape:connector-curvature="0"
         id="path140"
         style="fill:#738f95;fill-opacity:1;fill-rule:nonzero;stroke:none"
         d="m 162.8824,263.8938 h -8.662 v 0.125 h -1.478 v 10e-4 h 10.14 v -0.1262" /><path
         inkscape:connector-curvature="0"
         id="path142"
         style="fill:#569da4;fill-opacity:1;fill-rule:nonzero;stroke:none"
         d="m 188.4817,263.8938 v 0.1262 -0.1262 m -8.537,0.125 h 0.004 v -0.125 h -0.004 z" /><path
         inkscape:connector-curvature="0"
         id="path144"
         style="fill:#56737c;fill-opacity:1;fill-rule:nonzero;stroke:none"
         d="m 188.4817,263.8938 h -8.5335 v 0.1262 l 8.5335,-10e-4 v -0.125" /><path
         inkscape:connector-curvature="0"
         id="path146"
         style="fill:#569da4;fill-opacity:1;fill-rule:nonzero;stroke:none"
         d="m 136.0646,263.8938 h -0.001 v 0.1262 l 0.001,-10e-4 v -0.125 m -8.5371,0.125 h 0.002 v -0.125 h -0.002 z" /><path
         inkscape:connector-curvature="0"
         id="path148"
         style="fill:#56737c;fill-opacity:1;fill-rule:nonzero;stroke:none"
         d="m 136.0634,263.8938 h -8.5335 v 0.1262 l 8.5335,-10e-4 v -0.125" /><path
         inkscape:connector-curvature="0"
         id="path150"
         style="fill:#569da4;fill-opacity:1;fill-rule:nonzero;stroke:none"
         d="m 152.7389,263.8938 h 0.004 v 0.12495 h -0.004 z" /><path
         inkscape:connector-curvature="0"
         id="path152"
         style="fill:#657f87;fill-opacity:1;fill-rule:nonzero;stroke:none"
         d="m 152.7424,263.8938 h 1.47798 v 0.12495 h -1.47798 z" /><path
         inkscape:connector-curvature="0"
         id="path154"
         style="fill:#d3dcdb;fill-opacity:1;fill-rule:nonzero;stroke:none"
         d="m 142.4573,356.4889 v 1.6636 c 0,1.2198 0.1499,2.4038 0.4296,3.5379 -0.2797,-1.1329 -0.4284,-2.3169 -0.4284,-3.5355 v -1.666 c 0,0 0,0 -10e-4,0" /><path
         inkscape:connector-curvature="0"
         id="path156"
         style="fill:#86cec8;fill-opacity:1;fill-rule:nonzero;stroke:none"
         d="m 173.7912,356.5805 v 0 c -0.8937,0.225 -1.7981,0.4213 -2.7132,0.5867 0.9151,-0.1642 1.8195,-0.3582 2.7132,-0.5819 v -0.005" /><path
         inkscape:connector-curvature="0"
         id="path158"
         style="fill:#d3dcdb;fill-opacity:1;fill-rule:nonzero;stroke:none"
         d="m 149.5378,370.7189 c 1.1816,0.7176 2.4716,1.2733 3.8389,1.6363 0.2345,0.0642 0.4713,0.1214 0.7093,0.1737 v -0.002 c -0.238,-0.0511 -0.4725,-0.1082 -0.7057,-0.1713 -1.3697,-0.363 -2.6609,-0.9187 -3.8425,-1.6363" /><path
         inkscape:connector-curvature="0"
         id="path160"
         style="fill:#2e858f;fill-opacity:1;fill-rule:nonzero;stroke:none"
         d="m 154.086,372.5265 v 0.002 h 10e-4 c 0,-0.001 0,-0.001 0,-0.002 h -10e-4" /><path
         inkscape:connector-curvature="0"
         id="path162"
         style="fill:#2d7883;fill-opacity:1;fill-rule:nonzero;stroke:none"
         d="m 154.0872,372.5265 c 0,10e-4 0,10e-4 0,0.002 0.9912,0.2166 2.0182,0.3273 3.0737,0.3273 h 1.9373 c 0.2511,0 0.5141,-0.0107 0.764,-0.0226 -0.004,0 -0.007,0 -0.01,0 -0.2511,0.0131 -0.5034,0.019 -0.758,0.019 h -1.9374 c -1.0555,0 -2.0825,-0.113 -3.0701,-0.3261" /><path
         inkscape:connector-curvature="0"
         id="path164"
         style="fill:#64aeb3;fill-opacity:1;fill-rule:nonzero;stroke:none"
         d="m 142.4585,356.4889 v 1.666 c 0,1.2186 0.1487,2.4026 0.4284,3.5355 0.9448,3.814 3.3808,7.0424 6.6509,9.0285 1.1816,0.7176 2.4728,1.2733 3.8425,1.6363 0.2332,0.0631 0.4677,0.1202 0.7057,0.1713 h 10e-4 c 0.9876,0.2131 2.0146,0.3261 3.0701,0.3261 h 1.9374 c 0.2546,0 0.5069,-0.006 0.758,-0.019 -0.7604,-0.0572 -1.5006,-0.1726 -2.2015,-0.3761 -6.8639,-2.0004 -7.998,-6.4474 -8.4918,-9.5497 -0.2404,-1.5078 0.9079,-2.8644 2.418,-2.8644 0.0357,0 0.0702,10e-4 0.1059,0.002 1.5947,0.0667 3.5534,0.1309 5.7013,0.1309 4.8636,0 10.6922,-0.3308 15.4367,-1.7195 0.5807,-0.1702 0.9699,-0.7176 0.9699,-1.3245 v -0.5474 c -0.8937,0.2237 -1.7981,0.4177 -2.7132,0.5819 -2.4229,0.4391 -4.9171,0.6676 -7.4661,0.6676 h -10.5993 c -3.6462,0 -7.1912,-0.4677 -10.5541,-1.3459" /><path
         inkscape:connector-curvature="0"
         id="path166"
         style="fill:#cbedeb;fill-opacity:1;fill-rule:nonzero;stroke:none"
         d="m 194.6566,322.7988 c -1.7397,0 -3.163,1.3947 -3.1939,3.1416 -0.0286,1.6744 -0.8533,16.2197 -20.4085,16.2197 -0.1964,0 -0.3939,-0.002 -0.5938,-0.005 l -5.3205,-0.0774 c -0.0155,-10e-4 -0.031,-10e-4 -0.0464,-10e-4 -1.7458,0 -3.1714,1.4006 -3.1976,3.15 -0.0261,1.7659 1.384,3.2189 3.1488,3.2451 l 5.3216,0.0773 c 0.2381,0.004 0.4749,0.005 0.7105,0.005 26.086,0 26.7631,-21.5759 26.7786,-22.5017 0.0309,-1.7672 -1.3757,-3.2225 -3.1405,-3.2535 h -0.008 c -0.0167,0 -0.0333,0 -0.05,0" /><path
         inkscape:connector-curvature="0"
         id="path168"
         style="fill:#cbedeb;fill-opacity:1;fill-rule:nonzero;stroke:none"
         d="m 194.7459,313.4502 c -1.7707,0 -3.2178,1.3673 -3.2428,3.0785 l -0.004,0.2166 c -0.025,1.7267 1.4077,3.1464 3.1999,3.1737 0.0166,0 0.0345,0 0.0511,0 1.7696,0 3.2154,-1.3685 3.2416,-3.0785 l 0.002,-0.2166 c 0.025,-1.7255 -1.4078,-3.1475 -3.1999,-3.1737 -0.0167,0 -0.0334,0 -0.0488,0" /><path
         inkscape:connector-curvature="0"
         id="path170"
         style="fill:#76c5c3;fill-opacity:1;fill-rule:nonzero;stroke:none"
         d="m 462.4578,621.7411 c -0.7616,0 -1.3685,0.6057 -1.3685,1.3554 0,0.7616 0.6069,1.3697 1.3685,1.3697 h 9.5438 c -0.8449,7.7707 -6.6521,14.0063 -14.0777,15.207 -0.6783,0.1202 -1.3804,0.1916 -2.0825,0.2154 -0.119,0.0107 -0.2261,0.0107 -0.3451,0.0107 h -2.4514 c -1.19,0 -2.3443,-0.1297 -3.4629,-0.3689 -0.7378,-0.1535 -1.4518,-0.3689 -2.1539,-0.6295 -4.0817,-1.4875 -7.4256,-4.5577 -9.3772,-8.4978 h 10.7219 c 0.7497,0 1.3566,-0.6057 1.3566,-1.3673 0,-0.7497 -0.6069,-1.3566 -1.3566,-1.3566 H 436.968 c -0.4879,-1.6315 -0.7616,-3.3558 -0.7616,-5.1539 v -3.8068 h 6.2475 c 0.7497,0 1.3566,-0.6081 1.3566,-1.3566 0,-0.7497 -0.6069,-1.3566 -1.3566,-1.3566 h -6.2475 v -4.2614 h 35.9023 v 9.9972 h -9.6509" /><path
         inkscape:connector-curvature="0"
         id="path172"
         style="fill:#889fa2;fill-opacity:1;fill-rule:nonzero;stroke:none"
         d="m 429.8661,468.3144 h -1.7577 c -2.3014,0 -4.165,1.8647 -4.165,4.165 v 47.3323 h 10.0877 v -47.3323 c 0,-2.3003 -1.8636,-4.165 -4.165,-4.165" /><path
         inkscape:connector-curvature="0"
         id="path174"
         style="fill:#d7dbd9;fill-opacity:1;fill-rule:nonzero;stroke:none"
         d="m 429.8637,468.3144 h -1.7612 c -2.2967,0 -4.165,1.8671 -4.165,4.165 v 44.1597 h 0.006 v -44.1597 c 0,-2.3003 1.8636,-4.165 4.165,-4.165 h 1.7553" /><path
         inkscape:connector-curvature="0"
         id="path176"
         style="fill:#768e95;fill-opacity:1;fill-rule:nonzero;stroke:none"
         d="m 429.8637,468.3144 h -1.7553 c -2.3014,0 -4.165,1.8647 -4.165,4.165 v 44.1597 h 1.7553 v -40.6849 c 0,-2.2967 1.8683,-4.165 4.165,-4.165 2.3086,0 4.165,1.8683 4.165,4.165 v -3.4748 c 0,-2.2979 -1.8564,-4.165 -4.165,-4.165" /><path
         inkscape:connector-curvature="0"
         id="path178"
         style="fill:#889fa2;fill-opacity:1;fill-rule:nonzero;stroke:none"
         d="m 477.4673,468.3144 h -1.76 c -2.3003,0 -4.165,1.8647 -4.165,4.165 v 47.3323 h 10.09 v -47.3323 c 0,-2.3003 -1.8648,-4.165 -4.165,-4.165" /><path
         inkscape:connector-curvature="0"
         id="path180"
         style="fill:#d7dbd9;fill-opacity:1;fill-rule:nonzero;stroke:none"
         d="m 477.4637,468.3144 h -1.76 c -2.2979,0 -4.165,1.8671 -4.165,4.165 v 44.1597 h 0.004 v -44.1597 c 0,-2.3003 1.8647,-4.165 4.165,-4.165 h 1.7564" /><path
         inkscape:connector-curvature="0"
         id="path182"
         style="fill:#768e95;fill-opacity:1;fill-rule:nonzero;stroke:none"
         d="m 477.4637,468.3144 h -1.7564 c -2.3003,0 -4.165,1.8647 -4.165,4.165 v 44.1597 h 1.7564 v -40.6849 c 0,-2.2967 1.8683,-4.165 4.165,-4.165 2.3098,0 4.165,1.8683 4.165,4.165 v -3.4748 c 0,-2.2979 -1.8552,-4.165 -4.165,-4.165" /><path
         inkscape:connector-curvature="0"
         id="path184"
         style="fill:#a0dfda;fill-opacity:1;fill-rule:nonzero;stroke:none"
         d="m 489.3566,516.6403 h -71.5595 c -8.925,0 -19.3732,10.4601 -17.3811,21.4319 l 8.1693,50.6059 c 2.4526,13.5089 11.9821,23.086 22.9682,23.086 h 44.7868 c 11.1634,0 20.7929,-9.8782 23.0682,-23.6619 l 7.3875,-50.3703 c 1.7957,-10.879 -8.6275,-21.0916 -17.4394,-21.0916" /><path
         inkscape:connector-curvature="0"
         id="path186"
         style="fill:#d1f0f7;fill-opacity:1;fill-rule:nonzero;stroke:none"
         d="m 489.3518,516.6391 h -7.7195 v 10e-4 h 7.7243 c 8.3895,0 18.2403,9.257 17.6155,19.5339 0.6295,-10.2757 -9.2248,-19.5351 -17.6203,-19.5351 m -55.3207,10e-4 h 37.5076 v -10e-4 h -37.5076 z m -10.0936,-10e-4 h -6.1404 c -8.925,0 -19.3732,10.4601 -17.3859,21.4331 l 7.3161,45.2902 -7.3113,-45.2902 c -1.9921,-10.9718 8.4561,-21.4319 17.3811,-21.4319 h 6.1404 v -10e-4" /><path
         inkscape:connector-curvature="0"
         id="path188"
         style="fill:#719ba3;fill-opacity:1;fill-rule:nonzero;stroke:none"
         d="m 425.6987,516.6391 h 8.33238 v 10e-4 h -8.33238 z" /><path
         inkscape:connector-curvature="0"
         id="path190"
         style="fill:#b3d6d8;fill-opacity:1;fill-rule:nonzero;stroke:none"
         d="m 423.9375,516.6391 h 0.006 v 10e-4 h -0.006 z" /><path
         inkscape:connector-curvature="0"
         id="path192"
         style="fill:#628a95;fill-opacity:1;fill-rule:nonzero;stroke:none"
         d="m 423.9434,516.6391 h 1.75525 v 10e-4 h -1.75525 z" /><path
         inkscape:connector-curvature="0"
         id="path194"
         style="fill:#719ba3;fill-opacity:1;fill-rule:nonzero;stroke:none"
         d="m 473.2987,516.6391 h 8.33357 v 10e-4 h -8.33357 z" /><path
         inkscape:connector-curvature="0"
         id="path196"
         style="fill:#b3d6d8;fill-opacity:1;fill-rule:nonzero;stroke:none"
         d="m 471.5387,516.6391 h 0.004 v 10e-4 h -0.004 z" /><path
         inkscape:connector-curvature="0"
         id="path198"
         style="fill:#628a95;fill-opacity:1;fill-rule:nonzero;stroke:none"
         d="m 471.5423,516.6391 h 1.75644 v 10e-4 h -1.75644 z" /><path
         inkscape:connector-curvature="0"
         id="path200"
         style="fill:#d1f0f7;fill-opacity:1;fill-rule:nonzero;stroke:none"
         d="m 506.7032,538.3697 -0.169,1.1507 c 0,10e-4 10e-4,10e-4 10e-4,0.002 l 0.1678,-1.1531 m -97.467,53.212 c 3.2047,11.9584 12.1369,20.186 22.3173,20.186 h 4.6529 v -0.004 h -4.6529 c -10.1816,0 -19.1114,-8.2264 -22.3173,-20.1824 m 84.2687,10.8338 c -0.01,0.01 -0.019,0.019 -0.0274,0.0286 -4.3339,5.7869 -10.4625,9.32 -17.1372,9.32 h -4.2316 v 0.004 h 4.2364 c 6.6878,0 12.8163,-3.5462 17.1598,-9.3522" /><path
         inkscape:connector-curvature="0"
         id="path202"
         style="fill:#87d7d8;fill-opacity:1;fill-rule:nonzero;stroke:none"
         d="m 489.3566,516.6403 h -71.5595 c -8.925,0 -19.3732,10.4601 -17.3811,21.4319 l 8.1705,50.6095 c 0.1797,0.9889 0.3963,1.9564 0.6497,2.9 3.2059,11.956 12.1357,20.1824 22.3173,20.1824 h 4.6529 v -0.0202 h 35.9023 v 0.0202 h 4.2316 c 6.6747,0 12.8033,-3.5331 17.1372,-9.32 -3.7211,3.9448 -8.5775,6.2903 -13.8123,6.2903 h -39.9126 c -9.7937,0 -18.2903,-8.2348 -20.4799,-19.8504 l -7.2828,-43.4933 c -1.7731,-9.4248 7.5446,-18.4212 15.4938,-18.4212 h 63.784 c 6.2463,0 13.4089,5.5549 15.2665,12.5509 l 0.169,-1.1507 0.0928,-0.6426 c 0.0869,-0.52 0.144,-1.0377 0.1761,-1.5529 0.6248,-10.2769 -9.226,-19.5339 -17.6155,-19.5339" /><path
         inkscape:connector-curvature="0"
         id="path204"
         style="fill:#66b4b6;fill-opacity:1;fill-rule:nonzero;stroke:none"
         d="m 472.1087,611.7677 h -35.9023 v 4.2376 h 5.0456 c 0.4165,-1.6077 1.8802,-2.7846 3.6176,-2.7846 h 27.2391 v -1.453" /><path
         inkscape:connector-curvature="0"
         id="path206"
         style="fill:#56afb8;fill-opacity:1;fill-rule:nonzero;stroke:none"
         d="m 436.2064,611.7641 h 35.9023 v 0.004 h -35.9023 z" /><path
         inkscape:connector-curvature="0"
         id="path208"
         style="fill:#74d0cf;fill-opacity:1;fill-rule:nonzero;stroke:none"
         d="m 436.2064,611.7439 h 35.9023 v 0.0202 h -35.9023 z" /><path
         inkscape:connector-curvature="0"
         id="path210"
         style="fill:#66b4b6;fill-opacity:1;fill-rule:nonzero;stroke:none"
         d="m 441.1211,618.7185 h -4.9147 v 3.8068 c 0,1.7981 0.2737,3.5224 0.7616,5.1539 h 4.5815 c -0.2737,-2.9631 -0.4284,-8.4014 -0.4284,-8.4014 v -0.5593" /><path
         inkscape:connector-curvature="0"
         id="path212"
         style="fill:#66b4b6;fill-opacity:1;fill-rule:nonzero;stroke:none"
         d="m 442.204,630.4031 h -4.1531 c 1.9516,3.9401 5.2955,7.0103 9.3772,8.4978 0.7021,0.2606 1.4161,0.476 2.1539,0.6295 1.1186,0.2392 2.2729,0.3689 3.4629,0.3689 h 2.2253 c 0.0643,0 0.1285,0 0.1928,0 -0.9639,-0.0131 -1.8933,-0.1214 -2.7989,-0.3201 -0.6307,-0.1309 -1.2495,-0.3225 -1.8564,-0.5355 -3.5224,-1.2852 -6.4022,-3.9389 -8.092,-7.3435 l -0.5117,-1.2971" /><path
         inkscape:connector-curvature="0"
         id="path214"
         style="fill:#31939c;fill-opacity:1;fill-rule:nonzero;stroke:none"
         d="m 594.9762,676.6834 v -12.8163 c -8.4609,-8.2824 -20.23,-14.0301 -31.4993,-15.5771 -16.898,-2.3336 -32.5346,4.9254 -47.7309,11.2574 -13.8635,5.7703 -33.4866,13.4815 -47.3501,3.6533 -7.4851,-5.3074 -11.1741,-14.637 -10.472,-23.5275 -0.6783,0.1202 -1.3804,0.1916 -2.0825,0.2154 -0.1904,0.0107 -0.3808,0.0107 -0.5712,0.0107 h -2.2253 c -1.19,0 -2.3443,-0.1297 -3.4629,-0.3689 -0.3451,5.023 0.4284,10.1638 2.3205,15.0535 10.591,27.3593 41.65,22.9789 63.7245,13.9587 12.8758,-5.2598 26.061,-12.1368 40.2815,-12.3998 14.5299,-0.2725 31.7492,7.8064 39.0677,20.5406" /><path
         inkscape:connector-curvature="0"
         id="path216"
         style="fill:#dadddd;fill-opacity:1;fill-rule:nonzero;stroke:none"
         d="m 457.8596,640.7799 c -0.007,0.1749 -0.0119,0.3499 -0.0154,0.5248 0.002,0 0.005,0 0.008,0 0,-0.1749 0.002,-0.3499 0.007,-0.5248" /><path
         inkscape:connector-curvature="0"
         id="path218"
         style="fill:#2f8690;fill-opacity:1;fill-rule:nonzero;stroke:none"
         d="m 449.582,639.5304 v 0 c -0.0536,0.7854 -0.0797,1.5732 -0.0797,2.3622 0.004,4.2602 0.8032,8.5656 2.4002,12.6913 6.0297,15.5783 18.6985,20.8667 32.5643,20.8667 10.4851,0 21.6545,-3.0238 31.1602,-6.908 12.8758,-5.2598 26.061,-12.1368 40.2815,-12.3998 0.2392,-0.004 0.4784,-0.006 0.7188,-0.006 14.3752,0 31.1506,8.0218 38.3489,20.5465 v -4.1852 c -7.7314,-11.7549 -24.3379,-19.4434 -37.8194,-19.4434 -0.2344,0 -0.4677,0.002 -0.7009,0.007 -14.1253,0.2737 -26.1205,6.5795 -38.913,12.0535 -9.6509,4.1364 -21.0594,7.4696 -31.7016,7.4696 -13.5172,0 -25.798,-5.3752 -31.6778,-21.3081 -0.4998,-1.3209 -0.8425,-3.7509 -1.1876,-5.0956 -0.4653,-1.8802 0.7235,-4.7219 2.6632,-4.7219 0.6997,0 1.4578,-0.0595 2.2051,-0.1547 0.003,-0.1749 0.008,-0.3499 0.0154,-0.5248 0.0107,-0.3713 0.0322,-0.7414 0.0643,-1.1067 -0.6783,0.1202 -1.3804,0.1916 -2.0825,0.2154 -0.1261,0.007 -0.2523,0.01 -0.3784,0.0107 -0.0643,0 -0.1285,0 -0.1928,0 h -2.2253 c -1.19,0 -2.3443,-0.1297 -3.4629,-0.3689" /><path
         inkscape:connector-curvature="0"
         id="path220"
         style="fill:#cceeec;fill-opacity:1;fill-rule:nonzero;stroke:none"
         d="m 491.2975,578.2395 c -1.741,0 -3.1655,1.3946 -3.1952,3.1428 -0.0309,1.6731 -0.8568,16.2196 -20.4121,16.2196 -0.1963,0 -0.3903,-10e-4 -0.5914,-0.005 l -5.3205,-0.0786 c -0.0155,0 -0.0321,0 -0.0476,0 -1.7445,0 -3.1701,1.4007 -3.1963,3.15 -0.0262,1.7659 1.3839,3.2177 3.1499,3.2439 l 5.3205,0.0786 c 0.2368,0.004 0.476,0.006 0.7092,0.006 26.0908,0 26.7643,-21.5771 26.781,-22.5041 0.0297,-1.7648 -1.3769,-3.2225 -3.1416,-3.2523 h -0.008 c -0.0154,-10e-4 -0.0309,-10e-4 -0.0475,-10e-4" /><path
         inkscape:connector-curvature="0"
         id="path222"
         style="fill:#cceeec;fill-opacity:1;fill-rule:nonzero;stroke:none"
         d="m 491.3819,568.892 c -1.7695,0 -3.2153,1.3673 -3.2403,3.0774 l -0.004,0.2177 c -0.025,1.7255 1.4066,3.1464 3.1999,3.1726 0.0167,0 0.0333,10e-4 0.05,10e-4 1.7707,0 3.2177,-1.3686 3.2427,-3.0786 l 0.002,-0.2166 c 0.025,-1.7266 -1.4077,-3.1475 -3.1999,-3.1737 -0.0167,0 -0.0333,0 -0.0512,0" /><path
         inkscape:connector-curvature="0"
         id="path224"
         style="fill:#a0dfda;fill-opacity:1;fill-rule:nonzero;stroke:none"
         d="M 526.9998,217.4053 H 255.4192 c -15.921,0 -28.8265,12.9055 -28.8265,28.8265 v 150.1995 c 0,15.9198 12.9055,28.8265 28.8265,28.8265 h 271.5806 c 15.9199,0 28.8266,-12.9067 28.8266,-28.8265 V 246.2318 c 0,-15.921 -12.9067,-28.8265 -28.8266,-28.8265" /><path
         inkscape:connector-curvature="0"
         id="path226"
         style="fill:#d1f0f7;fill-opacity:1;fill-rule:nonzero;stroke:none"
         d="m 527.0046,217.4053 h -271.5818 271.577 c 2.4181,0 4.7684,0.2987 7.0139,0.8592 -2.2443,-0.5617 -4.5922,-0.8592 -7.0091,-0.8592 m -293.4231,10.0091 c -4.3578,5.0491 -6.9924,11.6239 -6.9924,18.8127 v 150.2006 c 0,15.9222 12.9115,28.8337 28.8337,28.8337 h 271.5818 c 8.0218,0 15.2796,-3.2808 20.5061,-8.5751 -5.2265,5.2919 -12.4855,8.5715 -20.5109,8.5715 H 255.4192 c -15.921,0 -28.8265,-12.9067 -28.8265,-28.8265 V 246.2318 c 0,-7.1923 2.6334,-13.7683 6.9888,-18.8174 m 321.4333,11.9999 c 10e-4,0.001 10e-4,0.001 10e-4,0.001 l -10e-4,-0.001 m 0.002,0.01 c 0.5284,2.1824 0.8092,4.4625 0.8092,6.8079 v 150.1995 c 0,-0.004 0,-0.004 0,-0.004 V 246.2271 c 0,-2.3431 -0.2808,-4.6208 -0.8092,-6.8032" /><path
         inkscape:connector-curvature="0"
         id="path228"
         style="fill:#87d7d8;fill-opacity:1;fill-rule:nonzero;stroke:none"
         d="M 526.9998,217.4053 H 255.4192 c -8.7251,0 -16.5505,3.8806 -21.8377,10.0091 -4.3554,5.0491 -6.9888,11.6251 -6.9888,18.8174 v 150.1995 c 0,15.9198 12.9055,28.8265 28.8265,28.8265 h 271.5806 c 8.0254,0 15.2844,-3.2796 20.5109,-8.5715 5.1408,-5.2075 8.3157,-12.363 8.3157,-20.2586 V 246.2318 c 0,-2.3454 -0.2808,-4.6255 -0.8092,-6.8079 0,-0.002 -10e-4,-0.005 -10e-4,-0.008 0,0 0,0 -10e-4,-0.001 -2.5168,-10.3768 -10.6529,-18.5616 -21.0011,-21.1498 -2.2455,-0.5605 -4.5958,-0.8592 -7.0139,-0.8592 M 279.6155,414.1944 c -15.9222,0 -28.8218,-12.8996 -28.8218,-28.8218 V 257.7451 c 0,-15.9103 12.8996,-28.8206 28.8218,-28.8206 H 513.51 c 15.9222,0 28.8337,12.9103 28.8337,28.8206 v 127.6275 c 0,15.9222 -12.9115,28.8218 -28.8337,28.8218 H 279.6155" /><path
         inkscape:connector-curvature="0"
         id="path230"
         style="fill:#a9e2dd;fill-opacity:1;fill-rule:nonzero;stroke:none"
         d="m 530.3747,371.997 h -0.0107 c -2.1539,0 -3.902,1.7433 -3.908,3.8996 -0.006,2.0671 -0.7652,20.1979 -25.3803,20.1979 h -6.5046 c -2.1586,0 -3.9079,1.7505 -3.9079,3.9091 0,2.1587 1.7493,3.908 3.9079,3.908 h 6.5046 c 32.7464,0 33.1938,-26.8523 33.1962,-27.9947 0.006,-2.1587 -1.7398,-3.914 -3.8972,-3.9199" /><path
         inkscape:connector-curvature="0"
         id="path232"
         style="fill:#a9e2dd;fill-opacity:1;fill-rule:nonzero;stroke:none"
         d="m 530.3033,360.5694 c -2.1908,0 -3.9675,1.71 -3.9675,3.8211 v 0.2642 c 0,2.1111 1.7767,3.8211 3.9675,3.8211 2.1931,0 3.9686,-1.71 3.9686,-3.8211 v -0.2642 c 0,-2.1111 -1.7755,-3.8211 -3.9686,-3.8211" /><path
         inkscape:connector-curvature="0"
         id="path234"
         style="fill:#a9e2dd;fill-opacity:1;fill-rule:nonzero;stroke:none"
         d="m 530.3033,349.8594 c -2.1908,0 -3.9675,1.7101 -3.9675,3.8211 v 0.2642 c 0,2.1111 1.7767,3.8211 3.9675,3.8211 2.1931,0 3.9686,-1.71 3.9686,-3.8211 v -0.2642 c 0,-2.111 -1.7755,-3.8211 -3.9686,-3.8211" /><path
         inkscape:connector-curvature="0"
         id="path236"
         style="fill:#31939c;fill-opacity:1;fill-rule:nonzero;stroke:none"
         d="m 376.5779,320.4997 c 0,-30.5246 -24.7449,-55.2683 -55.2684,-55.2683 -30.5235,0 -55.2672,24.7437 -55.2672,55.2683 0,30.5224 24.7437,55.2672 55.2672,55.2672 30.5235,0 55.2684,-24.7448 55.2684,-55.2672" /><path
         inkscape:connector-curvature="0"
         id="path238"
         style="fill:#93dad4;fill-opacity:1;fill-rule:nonzero;stroke:none"
         d="m 361.5565,282.6209 c 9.3141,9.8924 15.0214,23.218 15.0214,37.8788 0,30.5224 -24.7449,55.2672 -55.2684,55.2672 10e-4,0 10e-4,0 10e-4,0 30.5211,0 55.2707,-24.7401 55.2707,-55.2707 0,-14.6584 -5.7096,-27.9841 -15.0249,-37.8753 m -86.651,7.848 c -5.6073,8.6442 -8.8643,18.9567 -8.8643,30.0273 0,20.6786 11.3549,38.7023 28.1661,48.1795 -16.8124,-9.4772 -28.165,-27.5009 -28.165,-48.176 0,-11.0717 3.2571,-21.3854 8.8632,-30.0308 m 19.3315,78.2235 c 0.002,0.002 0.007,0.005 0.0107,0.006 -0.005,-0.002 -0.007,-0.002 -0.0107,-0.006" /><path
         inkscape:connector-curvature="0"
         id="path240"
         style="fill:#2f8e98;fill-opacity:1;fill-rule:nonzero;stroke:none"
         d="m 321.3107,265.2361 c -19.4494,0 -36.5544,10.0448 -46.4052,25.2328 -5.6061,8.6454 -8.8632,18.9591 -8.8632,30.0308 0,20.6751 11.3526,38.6988 28.165,48.176 0.0107,0.006 0.019,0.0107 0.0297,0.0167 0.004,0.003 0.006,0.003 0.0107,0.006 7.9992,4.5018 17.2312,7.0686 27.063,7.0686 30.5223,0 55.2672,-24.7448 55.2672,-55.2672 0,-14.6608 -5.7073,-27.9864 -15.0214,-37.8788 -10.0805,-10.7029 -24.3831,-17.3848 -40.2458,-17.3848 m 1.785,106.317 c -28.2565,0 -51.1569,-21.6318 -51.1569,-50.5202 0,-28.8992 22.9004,-51.1105 51.1569,-51.1105 28.247,0 51.1593,22.2113 51.1593,51.1105 0,28.8884 -22.9123,50.5202 -51.1593,50.5202" /><path
         inkscape:connector-curvature="0"
         id="path242"
         style="fill:#76c5c3;fill-opacity:1;fill-rule:nonzero;stroke:none"
         d="m 321.3095,273.6566 c -25.8289,0 -46.8408,21.0142 -46.8408,46.8431 0,25.829 21.0119,46.8408 46.8408,46.8408 25.829,0 46.8432,-21.0118 46.8432,-46.8408 0,-25.8289 -21.0142,-46.8431 -46.8432,-46.8431" /><path
         inkscape:connector-curvature="0"
         id="path244"
         style="fill:#2e838f;fill-opacity:1;fill-rule:nonzero;stroke:none"
         d="m 288.4167,287.1797 c -8.6096,8.4978 -13.9503,20.2943 -13.9503,33.3165 0,24.27 18.5413,44.2823 42.2069,46.617 -23.6608,-2.3347 -42.2046,-22.3482 -42.2046,-46.6135 0,-13.0233 5.3408,-24.821 13.948,-33.32 m 71.4631,6.7652 c 5.2146,7.5517 8.2729,16.7028 8.2729,26.5548 0,15.7092 -7.7731,29.637 -19.6755,38.1384 11.9036,-8.5014 19.679,-22.4292 19.679,-38.1419 0,-9.8508 -3.0583,-19.0008 -8.2764,-26.5513 m -11.4145,64.7015 c -0.002,0.002 -0.005,0.003 -0.007,0.006 0.002,-0.002 0.005,-0.004 0.007,-0.006 m -17.299,7.6517 c -3.1785,0.683 -6.476,1.0424 -9.8568,1.0424 10e-4,0 10e-4,0 10e-4,0 3.3796,0 6.6771,-0.3594 9.8556,-1.0424 m -14.4918,0.8151 c 0.003,0 0.006,0 0.01,10e-4 -0.004,-10e-4 -0.006,-10e-4 -0.01,-10e-4" /><path
         inkscape:connector-curvature="0"
         id="path246"
         style="fill:#60afb2;fill-opacity:1;fill-rule:nonzero;stroke:none"
         d="m 321.3107,273.6613 c -12.8068,0 -24.4295,5.1658 -32.894,13.5184 -8.6072,8.499 -13.948,20.2967 -13.948,33.32 0,24.2653 18.5438,44.2788 42.2046,46.6135 h 0.001 c 0.003,0 0.006,0 0.01,10e-4 1.522,0.15 3.0666,0.2261 4.6267,0.2261 3.3796,0 6.6771,-0.3594 9.8556,-1.0424 6.3296,-1.3614 12.1892,-4.0056 17.2919,-7.6458 0.002,-0.002 0.005,-0.004 0.007,-0.006 0.004,-0.002 0.008,-0.006 0.0119,-0.008 11.9024,-8.5014 19.6755,-22.4292 19.6755,-38.1384 0,-9.852 -3.0583,-19.0031 -8.2729,-26.5548 -8.4597,-12.2439 -22.5957,-20.2836 -38.5691,-20.2836 m 1.528,89.8141 c -23.1919,0 -42.0427,-18.7246 -42.0427,-41.7476 0,-23.0229 18.8508,-41.7476 42.0427,-41.7476 23.18,0 42.032,18.7247 42.032,41.7476 0,23.023 -18.852,41.7476 -42.032,41.7476" /><path
         inkscape:connector-curvature="0"
         id="path248"
         style="fill:#4b909c;fill-opacity:1;fill-rule:nonzero;stroke:none"
         d="M 302.0851,299.4117 H 299.31 c -1.4209,0 -2.5728,1.152 -2.5728,2.5728 v 19.71 c 0,1.4209 1.1519,2.574 2.5728,2.574 h 2.7751 c 1.422,0 2.5739,-1.1531 2.5739,-2.574 v -19.71 c 0,-1.4208 -1.1519,-2.5728 -2.5739,-2.5728" /><path
         inkscape:connector-curvature="0"
         id="path250"
         style="fill:#4b909c;fill-opacity:1;fill-rule:nonzero;stroke:none"
         d="m 341.6609,299.4117 h -2.7751 c -1.4208,0 -2.5728,1.152 -2.5728,2.5728 v 19.71 c 0,1.4209 1.152,2.574 2.5728,2.574 h 2.7751 c 1.422,0 2.574,-1.1531 2.574,-2.574 v -19.71 c 0,-1.4208 -1.152,-2.5728 -2.574,-2.5728" /><path
         inkscape:connector-curvature="0"
         id="path252"
         style="fill:#4b909c;fill-opacity:1;fill-rule:nonzero;stroke:none"
         d="m 320.0695,333.9348 c -4.2221,0 -7.6445,3.1488 -7.6445,7.0353 v 5.9583 c 0,1.6506 1.453,2.9893 3.2487,2.9893 h 8.7929 c 1.7945,0 3.2487,-1.3387 3.2487,-2.9893 v -5.9583 c 0,-3.8865 -3.4236,-7.0353 -7.6458,-7.0353" /><path
         inkscape:connector-curvature="0"
         id="path254"
         style="fill:#31939c;fill-opacity:1;fill-rule:nonzero;stroke:none"
         d="m 516.3743,320.4997 c 0,-30.5246 -24.7448,-55.2683 -55.2672,-55.2683 -30.5235,0 -55.2671,24.7437 -55.2671,55.2683 0,30.5224 24.7436,55.2672 55.2671,55.2672 30.5224,0 55.2672,-24.7448 55.2672,-55.2672" /><path
         inkscape:connector-curvature="0"
         id="path256"
         style="fill:#93dad4;fill-opacity:1;fill-rule:nonzero;stroke:none"
         d="m 501.2851,282.5495 c 9.3546,9.8996 15.0892,23.2549 15.0892,37.9502 0,30.5224 -24.7448,55.2672 -55.2672,55.2672 10e-4,0 10e-4,0 10e-4,0 30.52,0 55.2696,-24.7401 55.2696,-55.2707 0,-14.6941 -5.737,-28.0495 -15.0928,-37.9467 m -85.3349,6.0773 c -6.3712,9.0059 -10.1126,19.9991 -10.1126,31.8694 0,21.5247 12.3022,40.172 30.2558,49.2993 -17.9548,-9.1273 -30.2534,-27.7746 -30.2534,-49.2958 0,-11.869 3.7425,-22.867 10.1102,-31.8729 m 20.1455,81.1699 c 0.0119,0.006 0.0238,0.0119 0.0357,0.019 -0.0119,-0.007 -0.0238,-0.0131 -0.0357,-0.019" /><path
         inkscape:connector-curvature="0"
         id="path258"
         style="fill:#2f8e98;fill-opacity:1;fill-rule:nonzero;stroke:none"
         d="m 461.1083,265.2361 c -18.6508,0 -35.149,9.2404 -45.1581,23.3907 -6.3677,9.0059 -10.1102,20.0039 -10.1102,31.8729 0,21.5212 12.2986,40.1685 30.2534,49.2958 0.001,10e-4 0,0 0.002,10e-4 0.0119,0.006 0.0238,0.0119 0.0357,0.019 7.5018,3.8056 15.9901,5.9512 24.9769,5.9512 30.5212,0 55.266,-24.7448 55.266,-55.2672 0,-14.6953 -5.7346,-28.0506 -15.0892,-37.9502 C 491.2079,271.888 476.935,265.2359 461.108,265.2359 m 1.785,106.317 c -28.2565,0 -51.1581,-21.6318 -51.1581,-50.5202 0,-28.8992 22.9016,-51.1105 51.1581,-51.1105 28.2459,0 51.157,22.2113 51.157,51.1105 0,28.8884 -22.9111,50.5202 -51.157,50.5202" /><path
         inkscape:connector-curvature="0"
         id="path260"
         style="fill:#76c5c3;fill-opacity:1;fill-rule:nonzero;stroke:none"
         d="m 461.1071,273.6566 c -25.8289,0 -46.8419,21.0142 -46.8419,46.8431 0,25.829 21.013,46.8408 46.8419,46.8408 25.829,0 46.842,-21.0118 46.842,-46.8408 0,-25.8289 -21.013,-46.8431 -46.842,-46.8431" /><path
         inkscape:connector-curvature="0"
         id="path262"
         style="fill:#2e838f;fill-opacity:1;fill-rule:nonzero;stroke:none"
         d="m 428.2156,287.1786 c -8.6097,8.4966 -13.9528,20.2954 -13.9528,33.3176 0,24.2688 18.5426,44.2799 42.2057,46.617 -23.6584,-2.3371 -42.2033,-22.3505 -42.2033,-46.6135 0,-13.0233 5.3419,-24.8234 13.9504,-33.3211 m 71.4618,6.7663 c 5.2146,7.5517 8.2717,16.7028 8.2717,26.5548 0,15.7092 -7.7719,29.637 -19.6743,38.1384 11.9036,-8.5014 19.6779,-22.4292 19.6779,-38.1419 0,-9.8508 -3.0583,-19.0008 -8.2753,-26.5513 m -11.4145,64.7015 c -0.002,0.002 -0.005,0.003 -0.008,0.006 0.004,-0.002 0.006,-0.004 0.008,-0.006 m -17.3002,7.6517 c -3.1785,0.683 -6.476,1.0424 -9.8556,1.0424 10e-4,0 10e-4,0 10e-4,0 3.3796,0 6.6759,-0.3594 9.8544,-1.0424 m -14.4906,0.8151 c 10e-4,0 0.006,0 0.007,10e-4 -0.003,-10e-4 -0.003,-10e-4 -0.007,-10e-4" /><path
         inkscape:connector-curvature="0"
         id="path264"
         style="fill:#60afb2;fill-opacity:1;fill-rule:nonzero;stroke:none"
         d="m 461.1083,273.6613 c -12.8067,0 -24.4283,5.1634 -32.8927,13.5173 -8.6085,8.4977 -13.9504,20.2978 -13.9504,33.3211 0,24.263 18.5449,44.2764 42.2033,46.6135 0.002,0 0.002,0 0.004,0 0.004,0 0.004,0 0.007,10e-4 1.5232,0.15 3.0667,0.2261 4.6291,0.2261 3.3784,0 6.6759,-0.3594 9.8544,-1.0424 6.3308,-1.3614 12.1904,-4.0056 17.2919,-7.6458 0.004,-0.002 0.006,-0.004 0.008,-0.006 0.004,-0.002 0.008,-0.006 0.0119,-0.008 11.9024,-8.5014 19.6743,-22.4292 19.6743,-38.1384 0,-9.852 -3.0571,-19.0031 -8.2717,-26.5548 -8.4609,-12.2439 -22.5969,-20.2836 -38.5691,-20.2836 m 1.5268,89.8141 c -23.1907,0 -42.0427,-18.7246 -42.0427,-41.7476 0,-23.0229 18.852,-41.7476 42.0427,-41.7476 23.18,0 42.0308,18.7247 42.0308,41.7476 0,23.023 -18.8508,41.7476 -42.0308,41.7476" /><path
         inkscape:connector-curvature="0"
         id="path266"
         style="fill:#4b909c;fill-opacity:1;fill-rule:nonzero;stroke:none"
         d="m 441.8827,299.4117 h -2.7751 c -1.422,0 -2.574,1.152 -2.574,2.5728 v 19.71 c 0,1.4209 1.152,2.574 2.574,2.574 h 2.7751 c 1.4209,0 2.574,-1.1531 2.574,-2.574 v -19.71 c 0,-1.4208 -1.1531,-2.5728 -2.574,-2.5728" /><path
         inkscape:connector-curvature="0"
         id="path268"
         style="fill:#4b909c;fill-opacity:1;fill-rule:nonzero;stroke:none"
         d="m 481.4585,299.4117 h -2.7762 c -1.4209,0 -2.574,1.152 -2.574,2.5728 v 19.71 c 0,1.4209 1.1531,2.574 2.574,2.574 h 2.7762 c 1.4209,0 2.574,-1.1531 2.574,-2.574 v -19.71 c 0,-1.4208 -1.1531,-2.5728 -2.574,-2.5728" /><path
         inkscape:connector-curvature="0"
         id="path270"
         style="fill:#4b909c;fill-opacity:1;fill-rule:nonzero;stroke:none"
         d="m 459.866,333.9348 c -4.2221,0 -7.6458,3.1488 -7.6458,7.0353 v 5.9583 c 0,1.6506 1.4554,2.9893 3.2499,2.9893 h 8.7917 c 1.7957,0 3.2511,-1.3387 3.2511,-2.9893 v -5.9583 c 0,-3.8865 -3.4236,-7.0353 -7.6469,-7.0353" /><path
         inkscape:connector-curvature="0"
         id="path272"
         style="fill:#fcd398;fill-opacity:1;fill-rule:nonzero;stroke:none"
         d="m 534.216,464.6195 0.4105,35.8094 h -14.5834 l 35.4786,50.1716 -4.4458,-38.2763 h 12.877 L 534.216,464.6195" /><path
         inkscape:connector-curvature="0"
         id="path274"
         style="fill:#fcd398;fill-opacity:1;fill-rule:nonzero;stroke:none"
         d="m 560.1592,437.5303 0.2594,22.5636 h -9.1904 l 22.3554,31.6135 -2.8013,-24.1189 h 8.1134 l -18.7365,-30.0582" /><path
         inkscape:connector-curvature="0"
         id="path276"
         style="fill:#fcd398;fill-opacity:1;fill-rule:nonzero;stroke:none"
         d="m 504.6909,468.8428 0.213,18.489 h -7.5291 l 18.3165,25.9027 -2.2955,-19.7623 h 6.6473 l -15.3522,-24.6294" /><path
         inkscape:connector-curvature="0"
         id="path278"
         style="fill:#fcd398;fill-opacity:1;fill-rule:nonzero;stroke:none"
         d="M 48.13907,284.1655 24.49972,326.5342 H 34.7361 l -3.5343,33.9948 28.203,-44.5596 H 47.81182 l 0.32725,-31.8039" /><path
         inkscape:connector-curvature="0"
         id="path280"
         style="fill:#fcd398;fill-opacity:1;fill-rule:nonzero;stroke:none"
         d="m 96.31979,248.4857 -36.45327,51.552 H 74.851 l -0.42245,36.7948 30.55325,-49.0161 H 91.75257 l 4.56722,-39.3307" /><path
         inkscape:connector-curvature="0"
         id="path282"
         style="fill:#fcd398;fill-opacity:1;fill-rule:nonzero;stroke:none"
         d="m 49.76818,224.8571 -20.5037,28.9967 h 8.42758 l -0.23681,20.6953 17.18479,-27.5699 h -7.44107 l 2.56921,-22.1221" /></g></g></svg>