<?xml version="1.0" encoding="UTF-8" standalone="no"?>
<!-- Created with Inkscape (http://www.inkscape.org/) -->

<svg
   xmlns:dc="http://purl.org/dc/elements/1.1/"
   xmlns:cc="http://creativecommons.org/ns#"
   xmlns:rdf="http://www.w3.org/1999/02/22-rdf-syntax-ns#"
   xmlns:svg="http://www.w3.org/2000/svg"
   xmlns="http://www.w3.org/2000/svg"
   xmlns:sodipodi="http://sodipodi.sourceforge.net/DTD/sodipodi-0.dtd"
   xmlns:inkscape="http://www.inkscape.org/namespaces/inkscape"
   version="1.1"
   id="svg2"
   xml:space="preserve"
   width="253"
   height="253"
   viewBox="0 0 253 252.99999"
   sodipodi:docname="2-1-4-misi6.svg"
   inkscape:version="0.92.2 5c3e80d, 2017-08-06"><metadata
     id="metadata8"><rdf:RDF><cc:Work
         rdf:about=""><dc:format>image/svg+xml</dc:format><dc:type
           rdf:resource="http://purl.org/dc/dcmitype/StillImage" /><dc:title></dc:title></cc:Work></rdf:RDF></metadata><defs
     id="defs6"><clipPath
       clipPathUnits="userSpaceOnUse"
       id="clipPath20"><path
         d="M 0,719.2419 V 122.7581 h 595 v 596.4838 z"
         id="path18"
         inkscape:connector-curvature="0" /></clipPath><clipPath
       clipPathUnits="userSpaceOnUse"
       id="clipPath26"><path
         d="M 0,0 H 595 V 842 H 0 Z"
         id="path24"
         inkscape:connector-curvature="0" /></clipPath><linearGradient
       x1="0"
       y1="0"
       x2="1"
       y2="0"
       gradientUnits="userSpaceOnUse"
       gradientTransform="matrix(-293.2297,349.4579,349.4579,293.2297,312.6703,385.9885)"
       spreadMethod="pad"
       id="linearGradient32"><stop
         style="stop-opacity:1;stop-color:#ffffff"
         offset="0"
         id="stop28" /><stop
         style="stop-opacity:1;stop-color:#d3d4d3"
         offset="1"
         id="stop30" /></linearGradient><linearGradient
       x1="0"
       y1="0"
       x2="1"
       y2="0"
       gradientUnits="userSpaceOnUse"
       gradientTransform="matrix(293.2297,349.4579,-349.4579,293.2297,282.1427,385.9892)"
       spreadMethod="pad"
       id="linearGradient40"><stop
         style="stop-opacity:1;stop-color:#ffffff"
         offset="0"
         id="stop36" /><stop
         style="stop-opacity:1;stop-color:#d3d4d3"
         offset="1"
         id="stop38" /></linearGradient><linearGradient
       x1="0"
       y1="0"
       x2="1"
       y2="0"
       gradientUnits="userSpaceOnUse"
       gradientTransform="matrix(-293.2289,-349.4564,349.4564,-293.2289,312.9982,457.5154)"
       spreadMethod="pad"
       id="linearGradient48"><stop
         style="stop-opacity:1;stop-color:#ffffff"
         offset="0"
         id="stop44" /><stop
         style="stop-opacity:1;stop-color:#d3d4d3"
         offset="1"
         id="stop46" /></linearGradient><linearGradient
       x1="0"
       y1="0"
       x2="1"
       y2="0"
       gradientUnits="userSpaceOnUse"
       gradientTransform="matrix(293.2297,-349.4579,-349.4579,-293.2297,279.9215,456.3402)"
       spreadMethod="pad"
       id="linearGradient56"><stop
         style="stop-opacity:1;stop-color:#ffffff"
         offset="0"
         id="stop52" /><stop
         style="stop-opacity:1;stop-color:#d3d4d3"
         offset="1"
         id="stop54" /></linearGradient><clipPath
       id="clipPath20-8"
       clipPathUnits="userSpaceOnUse"><path
         inkscape:connector-curvature="0"
         id="path18-0"
         d="m 0,718.5 v -595 h 595 v 595 z" /></clipPath><clipPath
       id="clipPath26-2"
       clipPathUnits="userSpaceOnUse"><path
         inkscape:connector-curvature="0"
         id="path24-4"
         d="m 595,718.5 v -595 H 0.02975 v 595 z" /></clipPath><clipPath
       id="clipPath32"
       clipPathUnits="userSpaceOnUse"><path
         inkscape:connector-curvature="0"
         id="path30"
         d="M 0,0 H 595 V 842 H 0 Z" /></clipPath><clipPath
       id="clipPath42"
       clipPathUnits="userSpaceOnUse"><path
         inkscape:connector-curvature="0"
         id="path40"
         d="m 0,718.5 v -595 h 595 v 595 z" /></clipPath><clipPath
       id="clipPath48"
       clipPathUnits="userSpaceOnUse"><path
         inkscape:connector-curvature="0"
         id="path46"
         d="M 0,0 H 595 V 842 H 0 Z" /></clipPath><clipPath
       id="clipPath1608"
       clipPathUnits="userSpaceOnUse"><path
         inkscape:connector-curvature="0"
         id="path1606"
         d="m 0,718.5 v -595 h 595 v 595 z" /></clipPath><clipPath
       id="clipPath1614"
       clipPathUnits="userSpaceOnUse"><path
         inkscape:connector-curvature="0"
         id="path1612"
         d="m 595,718.5 v -595 H 0.02975 v 595 z" /></clipPath><clipPath
       id="clipPath1620"
       clipPathUnits="userSpaceOnUse"><path
         inkscape:connector-curvature="0"
         id="path1618"
         d="M 0,0 H 595 V 842 H 0 Z" /></clipPath><clipPath
       id="clipPath1632"
       clipPathUnits="userSpaceOnUse"><path
         inkscape:connector-curvature="0"
         id="path1630"
         d="m 0,718.5 v -595 h 595 v 595 z" /></clipPath><clipPath
       id="clipPath1638"
       clipPathUnits="userSpaceOnUse"><path
         inkscape:connector-curvature="0"
         id="path1636"
         d="M 0,0 H 595 V 842 H 0 Z" /></clipPath></defs><sodipodi:namedview
     pagecolor="#ffffff"
     bordercolor="#666666"
     borderopacity="1"
     objecttolerance="10"
     gridtolerance="10"
     guidetolerance="10"
     inkscape:pageopacity="0"
     inkscape:pageshadow="2"
     inkscape:window-width="1366"
     inkscape:window-height="724"
     id="namedview4"
     showgrid="false"
     height="253px"
     inkscape:zoom="1.1891486"
     inkscape:cx="158.28708"
     inkscape:cy="83.818131"
     inkscape:window-x="0"
     inkscape:window-y="0"
     inkscape:window-maximized="1"
     inkscape:current-layer="g10" /><g
     id="g10"
     inkscape:groupmode="layer"
     inkscape:label="16"
     transform="matrix(1.3333333,0,0,-1.3333333,0,252.99995)"><rect
       style="fill:#c8beb7;fill-opacity:1;stroke-width:2.57208514"
       id="rect836"
       width="189.75"
       height="189.75"
       x="0"
       y="-3.7500002e-05" /><path
       inkscape:connector-curvature="0"
       id="path172"
       style="fill:#100f0d;fill-opacity:1;fill-rule:nonzero;stroke:none;stroke-width:0.45149466"
       d="m 82.397758,58.128202 c 0,18.449697 -14.956393,33.405729 -33.405729,33.405729 -18.450058,0 -33.40609,-14.956032 -33.40609,-33.405729 0,-4.007467 0.706454,-7.849506 2.000393,-11.409451 -1.270506,-2.166542 -2.000393,-4.688817 -2.000393,-7.381215 0,-5.830015 3.414248,-10.862149 8.351929,-13.207889 v 26.415417 c -1.313714,-0.623695 -2.517579,-1.43932 -3.579404,-2.407731 -0.390904,1.906617 -0.596876,3.880868 -0.596876,5.903067 0,16.143147 13.086934,29.230081 29.230441,29.230081 16.143147,0 29.230081,-13.086934 29.230081,-29.230081 0,-2.022199 -0.205656,-3.99645 -0.596921,-5.903067 -1.062142,0.968411 -2.26533,1.784036 -3.579044,2.407731 V 26.129647 c 4.937997,2.34574 8.351613,7.377874 8.351613,13.207889 0,2.692398 -0.729886,5.214673 -2.000392,7.381215 1.293622,3.559945 2.000392,7.401984 2.000392,11.409451 z M 65.694894,53.952915 V 24.722112 h 2.087801 c 0.708757,0 1.405503,0.05192 2.087802,0.149083 v 28.93232 c -0.682299,0.09748 -1.379045,0.1494 -2.087802,0.1494 z m -37.581739,-0.1494 V 24.870834 c 0.682344,-0.09712 1.37873,-0.148722 2.087847,-0.148722 h 2.087802 v 29.230803 h -2.087802 c -0.709117,0 -1.405503,-0.05192 -2.087847,-0.1494" /><g
       id="g12"
       transform="rotate(90,110.0981,157.77616)" /><g
       transform="matrix(0.45149466,0,0,0.45149466,46.683367,-184.66798)"
       id="g4576"><path
         inkscape:connector-curvature="0"
         id="path4562"
         style="fill:#100f0d;fill-opacity:1;fill-rule:nonzero;stroke:none"
         d="m 273.2749,536.364 c 0,40.8636 -33.1264,73.9892 -73.9892,73.9892 -40.8644,0 -73.99,-33.1256 -73.99,-73.9892 0,-8.876 1.5647,-17.3856 4.4306,-25.2704 -2.814,-4.7986 -4.4306,-10.3851 -4.4306,-16.3484 0,-12.9127 7.5621,-24.0582 18.4984,-29.2537 v 58.5066 c -2.9097,-1.3814 -5.5761,-3.1879 -7.9279,-5.3328 -0.8658,4.2229 -1.322,8.5956 -1.322,13.0745 0,35.7549 28.9858,64.7407 64.7415,64.7407 35.7549,0 64.7407,-28.9858 64.7407,-64.7407 0,-4.4789 -0.4555,-8.8516 -1.3221,-13.0745 -2.3525,2.1449 -5.0174,3.9514 -7.9271,5.3328 v -58.5066 c 10.937,5.1955 18.4977,16.341 18.4977,29.2537 0,5.9633 -1.6166,11.5498 -4.4306,16.3484 2.8652,7.8848 4.4306,16.3944 4.4306,25.2704 z m -36.9946,-9.2477 V 462.374 h 4.6242 c 1.5698,0 3.113,0.115 4.6242,0.3302 v 64.0812 c -1.5112,0.2159 -3.0544,0.3309 -4.6242,0.3309 z m -83.2385,-0.3309 v -64.082 c 1.5113,-0.2151 3.0537,-0.3294 4.6243,-0.3294 h 4.6242 v 64.7423 h -4.6242 c -1.5706,0 -3.113,-0.115 -4.6243,-0.3309" /><path
         inkscape:connector-curvature="0"
         id="path4564"
         style="fill:#2d807d;fill-opacity:1;fill-rule:nonzero;stroke:none"
         d="m 176.7298,491.3198 v 12.6864 c 0,1.7524 -1.42,3.1716 -3.1723,3.1716 -1.7524,0 -3.1716,-1.4192 -3.1716,-3.1716 v -12.6864 c 0,-1.7531 1.4192,-3.1723 3.1716,-3.1723 1.7523,0 3.1723,1.4192 3.1723,3.1723" /><path
         inkscape:connector-curvature="0"
         id="path4566"
         style="fill:#ce1f4c;fill-opacity:1;fill-rule:nonzero;stroke:none"
         d="m 186.9509,478.1015 v 37.0057 c 0,1.7524 -1.42,3.1724 -3.1723,3.1724 -1.7517,0 -3.1716,-1.42 -3.1716,-3.1724 v -37.0057 c 0,-1.7509 1.4199,-3.1716 3.1716,-3.1716 1.7523,0 3.1723,1.4207 3.1723,3.1716" /><path
         inkscape:connector-curvature="0"
         id="path4568"
         style="fill:#2d807d;fill-opacity:1;fill-rule:nonzero;stroke:none"
         d="m 197.172,483.5655 v 20.4407 c 0,1.7524 -1.42,3.1716 -3.1723,3.1716 -1.7517,0 -3.1716,-1.4192 -3.1716,-3.1716 v -20.4407 c 0,-1.7538 1.4199,-3.1723 3.1716,-3.1723 1.7523,0 3.1723,1.4185 3.1723,3.1723" /><path
         inkscape:connector-curvature="0"
         id="path4570"
         style="fill:#ce1f4c;fill-opacity:1;fill-rule:nonzero;stroke:none"
         d="m 225.0131,500.8339 c -1.7524,0 -3.1723,-1.42 -3.1723,-3.1709 v -17.6252 c 0,-1.7501 1.4199,-3.1716 3.1723,-3.1716 1.7524,0 3.1723,1.4215 3.1723,3.1716 v 17.6252 c 0,1.7509 -1.4199,3.1709 -3.1723,3.1709" /><path
         inkscape:connector-curvature="0"
         id="path4572"
         style="fill:#2d807d;fill-opacity:1;fill-rule:nonzero;stroke:none"
         d="m 214.7935,523.0373 c -1.7516,0 -3.1723,-1.4192 -3.1723,-3.1708 v -48.109 c 0,-1.7516 1.4207,-3.1716 3.1723,-3.1716 1.7524,0 3.1723,1.42 3.1723,3.1716 v 48.109 c 0,1.7516 -1.4214,3.1708 -3.1723,3.1708" /><path
         inkscape:connector-curvature="0"
         id="path4574"
         style="fill:#ce1f4c;fill-opacity:1;fill-rule:nonzero;stroke:none"
         d="m 204.5724,476.8662 c 1.7524,0 3.1716,1.4215 3.1716,3.1716 v 30.5765 c 0,1.7516 -1.4192,3.1723 -3.1716,3.1723 -1.7516,0 -3.1716,-1.4207 -3.1716,-3.1723 v -30.5765 c 0,-1.7501 1.42,-3.1716 3.1716,-3.1716" /></g><g
       id="g4592"
       transform="matrix(0.45149466,0,0,0.45149466,46.683367,-184.66798)"><path
         d="m 273.2749,536.364 c 0,40.8636 -33.1264,73.9892 -73.9892,73.9892 -40.8644,0 -73.99,-33.1256 -73.99,-73.9892 0,-8.876 1.5647,-17.3856 4.4306,-25.2704 -2.814,-4.7986 -4.4306,-10.3851 -4.4306,-16.3484 0,-12.9127 7.5621,-24.0582 18.4984,-29.2537 v 58.5066 c -2.9097,-1.3814 -5.5761,-3.1879 -7.9279,-5.3328 -0.8658,4.2229 -1.322,8.5956 -1.322,13.0745 0,35.7549 28.9858,64.7407 64.7415,64.7407 35.7549,0 64.7407,-28.9858 64.7407,-64.7407 0,-4.4789 -0.4555,-8.8516 -1.3221,-13.0745 -2.3525,2.1449 -5.0174,3.9514 -7.9271,5.3328 v -58.5066 c 10.937,5.1955 18.4977,16.341 18.4977,29.2537 0,5.9633 -1.6166,11.5498 -4.4306,16.3484 2.8652,7.8848 4.4306,16.3944 4.4306,25.2704 z m -36.9946,-9.2477 V 462.374 h 4.6242 c 1.5698,0 3.113,0.115 4.6242,0.3302 v 64.0812 c -1.5112,0.2159 -3.0544,0.3309 -4.6242,0.3309 z m -83.2385,-0.3309 v -64.082 c 1.5113,-0.2151 3.0537,-0.3294 4.6243,-0.3294 h 4.6242 v 64.7423 h -4.6242 c -1.5706,0 -3.113,-0.115 -4.6243,-0.3309"
         style="fill:#100f0d;fill-opacity:1;fill-rule:nonzero;stroke:none"
         id="path4578"
         inkscape:connector-curvature="0" /><path
         d="m 176.7298,491.3198 v 12.6864 c 0,1.7524 -1.42,3.1716 -3.1723,3.1716 -1.7524,0 -3.1716,-1.4192 -3.1716,-3.1716 v -12.6864 c 0,-1.7531 1.4192,-3.1723 3.1716,-3.1723 1.7523,0 3.1723,1.4192 3.1723,3.1723"
         style="fill:#2d807d;fill-opacity:1;fill-rule:nonzero;stroke:none"
         id="path4580"
         inkscape:connector-curvature="0" /><path
         d="m 186.9509,478.1015 v 37.0057 c 0,1.7524 -1.42,3.1724 -3.1723,3.1724 -1.7517,0 -3.1716,-1.42 -3.1716,-3.1724 v -37.0057 c 0,-1.7509 1.4199,-3.1716 3.1716,-3.1716 1.7523,0 3.1723,1.4207 3.1723,3.1716"
         style="fill:#ce1f4c;fill-opacity:1;fill-rule:nonzero;stroke:none"
         id="path4582"
         inkscape:connector-curvature="0" /><path
         d="m 197.172,483.5655 v 20.4407 c 0,1.7524 -1.42,3.1716 -3.1723,3.1716 -1.7517,0 -3.1716,-1.4192 -3.1716,-3.1716 v -20.4407 c 0,-1.7538 1.4199,-3.1723 3.1716,-3.1723 1.7523,0 3.1723,1.4185 3.1723,3.1723"
         style="fill:#2d807d;fill-opacity:1;fill-rule:nonzero;stroke:none"
         id="path4584"
         inkscape:connector-curvature="0" /><path
         d="m 225.0131,500.8339 c -1.7524,0 -3.1723,-1.42 -3.1723,-3.1709 v -17.6252 c 0,-1.7501 1.4199,-3.1716 3.1723,-3.1716 1.7524,0 3.1723,1.4215 3.1723,3.1716 v 17.6252 c 0,1.7509 -1.4199,3.1709 -3.1723,3.1709"
         style="fill:#ce1f4c;fill-opacity:1;fill-rule:nonzero;stroke:none"
         id="path4586"
         inkscape:connector-curvature="0" /><path
         d="m 214.7935,523.0373 c -1.7516,0 -3.1723,-1.4192 -3.1723,-3.1708 v -48.109 c 0,-1.7516 1.4207,-3.1716 3.1723,-3.1716 1.7524,0 3.1723,1.42 3.1723,3.1716 v 48.109 c 0,1.7516 -1.4214,3.1708 -3.1723,3.1708"
         style="fill:#2d807d;fill-opacity:1;fill-rule:nonzero;stroke:none"
         id="path4588"
         inkscape:connector-curvature="0" /><path
         d="m 204.5724,476.8662 c 1.7524,0 3.1716,1.4215 3.1716,3.1716 v 30.5765 c 0,1.7516 -1.4192,3.1723 -3.1716,3.1723 -1.7516,0 -3.1716,-1.4207 -3.1716,-3.1723 v -30.5765 c 0,-1.7501 1.42,-3.1716 3.1716,-3.1716"
         style="fill:#ce1f4c;fill-opacity:1;fill-rule:nonzero;stroke:none"
         id="path4590"
         inkscape:connector-curvature="0" /></g><path
       d="m 170.93482,135.70472 c 0,18.4497 -14.95639,33.40573 -33.40573,33.40573 -18.45006,0 -33.40609,-14.95603 -33.40609,-33.40573 0,-4.00746 0.70646,-7.8495 2.0004,-11.40945 -1.27051,-2.16654 -2.0004,-4.68882 -2.0004,-7.38121 0,-5.83002 3.41425,-10.86215 8.35193,-13.20789 v 26.41541 c -1.31371,-0.62369 -2.51758,-1.43932 -3.5794,-2.40773 -0.39091,1.90662 -0.59688,3.88087 -0.59688,5.90307 0,16.14315 13.08694,29.23008 29.23044,29.23008 16.14315,0 29.23008,-13.08693 29.23008,-29.23008 0,-2.0222 -0.20565,-3.99645 -0.59692,-5.90307 -1.06214,0.96841 -2.26533,1.78404 -3.57904,2.40773 v -26.41541 c 4.938,2.34574 8.35161,7.37787 8.35161,13.20789 0,2.69239 -0.72988,5.21467 -2.00039,7.38121 1.29362,3.55995 2.00039,7.40199 2.00039,11.40945 z m -16.70286,-4.17529 v -29.2308 h 2.0878 c 0.70876,0 1.4055,0.0519 2.0878,0.14909 v 28.93232 c -0.6823,0.0975 -1.37904,0.14939 -2.0878,0.14939 z m -37.58174,-0.14939 v -28.93269 c 0.68234,-0.0971 1.37873,-0.14872 2.08785,-0.14872 h 2.0878 v 29.2308 h -2.0878 c -0.70912,0 -1.40551,-0.0519 -2.08785,-0.14939"
       style="fill:#100f0d;fill-opacity:1;fill-rule:nonzero;stroke:none;stroke-width:0.45149466"
       id="path4594"
       inkscape:connector-curvature="0" /><g
       id="g4624"
       transform="matrix(0.45149466,0,0,0.45149466,-40.59229,-107.09146)"><path
         d="m 273.2749,536.364 c 0,40.8636 -33.1264,73.9892 -73.9892,73.9892 -40.8644,0 -73.99,-33.1256 -73.99,-73.9892 0,-8.876 1.5647,-17.3856 4.4306,-25.2704 -2.814,-4.7986 -4.4306,-10.3851 -4.4306,-16.3484 0,-12.9127 7.5621,-24.0582 18.4984,-29.2537 v 58.5066 c -2.9097,-1.3814 -5.5761,-3.1879 -7.9279,-5.3328 -0.8658,4.2229 -1.322,8.5956 -1.322,13.0745 0,35.7549 28.9858,64.7407 64.7415,64.7407 35.7549,0 64.7407,-28.9858 64.7407,-64.7407 0,-4.4789 -0.4555,-8.8516 -1.3221,-13.0745 -2.3525,2.1449 -5.0174,3.9514 -7.9271,5.3328 v -58.5066 c 10.937,5.1955 18.4977,16.341 18.4977,29.2537 0,5.9633 -1.6166,11.5498 -4.4306,16.3484 2.8652,7.8848 4.4306,16.3944 4.4306,25.2704 z m -36.9946,-9.2477 V 462.374 h 4.6242 c 1.5698,0 3.113,0.115 4.6242,0.3302 v 64.0812 c -1.5112,0.2159 -3.0544,0.3309 -4.6242,0.3309 z m -83.2385,-0.3309 v -64.082 c 1.5113,-0.2151 3.0537,-0.3294 4.6243,-0.3294 h 4.6242 v 64.7423 h -4.6242 c -1.5706,0 -3.113,-0.115 -4.6243,-0.3309"
         style="fill:#100f0d;fill-opacity:1;fill-rule:nonzero;stroke:none"
         id="path4610"
         inkscape:connector-curvature="0" /><path
         d="m 176.7298,491.3198 v 12.6864 c 0,1.7524 -1.42,3.1716 -3.1723,3.1716 -1.7524,0 -3.1716,-1.4192 -3.1716,-3.1716 v -12.6864 c 0,-1.7531 1.4192,-3.1723 3.1716,-3.1723 1.7523,0 3.1723,1.4192 3.1723,3.1723"
         style="fill:#2d807d;fill-opacity:1;fill-rule:nonzero;stroke:none"
         id="path4612"
         inkscape:connector-curvature="0" /><path
         d="m 186.9509,478.1015 v 37.0057 c 0,1.7524 -1.42,3.1724 -3.1723,3.1724 -1.7517,0 -3.1716,-1.42 -3.1716,-3.1724 v -37.0057 c 0,-1.7509 1.4199,-3.1716 3.1716,-3.1716 1.7523,0 3.1723,1.4207 3.1723,3.1716"
         style="fill:#ce1f4c;fill-opacity:1;fill-rule:nonzero;stroke:none"
         id="path4614"
         inkscape:connector-curvature="0" /><path
         d="m 197.172,483.5655 v 20.4407 c 0,1.7524 -1.42,3.1716 -3.1723,3.1716 -1.7517,0 -3.1716,-1.4192 -3.1716,-3.1716 v -20.4407 c 0,-1.7538 1.4199,-3.1723 3.1716,-3.1723 1.7523,0 3.1723,1.4185 3.1723,3.1723"
         style="fill:#2d807d;fill-opacity:1;fill-rule:nonzero;stroke:none"
         id="path4616"
         inkscape:connector-curvature="0" /><path
         d="m 225.0131,500.8339 c -1.7524,0 -3.1723,-1.42 -3.1723,-3.1709 v -17.6252 c 0,-1.7501 1.4199,-3.1716 3.1723,-3.1716 1.7524,0 3.1723,1.4215 3.1723,3.1716 v 17.6252 c 0,1.7509 -1.4199,3.1709 -3.1723,3.1709"
         style="fill:#ce1f4c;fill-opacity:1;fill-rule:nonzero;stroke:none"
         id="path4618"
         inkscape:connector-curvature="0" /><path
         d="m 214.7935,523.0373 c -1.7516,0 -3.1723,-1.4192 -3.1723,-3.1708 v -48.109 c 0,-1.7516 1.4207,-3.1716 3.1723,-3.1716 1.7524,0 3.1723,1.42 3.1723,3.1716 v 48.109 c 0,1.7516 -1.4214,3.1708 -3.1723,3.1708"
         style="fill:#2d807d;fill-opacity:1;fill-rule:nonzero;stroke:none"
         id="path4620"
         inkscape:connector-curvature="0" /><path
         d="m 204.5724,476.8662 c 1.7524,0 3.1716,1.4215 3.1716,3.1716 v 30.5765 c 0,1.7516 -1.4192,3.1723 -3.1716,3.1723 -1.7516,0 -3.1716,-1.4207 -3.1716,-3.1723 v -30.5765 c 0,-1.7501 1.42,-3.1716 3.1716,-3.1716"
         style="fill:#ce1f4c;fill-opacity:1;fill-rule:nonzero;stroke:none"
         id="path4622"
         inkscape:connector-curvature="0" /></g></g></svg>