<?xml version="1.0" encoding="UTF-8" standalone="no"?>
<!-- Created with Inkscape (http://www.inkscape.org/) -->

<svg
   xmlns:dc="http://purl.org/dc/elements/1.1/"
   xmlns:cc="http://creativecommons.org/ns#"
   xmlns:rdf="http://www.w3.org/1999/02/22-rdf-syntax-ns#"
   xmlns:svg="http://www.w3.org/2000/svg"
   xmlns="http://www.w3.org/2000/svg"
   xmlns:sodipodi="http://sodipodi.sourceforge.net/DTD/sodipodi-0.dtd"
   xmlns:inkscape="http://www.inkscape.org/namespaces/inkscape"
   version="1.1"
   id="svg2"
   xml:space="preserve"
   width="253"
   height="253"
   viewBox="0 0 253 252.99999"
   sodipodi:docname="2-1.svg"
   inkscape:version="0.92.2 5c3e80d, 2017-08-06"><metadata
     id="metadata8"><rdf:RDF><cc:Work
         rdf:about=""><dc:format>image/svg+xml</dc:format><dc:type
           rdf:resource="http://purl.org/dc/dcmitype/StillImage" /><dc:title></dc:title></cc:Work></rdf:RDF></metadata><defs
     id="defs6"><clipPath
       clipPathUnits="userSpaceOnUse"
       id="clipPath20"><path
         d="M 0.0714,123.5 H 595 v 595 H 0.0714 Z"
         id="path18"
         inkscape:connector-curvature="0" /></clipPath><clipPath
       clipPathUnits="userSpaceOnUse"
       id="clipPath30"><path
         d="m 0,123.5 h 595 v 595 H 0 Z"
         id="path28"
         inkscape:connector-curvature="0" /></clipPath></defs><sodipodi:namedview
     pagecolor="#ffffff"
     bordercolor="#666666"
     borderopacity="1"
     objecttolerance="10"
     gridtolerance="10"
     guidetolerance="10"
     inkscape:pageopacity="0"
     inkscape:pageshadow="2"
     inkscape:window-width="1366"
     inkscape:window-height="724"
     id="namedview4"
     showgrid="false"
     inkscape:zoom="1.6817101"
     inkscape:cx="179.45457"
     inkscape:cy="136.18138"
     inkscape:window-x="0"
     inkscape:window-y="0"
     inkscape:window-maximized="1"
     inkscape:current-layer="g10" /><g
     id="g10"
     inkscape:groupmode="layer"
     inkscape:label="339470-PAMQOP-438"
     transform="matrix(1.3333333,0,0,-1.3333333,0,252.99995)"><g
       id="g12" /><g
       clip-path="url(#clipPath20)"
       id="g16"
       transform="matrix(0.31894584,0,0,0.31890757,-0.02277273,-39.385125)"><path
         inkscape:connector-curvature="0"
         id="path22"
         style="fill:#6dc95d;fill-opacity:1;fill-rule:nonzero;stroke:none"
         d="M 0.0714,123.5 H 595 v 595 H 0.0714 Z" /></g><path
       d="m 164.72277,33.285523 c 0,1.212869 -31.26696,2.196157 -69.836383,2.196157 -38.569801,0 -69.836381,-0.983288 -69.836381,-2.196157 0,-1.212487 31.26658,-2.196157 69.836381,-2.196157 38.569423,0 69.836383,0.98367 69.836383,2.196157"
       style="fill:#57b953;fill-opacity:1;fill-rule:nonzero;stroke:none;stroke-width:0.31892669"
       id="path32"
       inkscape:connector-curvature="0" /><path
       d="m 155.35179,23.056116 c 0,1.212869 -27.07145,2.196157 -60.465403,2.196157 -33.393948,0 -60.465401,-0.983288 -60.465401,-2.196157 0,-1.212901 27.071453,-2.196189 60.465401,-2.196189 33.393953,0 60.465403,0.983288 60.465403,2.196189"
       style="fill:#57b953;fill-opacity:1;fill-rule:nonzero;stroke:none;stroke-width:0.31892669"
       id="path34"
       inkscape:connector-curvature="0" /><path
       d="M 111.9534,27.033659 H 61.848478 v -3.906203 h 56.361752 l -1.35042,1.614374 c -1.21608,1.452369 -3.01248,2.291829 -4.90641,2.291829"
       style="fill:#ffffff;fill-opacity:1;fill-rule:nonzero;stroke:none;stroke-width:0.31892669"
       id="path36"
       inkscape:connector-curvature="0" /><path
       d="M 65.23782,27.033659 H 51.046229 c -0.462663,0 -0.837296,-0.374972 -0.837296,-0.837196 V 23.96462 c 0,-0.462225 0.374633,-0.837164 0.837296,-0.837164 h 20.448383 l -1.350799,1.614374 c -1.215694,1.452369 -3.012061,2.291829 -4.905993,2.291829"
       style="fill:#c4ecf2;fill-opacity:1;fill-rule:nonzero;stroke:none;stroke-width:0.31892669"
       id="path38"
       inkscape:connector-curvature="0" /><path
       d="m 59.675947,28.62791 h -3.228785 c -0.429269,0 -0.777303,-0.347992 -0.777303,-0.77721 V 27.033659 H 60.45325 V 27.8507 c 0,0.429218 -0.348034,0.77721 -0.777303,0.77721"
       style="fill:#283555;fill-opacity:1;fill-rule:nonzero;stroke:none;stroke-width:0.31892669"
       id="path40"
       inkscape:connector-curvature="0" /><path
       d="m 66.53207,28.62791 h -3.228433 c -0.429269,0 -0.777303,-0.347992 -0.777303,-0.77721 v -0.817041 h 4.783039 V 27.8507 c 0,0.429218 -0.347683,0.77721 -0.777303,0.77721"
       style="fill:#283555;fill-opacity:1;fill-rule:nonzero;stroke:none;stroke-width:0.31892669"
       id="path42"
       inkscape:connector-curvature="0" /><path
       d="m 73.388545,28.62791 h -3.228402 c -0.429652,0 -0.777335,-0.347992 -0.777335,-0.77721 v -0.817041 h 4.78304 V 27.8507 c 0,0.429218 -0.348034,0.77721 -0.777303,0.77721"
       style="fill:#283555;fill-opacity:1;fill-rule:nonzero;stroke:none;stroke-width:0.31892669"
       id="path44"
       inkscape:connector-curvature="0" /><path
       d="m 80.245051,28.62791 h -3.228816 c -0.429269,0 -0.777303,-0.347992 -0.777303,-0.77721 v -0.817041 h 4.783422 V 27.8507 c 0,0.429218 -0.348066,0.77721 -0.777303,0.77721"
       style="fill:#283555;fill-opacity:1;fill-rule:nonzero;stroke:none;stroke-width:0.31892669"
       id="path46"
       inkscape:connector-curvature="0" /><path
       d="m 93.957649,28.62791 h -3.228816 c -0.428887,0 -0.77692,-0.347992 -0.77692,-0.77721 v -0.817041 h 4.783039 V 27.8507 c 0,0.429218 -0.348034,0.77721 -0.777303,0.77721"
       style="fill:#283555;fill-opacity:1;fill-rule:nonzero;stroke:none;stroke-width:0.31892669"
       id="path48"
       inkscape:connector-curvature="0" /><path
       d="m 100.81412,28.62791 h -3.228781 c -0.429269,0 -0.777303,-0.347992 -0.777303,-0.77721 v -0.817041 h 4.783394 V 27.8507 c 0,0.429218 -0.34804,0.77721 -0.77731,0.77721"
       style="fill:#283555;fill-opacity:1;fill-rule:nonzero;stroke:none;stroke-width:0.31892669"
       id="path50"
       inkscape:connector-curvature="0" /><path
       d="m 107.67063,28.62791 h -3.22882 c -0.42923,0 -0.7773,-0.347992 -0.7773,-0.77721 v -0.817041 h 4.78304 V 27.8507 c 0,0.429218 -0.34803,0.77721 -0.77692,0.77721"
       style="fill:#283555;fill-opacity:1;fill-rule:nonzero;stroke:none;stroke-width:0.31892669"
       id="path52"
       inkscape:connector-curvature="0" /><path
       d="m 60.712489,28.62791 h -3.228785 c -0.429269,0 -0.777334,-0.347992 -0.777334,-0.77721 v -0.817041 h 4.783422 V 27.8507 c 0,0.429218 -0.348034,0.77721 -0.777303,0.77721"
       style="fill:#3c519f;fill-opacity:1;fill-rule:nonzero;stroke:none;stroke-width:0.31892669"
       id="path54"
       inkscape:connector-curvature="0" /><path
       d="m 67.568612,28.62791 h -3.228433 c -0.429269,0 -0.777303,-0.347992 -0.777303,-0.77721 v -0.817041 h 4.783422 V 27.8507 c 0,0.429218 -0.348066,0.77721 -0.777686,0.77721"
       style="fill:#3c519f;fill-opacity:1;fill-rule:nonzero;stroke:none;stroke-width:0.31892669"
       id="path56"
       inkscape:connector-curvature="0" /><path
       d="m 74.425087,28.62791 h -3.228785 c -0.429269,0 -0.776952,-0.347992 -0.776952,-0.77721 v -0.817041 h 4.78304 V 27.8507 c 0,0.429218 -0.348034,0.77721 -0.777303,0.77721"
       style="fill:#3c519f;fill-opacity:1;fill-rule:nonzero;stroke:none;stroke-width:0.31892669"
       id="path58"
       inkscape:connector-curvature="0" /><path
       d="M 88.138068,28.62791 H 78.052777 c -0.429269,0 -0.777303,-0.347992 -0.777303,-0.77721 V 27.033659 H 88.91537 V 27.8507 c 0,0.429218 -0.348033,0.77721 -0.777302,0.77721"
       style="fill:#3c519f;fill-opacity:1;fill-rule:nonzero;stroke:none;stroke-width:0.31892669"
       id="path60"
       inkscape:connector-curvature="0" /><path
       d="m 94.994191,28.62791 h -3.228816 c -0.429269,0 -0.777303,-0.347992 -0.777303,-0.77721 v -0.817041 h 4.783422 V 27.8507 c 0,0.429218 -0.348066,0.77721 -0.777303,0.77721"
       style="fill:#3c519f;fill-opacity:1;fill-rule:nonzero;stroke:none;stroke-width:0.31892669"
       id="path62"
       inkscape:connector-curvature="0" /><path
       d="m 101.85067,28.62791 h -3.228789 c -0.429269,0 -0.777303,-0.347992 -0.777303,-0.77721 v -0.817041 h 4.783012 V 27.8507 c 0,0.429218 -0.34804,0.77721 -0.77692,0.77721"
       style="fill:#3c519f;fill-opacity:1;fill-rule:nonzero;stroke:none;stroke-width:0.31892669"
       id="path64"
       inkscape:connector-curvature="0" /><path
       d="m 108.70717,28.62791 h -3.22881 c -0.42962,0 -0.77769,-0.347992 -0.77769,-0.77721 v -0.817041 h 4.7838 V 27.8507 c 0,0.429218 -0.34803,0.77721 -0.7773,0.77721"
       style="fill:#3c519f;fill-opacity:1;fill-rule:nonzero;stroke:none;stroke-width:0.31892669"
       id="path66"
       inkscape:connector-curvature="0" /><path
       d="m 61.971815,145.26383 h -7.522976 c -2.278772,0 -4.126043,-1.84664 -4.126043,-4.12517 v -5.33842 c 0,-1.80642 1.163323,-3.33807 2.78057,-3.89631 l 0.131693,-2.86067 3.706629,2.63182 h 5.030127 c 2.278421,0 4.12566,1.84701 4.12566,4.12516 v 5.33842 c 0,2.27853 -1.847239,4.12517 -4.12566,4.12517"
       style="fill:#c3ebf2;fill-opacity:1;fill-rule:nonzero;stroke:none;stroke-width:0.31892669"
       id="path68"
       inkscape:connector-curvature="0" /><path
       d="m 71.0604,152.83032 h -9.925467 c -3.006001,0 -5.443066,-2.43677 -5.443066,-5.44241 v -7.04279 c 0,-3.00564 2.437065,-5.44241 5.443066,-5.44241 h 6.636338 l 4.889694,-3.47243 0.174209,3.77453 c 2.133046,0.73661 3.667909,2.75705 3.667909,5.14031 v 7.04279 c 0,3.00564 -2.436651,5.44241 -5.442683,5.44241"
       style="fill:#ffffff;fill-opacity:1;fill-rule:nonzero;stroke:none;stroke-width:0.31892669"
       id="path70"
       inkscape:connector-curvature="0" /><g
       id="g72"
       transform="matrix(0.37954555,0,0,0.37950001,0,-4.0105e-5)"><text
         transform="matrix(1,0,0,-1,153.368,370.782)"
         style="font-variant:normal;font-weight:800;font-size:22.73990059px;font-family:Montserrat;-inkscape-font-specification:Montserrat-ExtraBold;writing-mode:lr-tb;fill:#288039;fill-opacity:1;fill-rule:nonzero;stroke:none"
         id="text76"><tspan
           x="0 11.711048 16.691086 24.96841 29.948448"
           y="0"
           sodipodi:role="line"
           id="tspan74">&lt; / &gt;</tspan></text>
</g><path
       d="M 103.91919,36.452849 H 86.730719 l 2.337618,17.186025 h 12.513233 l 2.33762,-17.186025"
       style="fill:#a8e2e8;fill-opacity:1;fill-rule:nonzero;stroke:none;stroke-width:0.31892669"
       id="path78"
       inkscape:connector-curvature="0" /><path
       d="m 74.209511,33.285523 0.310845,0.47817 c 1.090444,1.67739 2.955129,2.689156 4.956099,2.689156 h 29.562425 c 2.07649,0 4.00041,-1.089165 5.06884,-2.869403 l 0.17839,-0.297923 H 74.209511"
       style="fill:#c4ecf2;fill-opacity:1;fill-rule:nonzero;stroke:none;stroke-width:0.31892669"
       id="path80"
       inkscape:connector-curvature="0" /><path
       d="M 146.01876,122.52345 V 56.061583 c 0,-1.339635 -1.0855,-2.421178 -2.4215,-2.421178 H 42.645738 c -1.339796,0 -2.425296,1.081543 -2.425296,2.421178 v 66.461867 c 0,0.0607 0,0.12141 0.0038,0.18213 0.05693,1.83681 1.540955,3.32062 3.377956,3.37755 0.06073,0.004 0.121454,0.004 0.182182,0.004 h 98.74256 c 0.038,0 0.0759,-0.004 0.11387,-0.004 1.837,-0.0569 3.31723,-1.53694 3.37416,-3.37755 0.004,-0.0607 0.004,-0.12144 0.004,-0.18213"
       style="fill:#c4ecf2;fill-opacity:1;fill-rule:nonzero;stroke:none;stroke-width:0.31892669"
       id="path82"
       inkscape:connector-curvature="0" /><path
       d="M 40.222356,122.5238 V 67.174874 H 146.01991 V 122.5238 c 0,1.96696 -1.59485,3.56124 -3.56167,3.56124 H 43.783992 c -1.967194,0 -3.561636,-1.59428 -3.561636,-3.56124"
       style="fill:#212a40;fill-opacity:1;fill-rule:nonzero;stroke:none;stroke-width:0.31892669"
       id="path84"
       inkscape:connector-curvature="0" /><path
       d="M 149.55233,122.63347 V 56.061583 c 0,-1.339635 -1.0855,-2.421178 -2.42529,-2.421178 H 46.175512 c -1.336001,0 -2.421501,1.081543 -2.421501,2.421178 v 66.571887 c 0,0.0455 0,0.0911 0.0038,0.13662 0.09109,1.78745 1.521978,3.22196 3.309638,3.31304 0.04554,0.004 0.09109,0.004 0.136636,0.004 h 98.894385 c 0.0455,0 0.0911,0 0.13663,-0.004 1.79146,-0.0911 3.22235,-1.52176 3.31344,-3.31304 0.004,-0.0455 0.004,-0.0911 0.004,-0.13662"
       style="fill:#ffffff;fill-opacity:1;fill-rule:nonzero;stroke:none;stroke-width:0.31892669"
       id="path86"
       inkscape:connector-curvature="0" /><path
       d="m 100.11047,58.604998 c 0.99514,1.384792 0.679,3.314183 -0.706342,4.309621 -1.384959,0.995024 -3.314964,0.678923 -4.310139,-0.70587 -0.995525,-1.385175 -0.679386,-3.314948 0.705955,-4.310004 1.385341,-0.995023 3.314964,-0.678922 4.310526,0.706253"
       style="fill:#c4ecf2;fill-opacity:1;fill-rule:nonzero;stroke:none;stroke-width:0.31892669"
       id="path88"
       inkscape:connector-curvature="0" /><path
       d="m 77.670967,33.285523 0.310462,0.47817 c 1.090444,1.67739 2.955511,2.689156 4.956482,2.689156 h 29.562039 c 2.0765,0 4.00041,-1.089165 5.06884,-2.869403 l 0.17839,-0.297923 H 77.670967"
       style="fill:#ffffff;fill-opacity:1;fill-rule:nonzero;stroke:none;stroke-width:0.31892669"
       id="path90"
       inkscape:connector-curvature="0" /><path
       d="M 43.752863,122.63424 V 67.174874 H 149.55042 v 55.459366 c 0,1.90585 -1.5451,3.4508 -3.4508,3.4508 H 47.20408 c -1.906084,0 -3.451217,-1.54495 -3.451217,-3.4508"
       style="fill:#283555;fill-opacity:1;fill-rule:nonzero;stroke:none;stroke-width:0.31892669"
       id="path92"
       inkscape:connector-curvature="0" /><path
       d="M 47.237474,120.63769 V 72.147089 c 0,-1.040595 0.843739,-1.884233 1.884459,-1.884233 h 95.772607 c 1.04072,0 1.88446,0.843638 1.88446,1.884233 v 48.490601 c 0,1.04059 -0.84374,1.88423 -1.88446,1.88423 H 49.121933 c -1.04072,0 -1.884459,-0.84364 -1.884459,-1.88423"
       style="fill:#3c519f;fill-opacity:1;fill-rule:nonzero;stroke:none;stroke-width:0.31892669"
       id="path94"
       inkscape:connector-curvature="0" /><path
       d="M 106.19646,36.452849 H 89.007992 l 2.337618,17.186025 h 12.51323 l 2.33762,-17.186025"
       style="fill:#c4ecf2;fill-opacity:1;fill-rule:nonzero;stroke:none;stroke-width:0.31892669"
       id="path96"
       inkscape:connector-curvature="0" /><path
       d="M 146.779,114.47311 H 47.237474 v 6.35433 c 0,0.93586 0.758708,1.69448 1.694686,1.69448 h 96.15216 c 0.93597,0 1.69468,-0.75862 1.69468,-1.69448 v -6.35433"
       style="fill:#ffffff;fill-opacity:1;fill-rule:nonzero;stroke:none;stroke-width:0.31892669"
       id="path98"
       inkscape:connector-curvature="0" /><path
       d="m 133.14305,118.49769 c 0,0.63415 -0.51465,1.14877 -1.14888,1.14877 -0.6346,0 -1.14925,-0.51462 -1.14925,-1.14877 0,-0.63488 0.51465,-1.14912 1.14925,-1.14912 0.63423,0 1.14888,0.51424 1.14888,1.14912"
       style="fill:#f14d26;fill-opacity:1;fill-rule:nonzero;stroke:none;stroke-width:0.31892669"
       id="path100"
       inkscape:connector-curvature="0" /><path
       d="m 137.49494,118.49769 c 0,0.63415 -0.51469,1.14877 -1.14926,1.14877 -0.63423,0 -1.14891,-0.51462 -1.14891,-1.14877 0,-0.63488 0.51468,-1.14912 1.14891,-1.14912 0.63457,0 1.14926,0.51424 1.14926,1.14912"
       style="fill:#34ad47;fill-opacity:1;fill-rule:nonzero;stroke:none;stroke-width:0.31892669"
       id="path102"
       inkscape:connector-curvature="0" /><path
       d="m 141.84679,118.49769 c 0,0.63415 -0.51465,1.14877 -1.14925,1.14877 -0.63461,0 -1.14888,-0.51462 -1.14888,-1.14877 0,-0.63488 0.51427,-1.14912 1.14888,-1.14912 0.6346,0 1.14925,0.51424 1.14925,1.14912"
       style="fill:#f8d727;fill-opacity:1;fill-rule:nonzero;stroke:none;stroke-width:0.31892669"
       id="path104"
       inkscape:connector-curvature="0" /><path
       d="m 54.076502,106.61251 h 5.529599 v 2.02388 h -5.529599 z"
       style="fill:#f14d26;fill-opacity:1;fill-rule:nonzero;stroke:none;stroke-width:0.31892669"
       id="path106"
       inkscape:connector-curvature="0" /><path
       d="m 62.661057,106.61251 h 9.975975 v 2.02388 h -9.975975 z"
       style="fill:#f8d727;fill-opacity:1;fill-rule:nonzero;stroke:none;stroke-width:0.31892669"
       id="path108"
       inkscape:connector-curvature="0" /><path
       d="m 57.874254,102.31128 h 20.720909 v 2.02425 H 57.874254 Z"
       style="fill:#ffffff;fill-opacity:1;fill-rule:nonzero;stroke:none;stroke-width:0.31892669"
       id="path110"
       inkscape:connector-curvature="0" /><path
       d="m 81.650103,102.31128 h 5.529599 v 2.02425 h -5.529599 z"
       style="fill:#64cdee;fill-opacity:1;fill-rule:nonzero;stroke:none;stroke-width:0.31892669"
       id="path112"
       inkscape:connector-curvature="0" /><path
       d="m 57.874254,98.010397 h 20.720909 v 2.023873 H 57.874254 Z"
       style="fill:#ffffff;fill-opacity:1;fill-rule:nonzero;stroke:none;stroke-width:0.31892669"
       id="path114"
       inkscape:connector-curvature="0" /><path
       d="m 81.650103,98.010397 h 5.529599 v 2.023873 h -5.529599 z"
       style="fill:#64cdee;fill-opacity:1;fill-rule:nonzero;stroke:none;stroke-width:0.31892669"
       id="path116"
       inkscape:connector-curvature="0" /><path
       d="m 57.874254,93.709514 h 20.720909 v 2.023874 H 57.874254 Z"
       style="fill:#ffffff;fill-opacity:1;fill-rule:nonzero;stroke:none;stroke-width:0.31892669"
       id="path118"
       inkscape:connector-curvature="0" /><path
       d="m 81.650103,93.709514 h 5.529599 v 2.023874 h -5.529599 z"
       style="fill:#64cdee;fill-opacity:1;fill-rule:nonzero;stroke:none;stroke-width:0.31892669"
       id="path120"
       inkscape:connector-curvature="0" /><path
       d="m 54.076502,89.408248 h 5.529599 v 2.024253 h -5.529599 z"
       style="fill:#f14d26;fill-opacity:1;fill-rule:nonzero;stroke:none;stroke-width:0.31892669"
       id="path122"
       inkscape:connector-curvature="0" /><path
       d="m 62.661057,89.408248 h 9.975975 v 2.024253 h -9.975975 z"
       style="fill:#f8d727;fill-opacity:1;fill-rule:nonzero;stroke:none;stroke-width:0.31892669"
       id="path124"
       inkscape:connector-curvature="0" /><path
       d="m 57.874254,85.107397 h 10.360454 v 2.023874 H 57.874254 Z"
       style="fill:#64cdee;fill-opacity:1;fill-rule:nonzero;stroke:none;stroke-width:0.31892669"
       id="path126"
       inkscape:connector-curvature="0" /><path
       d="m 71.290041,85.107397 h 15.889674 v 2.023874 H 71.290041 Z"
       style="fill:#ffffff;fill-opacity:1;fill-rule:nonzero;stroke:none;stroke-width:0.31892669"
       id="path128"
       inkscape:connector-curvature="0" /><path
       d="m 57.874254,80.806514 h 10.360454 v 2.023874 H 57.874254 Z"
       style="fill:#64cdee;fill-opacity:1;fill-rule:nonzero;stroke:none;stroke-width:0.31892669"
       id="path130"
       inkscape:connector-curvature="0" /><path
       d="m 71.290041,80.806514 h 15.889674 v 2.023874 H 71.290041 Z"
       style="fill:#ffffff;fill-opacity:1;fill-rule:nonzero;stroke:none;stroke-width:0.31892669"
       id="path132"
       inkscape:connector-curvature="0" /><path
       d="m 57.874254,76.50528 h 10.360454 v 2.024253 H 57.874254 Z"
       style="fill:#64cdee;fill-opacity:1;fill-rule:nonzero;stroke:none;stroke-width:0.31892669"
       id="path134"
       inkscape:connector-curvature="0" /><path
       d="m 71.290041,76.50528 h 15.889674 v 2.024253 H 71.290041 Z"
       style="fill:#ffffff;fill-opacity:1;fill-rule:nonzero;stroke:none;stroke-width:0.31892669"
       id="path136"
       inkscape:connector-curvature="0" /><path
       d="m 106.12358,106.61251 h 5.5296 v 2.02388 h -5.5296 z"
       style="fill:#f8d727;fill-opacity:1;fill-rule:nonzero;stroke:none;stroke-width:0.31892669"
       id="path138"
       inkscape:connector-curvature="0" /><path
       d="m 114.70852,106.61251 h 9.97598 v 2.02388 h -9.97598 z"
       style="fill:#34ad47;fill-opacity:1;fill-rule:nonzero;stroke:none;stroke-width:0.31892669"
       id="path140"
       inkscape:connector-curvature="0" /><path
       d="m 109.92172,102.31128 h 4.78683 v 2.02425 h -4.78683 z"
       style="fill:#ffffff;fill-opacity:1;fill-rule:nonzero;stroke:none;stroke-width:0.31892669"
       id="path142"
       inkscape:connector-curvature="0" /><path
       d="m 117.76313,102.31128 h 21.46368 v 2.02425 h -21.46368 z"
       style="fill:#64cdee;fill-opacity:1;fill-rule:nonzero;stroke:none;stroke-width:0.31892669"
       id="path144"
       inkscape:connector-curvature="0" /><path
       d="m 109.92172,98.010397 h 4.78683 v 2.023873 h -4.78683 z"
       style="fill:#ffffff;fill-opacity:1;fill-rule:nonzero;stroke:none;stroke-width:0.31892669"
       id="path146"
       inkscape:connector-curvature="0" /><path
       d="m 117.76313,98.010397 h 21.46368 v 2.023873 h -21.46368 z"
       style="fill:#f14d26;fill-opacity:1;fill-rule:nonzero;stroke:none;stroke-width:0.31892669"
       id="path148"
       inkscape:connector-curvature="0" /><path
       d="m 109.92172,93.709514 h 4.78683 v 2.023874 h -4.78683 z"
       style="fill:#ffffff;fill-opacity:1;fill-rule:nonzero;stroke:none;stroke-width:0.31892669"
       id="path150"
       inkscape:connector-curvature="0" /><path
       d="m 117.76313,93.709514 h 21.46368 v 2.023874 h -21.46368 z"
       style="fill:#64cdee;fill-opacity:1;fill-rule:nonzero;stroke:none;stroke-width:0.31892669"
       id="path152"
       inkscape:connector-curvature="0" /><path
       d="m 106.12358,89.408248 h 5.5296 v 2.024253 h -5.5296 z"
       style="fill:#f8d727;fill-opacity:1;fill-rule:nonzero;stroke:none;stroke-width:0.31892669"
       id="path154"
       inkscape:connector-curvature="0" /><path
       d="m 114.70852,89.408248 h 9.97598 v 2.024253 h -9.97598 z"
       style="fill:#34ad47;fill-opacity:1;fill-rule:nonzero;stroke:none;stroke-width:0.31892669"
       id="path156"
       inkscape:connector-curvature="0" /><path
       d="m 109.92172,85.107397 h 17.04577 v 2.023874 h -17.04577 z"
       style="fill:#64cdee;fill-opacity:1;fill-rule:nonzero;stroke:none;stroke-width:0.31892669"
       id="path158"
       inkscape:connector-curvature="0" /><path
       d="m 130.02245,85.107397 h 9.20436 v 2.023874 h -9.20436 z"
       style="fill:#ffffff;fill-opacity:1;fill-rule:nonzero;stroke:none;stroke-width:0.31892669"
       id="path160"
       inkscape:connector-curvature="0" /><path
       d="m 109.92172,80.806514 h 17.04577 v 2.023874 h -17.04577 z"
       style="fill:#34ad47;fill-opacity:1;fill-rule:nonzero;stroke:none;stroke-width:0.31892669"
       id="path162"
       inkscape:connector-curvature="0" /><path
       d="m 130.02245,80.806514 h 9.20436 v 2.023874 h -9.20436 z"
       style="fill:#ffffff;fill-opacity:1;fill-rule:nonzero;stroke:none;stroke-width:0.31892669"
       id="path164"
       inkscape:connector-curvature="0" /><path
       d="m 109.92172,76.50528 h 17.04577 v 2.024253 h -17.04577 z"
       style="fill:#64cdee;fill-opacity:1;fill-rule:nonzero;stroke:none;stroke-width:0.31892669"
       id="path166"
       inkscape:connector-curvature="0" /><path
       d="m 130.02245,76.50528 h 9.20436 v 2.024253 h -9.20436 z"
       style="fill:#ffffff;fill-opacity:1;fill-rule:nonzero;stroke:none;stroke-width:0.31892669"
       id="path168"
       inkscape:connector-curvature="0" /><path
       d="M 96.461884,109.7749 V 73.233958 c 0,-0.105112 0.08503,-0.189718 0.189773,-0.189718 0.105124,0 0.189773,0.08461 0.189773,0.189718 V 109.7749 c 0,0.10473 -0.08465,0.18975 -0.189773,0.18975 -0.104742,0 -0.189773,-0.085 -0.189773,-0.18975"
       style="fill:#212a40;fill-opacity:1;fill-rule:nonzero;stroke:none;stroke-width:0.31892669"
       id="path170"
       inkscape:connector-curvature="0" /><path
       d="m 109.64009,130.73012 c 0.35904,2.33619 1.62825,4.06253 3.13163,4.05609 0.72532,-0.003 1.39293,-0.40909 1.92771,-1.09104 0.65661,2.03523 1.94251,3.41814 3.41703,3.41208 0.77354,-0.003 1.49161,-0.38938 2.09244,-1.04895 0.83841,2.03186 2.2397,3.36237 3.82241,3.35593 2.54598,-0.011 4.59515,-3.47737 4.5777,-7.74295 -0.002,-0.34611 -0.0178,-0.68574 -0.0459,-1.0197 l -18.92299,0.0785"
       style="fill:#ffffff;fill-opacity:1;fill-rule:nonzero;stroke:none;stroke-width:0.31892669"
       id="path172"
       inkscape:connector-curvature="0" /><path
       d="m 123.29575,128.90737 0.0182,4.40071 -5.9566,0.025 -0.0186,-4.40105 -1.56752,0.006 4.52306,-5.49213 4.56858,5.45456 -1.56714,0.006"
       style="fill:#34ad47;fill-opacity:1;fill-rule:nonzero;stroke:none;stroke-width:0.31892669"
       id="path174"
       inkscape:connector-curvature="0" /><path
       d="M 54.067412,36.631565 H 34.585339 c -0.773157,0 -1.400141,0.627323 -1.400141,1.400738 v 23.569629 c 0,0.773415 0.626984,1.400738 1.400141,1.400738 h 19.482073 c 0.773507,0 1.400523,-0.627323 1.400523,-1.400738 V 38.032303 c 0,-0.773415 -0.627016,-1.400738 -1.400523,-1.400738"
       style="fill:#212a40;fill-opacity:1;fill-rule:nonzero;stroke:none;stroke-width:0.31892669"
       id="path176"
       inkscape:connector-curvature="0" /><path
       d="m 38.063475,58.708228 h 2.092435 v 0.862225 h -2.092435 z"
       style="fill:#f14d26;fill-opacity:1;fill-rule:nonzero;stroke:none;stroke-width:0.31892669"
       id="path178"
       inkscape:connector-curvature="0" /><path
       d="m 41.312002,58.708228 h 3.774581 v 0.862225 h -3.774581 z"
       style="fill:#f8d727;fill-opacity:1;fill-rule:nonzero;stroke:none;stroke-width:0.31892669"
       id="path180"
       inkscape:connector-curvature="0" /><path
       d="m 39.500836,56.876009 h 7.840273 v 0.862224 h -7.840273 z"
       style="fill:#ffffff;fill-opacity:1;fill-rule:nonzero;stroke:none;stroke-width:0.31892669"
       id="path182"
       inkscape:connector-curvature="0" /><path
       d="m 48.497182,56.876009 h 2.092435 v 0.862224 h -2.092435 z"
       style="fill:#64cdee;fill-opacity:1;fill-rule:nonzero;stroke:none;stroke-width:0.31892669"
       id="path184"
       inkscape:connector-curvature="0" /><path
       d="m 39.500836,55.043789 h 7.840273 v 0.861845 h -7.840273 z"
       style="fill:#ffffff;fill-opacity:1;fill-rule:nonzero;stroke:none;stroke-width:0.31892669"
       id="path186"
       inkscape:connector-curvature="0" /><path
       d="m 48.497182,55.043789 h 2.092435 v 0.861845 h -2.092435 z"
       style="fill:#64cdee;fill-opacity:1;fill-rule:nonzero;stroke:none;stroke-width:0.31892669"
       id="path188"
       inkscape:connector-curvature="0" /><path
       d="m 39.500836,53.21157 h 7.840273 v 0.861844 h -7.840273 z"
       style="fill:#ffffff;fill-opacity:1;fill-rule:nonzero;stroke:none;stroke-width:0.31892669"
       id="path190"
       inkscape:connector-curvature="0" /><path
       d="m 48.497182,53.21157 h 2.092435 v 0.861844 h -2.092435 z"
       style="fill:#64cdee;fill-opacity:1;fill-rule:nonzero;stroke:none;stroke-width:0.31892669"
       id="path192"
       inkscape:connector-curvature="0" /><path
       d="m 38.063475,51.379318 h 2.092435 v 0.861844 h -2.092435 z"
       style="fill:#f14d26;fill-opacity:1;fill-rule:nonzero;stroke:none;stroke-width:0.31892669"
       id="path194"
       inkscape:connector-curvature="0" /><path
       d="m 41.312002,51.379318 h 3.774581 v 0.861844 h -3.774581 z"
       style="fill:#f8d727;fill-opacity:1;fill-rule:nonzero;stroke:none;stroke-width:0.31892669"
       id="path196"
       inkscape:connector-curvature="0" /><path
       d="m 39.500836,49.547098 h 3.919947 v 0.861845 h -3.919947 z"
       style="fill:#64cdee;fill-opacity:1;fill-rule:nonzero;stroke:none;stroke-width:0.31892669"
       id="path198"
       inkscape:connector-curvature="0" /><path
       d="m 44.576859,49.547098 h 6.012761 v 0.861845 h -6.012761 z"
       style="fill:#ffffff;fill-opacity:1;fill-rule:nonzero;stroke:none;stroke-width:0.31892669"
       id="path200"
       inkscape:connector-curvature="0" /><path
       d="m 39.500836,47.714496 h 3.919947 v 0.862224 h -3.919947 z"
       style="fill:#64cdee;fill-opacity:1;fill-rule:nonzero;stroke:none;stroke-width:0.31892669"
       id="path202"
       inkscape:connector-curvature="0" /><path
       d="M 44.576859,47.714496 H 50.58962 V 48.57672 H 44.576859 Z"
       style="fill:#ffffff;fill-opacity:1;fill-rule:nonzero;stroke:none;stroke-width:0.31892669"
       id="path204"
       inkscape:connector-curvature="0" /><path
       d="m 39.500836,45.882276 h 3.919947 V 46.7445 h -3.919947 z"
       style="fill:#64cdee;fill-opacity:1;fill-rule:nonzero;stroke:none;stroke-width:0.31892669"
       id="path206"
       inkscape:connector-curvature="0" /><path
       d="M 44.576859,45.882276 H 50.58962 V 46.7445 h -6.012761 z"
       style="fill:#ffffff;fill-opacity:1;fill-rule:nonzero;stroke:none;stroke-width:0.31892669"
       id="path208"
       inkscape:connector-curvature="0" /><path
       d="M 57.057465,33.285523 H 31.595269 v 17.769338 l 12.73109,-10.7019 12.731106,10.7019 V 33.285523"
       style="fill:#f8c908;fill-opacity:1;fill-rule:nonzero;stroke:none;stroke-width:0.31892669"
       id="path210"
       inkscape:connector-curvature="0" /><path
       d="M 31.595269,33.285523 44.326359,48.076552 57.057465,33.285523 H 31.595269"
       style="fill:#f8d727;fill-opacity:1;fill-rule:nonzero;stroke:none;stroke-width:0.31892669"
       id="path212"
       inkscape:connector-curvature="0" /><path
       d="m 136.56164,26.953932 c -7.89608,0 -6.23064,-0.759 -7.05311,-3.826476 h 16.36865 c 0.36628,0 0.61525,0.404534 0.41903,0.713842 -1.04639,1.655003 -5.51326,3.112634 -9.73457,3.112634"
       style="fill:#ffffff;fill-opacity:1;fill-rule:nonzero;stroke:none;stroke-width:0.31892669"
       id="path214"
       inkscape:connector-curvature="0" /><path
       d="m 132.01733,26.613147 c -2.52018,0 -3.485,-1.289152 -3.63946,-2.969189 -0.0258,-0.278183 0.20078,-0.516502 0.47973,-0.516502 h 9.53874 c 0,1.925213 -3.60606,3.485691 -6.37901,3.485691"
       style="fill:#c4ecf2;fill-opacity:1;fill-rule:nonzero;stroke:none;stroke-width:0.31892669"
       id="path216"
       inkscape:connector-curvature="0" /><path
       d="m 135.94145,26.897772 c -0.54425,0.185222 -1.09915,0.297541 -1.67115,0.346111 -0.24326,0.02089 -0.24138,-0.358612 6.4e-4,-0.3795 0.5378,-0.04554 1.05931,-0.158625 1.56982,-0.332812 0.23187,-0.07858 0.33058,0.288037 0.10056,0.366201"
       style="fill:#283555;fill-opacity:1;fill-rule:nonzero;stroke:none;stroke-width:0.31892669"
       id="path218"
       inkscape:connector-curvature="0" /><path
       d="m 149.55042,88.790811 c -2.71678,0 -4.91926,2.202249 -4.91926,4.918703 0,2.716455 2.20248,4.918703 4.91926,4.918703 2.71719,0 4.91929,-2.202248 4.91929,-4.918703 0,-2.716454 -2.2021,-4.918703 -4.91929,-4.918703 z m 8.18986,3.252316 v 3.332392 l -2.02221,0.342698 c -0.10478,0.322193 -0.23421,0.633383 -0.38564,0.930892 l 1.18721,1.672478 -2.35621,2.355933 -1.67265,-1.187073 c -0.29796,0.1518 -0.6088,0.28083 -0.93103,0.38556 l -0.34274,2.021583 h -3.3328 l -0.34309,-2.021583 c -0.32184,-0.10473 -0.63307,-0.23376 -0.93103,-0.38556 l -1.67227,1.187073 -2.35621,-2.355933 1.18721,-1.672478 c -0.15143,-0.297509 -0.28048,-0.608699 -0.38563,-0.930892 l -2.02222,-0.342698 v -3.332392 l 2.02222,-0.342699 c 0.10515,-0.322192 0.2342,-0.633382 0.38563,-0.930891 l -1.18721,-1.672479 2.35621,-2.355929 1.67227,1.187069 c 0.29796,-0.151417 0.60919,-0.280798 0.93103,-0.385559 l 0.34309,-2.021587 h 3.3328 l 0.34274,2.021587 c 0.32223,0.104761 0.63307,0.234142 0.93103,0.385559 l 1.67265,-1.187069 2.35621,2.355929 -1.18721,1.672479 c 0.15143,0.297509 0.28086,0.608699 0.38564,0.930891 l 2.02221,0.342699"
       style="fill:#ffffff;fill-opacity:1;fill-rule:nonzero;stroke:none;stroke-width:0.31892669"
       id="path220"
       inkscape:connector-curvature="0" /><path
       d="m 155.7211,102.32643 c -1.38346,0 -2.505,1.12144 -2.505,2.50508 0,1.38329 1.12154,2.50508 2.505,2.50508 1.38381,0 2.50573,-1.12179 2.50573,-2.50508 0,-1.38364 -1.12192,-2.50508 -2.50573,-2.50508 z m 4.17082,1.65653 v 1.69713 l -1.02933,0.17457 c -0.0539,0.16395 -0.11958,0.32258 -0.1966,0.47399 l 0.60459,0.85162 -1.2001,1.19995 -0.85171,-0.60452 c -0.15182,0.0774 -0.31008,0.14306 -0.47443,0.19657 l -0.17421,1.0296 h -1.69733 l -0.17459,-1.0296 c -0.16433,-0.0535 -0.323,-0.11917 -0.47444,-0.19657 l -0.85168,0.60452 -1.19974,-1.19995 0.60424,-0.85162 c -0.0771,-0.15141 -0.14311,-0.31004 -0.19625,-0.47399 l -1.02972,-0.17457 v -1.69713 l 1.02972,-0.17457 c 0.0531,-0.16395 0.11919,-0.32257 0.19625,-0.47399 l -0.60424,-0.85161 1.19974,-1.19999 0.85168,0.60456 c 0.15144,-0.0774 0.31011,-0.14307 0.47444,-0.19658 l 0.17459,-1.02959 h 1.69733 l 0.17421,1.02959 c 0.16435,0.0535 0.32261,0.11918 0.47443,0.19658 l 0.85171,-0.60456 1.2001,1.19999 -0.60459,0.85161 c 0.077,0.15142 0.14269,0.31004 0.1966,0.47399 l 1.02933,0.17457"
       style="fill:#f8d727;fill-opacity:1;fill-rule:nonzero;stroke:none;stroke-width:0.31892669"
       id="path222"
       inkscape:connector-curvature="0" /><path
       d="m 148.00187,97.146636 1.87308,-1.873199 c 0.49908,-0.498676 0.49908,-1.307744 0,-1.806803 -0.49912,-0.498676 -1.30755,-0.498676 -1.80702,0 l -1.90229,1.902443 c -0.69798,-1.418182 -0.46037,-3.179444 0.71925,-4.359339 1.07297,-1.072837 2.62761,-1.364669 3.96702,-0.884585 l 4.96672,-4.966157 c 0.62548,-0.625409 1.65329,-0.688776 2.29778,-0.08234 0.66647,0.627706 0.67824,1.677008 0.0357,2.319511 l -5.01456,5.014311 c 0.48014,1.339284 0.18827,2.893704 -0.88473,3.966541 -1.15002,1.149502 -2.85227,1.403384 -4.25091,0.769619"
       style="fill:#34ad47;fill-opacity:1;fill-rule:nonzero;stroke:none;stroke-width:0.31892669"
       id="path224"
       inkscape:connector-curvature="0" /><path
       d="m 156.54509,86.717976 v 0 c -0.22013,-0.22011 -0.57691,-0.22011 -0.79704,0 l -3.19466,3.194274 c -0.22052,0.22011 -0.22052,0.57684 0,0.79695 0.22014,0.220493 0.57691,0.220493 0.79705,0 l 3.19465,-3.194625 c 0.22014,-0.220142 0.22014,-0.57684 0,-0.796599"
       style="fill:#288039;fill-opacity:1;fill-rule:nonzero;stroke:none;stroke-width:0.31892669"
       id="path226"
       inkscape:connector-curvature="0" /><path
       d="m 138.93644,53.640405 h -2.64163 l -0.51998,2.83866 h -8.65743 l 0.51618,-2.83866 h -2.64164 l -0.51618,2.83866 -0.48582,2.641288 -1.46884,8.05299 -3.2e-4,0.0016 h 13.9445 l 3.2e-4,-0.0016 2.47084,-13.532938 m -13.39416,11.476048 1.09309,-5.9961 h 8.65744 l -1.09309,5.9961 h -8.65744"
       style="fill:#ebedee;fill-opacity:1;fill-rule:nonzero;stroke:none;stroke-width:0.31892669"
       id="path228"
       inkscape:connector-curvature="0" /><path
       d="m 136.46522,67.174874 h -13.9445 l -0.10589,0.582931 -0.45925,2.504668 v 3.19e-4 h 2.64543 v -3.19e-4 l 0.45545,-2.504668 h 8.66123 l -0.45925,2.504668 -3.2e-4,3.19e-4 h 2.64164 l 3.2e-4,-3.19e-4 0.56514,-3.087599"
       style="fill:#283453;fill-opacity:1;fill-rule:nonzero;stroke:none;stroke-width:0.31892669"
       id="path230"
       inkscape:connector-curvature="0" /><path
       d="m 135.8997,70.262856 h -2.64164 l -0.62207,3.411322 h 2.64163 l 0.62208,-3.411322 m -11.29869,0 h -2.64543 l -0.62246,3.411322 h 2.64543 l 0.62246,-3.411322"
       style="fill:#394d95;fill-opacity:1;fill-rule:nonzero;stroke:none;stroke-width:0.31892669"
       id="path232"
       inkscape:connector-curvature="0" /><path
       d="m 142.04339,33.285523 h 2.64355 l -7.37533,40.390569 h -2.64352 l 7.3753,-40.390569"
       style="fill:#f8d727;fill-opacity:1;fill-rule:nonzero;stroke:none;stroke-width:0.31892669"
       id="path234"
       inkscape:connector-curvature="0" /><path
       d="m 130.74167,33.285523 h 2.64355 l -7.37495,40.390569 h -2.64393 l 7.37533,-40.390569"
       style="fill:#f8d727;fill-opacity:1;fill-rule:nonzero;stroke:none;stroke-width:0.31892669"
       id="path236"
       inkscape:connector-curvature="0" /><path
       d="m 143.55931,39.202693 -0.48241,2.643202 h -13.89819 l 0.48241,-2.643202 h 13.89819"
       style="fill:#f8d727;fill-opacity:1;fill-rule:nonzero;stroke:none;stroke-width:0.31892669"
       id="path238"
       inkscape:connector-curvature="0" /><path
       d="m 141.98228,47.840496 -0.48276,2.642819 H 127.6013 l 0.48279,-2.642819 h 13.89819"
       style="fill:#f8d727;fill-opacity:1;fill-rule:nonzero;stroke:none;stroke-width:0.31892669"
       id="path240"
       inkscape:connector-curvature="0" /><path
       d="m 140.40529,56.477917 -0.48279,2.643584 h -13.89858 l 0.48317,-2.643584 h 13.8982"
       style="fill:#f8d727;fill-opacity:1;fill-rule:nonzero;stroke:none;stroke-width:0.31892669"
       id="path242"
       inkscape:connector-curvature="0" /><path
       d="m 138.82752,65.116102 -0.4824,2.643202 h -13.89819 l 0.4824,-2.643202 h 13.89819"
       style="fill:#f8d727;fill-opacity:1;fill-rule:nonzero;stroke:none;stroke-width:0.31892669"
       id="path244"
       inkscape:connector-curvature="0" /><path
       d="m 158.01164,47.104649 h -6.92518 c -1.90382,0 -3.4478,-1.543449 -3.4478,-3.447391 v -6.924344 c 0,-1.903974 1.54398,-3.447391 3.4478,-3.447391 h 6.92518 c 1.9042,0 3.4478,1.543417 3.4478,3.447391 v 6.924344 c 0,1.903942 -1.5436,3.447391 -3.4478,3.447391"
       style="fill:#3c519f;fill-opacity:1;fill-rule:nonzero;stroke:none;stroke-width:0.31892669"
       id="path246"
       inkscape:connector-curvature="0" /><path
       d="m 155.15557,39.454312 h -1.48214 l 0.26948,1.481931 h 1.48214 z m 2.74071,1.481931 c 0.40231,0 0.72907,0.32637 0.72907,0.729023 v 0.02392 c 0,0.402653 -0.32676,0.729023 -0.72907,0.729023 h -0.71964 l 0.18068,0.993142 c 0.0816,0.447427 -0.26265,0.859168 -0.71734,0.859168 -0.35263,0 -0.65473,-0.251968 -0.71772,-0.598462 l -0.22773,-1.253848 h -1.48214 l 0.1803,0.993142 c 0.0816,0.447427 -0.26227,0.859168 -0.71696,0.859168 -0.3526,0 -0.65473,-0.251968 -0.71773,-0.598462 l -0.22811,-1.253848 h -1.52768 c -0.4027,0 -0.72911,-0.32637 -0.72911,-0.729023 v -0.02392 c 0,-0.402653 0.32641,-0.729023 0.72911,-0.729023 h 1.25821 l -0.26948,-1.481931 h -0.98873 c -0.4027,0 -0.72911,-0.32637 -0.72911,-0.729406 v -0.02392 c 0,-0.402653 0.32641,-0.72864 0.72911,-0.72864 h 0.71925 l -0.1803,-0.993525 c -0.0816,-0.447427 0.26227,-0.8592 0.71734,-0.8592 0.35225,0 0.65435,0.252 0.71734,0.598493 l 0.22811,1.254232 h 1.48215 l -0.18069,-0.993525 c -0.0812,-0.447427 0.26266,-0.8592 0.71734,-0.8592 0.3526,0 0.65474,0.252 0.71773,0.598493 l 0.22773,1.254232 h 1.52807 c 0.40231,0 0.72907,0.325987 0.72907,0.72864 v 0.02392 c 0,0.403036 -0.32676,0.729406 -0.72907,0.729406 h -1.2586 l 0.26948,1.481931 h 0.98912"
       style="fill:#ffffff;fill-opacity:1;fill-rule:nonzero;stroke:none;stroke-width:0.31892669"
       id="path248"
       inkscape:connector-curvature="0" /><path
       d="m 148.17761,61.596606 h 2.91833 c 0.75985,-3.19e-4 1.44456,-0.307012 1.94289,-0.804922 0.49797,-0.498676 0.80463,-1.182892 0.80501,-1.943041 v -7.30158 h 0.7591 v 7.30158 c -3.2e-4,1.936981 -1.57017,3.506581 -3.507,3.506963 h -2.91833 v -0.759"
       style="fill:#34ad47;fill-opacity:1;fill-rule:nonzero;stroke:none;stroke-width:0.31892669"
       id="path250"
       inkscape:connector-curvature="0" /><path
       d="m 148.17761,61.976106 h 0.37955 c -3.2e-4,1.013265 -0.82132,1.833751 -1.83436,1.834133 -1.013,-3.19e-4 -1.83432,-0.820868 -1.8347,-1.834133 3.2e-4,-1.013647 0.8217,-1.834133 1.8347,-1.834133 1.01304,0 1.83398,0.820868 1.83436,1.834133 h -0.75909 c -0.001,-0.593933 -0.48164,-1.074367 -1.07527,-1.075133 -0.59397,6.38e-4 -1.07446,0.4812 -1.07561,1.075133 0.001,0.593551 0.48164,1.073985 1.07561,1.075133 0.59363,-0.0013 1.07415,-0.481582 1.07527,-1.075133 h 0.37954"
       style="fill:#34ad47;fill-opacity:1;fill-rule:nonzero;stroke:none;stroke-width:0.31892669"
       id="path252"
       inkscape:connector-curvature="0" /><path
       d="m 155.6782,49.980111 h 0.37954 c -3.2e-4,1.013265 -0.82096,1.834133 -1.83435,1.834133 -1.01339,0 -1.83432,-0.820868 -1.83432,-1.834133 0,-1.013265 0.82093,-1.83375 1.83432,-1.834133 1.01339,3.19e-4 1.83397,0.820868 1.83435,1.834133 h -0.75909 c -0.001,-0.593551 -0.48125,-1.073985 -1.07526,-1.075133 -0.59397,0.0013 -1.07411,0.481582 -1.07523,1.075133 9.6e-4,0.593933 0.48126,1.073985 1.07523,1.075133 0.59401,-0.0013 1.07411,-0.4812 1.07526,-1.075133 h 0.37955"
       style="fill:#34ad47;fill-opacity:1;fill-rule:nonzero;stroke:none;stroke-width:0.31892669"
       id="path254"
       inkscape:connector-curvature="0" /><path
       d="M 71.016002,56.518896 V 40.689951 c 0,-0.760148 -0.306666,-1.444364 -0.804636,-1.94304 -0.498321,-0.497911 -1.183034,-0.80454 -1.942891,-0.804923 h -5.403963 v -0.759 l 5.403963,3.19e-4 c 1.936831,0 3.506618,1.569599 3.506618,3.50658 v 15.828945 h -0.759091"
       style="fill:#34ad47;fill-opacity:1;fill-rule:nonzero;stroke:none;stroke-width:0.31892669"
       id="path256"
       inkscape:connector-curvature="0" /><path
       d="m 71.395548,56.518896 v -0.3795 c 1.013386,0 1.834353,0.821251 1.834736,1.834516 -3.19e-4,1.012882 -0.82135,1.833718 -1.834736,1.834101 -1.013004,-3.19e-4 -1.833971,-0.821219 -1.834321,-1.834101 3.18e-4,-1.013265 0.821317,-1.834516 1.834321,-1.834516 v 0.759 c -0.593208,0.0013 -1.074114,0.481582 -1.075262,1.075516 0.0013,0.593136 0.482054,1.073985 1.075262,1.075101 0.594005,-9.57e-4 1.074497,-0.481965 1.075645,-1.075101 -0.0013,-0.593934 -0.48164,-1.074368 -1.075645,-1.075516 v -0.3795"
       style="fill:#34ad47;fill-opacity:1;fill-rule:nonzero;stroke:none;stroke-width:0.31892669"
       id="path258"
       inkscape:connector-curvature="0" /><path
       d="m 61.297372,36.107855 v -0.379117 c 1.013386,0 1.834321,0.820868 1.834321,1.83375 0,1.013265 -0.820935,1.834133 -1.834321,1.834133 -1.013004,0 -1.833971,-0.820868 -1.834353,-1.834133 3.18e-4,-1.012882 0.821349,-1.83375 1.834353,-1.83375 v 0.758617 c -0.593622,0.0013 -1.074114,0.481614 -1.075262,1.075133 0.0013,0.593933 0.48164,1.074368 1.075262,1.075516 0.593973,-0.0013 1.074496,-0.481583 1.075262,-1.075516 -6.38e-4,-0.593519 -0.481289,-1.073985 -1.075262,-1.075133 v -0.3795"
       style="fill:#34ad47;fill-opacity:1;fill-rule:nonzero;stroke:none;stroke-width:0.31892669"
       id="path260"
       inkscape:connector-curvature="0" /><path
       d="m 82.15643,144.10106 h 7.475899 c 0.759856,-3.2e-4 1.444569,-0.30702 1.94289,-0.80493 0.49797,-0.49829 0.804637,-1.18254 0.804637,-1.94265 v -21.35221 h 0.759091 v 21.35221 c 0,1.93694 -1.569788,3.50619 -3.506618,3.50658 H 82.15643 v -0.759"
       style="fill:#34ad47;fill-opacity:1;fill-rule:nonzero;stroke:none;stroke-width:0.31892669"
       id="path262"
       inkscape:connector-curvature="0" /><path
       d="m 82.15643,144.48056 h 0.379545 c -3.19e-4,1.01326 -0.821349,1.8341 -1.834736,1.8341 -1.013004,0 -1.833938,-0.82084 -1.834321,-1.8341 3.19e-4,-1.01327 0.821317,-1.83414 1.834321,-1.83452 1.013387,3.2e-4 1.834353,0.82125 1.834736,1.83452 h -0.759091 c -0.0013,-0.59394 -0.48164,-1.07437 -1.075645,-1.07552 -0.593207,10e-4 -1.074114,0.48158 -1.07523,1.07552 0.0013,0.59352 0.482023,1.07436 1.07523,1.0751 0.594005,-6.4e-4 1.074497,-0.48158 1.075645,-1.0751 h 0.379546"
       style="fill:#34ad47;fill-opacity:1;fill-rule:nonzero;stroke:none;stroke-width:0.31892669"
       id="path264"
       inkscape:connector-curvature="0" /><path
       d="m 94.214592,118.43432 h 0.379545 c -3.19e-4,1.01327 -0.821349,1.83414 -1.834736,1.83452 -1.013004,-3.2e-4 -1.833938,-0.82125 -1.834321,-1.83452 3.19e-4,-1.01326 0.821317,-1.83375 1.834321,-1.83413 1.013387,3.2e-4 1.834354,0.82087 1.834736,1.83413 h -0.759091 c -0.0013,-0.59355 -0.48164,-1.07398 -1.075645,-1.07513 -0.59359,0.001 -1.074114,0.48158 -1.07523,1.07513 0.0013,0.5939 0.48164,1.07437 1.07523,1.07552 0.594005,-10e-4 1.074497,-0.48162 1.075645,-1.07552 h 0.379546"
       style="fill:#34ad47;fill-opacity:1;fill-rule:nonzero;stroke:none;stroke-width:0.31892669"
       id="path266"
       inkscape:connector-curvature="0" /></g></svg>