<?xml version="1.0" encoding="UTF-8" standalone="no"?>
<!-- Created with Inkscape (http://www.inkscape.org/) -->

<svg
   xmlns:dc="http://purl.org/dc/elements/1.1/"
   xmlns:cc="http://creativecommons.org/ns#"
   xmlns:rdf="http://www.w3.org/1999/02/22-rdf-syntax-ns#"
   xmlns:svg="http://www.w3.org/2000/svg"
   xmlns="http://www.w3.org/2000/svg"
   xmlns:sodipodi="http://sodipodi.sourceforge.net/DTD/sodipodi-0.dtd"
   xmlns:inkscape="http://www.inkscape.org/namespaces/inkscape"
   version="1.1"
   id="svg2"
   xml:space="preserve"
   width="353"
   height="353"
   viewBox="0 0 353 352.99998"
   sodipodi:docname="sensor.svg"
   inkscape:version="0.92.2 5c3e80d, 2017-08-06"><metadata
     id="metadata8"><rdf:RDF><cc:Work
         rdf:about=""><dc:format>image/svg+xml</dc:format><dc:type
           rdf:resource="http://purl.org/dc/dcmitype/StillImage" /><dc:title></dc:title></cc:Work></rdf:RDF></metadata><defs
     id="defs6"><clipPath
       clipPathUnits="userSpaceOnUse"
       id="clipPath20"><path
         d="M 0.0714,123.5 H 595 v 595 H 0.0714 Z"
         id="path18"
         inkscape:connector-curvature="0" /></clipPath><clipPath
       clipPathUnits="userSpaceOnUse"
       id="clipPath30"><path
         d="m 0,123.5 h 595 v 595 H 0 Z"
         id="path28"
         inkscape:connector-curvature="0" /></clipPath><clipPath
       clipPathUnits="userSpaceOnUse"
       id="clipPath66"><path
         d="M 0.0714,123.5 H 595 v 595 H 0.0714 Z"
         id="path64"
         inkscape:connector-curvature="0" /></clipPath><clipPath
       clipPathUnits="userSpaceOnUse"
       id="clipPath78"><path
         d="m 0,123.5 h 595 v 595 H 0 Z"
         id="path76"
         inkscape:connector-curvature="0" /></clipPath><clipPath
       clipPathUnits="userSpaceOnUse"
       id="clipPath90"><path
         d="M 0.0714,123.5 H 595 v 595 H 0.0714 Z"
         id="path88"
         inkscape:connector-curvature="0" /></clipPath><clipPath
       clipPathUnits="userSpaceOnUse"
       id="clipPath104"><path
         d="m 0,123.5 h 595 v 595 H 0 Z"
         id="path102"
         inkscape:connector-curvature="0" /></clipPath><clipPath
       clipPathUnits="userSpaceOnUse"
       id="clipPath120"><path
         d="M 0.0714,123.5 H 595 v 595 H 0.0714 Z"
         id="path118"
         inkscape:connector-curvature="0" /></clipPath><clipPath
       clipPathUnits="userSpaceOnUse"
       id="clipPath132"><path
         d="m 0,123.5 h 595 v 595 H 0 Z"
         id="path130"
         inkscape:connector-curvature="0" /></clipPath><clipPath
       clipPathUnits="userSpaceOnUse"
       id="clipPath206"><path
         d="M 0.0714,123.5 H 595 v 595 H 0.0714 Z"
         id="path204"
         inkscape:connector-curvature="0" /></clipPath><clipPath
       clipPathUnits="userSpaceOnUse"
       id="clipPath216"><path
         d="m 0,123.5 h 595 v 595 H 0 Z"
         id="path214"
         inkscape:connector-curvature="0" /></clipPath><clipPath
       clipPathUnits="userSpaceOnUse"
       id="clipPath226"><path
         d="M 0.0714,123.5 H 595 v 595 H 0.0714 Z"
         id="path224"
         inkscape:connector-curvature="0" /></clipPath><clipPath
       clipPathUnits="userSpaceOnUse"
       id="clipPath256"><path
         d="m 0,123.5 h 595 v 595 H 0 Z"
         id="path254"
         inkscape:connector-curvature="0" /></clipPath></defs><sodipodi:namedview
     pagecolor="#ffffff"
     bordercolor="#666666"
     borderopacity="1"
     objecttolerance="10"
     gridtolerance="10"
     guidetolerance="10"
     inkscape:pageopacity="0"
     inkscape:pageshadow="2"
     inkscape:window-width="1366"
     inkscape:window-height="724"
     id="namedview4"
     showgrid="false"
     inkscape:zoom="1.1891486"
     inkscape:cx="311.74457"
     inkscape:cy="182.92742"
     inkscape:window-x="0"
     inkscape:window-y="0"
     inkscape:window-maximized="1"
     inkscape:current-layer="g10" /><g
     id="g10"
     inkscape:groupmode="layer"
     inkscape:label="378595-PCODS1-355"
     transform="matrix(1.3333333,0,0,-1.3333333,0,352.99995)"><g
       id="g12" /><g
       id="g1651"
       transform="matrix(1.9150009,0,0,1.9147711,-0.13673106,-236.47428)"><g
         transform="matrix(0.23238182,0,0,0.23238182,0.05480794,94.800846)"
         id="g14"><g
           clip-path="url(#clipPath20)"
           id="g16"><path
             inkscape:connector-curvature="0"
             id="path22"
             style="fill:#213a62;fill-opacity:1;fill-rule:nonzero;stroke:none"
             d="M 0.0714,123.5 H 595 v 595 H 0.0714 Z" /></g></g><g
         transform="matrix(0.23238182,0,0,0.23238182,0.05480794,94.800846)"
         id="g24"><g
           clip-path="url(#clipPath30)"
           id="g26"><path
             inkscape:connector-curvature="0"
             id="path32"
             style="fill:#3d5a90;fill-opacity:1;fill-rule:nonzero;stroke:none"
             d="m 167.7888,628.0636 h 8.925 v 59.33935 h -8.925 z" /><path
             inkscape:connector-curvature="0"
             id="path34"
             style="fill:#3d5a90;fill-opacity:1;fill-rule:nonzero;stroke:none"
             d="m 415.9062,628.0636 h 8.925 v 59.33935 h -8.925 z" /><path
             inkscape:connector-curvature="0"
             id="path36"
             style="fill:#3d5a90;fill-opacity:1;fill-rule:nonzero;stroke:none"
             d="m 167.7888,509.0624 h 8.925 v 59.33935 h -8.925 z" /><path
             inkscape:connector-curvature="0"
             id="path38"
             style="fill:#3d5a90;fill-opacity:1;fill-rule:nonzero;stroke:none"
             d="m 415.9062,509.0624 h 8.925 v 59.33935 h -8.925 z" /><path
             inkscape:connector-curvature="0"
             id="path40"
             style="fill:#3d5a90;fill-opacity:1;fill-rule:nonzero;stroke:none"
             d="m 167.7888,390.0612 h 8.925 v 59.33935 h -8.925 z" /><path
             inkscape:connector-curvature="0"
             id="path42"
             style="fill:#3d5a90;fill-opacity:1;fill-rule:nonzero;stroke:none"
             d="m 415.9062,390.0612 h 8.925 v 59.33935 h -8.925 z" /><path
             inkscape:connector-curvature="0"
             id="path44"
             style="fill:#3d5a90;fill-opacity:1;fill-rule:nonzero;stroke:none"
             d="m 167.7888,271.0612 h 8.925 v 59.33935 h -8.925 z" /><path
             inkscape:connector-curvature="0"
             id="path46"
             style="fill:#3d5a90;fill-opacity:1;fill-rule:nonzero;stroke:none"
             d="m 415.9062,271.0612 h 8.925 v 59.33935 h -8.925 z" /><path
             inkscape:connector-curvature="0"
             id="path48"
             style="fill:#3d5a90;fill-opacity:1;fill-rule:nonzero;stroke:none"
             d="m 167.7888,152.06 h 8.925 v 59.33935 h -8.925 z" /><path
             inkscape:connector-curvature="0"
             id="path50"
             style="fill:#3d5a90;fill-opacity:1;fill-rule:nonzero;stroke:none"
             d="m 415.9062,152.06 h 8.925 v 59.33935 h -8.925 z" /><g
             transform="matrix(1.19,0,0,1.19,0,123.5)"
             id="g52"><path
               inkscape:connector-curvature="0"
               id="path54"
               style="fill:none;stroke:#244376;stroke-width:6;stroke-linecap:butt;stroke-linejoin:miter;stroke-miterlimit:10;stroke-dasharray:none;stroke-opacity:1"
               d="m 333.598,250 c 0,-46.766 -37.91,-84.676 -84.676,-84.676 -46.766,0 -84.676,37.91 -84.676,84.676 0,46.765 37.91,84.676 84.676,84.676 46.766,0 84.676,-37.911 84.676,-84.676 z m 36.381,0 c 0,-66.858 -54.199,-121.058 -121.057,-121.058 -66.859,0 -121.058,54.2 -121.058,121.058 0,66.858 54.199,121.058 121.058,121.058 66.858,0 121.057,-54.2 121.057,-121.058 z m 30.996,-43.089 C 382.219,140.593 321.245,92 248.922,92 196.733,92 150.455,117.303 121.685,156.31 M 99.014,300.053 C 119.949,362.781 179.155,408 248.922,408 c 50.496,0 95.459,-23.688 124.384,-60.559" /></g><g
             transform="matrix(1.19,0,0,1.19,0,123.5)"
             id="g56"><path
               inkscape:connector-curvature="0"
               id="path58"
               style="fill:none;stroke:#a8e1da;stroke-width:1.89499998;stroke-linecap:butt;stroke-linejoin:miter;stroke-miterlimit:10;stroke-dasharray:none;stroke-opacity:1"
               d="m 117.174,157.248 v 54.607 h 11.497 c 0,7.875 -0.208,15.258 -10.257,15.258 h -1.24 v 25.131 c 0,10.135 -5.888,19.36 -15.099,23.588 -1.598,0.733 -3.269,1.371 -4.986,1.947" /></g></g></g><g
         transform="matrix(0.23238182,0,0,0.23238182,0.05480794,94.800846)"
         id="g60"><g
           clip-path="url(#clipPath66)"
           id="g62"><path
             inkscape:connector-curvature="0"
             id="path68"
             style="fill:#1b304c;fill-opacity:1;fill-rule:nonzero;stroke:none"
             d="m 553.9902,130.2187 c 0,5.1444 -4.1697,9.3142 -9.3129,9.3142 h -1.1258 v 43.2779 c 0,9.2035 -5.3478,17.5799 -13.7123,21.4188 -6.0797,2.7906 -13.1138,4.3114 -21.0868,4.5851 -0.8925,0.0321 -1.7874,0.0583 -2.7049,0.0571 -1.1376,0.001 -2.2562,-0.0214 -3.357,-0.069 -7.7076,-0.3344 -14.518,-1.8576 -20.4347,-4.5732 -4.704,-2.1599 -8.4561,-5.7548 -10.8361,-10.1245 -1.0579,-1.9433 -1.8457,-4.0389 -2.3265,-6.2285 -0.2403,-1.096 -0.4046,-2.2158 -0.4867,-3.351 -0.0404,-0.5677 -0.0619,-1.14 -0.0619,-1.7148 v -43.2779 h -1.1257 c -5.1432,0 -9.3141,-4.1698 -9.3141,-9.3142 h 10.4398 V 32.75893 c 0,-4.8195 1.5756,-9.30461 4.2626,-12.93649 1.9219,-2.5942 4.4078,-4.75167 7.2959,-6.28439 2.3098,-1.22689 4.8743,-2.05156 7.6089,-2.37881 h -10e-4 c 0,0 0,0 10e-4,0 0,0 10.8575,-2.19674 18.3355,-2.19674 7.478,0 18.3367,2.19674 18.3367,2.19674 10.9361,1.309 19.1673,10.58505 19.1673,21.59969 v 97.45977 h 10.4387" /><path
             inkscape:connector-curvature="0"
             id="path70"
             style="fill:#4881ca;fill-opacity:1;fill-rule:nonzero;stroke:none"
             d="m 524.9518,209.9321 c -6.7615,3.1035 -14.6929,4.6505 -23.7916,4.6422 -9.1,0.008 -17.0313,-1.5387 -23.7929,-4.6422 -8.3645,-3.839 -13.7112,-12.2154 -13.7112,-21.4176 V 38.46141 c 0,-11.01345 8.2313,-20.2895 19.1662,-21.5985 0,0 10.8587,-2.19793 18.3379,-2.19793 7.4779,0 18.3367,2.19793 18.3367,2.19793 10.9349,1.309 19.1661,10.58505 19.1661,21.5985 V 188.5145 c 0,9.2022 -5.3466,17.5786 -13.7112,21.4176" /></g></g><g
         transform="matrix(0.23238182,0,0,0.23238182,0.05480794,94.800846)"
         id="g72"><g
           clip-path="url(#clipPath78)"
           id="g74"><g
             transform="matrix(1.19,0,0,1.19,0,123.5)"
             id="g80"><path
               inkscape:connector-curvature="0"
               id="path82"
               style="fill:none;stroke:#245290;stroke-width:1;stroke-linecap:butt;stroke-linejoin:miter;stroke-miterlimit:10;stroke-dasharray:none;stroke-opacity:1"
               d="m 445.08,24.853 v 24.849 c 0,5.874 -3.413,11.221 -8.752,13.671 -4.315,1.981 -9.377,2.969 -15.185,2.963 -5.808,0.006 -10.871,-0.982 -15.186,-2.963 -5.339,-2.45 -8.751,-7.797 -8.751,-13.671 V 24.853" /></g></g></g><g
         transform="matrix(0.23238182,0,0,0.23238182,0.05480794,94.800846)"
         id="g84"><g
           clip-path="url(#clipPath90)"
           id="g86"><path
             inkscape:connector-curvature="0"
             id="path92"
             style="fill:#598acf;fill-opacity:1;fill-rule:nonzero;stroke:none"
             d="M 469.0671,38.46141 V 188.5145 c 0,9.2022 5.3466,17.5786 13.7099,21.4176 6.0821,2.7917 13.1162,4.3125 21.088,4.5862 -0.8925,0.031 -1.7885,0.0572 -2.7048,0.056 -9.1,0.008 -17.0313,-1.5387 -23.7929,-4.6422 -8.3633,-3.839 -13.7112,-12.2154 -13.7112,-21.4176 V 38.46141 c 0,-11.01345 8.2313,-20.2895 19.1662,-21.59969 0,0 -13.7552,7.82425 -13.7552,21.59969" /><path
             inkscape:connector-curvature="0"
             id="path94"
             style="fill:#598acf;fill-opacity:1;fill-rule:nonzero;stroke:none"
             d="m 466.2979,135.9212 h -13.0816 c 0,5.1444 4.1697,9.3153 9.3153,9.3153 h 3.7663 v -9.3153" /><path
             inkscape:connector-curvature="0"
             id="path96"
             style="fill:#1e3f6a;fill-opacity:1;fill-rule:nonzero;stroke:none"
             d="m 475.5478,100.94 c 0,-23.4573 -1.647,-42.47112 -3.6771,-42.47112 -2.0301,0 -3.6771,19.01382 -3.6771,42.47112 0,23.4561 1.647,34.5802 3.6771,34.5802 2.0301,0 3.6771,-11.1241 3.6771,-34.5802" /></g></g><g
         transform="matrix(0.23238182,0,0,0.23238182,0.05480794,94.800846)"
         id="g98"><g
           clip-path="url(#clipPath104)"
           id="g100"><path
             inkscape:connector-curvature="0"
             id="path106"
             style="fill:#ffffff;fill-opacity:1;fill-rule:nonzero;stroke:none"
             d="m 475.3622,201.1189 c 1.6195,1.9754 3.3903,3.7045 5.2479,5.1813 0.5712,0.4558 0.0904,1.3864 -0.6093,1.1733 -3.2083,-0.971 -6.1737,-2.8679 -8.4609,-5.656 -3.0345,-3.6986 -4.3031,-8.2658 -3.9127,-12.683 0.0678,-0.7557 1.1233,-0.8592 1.3256,-0.1286 1.1305,4.096 3.2749,8.2908 6.4094,12.113" /><path
             inkscape:connector-curvature="0"
             id="path108"
             style="fill:#f89a0f;fill-opacity:1;fill-rule:nonzero;stroke:none"
             d="m 468.5696,196.5113 c -0.8389,-2.3884 -1.1614,-4.904 -0.9424,-7.3768 0.0678,-0.7557 1.1233,-0.8592 1.3256,-0.1286 0.5129,1.8588 1.2459,3.7378 2.1742,5.5942 -0.8759,0.6022 -1.7303,1.2364 -2.5574,1.9112" /><path
             inkscape:connector-curvature="0"
             id="path110"
             style="fill:#4881ca;fill-opacity:1;fill-rule:nonzero;stroke:none"
             d="m 536.0212,135.9212 h 13.0817 c 0,5.1444 -4.1698,9.3153 -9.3141,9.3153 h -3.7676 v -9.3153" /><path
             inkscape:connector-curvature="0"
             id="path112"
             style="fill:#245290;fill-opacity:1;fill-rule:nonzero;stroke:none"
             d="m 527.1664,157.5281 c -4.5874,2.3383 -13.5303,5.8321 -26.0062,5.8321 -12.4772,0 -21.4188,-3.4938 -26.0075,-5.8321 -2.1039,-1.0734 -3.1987,-3.4439 -2.6739,-5.7478 l 4.6338,-20.3406 c 0.4522,-1.9861 2.2956,-3.3392 4.3257,-3.1749 l 11.7179,0.946 c 5.3277,0.4296 10.6803,0.4296 16.0067,0 l 11.718,-0.946 c 2.0301,-0.1643 3.8746,1.1888 4.3268,3.1749 l 4.6327,20.3406 c 0.5259,2.3039 -0.5677,4.6744 -2.674,5.7478" /></g></g><g
         transform="matrix(0.23238182,0,0,0.23238182,0.05480794,94.800846)"
         id="g114"><g
           clip-path="url(#clipPath120)"
           id="g116"><path
             inkscape:connector-curvature="0"
             id="path122"
             style="fill:#1e3f6a;fill-opacity:1;fill-rule:nonzero;stroke:none"
             d="m 472.6561,150.9973 c 19.0019,-3.6449 38.005,-3.6449 57.0069,0 l 0.1774,0.783 c 0.5259,2.3039 -0.5677,4.6744 -2.674,5.7478 -4.5874,2.3383 -13.5303,5.8321 -26.0062,5.8321 -12.4772,0 -21.4188,-3.4938 -26.0075,-5.8321 -2.1039,-1.0734 -3.1987,-3.4439 -2.6739,-5.7478 l 0.1773,-0.783" /><path
             inkscape:connector-curvature="0"
             id="path124"
             style="fill:#1e3f6a;fill-opacity:1;fill-rule:nonzero;stroke:none"
             d="m 526.7725,100.94 c 0,-23.4573 1.6458,-42.47112 3.6759,-42.47112 2.0314,0 3.6771,19.01382 3.6771,42.47112 0,23.4561 -1.6457,34.5802 -3.6771,34.5802 -2.0301,0 -3.6759,-11.1241 -3.6759,-34.5802" /></g></g><g
         transform="matrix(0.23238182,0,0,0.23238182,0.05480794,94.800846)"
         id="g126"><g
           clip-path="url(#clipPath132)"
           id="g128"><path
             inkscape:connector-curvature="0"
             id="path134"
             style="fill:#ffffff;fill-opacity:1;fill-rule:nonzero;stroke:none"
             d="m 526.957,201.1189 c -1.6196,1.9754 -3.3903,3.7045 -5.2479,5.1813 -0.5712,0.4558 -0.0904,1.3864 0.6093,1.1733 3.2082,-0.971 6.1737,-2.8679 8.4609,-5.656 3.0345,-3.6986 4.303,-8.2658 3.9127,-12.683 -0.0667,-0.7557 -1.1234,-0.8592 -1.3245,-0.1286 -1.1317,4.096 -3.2749,8.2908 -6.4105,12.113" /><path
             inkscape:connector-curvature="0"
             id="path136"
             style="fill:#f89a0f;fill-opacity:1;fill-rule:nonzero;stroke:none"
             d="m 533.7495,196.5113 c 0.839,-2.3884 1.1614,-4.904 0.9425,-7.3768 -0.0667,-0.7557 -1.1234,-0.8592 -1.3245,-0.1286 -0.5141,1.8588 -1.2471,3.7378 -2.1753,5.5942 0.8758,0.6022 1.7303,1.2364 2.5573,1.9112" /><path
             inkscape:connector-curvature="0"
             id="path138"
             style="fill:#1e3f6a;fill-opacity:1;fill-rule:nonzero;stroke:none"
             d="m 507.7135,133.4698 h -13.1079 c -1.328,0 -2.4049,1.077 -2.4049,2.4038 v 0.2475 c 0,1.3293 1.0769,2.405 2.4049,2.405 h 13.1079 c 1.3292,0 2.405,-1.0757 2.405,-2.405 v -0.2475 c 0,-1.3268 -1.0758,-2.4038 -2.405,-2.4038" /><path
             inkscape:connector-curvature="0"
             id="path140"
             style="fill:#1b304c;fill-opacity:1;fill-rule:nonzero;stroke:none"
             d="m 558.1624,511.2115 -5.5562,1.672 c -0.1178,26.2787 -1.2209,49.0054 -4.4208,55.2184 -6.019,11.6881 -35.2978,12.1772 -37.7385,12.1975 0,0 -0.001,0 -0.002,0 -0.1047,10e-4 -0.1773,0.002 -0.1773,0.002 0,0 -31.6361,0 -37.9181,-12.1998 -3.1999,-6.213 -4.3043,-28.9397 -4.4221,-55.2184 l -5.5561,-1.672 v -6.5521 l 2.1016,0.182 v -0.8151 l 3.4474,0.4748 c 0.1261,-43.5611 2.5407,-92.8914 2.5407,-92.8914 0,0 -0.1904,-15.5021 13.7528,-19.2673 0.3403,-0.0904 0.7021,-0.1749 1.0841,-0.2558 0.1261,-0.0262 0.2665,-0.0488 0.3974,-0.0738 0.2642,-0.05 0.5272,-0.1012 0.808,-0.1476 0.0917,-0.0143 0.1881,-0.0285 0.2821,-0.0428 v -1.9635 h 11.3514 v 1.1924 c 0.0119,0 0.025,0 0.0381,0 0.3343,-0.007 0.6687,-0.0131 1.0055,-0.0191 0.2487,-0.003 0.4962,-0.007 0.7461,-0.0107 0.3511,-0.005 0.7009,-0.008 1.052,-0.0119 0.2439,-0.002 0.4867,-0.005 0.7307,-0.006 0.3617,-0.004 0.7223,-0.005 1.0829,-0.007 0.232,-0.001 0.4629,-0.002 0.6961,-0.004 0.3915,-10e-4 0.7795,-10e-4 1.1674,-0.002 0.1868,0 0.3748,0 0.5605,0 0.4879,-10e-4 0.9722,0 1.453,0 0.0833,0 0.1654,0 0.2463,0 0.6236,0.001 1.24,0.001 1.8469,0.002 0.5081,10e-4 1.0127,10e-4 1.5053,10e-4 2.1147,0 4.384,-0.008 6.689,-10e-4 0.006,0 0.0119,0 0.0179,0 -0.004,0 -0.007,0 -0.0107,0 1.4066,0.005 2.825,0.0154 4.2316,0.0369 v -1.171 h 11.3514 v 1.7945 c 1.4364,0.1785 2.7156,0.4046 3.7723,0.689 13.9444,3.7652 13.754,19.2673 13.754,19.2673 0,0 2.4146,49.3303 2.5407,92.8914 l 3.4486,-0.4748 v 0.8151 l 2.1004,-0.182 v 6.5521" /><path
             inkscape:connector-curvature="0"
             id="path142"
             style="fill:#ed5e1a;fill-opacity:1;fill-rule:nonzero;stroke:none"
             d="m 480.6065,395.5626 h 11.35022 v 3.41887 H 480.6065 Z" /><path
             inkscape:connector-curvature="0"
             id="path144"
             style="fill:#ed5e1a;fill-opacity:1;fill-rule:nonzero;stroke:none"
             d="m 515.0165,395.5626 h 11.35141 v 3.41887 H 515.0165 Z" /><path
             inkscape:connector-curvature="0"
             id="path146"
             style="fill:#4881ca;fill-opacity:1;fill-rule:nonzero;stroke:none"
             d="m 542.0069,573.8043 c -6.2832,12.1999 -37.9181,12.1999 -37.9181,12.1999 0,0 -31.6362,0 -37.9182,-12.1999 -8.7191,-16.9325 -1.8885,-156.4921 -1.8885,-156.4921 0,0 -0.1904,-15.501 13.754,-19.2661 5.5609,-1.5018 17.161,-1.3483 26.0527,-1.3483 8.8916,0 20.4918,-0.1535 26.0526,1.3483 13.9445,3.7651 13.754,19.2661 13.754,19.2661 0,0 6.8306,139.5596 -1.8885,156.4921" /><path
             inkscape:connector-curvature="0"
             id="path148"
             style="fill:#598acf;fill-opacity:1;fill-rule:nonzero;stroke:none"
             d="m 483.284,398.0461 c -13.9444,3.7651 -13.7528,19.2661 -13.7528,19.2661 0,0 -6.8318,139.5596 1.8873,156.4921 5.1813,10.0615 27.5925,11.8239 35.2954,12.1333 -1.6374,0.0654 -2.6251,0.0666 -2.6251,0.0666 0,0 -31.6362,0 -37.9182,-12.1999 -8.7191,-16.9325 -1.8885,-156.4921 -1.8885,-156.4921 0,0 -0.1904,-15.501 13.754,-19.2661 5.2622,-1.4209 15.9293,-1.3614 24.5949,-1.3495 -7.3756,0.0226 -15.1118,0.2059 -19.347,1.3495" /><path
             inkscape:connector-curvature="0"
             id="path150"
             style="fill:#e9ec0c;fill-opacity:1;fill-rule:nonzero;stroke:none"
             d="m 509.3378,396.6978 c -0.8508,0 -1.7314,-0.002 -2.6239,-0.003 1.3316,-10e-4 2.6977,-0.002 4.0817,0.002 -0.4915,0 -0.9806,10e-4 -1.4578,10e-4" /><path
             inkscape:connector-curvature="0"
             id="path152"
             style="fill:#ffffff;fill-opacity:1;fill-rule:nonzero;stroke:none"
             d="m 477.1245,577.2672 c -2.1907,-1.904 -5.7798,-5.7155 -7.9658,-11.7048 -0.2202,-0.5986 -1.1055,-0.4415 -1.0865,0.1963 0.119,3.952 1.4494,10.3947 8.5216,12.4677 0.5736,0.1678 0.9829,-0.5677 0.5307,-0.9592" /><path
             inkscape:connector-curvature="0"
             id="path154"
             style="fill:#3b6fc0;fill-opacity:1;fill-rule:nonzero;stroke:none"
             d="m 471.2924,543.3867 c -0.2333,-0.589 -1.1186,-0.3617 -1.027,0.2654 1.1924,8.3241 4.0948,25.8706 7.7707,29.1383 3.2701,2.9072 7.1531,5.0897 9.3379,6.2047 0.4867,0.2487 0.9782,-0.3058 0.6855,-0.7675 -6.0797,-9.5998 -11.5502,-21.6973 -16.7671,-34.8409" /><path
             inkscape:connector-curvature="0"
             id="path156"
             style="fill:#1e3f6a;fill-opacity:1;fill-rule:nonzero;stroke:none"
             d="m 466.9857,519.8343 c -0.013,0.7901 1.1282,0.9174 1.2864,0.1428 1.3769,-6.739 3.382,-16.2721 4.1805,-18.6485 1.2317,-3.6664 1.2674,-45.9709 1.2686,-48.4223 0,-0.075 -0.0131,-0.1464 -0.0393,-0.2178 l -4.1507,-11.4204 c -0.2476,-0.6783 -1.2495,-0.5093 -1.2614,0.2106 l -1.2841,78.3556" /><path
             inkscape:connector-curvature="0"
             id="path158"
             style="fill:#598acf;fill-opacity:1;fill-rule:nonzero;stroke:none"
             d="m 467.1262,511.3079 -10.9337,-0.946 v 6.5521 l 10.9337,3.2915 v -8.8976" /><path
             inkscape:connector-curvature="0"
             id="path160"
             style="fill:#3b6fc0;fill-opacity:1;fill-rule:nonzero;stroke:none"
             d="m 487.1098,430.6759 h 3.06068 v 64.4504 h -3.06068 z" /><path
             inkscape:connector-curvature="0"
             id="path162"
             style="fill:#3b6fc0;fill-opacity:1;fill-rule:nonzero;stroke:none"
             d="m 495.1995,430.6759 h 3.06068 v 64.4504 h -3.06068 z" /><path
             inkscape:connector-curvature="0"
             id="path164"
             style="fill:#ffffff;fill-opacity:1;fill-rule:nonzero;stroke:none"
             d="m 467.1321,510.9473 -8.8393,-1.2185 v 0.9258 l 8.8334,1.2174 0.006,-0.9247" /><path
             inkscape:connector-curvature="0"
             id="path166"
             style="fill:#245290;fill-opacity:1;fill-rule:nonzero;stroke:none"
             d="m 504.0888,543.1261 c 0,0 -19.6089,0 -31.8766,-8.0908 -1.5398,-1.0162 -2.2455,-2.9119 -1.7421,-4.6862 l 5.8869,-20.781 c 0.5141,-1.8171 2.1729,-3.0702 4.0603,-3.0702 h 47.3429 c 1.8874,0 3.5462,1.2531 4.0603,3.0702 l 5.8869,20.781 c 0.5034,1.7743 -0.2023,3.67 -1.7421,4.6862 -12.2677,8.0908 -31.8765,8.0908 -31.8765,8.0908" /><path
             inkscape:connector-curvature="0"
             id="path168"
             style="fill:#1e3f6a;fill-opacity:1;fill-rule:nonzero;stroke:none"
             d="m 470.9853,528.526 c 22.1614,-2.6085 44.2312,-2.6311 66.2069,0 l 0.5152,1.8231 c 0.5034,1.7743 -0.2023,3.67 -1.7421,4.6862 -12.2677,8.0908 -31.8765,8.0908 -31.8765,8.0908 0,0 -19.6089,0 -31.8766,-8.0908 -1.5398,-1.0162 -2.2455,-2.9119 -1.7421,-4.6862 l 0.5152,-1.8231" /><path
             inkscape:connector-curvature="0"
             id="path170"
             style="fill:#ffffff;fill-opacity:1;fill-rule:nonzero;stroke:none"
             d="m 531.0518,577.2672 c 2.192,-1.904 5.781,-5.7155 7.967,-11.7048 0.2202,-0.5986 1.1055,-0.4415 1.0865,0.1963 -0.1202,3.952 -1.4506,10.3947 -8.5228,12.4677 -0.5724,0.1678 -0.9817,-0.5677 -0.5307,-0.9592" /><path
             inkscape:connector-curvature="0"
             id="path172"
             style="fill:#3b6fc0;fill-opacity:1;fill-rule:nonzero;stroke:none"
             d="m 536.8852,543.3867 c 0.2332,-0.589 1.1174,-0.3617 1.0269,0.2654 -1.1924,8.3241 -4.0948,25.8706 -7.7707,29.1383 -3.2701,2.9072 -7.1531,5.0897 -9.3379,6.2047 -0.4879,0.2487 -0.9782,-0.3058 -0.6854,-0.7675 6.0797,-9.5998 11.5501,-21.6973 16.7671,-34.8409" /><path
             inkscape:connector-curvature="0"
             id="path174"
             style="fill:#1e3f6a;fill-opacity:1;fill-rule:nonzero;stroke:none"
             d="m 541.1918,519.8343 c 0.0131,0.7901 -1.1293,0.9174 -1.2876,0.1428 -1.3757,-6.739 -3.382,-16.2721 -4.1805,-18.6485 -1.2304,-3.6664 -1.2661,-45.9709 -1.2673,-48.4223 0,-0.075 0.0131,-0.1464 0.0392,-0.2178 l 4.1508,-11.4204 c 0.2463,-0.6783 1.2483,-0.5093 1.2614,0.2106 l 1.284,78.3556" /><path
             inkscape:connector-curvature="0"
             id="path176"
             style="fill:#202d55;fill-opacity:1;fill-rule:nonzero;stroke:none"
             d="m 541.0513,511.3079 10.9338,-0.946 v 6.5521 l -10.9338,3.2915 v -8.8976" /><path
             inkscape:connector-curvature="0"
             id="path178"
             style="fill:#245290;fill-opacity:1;fill-rule:nonzero;stroke:none"
             d="m 537.0994,427.858 -1.9588,8.4799 c -0.163,0.7104 -1.1781,0.7045 -1.3328,-0.008 l -1.5684,-7.1948 c -2.0754,-9.514 -9.8068,-16.7611 -19.4363,-18.2165 l -8.7143,-0.1773 -8.7144,0.1773 c -9.6295,1.4554 -17.3609,8.7025 -19.4363,18.2165 l -1.5684,7.1948 c -0.1559,0.7128 -1.1698,0.7187 -1.334,0.008 l -1.9575,-8.4799 c -0.5165,-2.2396 -0.5903,-4.5589 -0.2154,-6.8259 1.6862,-10.2185 10.0257,-18.0273 20.3323,-19.0388 l 12.8937,-0.3403 12.8936,0.3403 c 10.3066,1.0115 18.6461,8.8203 20.3324,19.0388 0.3748,2.267 0.301,4.5863 -0.2154,6.8259" /><path
             inkscape:connector-curvature="0"
             id="path180"
             style="fill:#3b6fc0;fill-opacity:1;fill-rule:nonzero;stroke:none"
             d="m 518.007,430.6759 h 3.06068 v 64.4504 H 518.007 Z" /><path
             inkscape:connector-curvature="0"
             id="path182"
             style="fill:#3b6fc0;fill-opacity:1;fill-rule:nonzero;stroke:none"
             d="m 509.9162,430.6759 h 3.06187 v 64.4504 h -3.06187 z" /><path
             inkscape:connector-curvature="0"
             id="path184"
             style="fill:#ffffff;fill-opacity:1;fill-rule:nonzero;stroke:none"
             d="m 541.0454,510.9473 8.8381,-1.2185 v 0.9258 l -8.8322,1.2174 -0.006,-0.9247" /><path
             inkscape:connector-curvature="0"
             id="path186"
             style="fill:#1e3f6a;fill-opacity:1;fill-rule:nonzero;stroke:none"
             d="M 511.6774,509.542 H 499.825 c -1.2888,0 -2.33,1.0424 -2.33,2.33 0,1.2864 1.0412,2.33 2.33,2.33 h 11.8524 c 1.2876,0 2.33,-1.0436 2.33,-2.33 0,-1.2876 -1.0424,-2.33 -2.33,-2.33" /><path
             inkscape:connector-curvature="0"
             id="path188"
             style="fill:#3b6fc0;fill-opacity:1;fill-rule:nonzero;stroke:none"
             d="m 490.1705,550.4077 -0.4665,18.2511 -2.2467,-19.0353 2.7132,0.7842" /><path
             inkscape:connector-curvature="0"
             id="path190"
             style="fill:#3b6fc0;fill-opacity:1;fill-rule:nonzero;stroke:none"
             d="m 518.007,550.4077 0.4665,18.2511 2.2467,-19.0353 -2.7132,0.7842" /><path
             inkscape:connector-curvature="0"
             id="path192"
             style="fill:#1b2540;fill-opacity:1;fill-rule:nonzero;stroke:none"
             d="m 490.1705,550.4077 -12.1344,-3.5057 v 3.5057 l 12.1344,3.5058 v -3.5058" /><path
             inkscape:connector-curvature="0"
             id="path194"
             style="fill:#1b2540;fill-opacity:1;fill-rule:nonzero;stroke:none"
             d="m 518.007,550.4077 12.1344,-3.5057 v 3.5057 l -12.1344,3.5058 v -3.5058" /><g
             transform="matrix(1.19,0,0,1.19,0,123.5)"
             id="g196"><path
               inkscape:connector-curvature="0"
               id="path198"
               style="fill:none;stroke:#a8e1da;stroke-width:1.78199995;stroke-linecap:butt;stroke-linejoin:miter;stroke-miterlimit:10;stroke-dasharray:none;stroke-opacity:1"
               d="m 378.705,341.334 c -0.079,-4.23 -0.127,-8.455 -0.147,-12.551 l -5.912,-1.62 v -6.346 l 5.905,-0.152 c 0.134,-42.188 2.702,-81.558 2.702,-81.558 0,0 -0.203,-15.013 14.633,-18.659 0.36,-0.089 0.746,-0.171 1.152,-0.248 0.135,-0.025 0.283,-0.048 0.423,-0.072 0.281,-0.049 0.561,-0.099 0.861,-0.143 0.097,-0.014 0.199,-0.027 0.298,-0.041 v -1.901 h 4.744" /></g></g></g><g
         transform="matrix(0.23238182,0,0,0.23238182,0.05480794,94.800846)"
         id="g200"><g
           clip-path="url(#clipPath206)"
           id="g202"><path
             inkscape:connector-curvature="0"
             id="path208"
             style="fill:#1b304c;fill-opacity:1;fill-rule:nonzero;stroke:none"
             d="m 148.8154,769.9068 -5.5572,1.672 c -0.1167,26.2787 -1.2222,49.0053 -4.4209,55.2183 -6.019,11.6894 -35.2978,12.1785 -37.7373,12.1987 -10e-4,0 -0.002,0 -0.002,0 -0.1047,0 -0.1785,10e-4 -0.1785,10e-4 0,0 -31.63611,0 -37.91812,-12.1999 -3.19991,-6.213 -4.30423,-28.9396 -4.42085,-55.2183 l -5.5573,-1.672 v -6.5521 l 2.10154,0.182 v -0.8151 l 3.44862,0.476 c 0.12495,-43.5623 2.53946,-92.8926 2.53946,-92.8926 0,0 -0.1904,-15.5009 13.75402,-19.2661 0.33796,-0.0916 0.70091,-0.1761 1.0829,-0.2558 0.12733,-0.0274 0.26656,-0.05 0.39865,-0.075 0.26299,-0.05 0.52598,-0.1012 0.80682,-0.1476 0.09163,-0.0143 0.18921,-0.0274 0.28203,-0.0416 v -1.9635 h 11.35141 v 1.1923 c 0.01309,-10e-4 0.02499,-10e-4 0.03927,-10e-4 0.3332,-0.007 0.66759,-0.0131 1.00436,-0.0191 0.24871,-0.004 0.49742,-0.007 0.74732,-0.0107 0.34986,-0.005 0.70091,-0.008 1.05196,-0.0107 0.24395,-0.004 0.48671,-0.006 0.73066,-0.007 0.36057,-0.002 0.72114,-0.005 1.08052,-0.007 0.23324,0 0.46529,-10e-4 0.69734,-0.002 0.39032,-0.001 0.77945,-0.002 1.16739,-0.002 0.18802,-10e-4 0.37366,-10e-4 0.56049,-10e-4 0.48909,0 0.97223,0 1.45418,0 0.08211,10e-4 0.16422,10e-4 0.24633,10e-4 0.62356,0 1.23998,10e-4 1.84688,0.002 0.50694,0 1.01152,10e-4 1.50412,10e-4 2.1147,0 4.3852,-0.008 6.689,-10e-4 0.006,0 0.0119,0 0.0179,0 -0.004,0 -0.007,0 -0.0107,0 1.4065,0.004 2.825,0.0143 4.2316,0.0357 v -1.1697 h 11.3514 v 1.7933 c 1.4352,0.1785 2.7156,0.4034 3.7735,0.6902 13.9444,3.7652 13.7528,19.2661 13.7528,19.2661 0,0 2.4146,49.3303 2.5407,92.8926 l 3.4486,-0.476 v 0.8151 l 2.1015,-0.182 v 6.5521" /></g></g><g
         transform="matrix(0.23238182,0,0,0.23238182,0.05480794,94.800846)"
         id="g210"><g
           clip-path="url(#clipPath216)"
           id="g212"><path
             inkscape:connector-curvature="0"
             id="path218"
             style="fill:#ed5e1a;fill-opacity:1;fill-rule:nonzero;stroke:none"
             d="M 71.25839,654.2579 H 82.6098 v 3.41887 H 71.25839 Z" /></g></g><g
         transform="matrix(0.23238182,0,0,0.23238182,0.05480794,94.800846)"
         id="g220"><g
           clip-path="url(#clipPath226)"
           id="g222"><path
             inkscape:connector-curvature="0"
             id="path228"
             style="fill:#ed5e1a;fill-opacity:1;fill-rule:nonzero;stroke:none"
             d="m 105.6684,654.2579 h 11.35022 v 3.41887 H 105.6684 Z" /><path
             inkscape:connector-curvature="0"
             id="path230"
             style="fill:#4881ca;fill-opacity:1;fill-rule:nonzero;stroke:none"
             d="m 132.66,832.4996 c -6.2832,12.1999 -37.91934,12.1999 -37.91934,12.1999 0,0 -31.63615,0 -37.91816,-12.1999 -8.71913,-16.9325 -1.88734,-156.4909 -1.88734,-156.4909 0,0 -0.19159,-15.5022 13.75283,-19.2673 5.56087,-1.5018 17.16099,-1.3483 26.05267,-1.3483 8.89164,0 20.49184,-0.1535 26.05264,1.3483 13.9445,3.7651 13.7529,19.2673 13.7529,19.2673 0,0 6.8329,139.5584 -1.8862,156.4909" /><path
             inkscape:connector-curvature="0"
             id="path232"
             style="fill:#598acf;fill-opacity:1;fill-rule:nonzero;stroke:none"
             d="m 73.93708,656.7414 c -13.94442,3.7651 -13.75283,19.2673 -13.75283,19.2673 0,0 -6.83298,139.5584 1.88734,156.4909 5.18126,10.0615 27.59134,11.8239 35.29302,12.1333 -1.63625,0.0654 -2.62395,0.0666 -2.62395,0.0666 0,0 -31.63615,0 -37.91816,-12.1999 -8.71913,-16.9325 -1.88734,-156.4909 -1.88734,-156.4909 0,0 -0.19159,-15.5022 13.75283,-19.2673 5.26218,-1.4209 15.92815,-1.3602 24.59492,-1.3495 -7.37681,0.0226 -15.11181,0.2059 -19.34583,1.3495" /><path
             inkscape:connector-curvature="0"
             id="path234"
             style="fill:#e9ec0c;fill-opacity:1;fill-rule:nonzero;stroke:none"
             d="m 99.98975,655.3931 c -0.85085,0 -1.73145,-10e-4 -2.62514,-0.002 1.3328,-0.002 2.70009,-0.004 4.08289,10e-4 -0.4915,10e-4 -0.9806,10e-4 -1.45775,10e-4" /><path
             inkscape:connector-curvature="0"
             id="path236"
             style="fill:#1e3f6a;fill-opacity:1;fill-rule:nonzero;stroke:none"
             d="m 57.63884,778.5296 c -0.01428,0.7901 1.12812,0.9174 1.28639,0.1439 1.37564,-6.7401 3.38079,-16.2732 4.17928,-18.6496 1.23165,-3.6664 1.26735,-45.9709 1.26854,-48.4211 0,-0.0762 -0.01309,-0.1476 -0.03927,-0.2178 l -4.15072,-11.4216 c -0.24633,-0.6771 -1.2495,-0.5094 -1.2614,0.2118 l -1.28282,78.3544" /><path
             inkscape:connector-curvature="0"
             id="path238"
             style="fill:#3b6fc0;fill-opacity:1;fill-rule:nonzero;stroke:none"
             d="m 77.76174,689.3712 h 3.06187 v 29.12882 h -3.06187 z" /><path
             inkscape:connector-curvature="0"
             id="path240"
             style="fill:#3b6fc0;fill-opacity:1;fill-rule:nonzero;stroke:none"
             d="m 85.85136,689.3712 h 3.06187 v 29.12882 h -3.06187 z" /><path
             inkscape:connector-curvature="0"
             id="path242"
             style="fill:#1e3f6a;fill-opacity:1;fill-rule:nonzero;stroke:none"
             d="m 131.8437,778.5296 c 0.0131,0.7901 -1.1282,0.9174 -1.2864,0.1439 -1.3768,-6.7401 -3.382,-16.2732 -4.1805,-18.6496 -1.2316,-3.6664 -1.2673,-45.9709 -1.2685,-48.4211 0,-0.0762 0.0142,-0.1476 0.0392,-0.2178 l 4.1508,-11.4216 c 0.2463,-0.6771 1.2495,-0.5094 1.2614,0.2118 l 1.284,78.3544" /><path
             inkscape:connector-curvature="0"
             id="path244"
             style="fill:#245290;fill-opacity:1;fill-rule:nonzero;stroke:none"
             d="m 127.7513,686.5533 -1.9576,8.4799 c -0.1642,0.7104 -1.1781,0.7045 -1.334,-0.008 l -1.5684,-7.1936 c -2.0754,-9.5152 -9.8068,-16.7611 -19.4363,-18.2165 l -8.71434,-0.1785 -8.71437,0.1785 c -9.62829,1.4554 -17.36091,8.7013 -19.43627,18.2165 l -1.56842,7.1936 c -0.1547,0.7128 -1.16977,0.7187 -1.3328,0.008 l -1.95874,-8.4799 c -0.51646,-2.2384 -0.59024,-4.5577 -0.21658,-6.8259 1.68742,-10.2173 10.02694,-18.0261 20.33234,-19.0388 l 12.89484,-0.3403 12.89484,0.3403 c 10.3054,1.0127 18.6461,8.8215 20.3323,19.0388 0.3737,2.2682 0.3011,4.5875 -0.2165,6.8259" /><path
             inkscape:connector-curvature="0"
             id="path246"
             style="fill:#3b6fc0;fill-opacity:1;fill-rule:nonzero;stroke:none"
             d="m 108.6589,689.3712 h 3.06068 v 29.12882 h -3.06068 z" /><path
             inkscape:connector-curvature="0"
             id="path248"
             style="fill:#3b6fc0;fill-opacity:1;fill-rule:nonzero;stroke:none"
             d="m 100.5693,689.3712 h 3.06068 v 29.12882 h -3.06068 z" /></g></g><g
         transform="matrix(0.27653436,0,0,0.27653436,0.05480794,123.5)"
         id="g258"><path
           inkscape:connector-curvature="0"
           id="path260"
           style="fill:none;stroke:#a8e1da;stroke-width:1.91900003;stroke-linecap:round;stroke-linejoin:miter;stroke-miterlimit:10;stroke-dasharray:none;stroke-opacity:1"
           d="m 243.319,373.296 c 4.121,4.121 10.803,4.121 14.925,0 m -19.674,4.749 c 6.744,6.744 17.679,6.744 24.423,0 m -28.933,4.51 c 9.235,9.236 24.208,9.236 33.443,0 m -37.753,4.309 c 11.616,11.615 30.447,11.615 42.063,0 m -46.02,3.958 c 13.801,13.801 36.176,13.801 49.977,0 M 243.978,131.58 c 4.121,-4.122 10.803,-4.122 14.925,0 m -19.674,-4.749 c 6.744,-6.744 17.678,-6.744 24.423,0 m -28.933,-4.511 c 9.235,-9.235 24.208,-9.235 33.443,0 m -37.753,-4.308 c 11.615,-11.616 30.447,-11.616 42.063,0 m -46.02,-3.958 c 13.8,-13.801 36.176,-13.801 49.977,0 m -93.325,128.483 c -4.122,4.122 -4.122,10.804 0,14.925 m -4.75,-19.674 c -6.744,6.744 -6.744,17.679 0,24.423 m -4.51,-28.933 c -9.235,9.236 -9.235,24.209 0,33.444 m -4.309,-37.753 c -11.615,11.615 -11.615,30.447 0,42.062 m -3.957,-46.019 c -13.801,13.8 -13.801,36.175 0,49.976 m 147.318,-32.451 c 4.122,4.122 4.122,10.804 0,14.925 m 4.75,-19.674 c 6.744,6.744 6.744,17.679 0,24.423 m 4.509,-28.933 c 9.236,9.236 9.236,24.209 0,33.444 m 4.31,-37.753 c 11.615,11.615 11.615,30.447 0,42.062 m 3.957,-46.019 c 13.801,13.8 13.801,36.175 0,49.976" /></g><path
         inkscape:connector-curvature="0"
         id="path262"
         style="fill:#1b304c;fill-opacity:1;fill-rule:nonzero;stroke:none;stroke-width:0.23238182"
         d="m 81.986409,196.92099 c 0,1.19544 -0.968986,2.16443 -2.164428,2.16443 h -0.261336 v 10.05699 c 0,2.13873 -1.242476,4.08525 -3.186513,4.97734 -1.412811,0.64849 -3.047664,1.00189 -4.89991,1.06578 -0.2074,0.007 -0.415615,0.0133 -0.628825,0.013 -0.264381,2.3e-4 -0.524323,-0.005 -0.780106,-0.016 -1.791106,-0.0774 -3.373719,-0.43167 -4.748652,-1.06273 -1.093403,-0.50162 -1.964765,-1.33731 -2.518113,-2.35275 -0.245837,-0.45131 -0.428907,-0.93856 -0.540636,-1.44739 -0.05587,-0.25466 -0.09402,-0.51461 -0.113101,-0.77843 -0.0094,-0.13218 -0.01438,-0.26491 -0.01438,-0.39877 v -10.05699 h -0.261592 c -1.195465,0 -2.164428,-0.96899 -2.164428,-2.16443 h 2.42602 v -22.64791 c 0,-1.11969 0.366141,-2.16222 0.99083,-3.00618 0.446057,-0.60257 1.024292,-1.10421 1.695155,-1.46038 0.536477,-0.28483 1.132676,-0.47676 1.767891,-0.55279 0,0 2.523365,-0.5105 4.261116,-0.5105 1.737728,0 4.261116,0.5105 4.261116,0.5105 2.541351,0.30444 4.454132,2.46004 4.454132,5.01935 v 22.64791 h 2.425764" /><path
         inkscape:connector-curvature="0"
         id="path264"
         style="fill:#f03b38;fill-opacity:1;fill-rule:nonzero;stroke:none;stroke-width:0.23238182"
         d="m 75.238413,215.44491 c -1.571273,0.7212 -3.414363,1.08069 -5.528736,1.07904 -2.114674,0.002 -3.957764,-0.35784 -5.529037,-1.07904 -1.943479,-0.89183 -3.186233,-2.83864 -3.186233,-4.97706 v -34.86961 c 0,-2.55932 1.912781,-4.71491 4.454132,-5.01938 0,0 2.523387,-0.51047 4.261138,-0.51047 1.737728,0 4.261116,0.51047 4.261116,0.51047 2.541072,0.30447 4.453853,2.46006 4.453853,5.01938 v 34.86961 c 0,2.13842 -1.242754,4.08523 -3.186233,4.97706" /><path
         inkscape:connector-curvature="0"
         id="path266"
         style="fill:#ce4221;fill-opacity:1;fill-rule:nonzero;stroke:none;stroke-width:0.23238182"
         d="m 76.467062,202.23238 h -0.276535 v 6.87188 c 0,1.56795 -0.918094,3.00232 -2.33948,3.65466 -1.166139,0.53539 -2.555457,0.80667 -4.128658,0.80667 -0.0089,0 -0.01715,0 -0.02545,0 -1.573481,0 -2.96252,-0.27128 -4.128937,-0.80667 -1.421108,-0.65234 -2.339481,-2.08699 -2.339481,-3.65466 v -6.87188 h -0.276534 v 6.87188 c 0,1.67552 0.981418,3.20891 2.500707,3.90603 1.202925,0.55198 2.630679,0.83184 4.243966,0.83184 0.0086,2.3e-4 0.01715,2.3e-4 0.026,0 1.613287,0 3.041041,-0.27986 4.243965,-0.83184 1.518732,-0.69712 2.500429,-2.23024 2.500429,-3.90603 v -6.87188" /><path
         inkscape:connector-curvature="0"
         id="path268"
         style="fill:#f5793a;fill-opacity:1;fill-rule:nonzero;stroke:none;stroke-width:0.23238182"
         d="m 62.251801,175.59824 v 34.86961 c 0,2.13842 1.242476,4.08523 3.186234,4.97706 1.412812,0.64846 3.047687,1.00217 4.900189,1.06577 -0.20768,0.007 -0.415894,0.0133 -0.628547,0.0133 -2.114674,0.002 -3.957764,-0.35784 -5.529037,-1.07904 -1.943479,-0.89183 -3.186233,-2.83864 -3.186233,-4.97706 v -34.86961 c 0,-2.55932 1.912781,-4.71491 4.454132,-5.01938 0,0 -3.196738,1.81822 -3.196738,5.01938" /><path
         inkscape:connector-curvature="0"
         id="path270"
         style="fill:#f5793a;fill-opacity:1;fill-rule:nonzero;stroke:none;stroke-width:0.23238182"
         d="m 61.608034,198.2464 h -3.039392 c 0,1.19519 0.968986,2.16445 2.164172,2.16445 h 0.87522 v -2.16445" /><path
         inkscape:connector-curvature="0"
         id="path272"
         style="fill:#1e3f6a;fill-opacity:1;fill-rule:nonzero;stroke:none;stroke-width:0.23238182"
         d="m 63.757821,190.11713 c 0,-5.45105 -0.382454,-9.86979 -0.854491,-9.86979 -0.471781,0 -0.854212,4.41874 -0.854212,9.86979 0,5.45077 0.382431,8.03553 0.854212,8.03553 0.472037,0 0.854491,-2.58476 0.854491,-8.03553" /><path
         inkscape:connector-curvature="0"
         id="path274"
         style="fill:#f89a0f;fill-opacity:1;fill-rule:nonzero;stroke:none;stroke-width:0.23238182"
         d="m 63.150817,172.99052 c -0.319386,0.31913 -0.593155,0.66092 -0.821028,1.01323 -0.0719,0.11145 -0.244443,0.0434 -0.218463,-0.0868 0.115587,-0.58182 0.39821,-1.13712 0.849519,-1.5884 0.601729,-0.60175 1.388202,-0.90483 2.176883,-0.91091 0.129413,-0.001 0.163968,0.18279 0.04341,0.22896 -0.704884,0.27073 -1.40921,0.72259 -2.03032,1.34396" /><path
         inkscape:connector-curvature="0"
         id="path276"
         style="fill:#ffffff;fill-opacity:1;fill-rule:nonzero;stroke:none;stroke-width:0.23238182"
         d="m 63.714668,213.39691 c 0.376366,0.45904 0.788123,0.86083 1.219517,1.20401 0.132736,0.10592 0.02103,0.32218 -0.141567,0.27296 -0.745551,-0.22595 -1.434679,-0.66647 -1.96616,-1.31438 -0.705162,-0.85974 -1.000241,-1.92107 -0.909263,-2.94757 0.01578,-0.17561 0.261057,-0.19967 0.308068,-0.0299 0.262987,0.95209 0.761028,1.9266 1.489405,2.81484" /><path
         inkscape:connector-curvature="0"
         id="path278"
         style="fill:#f89a0f;fill-opacity:1;fill-rule:nonzero;stroke:none;stroke-width:0.23238182"
         d="m 62.136493,212.32588 c -0.195502,-0.55474 -0.270167,-1.13932 -0.219298,-1.71395 0.01578,-0.17561 0.261057,-0.19967 0.308068,-0.0299 0.119189,0.4322 0.289525,0.86857 0.505222,1.29996 -0.20352,0.13994 -0.402067,0.2876 -0.593992,0.44385" /><path
         inkscape:connector-curvature="0"
         id="path280"
         style="fill:#f03b38;fill-opacity:1;fill-rule:nonzero;stroke:none;stroke-width:0.23238182"
         d="m 62.049118,189.24024 h 2.290534 v 1.53117 h -2.290534 z" /><path
         inkscape:connector-curvature="0"
         id="path282"
         style="fill:#f03b38;fill-opacity:1;fill-rule:nonzero;stroke:none;stroke-width:0.23238182"
         d="m 62.278363,182.54838 h 2.061287 v 0.37554 h -2.061287 z" /><path
         inkscape:connector-curvature="0"
         id="path284"
         style="fill:#f03b38;fill-opacity:1;fill-rule:nonzero;stroke:none;stroke-width:0.23238182"
         d="m 77.811019,198.2464 h 3.03967 c 0,1.19519 -0.968986,2.16445 -2.164451,2.16445 h -0.875219 v -2.16445" /><path
         inkscape:connector-curvature="0"
         id="path286"
         style="fill:#1e3f6a;fill-opacity:1;fill-rule:nonzero;stroke:none;stroke-width:0.23238182"
         d="m 69.709677,190.00568 h 3.201989 c 0.637958,0 1.155635,0.51712 1.155635,1.15538 v 2.04661 c 0,0.63826 -0.517677,1.15538 -1.155635,1.15538 h -6.404001 c -0.638237,0 -1.155635,-0.51712 -1.155635,-1.15538 v -2.04661 c 0,-0.63826 0.517398,-1.15538 1.155635,-1.15538 h 3.202012" /><path
         inkscape:connector-curvature="0"
         id="path288"
         style="fill:#245290;fill-opacity:1;fill-rule:nonzero;stroke:none;stroke-width:0.23238182"
         d="m 75.753045,203.26717 c -1.066028,0.54338 -3.144474,1.3553 -6.043368,1.3553 -2.899195,0 -4.977362,-0.81192 -6.04367,-1.3553 -0.489187,-0.24944 -0.743319,-0.8003 -0.621365,-1.33566 l 1.07681,-4.72681 c 0.105084,-0.46153 0.533433,-0.77594 1.005493,-0.73779 l 2.722748,0.21984 c 1.238038,0.10011 2.481908,0.10011 3.719666,0 l 2.723027,-0.21984 c 0.471782,-0.0382 0.900131,0.27626 1.005493,0.73779 l 1.076532,4.72681 c 0.122233,0.53536 -0.132179,1.08622 -0.621366,1.33566" /><path
         inkscape:connector-curvature="0"
         id="path290"
         style="fill:#1e3f6a;fill-opacity:1;fill-rule:nonzero;stroke:none;stroke-width:0.23238182"
         d="m 63.085843,201.74981 c 4.415696,-0.84728 8.831671,-0.84728 13.247367,0 l 0.0412,0.1817 c 0.122233,0.53536 -0.132179,1.08622 -0.621366,1.33566 -1.066028,0.54338 -3.144195,1.3553 -6.043368,1.3553 -2.899195,0 -4.977362,-0.81192 -6.04367,-1.3553 -0.489187,-0.24944 -0.743319,-0.8003 -0.621365,-1.33566 l 0.0412,-0.1817" /><path
         inkscape:connector-curvature="0"
         id="path292"
         style="fill:#245290;fill-opacity:1;fill-rule:nonzero;stroke:none;stroke-width:0.23238182"
         d="m 66.93878,181.46216 -1.511249,0.17366 c -0.643209,0.0738 -1.222282,-0.39407 -1.284514,-1.03865 l -0.307208,-3.18071 c -0.04896,-0.50468 0.234775,-0.98088 0.701839,-1.17803 0.99413,-0.42034 2.863781,-1.0467 5.172029,-1.0467 2.307947,0 4.177598,0.62636 5.171727,1.0467 0.466786,0.19715 0.750803,0.67335 0.702119,1.17803 l -0.307232,3.18071 c -0.06249,0.64458 -0.64156,1.11248 -1.284769,1.03865 l -1.511249,-0.17366 c -1.841184,-0.21184 -3.700309,-0.21184 -5.541493,0" /><path
         inkscape:connector-curvature="0"
         id="path294"
         style="fill:#1e3f6a;fill-opacity:1;fill-rule:nonzero;stroke:none;stroke-width:0.23238182"
         d="m 75.661231,190.11713 c 0,-5.45105 0.382733,-9.86979 0.854492,-9.86979 0.471781,0 0.854491,4.41874 0.854491,9.86979 0,5.45077 -0.38271,8.03553 -0.854491,8.03553 -0.471759,0 -0.854492,-2.58476 -0.854492,-8.03553" /><path
         inkscape:connector-curvature="0"
         id="path296"
         style="fill:#f89a0f;fill-opacity:1;fill-rule:nonzero;stroke:none;stroke-width:0.23238182"
         d="m 76.268515,172.99052 c 0.319385,0.31913 0.592876,0.66092 0.820749,1.01323 0.07218,0.11145 0.244443,0.0434 0.218462,-0.0868 -0.115586,-0.58182 -0.398209,-1.13712 -0.849518,-1.5884 -0.601729,-0.60175 -1.388202,-0.90483 -2.176883,-0.91091 -0.129414,-0.001 -0.163969,0.18279 -0.04313,0.22896 0.704605,0.27073 1.408931,0.72259 2.03032,1.34396" /><path
         inkscape:connector-curvature="0"
         id="path298"
         style="fill:#ffffff;fill-opacity:1;fill-rule:nonzero;stroke:none;stroke-width:0.23238182"
         d="m 75.704385,213.39691 c -0.376366,0.45904 -0.787844,0.86083 -1.219517,1.20401 -0.132736,0.10592 -0.02103,0.32218 0.14159,0.27296 0.745528,-0.22595 1.434935,-0.66647 1.96616,-1.31438 0.705139,-0.85974 1.000218,-1.92107 0.90924,-2.94757 -0.0155,-0.17561 -0.261058,-0.19967 -0.308069,-0.0299 -0.262707,0.95209 -0.761027,1.9266 -1.489404,2.81484" /><path
         inkscape:connector-curvature="0"
         id="path300"
         style="fill:#f89a0f;fill-opacity:1;fill-rule:nonzero;stroke:none;stroke-width:0.23238182"
         d="m 77.282838,212.32588 c 0.195224,-0.55474 0.269888,-1.13932 0.21902,-1.71395 -0.0155,-0.17561 -0.261058,-0.19967 -0.308069,-0.0299 -0.119188,0.4322 -0.289524,0.86857 -0.5055,1.29996 0.203799,0.13994 0.402346,0.2876 0.594549,0.44385" /><path
         inkscape:connector-curvature="0"
         id="path302"
         style="fill:#f03b38;fill-opacity:1;fill-rule:nonzero;stroke:none;stroke-width:0.23238182"
         d="m 75.079417,189.24024 h 2.731606 v 1.53117 h -2.731606 z" /><path
         inkscape:connector-curvature="0"
         id="path304"
         style="fill:#f03b38;fill-opacity:1;fill-rule:nonzero;stroke:none;stroke-width:0.23238182"
         d="m 75.079417,182.54838 h 2.731606 v 0.37554 h -2.731606 z" /><path
         inkscape:connector-curvature="0"
         id="path306"
         style="fill:#ce4221;fill-opacity:1;fill-rule:nonzero;stroke:none;stroke-width:0.23238182"
         d="m 64.104303,175.91488 1.247727,-3.87564 c 0,0 -2.087276,2.32565 -1.247727,3.87564" /><path
         inkscape:connector-curvature="0"
         id="path308"
         style="fill:#ce4221;fill-opacity:1;fill-rule:nonzero;stroke:none;stroke-width:0.23238182"
         d="m 75.31475,175.91488 -1.247449,-3.87564 c 0,0 2.086998,2.32565 1.247449,3.87564" /><path
         inkscape:connector-curvature="0"
         id="path310"
         style="fill:#1e3f6a;fill-opacity:1;fill-rule:nonzero;stroke:none;stroke-width:0.23238182"
         d="m 71.232824,197.67646 h -3.046316 c -0.308603,0 -0.558879,0.25028 -0.558879,0.55888 v 0.0575 c 0,0.3086 0.250276,0.5586 0.558879,0.5586 h 3.046316 c 0.308603,0 0.558599,-0.25 0.558599,-0.5586 v -0.0575 c 0,-0.3086 -0.249996,-0.55888 -0.558599,-0.55888" /><path
         inkscape:connector-curvature="0"
         id="path312"
         style="fill:#ce4221;fill-opacity:1;fill-rule:nonzero;stroke:none;stroke-width:0.23238182"
         d="m 72.053852,171.54066 c -1.614403,-0.17008 -3.253438,-0.16122 -4.91541,0.0111 -0.834018,0.0863 -1.471976,0.78312 -1.471976,1.62158 v 1.3575 c 2.618223,-0.35477 5.236446,-0.35477 7.854668,0 v -1.36856 c 0,-0.83679 -0.634913,-1.53421 -1.467282,-1.62159" /><path
         inkscape:connector-curvature="0"
         id="path314"
         style="fill:#3b6fc0;fill-opacity:1;fill-rule:nonzero;stroke:none;stroke-width:0.23238182"
         d="M 28.782034,152.15533 H 11.347642 c -0.603675,0 -1.092864,0.48946 -1.092864,1.09287 v 12.5682 h 19.619846 v -12.5682 c 0,-0.60341 -0.489211,-1.09287 -1.09259,-1.09287" /><path
         inkscape:connector-curvature="0"
         id="path316"
         style="fill:#4881ca;fill-opacity:1;fill-rule:nonzero;stroke:none;stroke-width:0.23238182"
         d="m 29.874624,191.72242 c 0,3.17819 -2.116046,5.96761 -5.177002,6.82348 l -0.05254,0.0149 c -3.01755,0.84371 -6.209033,0.84092 -9.225193,-0.008 -3.054599,-0.8603 -5.165109,-3.64667 -5.165109,-6.82045 V 165.8164 h 19.619846 v 25.90602" /><path
         inkscape:connector-curvature="0"
         id="path318"
         style="fill:#3b6fc0;fill-opacity:1;fill-rule:nonzero;stroke:none;stroke-width:0.23238182"
         d="m 26.312861,196.05516 h -12.49798 l -1.541402,-9.21441 h 15.518004 l -1.478622,9.21441" /><path
         inkscape:connector-curvature="0"
         id="path320"
         style="fill:#598acf;fill-opacity:1;fill-rule:nonzero;stroke:none;stroke-width:0.23238182"
         d="m 12.128022,196.52996 c -1.174165,-1.27619 -1.873244,-2.97247 -1.873244,-4.79787 v -13.5029 l 1.873244,18.30077" /><path
         inkscape:connector-curvature="0"
         id="path322"
         style="fill:#4881ca;fill-opacity:1;fill-rule:nonzero;stroke:none;stroke-width:0.23238182"
         d="m 26.987326,147.46972 v 0 c -4.598773,-0.84452 -9.312855,-0.84452 -13.911621,0 -1.050001,0.19302 -1.812683,1.10834 -1.812683,2.17577 v 16.17091 h 17.536696 v -16.17091 c 0,-1.06743 -0.762398,-1.98275 -1.812392,-2.17577" /><path
         inkscape:connector-curvature="0"
         id="path324"
         style="fill:#245290;fill-opacity:1;fill-rule:nonzero;stroke:none;stroke-width:0.23238182"
         d="m 25.993452,148.73513 v 0 c -3.941718,-0.72396 -7.982438,-0.72396 -11.924159,0 -0.900119,0.16539 -1.55357,0.94963 -1.55357,1.86468 v 13.86074 h 15.031574 v -13.86074 c 0,-0.91505 -0.653714,-1.69929 -1.553845,-1.86468" /><path
         inkscape:connector-curvature="0"
         id="path326"
         style="fill:#1e3f6a;fill-opacity:1;fill-rule:nonzero;stroke:none;stroke-width:0.23238182"
         d="M 28.473408,165.8164 H 11.856465 l 1.201265,1.20125 h 14.014206 l 1.401472,-1.20125" /><path
         inkscape:connector-curvature="0"
         id="path328"
         style="fill:#1e3f6a;fill-opacity:1;fill-rule:nonzero;stroke:none;stroke-width:0.23238182"
         d="m 24.686281,174.57534 h -9.05927 c -0.525139,0 -0.951002,0.42558 -0.951002,0.951 v 4.20416 c 0,0.52513 0.425863,0.951 0.951002,0.951 h 9.05927 c 0.525137,0 0.950721,-0.42587 0.950721,-0.951 v -4.20416 c 0,-0.52542 -0.425584,-0.951 -0.950721,-0.951" /><path
         inkscape:connector-curvature="0"
         id="path330"
         style="fill:#1e3f6a;fill-opacity:1;fill-rule:nonzero;stroke:none;stroke-width:0.23238182"
         d="m 11.572741,167.9186 v 0 c -0.386872,0 -0.700462,0.3136 -0.700462,0.70047 v 16.56689 l 1.4012,-5.20519 v -11.3617 c 0,-0.38687 -0.31359,-0.70047 -0.700738,-0.70047" /><path
         inkscape:connector-curvature="0"
         id="path332"
         style="fill:#3b6fc0;fill-opacity:1;fill-rule:nonzero;stroke:none;stroke-width:0.23238182"
         d="m 9.0703812,183.8846 h 1.2012648 v 0.78425 H 9.0703812 Z" /><path
         inkscape:connector-curvature="0"
         id="path334"
         style="fill:#4881ca;fill-opacity:1;fill-rule:nonzero;stroke:none;stroke-width:0.23238182"
         d="m 6.7679561,183.23419 h 2.8861892 v 1.33454 c 0,0.34098 -0.2762579,0.61723 -0.6172247,0.61723 H 8.0192741 c -0.6910594,0 -1.251318,-0.55997 -1.251318,-1.25103 v -0.70074" /><path
         inkscape:connector-curvature="0"
         id="path336"
         style="fill:#3b6fc0;fill-opacity:1;fill-rule:nonzero;stroke:none;stroke-width:0.23238182"
         d="m 29.791385,183.8846 h 1.201265 v 0.78425 h -1.201265 z" /><path
         inkscape:connector-curvature="0"
         id="path338"
         style="fill:#4881ca;fill-opacity:1;fill-rule:nonzero;stroke:none;stroke-width:0.23238182"
         d="m 33.295075,183.23419 h -2.886206 v 1.33454 c 0,0.34098 0.276256,0.61723 0.61723,0.61723 h 1.017646 c 0.691057,0 1.25133,-0.55997 1.25133,-1.25103 v -0.70074" /><path
         inkscape:connector-curvature="0"
         id="path340"
         style="fill:#245290;fill-opacity:1;fill-rule:nonzero;stroke:none;stroke-width:0.23238182"
         d="m 27.882182,187.23564 c -5.201333,0.82407 -10.500007,0.82407 -15.701342,0 0.292297,-1.84532 0.584593,-3.6909 0.87689,-5.5365 4.620336,0.73173 9.326951,0.73173 13.94728,0 0.292569,1.8456 0.584882,3.69118 0.877172,5.5365" /><path
         inkscape:connector-curvature="0"
         id="path342"
         style="fill:#245290;fill-opacity:1;fill-rule:nonzero;stroke:none;stroke-width:0.23238182"
         d="m 15.445328,174.5936 c 0.0589,-0.0113 0.119463,-0.0183 0.181683,-0.0183 h 1.935187 l 6.106158,6.10616 h -2.135401 l -6.087627,-6.0879" /><path
         inkscape:connector-curvature="0"
         id="path344"
         style="fill:#1e3f6a;fill-opacity:1;fill-rule:nonzero;stroke:none;stroke-width:0.23238182"
         d="m 18.791394,182.22872 c 0.714841,0.0199 1.429959,0.0243 2.145077,0.01 l 5.235892,5.23617 c -0.643767,0.0794 -1.288929,0.14603 -1.934625,0.20022 l -5.446344,-5.44633" /><path
         inkscape:connector-curvature="0"
         id="path346"
         style="fill:#1e3f6a;fill-opacity:1;fill-rule:nonzero;stroke:none;stroke-width:0.23238182"
         d="m 23.546681,187.72815 c -3.790459,0.26631 -7.603591,0.10369 -11.365841,-0.49251 0.292297,-1.84532 0.584593,-3.6909 0.87689,-5.5365 1.647039,0.26078 3.305692,0.42726 4.966834,0.50192 l 5.522117,5.52709" /><path
         inkscape:connector-curvature="0"
         id="path348"
         style="fill:#245290;fill-opacity:1;fill-rule:nonzero;stroke:none;stroke-width:0.23238182"
         d="m 19.180754,174.57534 5.976449,5.97674 c -0.139359,0.0802 -0.298634,0.12942 -0.470922,0.12942 h -0.133294 l -6.106155,-6.10616 h 0.733922" /><path
         inkscape:connector-curvature="0"
         id="path350"
         style="fill:#4881ca;fill-opacity:1;fill-rule:nonzero;stroke:none;stroke-width:0.23238182"
         d="m 26.758895,187.50028 -0.27349,7.81237 c -0.02847,0.81745 -0.55444,1.53395 -1.325437,1.80689 l -1.745466,0.61748 c -2.206751,0.61695 -4.540701,0.61502 -6.746339,-0.006 l -1.704281,-0.60922 c -0.767936,-0.27432 -1.290863,-0.98943 -1.319346,-1.8044 l -0.273769,-7.81706 c 0,0 4.964621,0.28703 6.660607,0.28843 1.712577,0.001 6.727521,-0.28843 6.727521,-0.28843" /><path
         inkscape:connector-curvature="0"
         id="path352"
         style="fill:#82cff3;fill-opacity:1;fill-rule:nonzero;stroke:none;stroke-width:0.23238182"
         d="m 10.89053,194.66252 c 0.254135,0.0702 0.512419,0.15874 0.770149,0.27128 1.649527,0.72066 2.664685,2.06046 2.343628,3.04908 -1.38516,-0.7389 -2.474153,-1.91362 -3.113777,-3.32036" /><path
         inkscape:connector-curvature="0"
         id="path354"
         style="fill:#f89a0f;fill-opacity:1;fill-rule:nonzero;stroke:none;stroke-width:0.23238182"
         d="m 11.82494,196.17544 c -0.01908,-0.0241 -0.03871,-0.0479 -0.05752,-0.0722 -0.103147,-0.13134 -0.20187,-0.26629 -0.295339,-0.40483 -0.01493,-0.0219 -0.02904,-0.044 -0.04369,-0.0661 -0.09596,-0.14519 -0.187491,-0.29341 -0.272663,-0.44578 -0.005,-0.009 -0.0094,-0.0174 -0.0141,-0.026 -0.08987,-0.1626 -0.174217,-0.32824 -0.251094,-0.49804 0.254135,0.0702 0.512419,0.15874 0.770149,0.27128 0.109507,0.0479 0.215696,0.0987 0.319397,0.15181 l 0.147669,1.44103 c -0.104806,-0.11394 -0.205741,-0.2309 -0.302805,-0.3512" /><path
         inkscape:connector-curvature="0"
         id="path356"
         style="fill:#82cff3;fill-opacity:1;fill-rule:nonzero;stroke:none;stroke-width:0.23238182"
         d="m 26.149706,197.98288 c -0.321059,-0.98862 0.694357,-2.32842 2.343896,-3.04908 0.257734,-0.11254 0.515725,-0.20103 0.770136,-0.27128 -0.639607,1.40674 -1.728874,2.58146 -3.114032,3.32036" /><path
         inkscape:connector-curvature="0"
         id="path358"
         style="fill:#f89a0f;fill-opacity:1;fill-rule:nonzero;stroke:none;stroke-width:0.23238182"
         d="m 27.791483,196.7382 c 0.0044,-0.0672 0.0099,-0.13413 0.0099,-0.20436 l 0.152094,-1.32848 c 0.171451,-0.0973 0.35092,-0.18916 0.540079,-0.27156 0.245836,-0.10757 0.491394,-0.19165 0.734466,-0.25994 -0.353128,0.76876 -0.839549,1.46867 -1.436585,2.06434" /><path
         inkscape:connector-curvature="0"
         id="path360"
         style="fill:#245290;fill-opacity:1;fill-rule:nonzero;stroke:none;stroke-width:0.23238182"
         d="m 10.872279,175.70969 1.4012,1.53476 v 2.73632 l -0.400975,1.48941 -1.000225,-1.09536 v -4.66513" /><path
         inkscape:connector-curvature="0"
         id="path362"
         style="fill:#245290;fill-opacity:1;fill-rule:nonzero;stroke:none;stroke-width:0.23238182"
         d="m 10.872279,173.49769 1.4012,1.53449 v 1.15979 l -1.4012,-1.53451 v -1.15977" /><path
         inkscape:connector-curvature="0"
         id="path364"
         style="fill:#1e3f6a;fill-opacity:1;fill-rule:nonzero;stroke:none;stroke-width:0.23238182"
         d="m 28.389913,167.9186 v 0 c 0.387148,0 0.701003,0.3136 0.701003,0.70047 v 16.56689 l -1.401472,-5.20519 v -11.3617 c 0,-0.38687 0.313577,-0.70047 0.700469,-0.70047" /><path
         inkscape:connector-curvature="0"
         id="path366"
         style="fill:#245290;fill-opacity:1;fill-rule:nonzero;stroke:none;stroke-width:0.23238182"
         d="m 29.090916,175.70969 -1.401472,1.53476 v 2.73632 l 0.400975,1.48941 1.000497,-1.09536 v -4.66513" /><path
         inkscape:connector-curvature="0"
         id="path368"
         style="fill:#245290;fill-opacity:1;fill-rule:nonzero;stroke:none;stroke-width:0.23238182"
         d="m 29.090916,173.49769 -1.401472,1.53449 v 1.15979 l 1.401472,-1.53451 v -1.15977" /><path
         inkscape:connector-curvature="0"
         id="path370"
         style="fill:#245290;fill-opacity:1;fill-rule:nonzero;stroke:none;stroke-width:0.23238182"
         d="m 18.296674,165.8164 h 3.877288 l 0.926943,1.20125 H 19.22334 l -0.926666,-1.20125" /><path
         inkscape:connector-curvature="0"
         id="path372"
         style="fill:#245290;fill-opacity:1;fill-rule:nonzero;stroke:none;stroke-width:0.23238182"
         d="m 23.038408,165.8164 h 1.421394 l 0.926948,1.20125 h -1.42141 l -0.926932,-1.20125" /><path
         inkscape:connector-curvature="0"
         id="path374"
         style="fill:#1e3f6a;fill-opacity:1;fill-rule:nonzero;stroke:none;stroke-width:0.23238182"
         d="m 19.831163,149.15244 h 0.400422 v 14.06426 h -0.400422 z" /><path
         inkscape:connector-curvature="0"
         id="path376"
         style="fill:#1e3f6a;fill-opacity:1;fill-rule:nonzero;stroke:none;stroke-width:0.23238182"
         d="m 17.895975,149.15244 h 0.400422 v 14.06426 h -0.400422 z" /><path
         inkscape:connector-curvature="0"
         id="path378"
         style="fill:#1e3f6a;fill-opacity:1;fill-rule:nonzero;stroke:none;stroke-width:0.23238182"
         d="m 15.960511,149.35236 h 0.400422 v 13.86433 h -0.400422 z" /><g
         transform="matrix(0.27653436,0,0,0.27653436,0.05480794,123.5)"
         id="g380"><path
           inkscape:connector-curvature="0"
           id="path382"
           style="fill:none;stroke:#494e56;stroke-width:1.44799995;stroke-linecap:butt;stroke-linejoin:miter;stroke-miterlimit:10;stroke-dasharray:none;stroke-opacity:1"
           d="M 51.244,143.623 V 95.659 m 41.99,47.964 V 95.659" /></g><path
         inkscape:connector-curvature="0"
         id="path384"
         style="fill:#1e3f6a;fill-opacity:1;fill-rule:nonzero;stroke:none;stroke-width:0.23238182"
         d="m 23.701819,149.35236 h 0.400422 v 13.86433 h -0.400422 z" /><path
         inkscape:connector-curvature="0"
         id="path386"
         style="fill:#1e3f6a;fill-opacity:1;fill-rule:nonzero;stroke:none;stroke-width:0.23238182"
         d="m 21.766627,149.15244 h 0.400422 v 14.06426 h -0.400422 z" /><path
         inkscape:connector-curvature="0"
         id="path388"
         style="fill:#1e3f6a;fill-opacity:1;fill-rule:nonzero;stroke:none;stroke-width:0.23238182"
         d="m 12.515723,164.50231 v -13.86074 c 0,-0.91477 0.653451,-1.69929 1.55357,-1.86493 0.212102,-0.0387 0.42448,-0.0744 0.636859,-0.10925 v 11.12858 c 0,1.29002 1.045852,2.3356 2.335885,2.3356 h 5.97895 c 1.290021,0 2.3356,-1.04558 2.3356,-2.3356 v -11.12858 c 0.212652,0.0348 0.425049,0.0705 0.636865,0.10925 0.900131,0.16564 1.553845,0.95016 1.553845,1.86493 v 13.86074 H 12.515723" /><path
         inkscape:connector-curvature="0"
         id="path390"
         style="fill:#3b6fc0;fill-opacity:1;fill-rule:nonzero;stroke:none;stroke-width:0.23238182"
         d="m 14.676009,167.9186 h 1.084292 v 4.97153 h -1.084292 z" /><path
         inkscape:connector-curvature="0"
         id="path392"
         style="fill:#3b6fc0;fill-opacity:1;fill-rule:nonzero;stroke:none;stroke-width:0.23238182"
         d="m 17.145185,167.9186 h 1.084567 v 4.97153 h -1.084567 z" /><path
         inkscape:connector-curvature="0"
         id="path394"
         style="fill:#3b6fc0;fill-opacity:1;fill-rule:nonzero;stroke:none;stroke-width:0.23238182"
         d="m 19.61436,167.9186 h 1.084291 v 4.97153 H 19.61436 Z" /><path
         inkscape:connector-curvature="0"
         id="path396"
         style="fill:#3b6fc0;fill-opacity:1;fill-rule:nonzero;stroke:none;stroke-width:0.23238182"
         d="m 22.083535,167.9186 h 1.084291 v 4.97153 h -1.084291 z" /><path
         inkscape:connector-curvature="0"
         id="path398"
         style="fill:#3b6fc0;fill-opacity:1;fill-rule:nonzero;stroke:none;stroke-width:0.23238182"
         d="m 24.552708,167.9186 h 1.084291 v 4.97153 h -1.084291 z" /></g></g></svg>