<?xml version="1.0" encoding="UTF-8" standalone="no"?>
<!-- Created with Inkscape (http://www.inkscape.org/) -->

<svg
   xmlns:dc="http://purl.org/dc/elements/1.1/"
   xmlns:cc="http://creativecommons.org/ns#"
   xmlns:rdf="http://www.w3.org/1999/02/22-rdf-syntax-ns#"
   xmlns:svg="http://www.w3.org/2000/svg"
   xmlns="http://www.w3.org/2000/svg"
   xmlns:sodipodi="http://sodipodi.sourceforge.net/DTD/sodipodi-0.dtd"
   xmlns:inkscape="http://www.inkscape.org/namespaces/inkscape"
   version="1.1"
   id="svg2"
   xml:space="preserve"
   width="253"
   height="253"
   viewBox="0 0 253 252.99999"
   sodipodi:docname="2-1-4-misi1.svg"
   inkscape:version="0.92.2 5c3e80d, 2017-08-06"><metadata
     id="metadata8"><rdf:RDF><cc:Work
         rdf:about=""><dc:format>image/svg+xml</dc:format><dc:type
           rdf:resource="http://purl.org/dc/dcmitype/StillImage" /><dc:title></dc:title></cc:Work></rdf:RDF></metadata><defs
     id="defs6"><clipPath
       clipPathUnits="userSpaceOnUse"
       id="clipPath20"><path
         d="M 0,719.2419 V 122.7581 h 595 v 596.4838 z"
         id="path18"
         inkscape:connector-curvature="0" /></clipPath><clipPath
       clipPathUnits="userSpaceOnUse"
       id="clipPath26"><path
         d="M 0,0 H 595 V 842 H 0 Z"
         id="path24"
         inkscape:connector-curvature="0" /></clipPath><linearGradient
       x1="0"
       y1="0"
       x2="1"
       y2="0"
       gradientUnits="userSpaceOnUse"
       gradientTransform="matrix(-293.2297,349.4579,349.4579,293.2297,312.6703,385.9885)"
       spreadMethod="pad"
       id="linearGradient32"><stop
         style="stop-opacity:1;stop-color:#ffffff"
         offset="0"
         id="stop28" /><stop
         style="stop-opacity:1;stop-color:#d3d4d3"
         offset="1"
         id="stop30" /></linearGradient><linearGradient
       x1="0"
       y1="0"
       x2="1"
       y2="0"
       gradientUnits="userSpaceOnUse"
       gradientTransform="matrix(293.2297,349.4579,-349.4579,293.2297,282.1427,385.9892)"
       spreadMethod="pad"
       id="linearGradient40"><stop
         style="stop-opacity:1;stop-color:#ffffff"
         offset="0"
         id="stop36" /><stop
         style="stop-opacity:1;stop-color:#d3d4d3"
         offset="1"
         id="stop38" /></linearGradient><linearGradient
       x1="0"
       y1="0"
       x2="1"
       y2="0"
       gradientUnits="userSpaceOnUse"
       gradientTransform="matrix(-293.2289,-349.4564,349.4564,-293.2289,312.9982,457.5154)"
       spreadMethod="pad"
       id="linearGradient48"><stop
         style="stop-opacity:1;stop-color:#ffffff"
         offset="0"
         id="stop44" /><stop
         style="stop-opacity:1;stop-color:#d3d4d3"
         offset="1"
         id="stop46" /></linearGradient><linearGradient
       x1="0"
       y1="0"
       x2="1"
       y2="0"
       gradientUnits="userSpaceOnUse"
       gradientTransform="matrix(293.2297,-349.4579,-349.4579,-293.2297,279.9215,456.3402)"
       spreadMethod="pad"
       id="linearGradient56"><stop
         style="stop-opacity:1;stop-color:#ffffff"
         offset="0"
         id="stop52" /><stop
         style="stop-opacity:1;stop-color:#d3d4d3"
         offset="1"
         id="stop54" /></linearGradient></defs><sodipodi:namedview
     pagecolor="#ffffff"
     bordercolor="#666666"
     borderopacity="1"
     objecttolerance="10"
     gridtolerance="10"
     guidetolerance="10"
     inkscape:pageopacity="0"
     inkscape:pageshadow="2"
     inkscape:window-width="1366"
     inkscape:window-height="724"
     id="namedview4"
     showgrid="false"
     height="253px"
     inkscape:zoom="0.29728715"
     inkscape:cx="418.69899"
     inkscape:cy="492.30329"
     inkscape:window-x="0"
     inkscape:window-y="0"
     inkscape:window-maximized="1"
     inkscape:current-layer="g10" /><g
     id="g10"
     inkscape:groupmode="layer"
     inkscape:label="16"
     transform="matrix(1.3333333,0,0,-1.3333333,0,252.99995)"><rect
       style="fill:#e6e6e6;fill-opacity:1;stroke-width:2.57208514"
       id="rect836"
       width="189.75"
       height="189.75"
       x="0"
       y="-3.7500002e-05" /><g
       id="g1202"
       transform="translate(-103.03327,-440.20865)"><path
         d="m 273.2749,536.364 c 0,40.8636 -33.1264,73.9892 -73.9892,73.9892 -40.8644,0 -73.99,-33.1256 -73.99,-73.9892 0,-8.876 1.5647,-17.3856 4.4306,-25.2704 -2.814,-4.7986 -4.4306,-10.3851 -4.4306,-16.3484 0,-12.9127 7.5621,-24.0582 18.4984,-29.2537 v 58.5066 c -2.9097,-1.3814 -5.5761,-3.1879 -7.9279,-5.3328 -0.8658,4.2229 -1.322,8.5956 -1.322,13.0745 0,35.7549 28.9858,64.7407 64.7415,64.7407 35.7549,0 64.7407,-28.9858 64.7407,-64.7407 0,-4.4789 -0.4555,-8.8516 -1.3221,-13.0745 -2.3525,2.1449 -5.0174,3.9514 -7.9271,5.3328 v -58.5066 c 10.937,5.1955 18.4977,16.341 18.4977,29.2537 0,5.9633 -1.6166,11.5498 -4.4306,16.3484 2.8652,7.8848 4.4306,16.3944 4.4306,25.2704 z m -36.9946,-9.2477 V 462.374 h 4.6242 c 1.5698,0 3.113,0.115 4.6242,0.3302 v 64.0812 c -1.5112,0.2159 -3.0544,0.3309 -4.6242,0.3309 z m -83.2385,-0.3309 v -64.082 c 1.5113,-0.2151 3.0537,-0.3294 4.6243,-0.3294 h 4.6242 v 64.7423 h -4.6242 c -1.5706,0 -3.113,-0.115 -4.6243,-0.3309"
         style="fill:#100f0d;fill-opacity:1;fill-rule:nonzero;stroke:none"
         id="path172"
         inkscape:connector-curvature="0" /><path
         d="m 176.7298,491.3198 v 12.6864 c 0,1.7524 -1.42,3.1716 -3.1723,3.1716 -1.7524,0 -3.1716,-1.4192 -3.1716,-3.1716 v -12.6864 c 0,-1.7531 1.4192,-3.1723 3.1716,-3.1723 1.7523,0 3.1723,1.4192 3.1723,3.1723"
         style="fill:#2d807d;fill-opacity:1;fill-rule:nonzero;stroke:none"
         id="path174"
         inkscape:connector-curvature="0" /><path
         d="m 186.9509,478.1015 v 37.0057 c 0,1.7524 -1.42,3.1724 -3.1723,3.1724 -1.7517,0 -3.1716,-1.42 -3.1716,-3.1724 v -37.0057 c 0,-1.7509 1.4199,-3.1716 3.1716,-3.1716 1.7523,0 3.1723,1.4207 3.1723,3.1716"
         style="fill:#ce1f4c;fill-opacity:1;fill-rule:nonzero;stroke:none"
         id="path176"
         inkscape:connector-curvature="0" /><path
         d="m 197.172,483.5655 v 20.4407 c 0,1.7524 -1.42,3.1716 -3.1723,3.1716 -1.7517,0 -3.1716,-1.4192 -3.1716,-3.1716 v -20.4407 c 0,-1.7538 1.4199,-3.1723 3.1716,-3.1723 1.7523,0 3.1723,1.4185 3.1723,3.1723"
         style="fill:#2d807d;fill-opacity:1;fill-rule:nonzero;stroke:none"
         id="path178"
         inkscape:connector-curvature="0" /><path
         d="m 225.0131,500.8339 c -1.7524,0 -3.1723,-1.42 -3.1723,-3.1709 v -17.6252 c 0,-1.7501 1.4199,-3.1716 3.1723,-3.1716 1.7524,0 3.1723,1.4215 3.1723,3.1716 v 17.6252 c 0,1.7509 -1.4199,3.1709 -3.1723,3.1709"
         style="fill:#ce1f4c;fill-opacity:1;fill-rule:nonzero;stroke:none"
         id="path180"
         inkscape:connector-curvature="0" /><path
         d="m 214.7935,523.0373 c -1.7516,0 -3.1723,-1.4192 -3.1723,-3.1708 v -48.109 c 0,-1.7516 1.4207,-3.1716 3.1723,-3.1716 1.7524,0 3.1723,1.42 3.1723,3.1716 v 48.109 c 0,1.7516 -1.4214,3.1708 -3.1723,3.1708"
         style="fill:#2d807d;fill-opacity:1;fill-rule:nonzero;stroke:none"
         id="path182"
         inkscape:connector-curvature="0" /><path
         d="m 204.5724,476.8662 c 1.7524,0 3.1716,1.4215 3.1716,3.1716 v 30.5765 c 0,1.7516 -1.4192,3.1723 -3.1716,3.1723 -1.7516,0 -3.1716,-1.4207 -3.1716,-3.1723 v -30.5765 c 0,-1.7501 1.42,-3.1716 3.1716,-3.1716"
         style="fill:#ce1f4c;fill-opacity:1;fill-rule:nonzero;stroke:none"
         id="path184"
         inkscape:connector-curvature="0" /></g></g></svg>