<?xml version="1.0" encoding="UTF-8" standalone="no"?>
<!-- Created with Inkscape (http://www.inkscape.org/) -->

<svg
   xmlns:dc="http://purl.org/dc/elements/1.1/"
   xmlns:cc="http://creativecommons.org/ns#"
   xmlns:rdf="http://www.w3.org/1999/02/22-rdf-syntax-ns#"
   xmlns:svg="http://www.w3.org/2000/svg"
   xmlns="http://www.w3.org/2000/svg"
   xmlns:sodipodi="http://sodipodi.sourceforge.net/DTD/sodipodi-0.dtd"
   xmlns:inkscape="http://www.inkscape.org/namespaces/inkscape"
   version="1.1"
   id="svg2"
   xml:space="preserve"
   width="253"
   height="253"
   viewBox="0 0 253 252.99999"
   sodipodi:docname="2-1-2-misi2.svg"
   inkscape:version="0.92.2 5c3e80d, 2017-08-06"><metadata
     id="metadata8"><rdf:RDF><cc:Work
         rdf:about=""><dc:format>image/svg+xml</dc:format><dc:type
           rdf:resource="http://purl.org/dc/dcmitype/StillImage" /><dc:title></dc:title></cc:Work></rdf:RDF></metadata><defs
     id="defs6"><clipPath
       clipPathUnits="userSpaceOnUse"
       id="clipPath20"><path
         d="M 0.044625,101.1875 H 594.94052 V 740.2941 H 0.044625 Z"
         id="path18"
         inkscape:connector-curvature="0" /></clipPath><clipPath
       clipPathUnits="userSpaceOnUse"
       id="clipPath30"><path
         d="m 0,101.1875 h 595 v 639.625 H 0 Z"
         id="path28"
         inkscape:connector-curvature="0" /></clipPath><clipPath
       clipPathUnits="userSpaceOnUse"
       id="clipPath42"><path
         d="M 0.044625,101.1875 H 594.94052 V 740.2941 H 0.044625 Z"
         id="path40"
         inkscape:connector-curvature="0" /></clipPath><clipPath
       clipPathUnits="userSpaceOnUse"
       id="clipPath56"><path
         d="m 0,101.1875 h 595 v 639.625 H 0 Z"
         id="path54"
         inkscape:connector-curvature="0" /></clipPath><clipPath
       clipPathUnits="userSpaceOnUse"
       id="clipPath70"><path
         d="M 0.044625,101.1875 H 594.94052 V 740.2941 H 0.044625 Z"
         id="path68"
         inkscape:connector-curvature="0" /></clipPath><clipPath
       clipPathUnits="userSpaceOnUse"
       id="clipPath82"><path
         d="m 0,101.1875 h 595 v 639.625 H 0 Z"
         id="path80"
         inkscape:connector-curvature="0" /></clipPath><clipPath
       clipPathUnits="userSpaceOnUse"
       id="clipPath94"><path
         d="M 0.044625,101.1875 H 594.94052 V 740.2941 H 0.044625 Z"
         id="path92"
         inkscape:connector-curvature="0" /></clipPath><clipPath
       clipPathUnits="userSpaceOnUse"
       id="clipPath106"><path
         d="m 0,101.1875 h 595 v 639.625 H 0 Z"
         id="path104"
         inkscape:connector-curvature="0" /></clipPath><clipPath
       clipPathUnits="userSpaceOnUse"
       id="clipPath182"><path
         d="M 0.044625,101.1875 H 594.94052 V 740.2941 H 0.044625 Z"
         id="path180"
         inkscape:connector-curvature="0" /></clipPath><clipPath
       clipPathUnits="userSpaceOnUse"
       id="clipPath196"><path
         d="m 0,101.1875 h 595 v 639.625 H 0 Z"
         id="path194"
         inkscape:connector-curvature="0" /></clipPath><clipPath
       clipPathUnits="userSpaceOnUse"
       id="clipPath220"><path
         d="M 0.044625,101.1875 H 594.94052 V 740.2941 H 0.044625 Z"
         id="path218"
         inkscape:connector-curvature="0" /></clipPath><clipPath
       clipPathUnits="userSpaceOnUse"
       id="clipPath234"><path
         d="m 0,101.1875 h 595 v 639.625 H 0 Z"
         id="path232"
         inkscape:connector-curvature="0" /></clipPath><clipPath
       clipPathUnits="userSpaceOnUse"
       id="clipPath248"><path
         d="M 0.044625,101.1875 H 594.94052 V 740.2941 H 0.044625 Z"
         id="path246"
         inkscape:connector-curvature="0" /></clipPath><clipPath
       clipPathUnits="userSpaceOnUse"
       id="clipPath274"><path
         d="m 0,101.1875 h 595 v 639.625 H 0 Z"
         id="path272"
         inkscape:connector-curvature="0" /></clipPath></defs><sodipodi:namedview
     pagecolor="#ffffff"
     bordercolor="#666666"
     borderopacity="1"
     objecttolerance="10"
     gridtolerance="10"
     guidetolerance="10"
     inkscape:pageopacity="0"
     inkscape:pageshadow="2"
     inkscape:window-width="1366"
     inkscape:window-height="746"
     id="namedview4"
     showgrid="false"
     inkscape:zoom="1.1891486"
     inkscape:cx="263.25376"
     inkscape:cy="121.37044"
     inkscape:window-x="0"
     inkscape:window-y="0"
     inkscape:window-maximized="1"
     inkscape:current-layer="g10" /><g
     id="g10"
     inkscape:groupmode="layer"
     inkscape:label="33638-NZEIQE"
     transform="matrix(1.3333333,0,0,-1.3333333,0,252.99995)"><path
       d="M 3.860134e-6,-4.1172128e-5 H 189.75001 V 189.7492 H 3.860134e-6 Z"
       style="fill:#ec7b59;fill-opacity:1;fill-rule:nonzero;stroke:none;stroke-width:0.9568218"
       id="path108"
       inkscape:connector-curvature="0" /><g
       id="g1886"
       transform="matrix(0.70353677,0,0,0.70353677,-15.416572,-6.2026676)"><path
         inkscape:connector-curvature="0"
         id="path506"
         style="fill:#ffbca8;fill-opacity:1;fill-rule:evenodd;stroke:none;stroke-width:0.9568218"
         d="m 119.28669,165.65107 1.60258,-34.49084 34.52146,-0.76431 -23.25632,-25.52284 23.86907,-24.949225 -34.49238,-1.604016 -0.76287,-34.52012 -25.523508,23.256319 -24.949223,-23.868972 -1.602677,34.490842 -34.520694,0.764309 23.255553,25.522833 -23.868972,24.94923 34.491512,1.60401 0.763639,34.52003 25.522838,-23.25622 24.949992,23.86897" /><path
         inkscape:connector-curvature="0"
         id="path508"
         style="fill:#f7a288;fill-opacity:1;fill-rule:evenodd;stroke:none;stroke-width:0.9568218"
         d="m 94.79138,170.36992 14.29894,-31.42872 32.33531,12.11135 -12.11346,-32.33321 31.42872,-14.2996 L 129.31217,90.120131 141.42563,57.785487 109.09032,69.896842 94.79138,38.468213 80.491774,69.896842 48.157226,57.785487 60.26925,90.120131 28.840526,104.41974 60.26925,118.71934 48.157226,151.05255 80.491774,138.9412 94.79138,170.36992" /><path
         inkscape:connector-curvature="0"
         id="path510"
         style="fill:#ffffff;fill-opacity:1;fill-rule:evenodd;stroke:none;stroke-width:0.9568218"
         d="m 94.79138,141.75865 c 21.30718,0 38.57924,-17.27427 38.57924,-38.58001 0,-10.193402 -3.95387,-19.463187 -10.41194,-26.359671 l 0.002,-0.0029 c -6.63815,-7.893492 -15.11798,-15.450279 -15.11798,-24.9741 0,-9.521047 -13.04215,-9.78934 -13.050762,-9.78934 -0.01,0 -13.052101,0.268293 -13.052101,9.78934 0,9.523821 -8.479163,17.080608 -15.117306,24.9741 l 7.66e-4,0.0029 c -6.456729,6.897919 -10.411943,16.166269 -10.411943,26.359671 0,21.30574 17.272833,38.58001 38.580584,38.58001" /><path
         inkscape:connector-curvature="0"
         id="path512"
         style="fill:#427599;fill-opacity:1;fill-rule:evenodd;stroke:none;stroke-width:0.9568218"
         d="M 107.84214,51.841998 V 36.832143 c 0,-2.512805 -2.05592,-4.568728 -4.56729,-4.568728 H 86.307241 c -2.51204,0 -4.567963,2.055923 -4.567963,4.568728 v 15.009855 h 26.102862" /><path
         inkscape:connector-curvature="0"
         id="path520"
         style="fill:#427599;fill-opacity:1;fill-rule:nonzero;stroke:none;stroke-width:0.9568218"
         d="m 95.075364,49.326322 1.532159,0.561463 -0.03205,-0.0377 -0.03339,-0.03559 -0.03636,-0.0377 -0.03559,-0.0377 -0.0377,-0.03779 -0.03913,-0.0355 -0.0398,-0.03779 -0.04057,-0.0377 -0.04344,-0.03626 -0.04124,-0.03703 -0.04488,-0.03626 -0.04411,-0.03626 -0.04488,-0.03492 -0.04555,-0.03483 -0.04622,-0.03416 -0.04554,-0.03349 -0.04698,-0.03339 -0.04621,-0.03205 -0.04698,-0.03205 -0.04775,-0.03062 -0.04554,-0.03052 -0.04765,-0.02775 -0.04555,-0.02784 -0.04554,-0.02631 -0.04621,-0.02631 -0.04411,-0.02421 -0.04487,-0.02201 -0.04411,-0.0221 -0.04344,-0.01923 -0.042,-0.0199 -0.04124,-0.01636 -0.0399,-0.01569 -0.03913,-0.01206 -0.03626,-0.01282 -0.03483,-0.0096 -0.03205,-0.0067 -0.03062,-0.0057 -0.02842,-0.0038 -0.02564,-9.57e-4 h -0.02421 l -0.02134,9.57e-4 -0.01923,0.0029 -0.01847,0.0057 -0.01493,0.0067 -0.01359,0.0096 -0.01139,0.01 -0.0086,0.01282 -0.0067,0.01215 -0.0048,0.0156 -0.0019,0.0178 v 0.0178 l 0.0019,0.0199 0.0048,0.02067 0.0067,0.02344 0.0086,0.02354 0.01139,0.02698 0.01416,0.02641 0.01502,0.02918 0.01847,0.02918 0.02067,0.03052 0.02277,0.03205 0.02555,0.03416 0.02708,0.03492 0.03062,0.03483 z m 1.532159,0.561463 -1.532159,-0.561463 0.899509,1.080252 0.860374,1.081017 0.816264,1.078816 0.77139,1.074607 0.72087,1.063125 0.671784,1.051834 0.618395,1.033941 0.5629,1.01337 0.50463,0.989928 0.44473,0.961415 0.38215,0.930126 0.31671,0.895202 0.25049,0.857504 0.18075,0.81416 0.11099,0.769954 0.0363,0.721635 -0.0377,0.668914 -0.11529,0.612749 -0.19424,0.552947 -0.27681,0.491041 -0.35871,0.426264 -0.44473,0.355842 -0.5295,0.285325 -0.61983,0.209926 -0.710253,0.130224 -0.802008,0.05052 -0.896637,-0.03626 -0.993468,-0.122377 -1.091638,-0.214233 -1.192679,-0.308862 -1.296589,-0.405596 -1.40337,-0.507403 1.159955,1.394089 1.511587,0.547972 1.397629,0.43765 1.287308,0.332305 1.175647,0.230594 1.068866,0.132328 0.96352,0.03703 0.86037,-0.05272 0.75723,-0.140174 0.6604,-0.222748 0.56433,-0.302452 0.46971,-0.377083 0.37928,-0.450472 0.29107,-0.516683 0.20418,-0.582131 0.12171,-0.644037 0.0406,-0.698766 -0.0391,-0.755124 -0.1153,-0.803443 -0.18859,-0.850328 -0.26112,-0.893863 -0.33096,-0.933667 -0.39919,-0.96926 -0.46262,-1.003419 -0.52654,-1.032506 -0.58711,-1.057575 -0.64757,-1.081687 -0.70317,-1.102259 -0.75934,-1.115846 -0.809753,-1.131537 -0.863245,-1.140723 -0.912999,-1.147134 z m -4.347415,17.04444 1.159955,1.394089 0.0399,0.0156 0.03693,0.01215 0.03559,0.01 0.03349,0.01 0.03129,0.0048 0.02918,0.0057 0.02775,0.0029 0.02497,9.56e-4 0.02344,-9.56e-4 0.02067,-9.57e-4 0.01847,-0.0038 0.01713,-0.0067 0.01416,-0.0067 0.01282,-0.01005 0.01,-0.01062 0.0077,-0.01282 0.0057,-0.01426 0.0038,-0.01493 0.0019,-0.0178 -7.65e-4,-0.0199 -0.0038,-0.01923 -0.0048,-0.02201 -0.0077,-0.02421 -0.01,-0.02497 -0.01206,-0.02631 -0.01502,-0.02775 -0.01703,-0.02918 -0.01923,-0.02918 -0.02134,-0.03196 -0.02421,-0.03349 -0.02708,-0.03492 -0.02842,-0.03406 -0.03062,-0.03636 -0.03272,-0.0377 -0.03416,-0.03626 -0.03483,-0.03703 -0.03703,-0.03626 -0.03846,-0.0378 -0.03913,-0.0377 -0.0398,-0.03559 -0.042,-0.0377 -0.04201,-0.03626 -0.04344,-0.0377 -0.04334,-0.03559 -0.04488,-0.03492 -0.04478,-0.03626 -0.04631,-0.03483 -0.04554,-0.03349 -0.04698,-0.03339 -0.04622,-0.03349 -0.04698,-0.03129 -0.04698,-0.03062 -0.04621,-0.03062 -0.04775,-0.02918 -0.04621,-0.02918 -0.04631,-0.02698 -0.04555,-0.02641 -0.04621,-0.02488 -0.04487,-0.02344 -0.04411,-0.0221 -0.04334,-0.02134 -0.04344,-0.01923 -0.04133,-0.0178 -0.04124,-0.01703 z m 1.159955,1.394089 -1.159955,-1.394089 -0.939312,-0.380719 -0.86535,-0.392106 -0.787847,-0.392871 -0.706613,-0.39067 -0.620594,-0.377179 -0.53649,-0.357947 -0.456883,-0.33661 -0.39,-0.319483 -0.338715,-0.308862 -0.298911,-0.307427 -0.262648,-0.309628 -0.222652,-0.313072 -0.177969,-0.310967 -0.125248,-0.300346 -0.06688,-0.284655 -0.0048,-0.262551 0.06334,-0.234135 0.132424,-0.19854 0.203516,-0.160842 0.277478,-0.116732 0.350197,-0.06975 0.426264,-0.01703 0.503862,0.0377 0.581365,0.09606 0.659633,0.160076 0.740197,0.226288 0.821145,0.297476 0.904483,0.370769 0.989928,0.449036 1.076712,0.532376 1.165696,0.619829 1.258125,0.710153 -0.446932,-1.041787 -1.403275,-0.794163 -1.311611,-0.697427 -1.220426,-0.602032 -1.127901,-0.513144 -1.036143,-0.424829 -0.945148,-0.342255 -0.854634,-0.261212 -0.763543,-0.185049 -0.675421,-0.112427 -0.58634,-0.04411 -0.500322,0.02067 -0.413443,0.08181 -0.329434,0.138739 -0.246286,0.193565 -0.161511,0.244851 -0.07903,0.291735 0.0057,0.337375 0.08965,0.38426 0.177873,0.424829 0.269728,0.469704 0.365123,0.510177 0.466068,0.550842 0.567204,0.583566 0.661068,0.603467 0.743737,0.605573 0.807654,0.596387 0.856068,0.572849 0.898839,0.545867 0.937206,0.517353 0.977777,0.488841 1.01978,0.461858 1.06389,0.430569 z m 2.193992,-4.036448 -0.446931,-1.041787 -0.04832,-0.02851 -0.04774,-0.02631 -0.04555,-0.02344 -0.04555,-0.02354 -0.04267,-0.02067 -0.042,-0.01847 -0.04057,-0.0178 -0.03913,-0.0156 -0.0377,-0.01359 -0.03626,-0.01282 -0.03349,-0.01062 -0.03272,-0.0086 -0.03129,-0.0067 -0.02918,-0.0057 -0.02708,-0.0038 -0.02564,-9.57e-4 h -0.02411 l -0.02143,9.57e-4 -0.0199,0.0019 -0.0178,0.0057 -0.0156,0.0077 -0.01359,0.0086 -0.01139,0.01072 -0.0086,0.01139 -0.0067,0.01349 -0.0048,0.0156 -0.0019,0.0178 v 0.01856 l 0.0029,0.02201 0.0048,0.0221 0.0077,0.02344 0.01072,0.02708 0.01273,0.02775 0.01502,0.02775 0.01703,0.03062 0.01923,0.03062 0.02134,0.03062 0.02344,0.03272 0.02564,0.03196 0.02631,0.03349 0.02918,0.03483 0.03062,0.03492 0.03272,0.03483 0.03349,0.03626 0.03559,0.03559 0.03559,0.03492 0.03837,0.0377 0.03913,0.03626 0.04057,0.03559 0.04133,0.03636 0.04268,0.03626 0.04267,0.03626 0.04487,0.03626 0.04478,0.03559 0.09252,0.06975 0.04765,0.03492 0.04698,0.03339 0.04775,0.03349 0.04832,0.03272 0.04918,0.03062 0.04832,0.03196 0.04985,0.02918 0.04909,0.02918 z m -0.446931,-1.041787 0.446931,1.041787 1.216886,0.745077 1.20837,0.81062 1.197654,0.87243 1.184165,0.931561 1.16359,0.982752 1.13431,1.028296 1.09805,1.064656 1.04829,1.093743 0.9906,1.112305 0.92152,1.120056 0.84401,1.120151 0.75292,1.109435 0.65332,1.089533 0.54644,1.058245 0.4277,1.019685 0.30035,0.971461 0.16438,0.913669 0.0178,0.846213 -0.13587,0.769955 -0.30179,0.685275 -0.47257,0.590646 -0.65609,0.486831 -0.84679,0.374979 -1.04753,0.251931 -1.25822,0.121708 -1.47733,-0.01923 -1.70649,-0.169358 -1.94493,-0.328094 -2.191892,-0.496017 -2.448698,-0.675994 -2.716322,-0.861809 -2.99246,-1.058915 1.192774,1.406911 3.071398,1.086662 2.793824,0.888122 2.527062,0.695227 2.267954,0.513813 2.01679,0.340916 1.77557,0.175002 1.54001,0.02067 1.31438,-0.126684 1.09949,-0.265422 0.8909,-0.392775 0.69101,-0.513144 0.50032,-0.624135 0.31805,-0.725845 0.14448,-0.818369 -0.0178,-0.900944 -0.175,-0.975671 -0.32245,-1.039682 -0.46042,-1.096614 -0.58778,-1.143593 -0.71024,-1.181292 -0.82258,-1.211911 -0.92736,-1.231908 -1.02399,-1.245303 -1.11374,-1.24827 -1.19411,-1.245303 -1.26741,-1.229708 -1.33428,-1.209135 -1.39132,-1.174882 -1.439633,-1.132973 -1.476663,-1.073841 -1.496565,-1.004758 z m -4.879696,18.603581 1.192774,1.406911 0.03913,0.01349 0.03693,0.01282 0.03492,0.0096 0.03272,0.0067 0.03062,0.0067 0.02918,0.0048 0.02564,9.57e-4 h 0.02411 l 0.0221,-9.57e-4 0.0199,-0.0029 0.01856,-0.0057 0.0156,-0.0057 0.01359,-0.0077 0.01139,-0.01139 0.0086,-0.01139 0.0077,-0.01359 0.0048,-0.0156 0.0019,-0.01636 6.7e-4,-0.01713 -0.0019,-0.02067 -0.0038,-0.02057 -0.0067,-0.0221 -0.0096,-0.02421 -0.01072,-0.02631 -0.01349,-0.02631 -0.01493,-0.02775 -0.01856,-0.02918 -0.0199,-0.03205 -0.02277,-0.03205 -0.02488,-0.03339 -0.02708,-0.03416 -0.02985,-0.03492 -0.03129,-0.0377 -0.03349,-0.03626 -0.03483,-0.0377 -0.03636,-0.03559 -0.0377,-0.0377 -0.03846,-0.03779 -0.0398,-0.03693 -0.04124,-0.03636 -0.04134,-0.0377 -0.04334,-0.03626 -0.04277,-0.0377 -0.04478,-0.03416 -0.04411,-0.03636 -0.04631,-0.03483 -0.04555,-0.03483 -0.04698,-0.03349 -0.04554,-0.03349 -0.04698,-0.03272 -0.04688,-0.03052 -0.04631,-0.03205 -0.04765,-0.02918 -0.04631,-0.02918 -0.04698,-0.02775 -0.04555,-0.02708 -0.04555,-0.02631 -0.04478,-0.02344 -0.04488,-0.02354 -0.04411,-0.02057 -0.04334,-0.02143 -0.042,-0.0178 -0.04201,-0.0177 -0.0399,-0.01569 z m 1.192774,1.406911 -1.192774,-1.406911 -1.109434,-0.440521 -0.997679,-0.456117 -0.881711,-0.456882 -0.758568,-0.447601 -0.639061,-0.42703 -0.538021,-0.407032 -0.468939,-0.402822 -0.424924,-0.418418 -0.38847,-0.444731 -0.345221,-0.466163 -0.291065,-0.47889 -0.226289,-0.479654 -0.155866,-0.47114 -0.08104,-0.453342 -0.0038,-0.426934 0.07616,-0.395645 0.153761,-0.357278 0.234804,-0.314507 0.313168,-0.264083 0.393541,-0.209926 0.470374,-0.151561 0.548641,-0.08898 0.62557,-0.01914 0.700202,0.05119 0.774261,0.128119 0.846117,0.207056 0.917305,0.28896 0.987057,0.377179 1.05681,0.465398 1.126466,0.561463 1.199855,0.660399 1.277357,0.767084 -0.240545,-0.91721 -1.506516,-0.906684 -1.422507,-0.782106 -1.332183,-0.664609 -1.240424,-0.547302 -1.147133,-0.43832 -1.053939,-0.331634 -0.961415,-0.237005 -0.870325,-0.143045 -0.780001,-0.05837 -0.691017,0.02277 -0.603467,0.09683 -0.515153,0.165817 -0.4299,0.230594 -0.343021,0.288865 -0.257576,0.345125 -0.170027,0.392871 -0.08401,0.440521 0.0048,0.483865 0.09386,0.522329 0.185049,0.560793 0.28255,0.597057 0.386364,0.634086 0.498887,0.672454 0.624135,0.713119 0.755698,0.743642 0.882477,0.757899 0.980646,0.742206 1.048964,0.700298 1.100154,0.647577 1.146464,0.596291 1.201194,0.547972 1.259655,0.501758 z m 2.958206,-7.295671 0.240545,0.91721 3.47422,2.235996 2.976097,2.042432 2.49424,1.849537 2.03957,1.655206 1.61616,1.473792 1.24244,1.311611 0.91596,1.182728 0.61486,1.073171 0.32378,0.967825 0.0355,0.860375 -0.23834,0.747182 -0.50453,0.63265 -0.75226,0.517354 -0.98131,0.404257 -1.18991,0.294605 -1.37983,0.186389 -1.55139,0.0819 -1.69865,-0.01636 -1.82743,-0.114628 -1.936416,-0.204185 -2.02387,-0.290396 -2.089412,-0.373639 -2.135626,-0.453246 -2.161173,-0.5252 -2.16414,-0.593516 -2.145577,-0.657528 -2.106443,-0.715894 -2.042336,-0.76718 -1.954213,-0.813394 -1.83815,-0.847553 -1.688695,-0.870325 -1.505846,-0.873961 0.270494,0.937972 1.837385,1.067431 1.924264,0.991363 2.005403,0.925055 2.078025,0.86468 2.137731,0.803443 2.182606,0.742207 2.208919,0.67676 2.21887,0.609208 2.208153,0.536586 2.179066,0.461092 2.129216,0.38072 2.061568,0.297476 1.973447,0.208491 1.8637,0.115297 1.73644,0.01713 1.58832,-0.08468 1.41906,-0.190791 1.23038,-0.304556 1.02121,-0.420523 0.7913,-0.545197 0.53658,-0.675325 0.26121,-0.816169 -0.0434,-0.96572 -0.37928,-1.131538 -0.74938,-1.30654 -1.15211,-1.487284 -1.56919,-1.655301 -1.97756,-1.802557 -2.38258,-1.93498 -2.78961,-2.067979 -3.214447,-2.207484 z m -19.671681,11.25519 -0.270494,-0.937972 -0.04909,-0.02918 -0.04842,-0.02909 -0.04765,-0.02641 -0.04621,-0.02555 -0.04554,-0.02354 -0.04344,-0.02201 -0.04344,-0.02067 -0.04057,-0.01847 -0.04057,-0.0178 -0.03837,-0.01569 -0.0377,-0.01349 -0.03492,-0.01139 -0.03416,-0.01072 -0.03272,-0.0086 -0.03062,-0.0067 -0.02918,-0.0057 -0.02698,-0.0029 -0.02564,-6.69e-4 h -0.02421 l -0.02134,6.69e-4 -0.01923,0.0029 -0.0178,0.0057 -0.01569,0.0067 -0.01349,0.0086 -0.01062,0.01072 -0.0086,0.01282 -0.0067,0.01349 -0.0048,0.01703 -0.0019,0.01636 7.66e-4,0.02143 0.0029,0.02057 0.0057,0.02354 0.0086,0.02488 0.01072,0.02631 0.01206,0.02631 0.01569,0.02918 0.01713,0.02918 0.01914,0.03062 0.0221,0.03062 0.02344,0.03205 0.02497,0.03339 0.02698,0.03349 0.02918,0.03339 0.03062,0.03492 0.03205,0.03483 0.03416,0.03559 0.03483,0.03483 0.03626,0.03636 0.03846,0.03626 0.03913,0.0377 0.04057,0.03559 0.04124,0.03626 0.04344,0.03636 0.04344,0.03626 0.04478,0.03559 0.04488,0.03626 0.04621,0.03636 0.04698,0.03483 0.04775,0.03483 0.04832,0.03416 0.04842,0.03349 0.04908,0.03205 0.0997,0.06401" /></g><path
       inkscape:connector-curvature="0"
       id="path1892"
       style="fill:#ffffff;fill-opacity:1;fill-rule:evenodd;stroke:none;stroke-width:0.6731593"
       d="m 136.41666,102.84876 c -14.99039,0 -27.14192,12.15308 -27.14192,27.14245 0,7.17144 2.7817,13.69307 7.32519,18.545 l -0.001,0.002 c 4.67018,5.55336 10.63606,10.86984 10.63606,17.5702 0,6.69841 9.17563,6.88716 9.18169,6.88716 0.007,0 9.18263,-0.18875 9.18263,-6.88716 0,-6.70036 5.9654,-12.01684 10.63558,-17.5702 l -5.4e-4,-0.002 c 4.54255,-4.85294 7.32519,-11.37356 7.32519,-18.545 0,-14.98937 -12.15208,-27.14245 -27.14286,-27.14245" /><path
       inkscape:connector-curvature="0"
       id="path1894"
       style="fill:#427599;fill-opacity:1;fill-rule:evenodd;stroke:none;stroke-width:0.6731593"
       d="m 127.23497,166.10843 v 10.55998 c 0,1.76785 1.44641,3.21427 3.21326,3.21427 h 11.93733 c 1.76731,0 3.21373,-1.44642 3.21373,-3.21427 v -10.55998 h -18.36432" /><path
       inkscape:connector-curvature="0"
       id="path1896"
       style="fill:#427599;fill-opacity:1;fill-rule:nonzero;stroke:none;stroke-width:0.6731593"
       d="m 136.21687,167.8783 -1.07793,-0.39501 0.0225,0.0265 0.0235,0.025 0.0256,0.0265 0.025,0.0265 0.0265,0.0266 0.0275,0.025 0.028,0.0266 0.0285,0.0265 0.0306,0.0255 0.029,0.0261 0.0316,0.0255 0.031,0.0255 0.0316,0.0246 0.032,0.0245 0.0325,0.024 0.032,0.0236 0.0331,0.0235 0.0325,0.0225 0.0331,0.0225 0.0336,0.0215 0.032,0.0215 0.0335,0.0195 0.032,0.0196 0.032,0.0185 0.0325,0.0185 0.031,0.017 0.0316,0.0155 0.031,0.0156 0.0306,0.0135 0.0296,0.014 0.029,0.0115 0.0281,0.011 0.0275,0.008 0.0255,0.009 0.0245,0.007 0.0225,0.005 0.0215,0.004 0.02,0.003 0.018,6.7e-4 h 0.017 l 0.015,-6.7e-4 0.0135,-0.002 0.013,-0.004 0.0105,-0.005 0.01,-0.007 0.008,-0.007 0.006,-0.009 0.005,-0.009 0.003,-0.011 0.001,-0.0125 v -0.0125 l -0.001,-0.014 -0.003,-0.0145 -0.005,-0.0165 -0.006,-0.0166 -0.008,-0.019 -0.01,-0.0186 -0.0106,-0.0205 -0.013,-0.0205 -0.0145,-0.0215 -0.016,-0.0225 -0.018,-0.024 -0.019,-0.0246 -0.0216,-0.0245 z m -1.07793,-0.39501 1.07793,0.39501 -0.63284,-0.76 -0.60531,-0.76053 -0.57427,-0.75899 -0.5427,-0.75603 -0.50716,-0.74794 -0.47262,-0.74001 -0.43507,-0.72741 -0.39602,-0.71295 -0.35502,-0.69645 -0.31289,-0.67639 -0.26885,-0.65438 -0.22282,-0.6298 -0.17623,-0.60329 -0.12716,-0.57279 -0.0781,-0.54169 -0.0255,-0.5077 0.0265,-0.4706 0.0811,-0.43109 0.13665,-0.38902 0.19475,-0.34547 0.25236,-0.29989 0.31289,-0.25035 0.37252,-0.20074 0.43607,-0.14769 0.49969,-0.0916 0.56424,-0.0355 0.63082,0.0255 0.69894,0.0861 0.76801,0.15072 0.83909,0.2173 0.9122,0.28535 0.98732,0.35698 -0.81607,-0.9808 -1.06345,-0.38552 -0.98329,-0.3079 -0.90567,-0.23379 -0.82711,-0.16223 -0.75198,-0.0931 -0.67788,-0.026 -0.6053,0.0371 -0.53274,0.0986 -0.46461,0.15671 -0.39703,0.21279 -0.33046,0.26529 -0.26683,0.31692 -0.20478,0.36351 -0.14365,0.40955 -0.0856,0.4531 -0.0286,0.49161 0.0275,0.53126 0.0811,0.56525 0.13268,0.59824 0.18371,0.62886 0.23284,0.65687 0.28085,0.68191 0.32547,0.70594 0.37044,0.72641 0.41305,0.74404 0.45559,0.76101 0.49471,0.77548 0.53422,0.78504 0.56969,0.79607 0.60733,0.80255 0.64233,0.80705 z m 3.05856,-11.99139 -0.81607,-0.98079 -0.0281,-0.011 -0.026,-0.009 -0.025,-0.007 -0.0236,-0.007 -0.022,-0.003 -0.0205,-0.004 -0.0195,-0.002 -0.0176,-6.7e-4 -0.0165,6.7e-4 -0.0145,6.8e-4 -0.013,0.003 -0.0121,0.005 -0.01,0.005 -0.009,0.007 -0.007,0.007 -0.005,0.009 -0.004,0.01 -0.003,0.0105 -0.001,0.0125 5.4e-4,0.014 0.003,0.0135 0.003,0.0155 0.005,0.017 0.007,0.0176 0.008,0.0185 0.0106,0.0195 0.012,0.0205 0.0135,0.0205 0.015,0.0225 0.017,0.0236 0.019,0.0246 0.02,0.024 0.0215,0.0256 0.023,0.0265 0.024,0.0255 0.0245,0.026 0.026,0.0255 0.0271,0.0266 0.0275,0.0265 0.028,0.025 0.0295,0.0265 0.0296,0.0255 0.0306,0.0265 0.0305,0.025 0.0316,0.0246 0.0315,0.0255 0.0326,0.0245 0.032,0.0236 0.033,0.0235 0.0325,0.0236 0.0331,0.022 0.0331,0.0215 0.0325,0.0215 0.0336,0.0205 0.0325,0.0205 0.0326,0.019 0.032,0.0186 0.0325,0.0175 0.0316,0.0165 0.031,0.0156 0.0305,0.015 0.0306,0.0135 0.0291,0.0125 0.029,0.012 z m -0.81607,-0.98079 0.81607,0.98079 0.66084,0.26785 0.60881,0.27586 0.55428,0.2764 0.49713,0.27485 0.43661,0.26536 0.37744,0.25183 0.32143,0.23682 0.27438,0.22476 0.2383,0.2173 0.21029,0.21629 0.18479,0.21783 0.15664,0.22026 0.12521,0.21877 0.0881,0.21131 0.0471,0.20026 0.003,0.18472 -0.0446,0.16472 -0.0932,0.13968 -0.14318,0.11316 -0.19522,0.0821 -0.24638,0.0491 -0.29989,0.012 -0.35449,-0.0265 -0.40901,-0.0676 -0.46407,-0.11262 -0.52076,-0.1592 -0.5777,-0.20928 -0.63634,-0.26085 -0.69645,-0.31592 -0.75751,-0.37454 -0.82011,-0.43608 -0.88514,-0.49961 0.31444,0.73293 0.98725,0.55872 0.92277,0.49067 0.85861,0.42355 0.79352,0.36102 0.72897,0.29888 0.66494,0.24079 0.60127,0.18377 0.53718,0.13019 0.47519,0.0791 0.41251,0.031 0.35199,-0.0145 0.29087,-0.0576 0.23177,-0.0976 0.17327,-0.13618 0.11363,-0.17226 0.0556,-0.20525 -0.004,-0.23735 -0.0631,-0.27034 -0.12514,-0.29889 -0.18976,-0.33045 -0.25688,-0.35893 -0.3279,-0.38754 -0.39904,-0.41056 -0.46509,-0.42456 -0.52325,-0.42604 -0.56821,-0.41958 -0.60228,-0.40302 -0.63236,-0.38404 -0.65936,-0.36397 -0.6879,-0.34392 -0.71746,-0.32494 -0.74848,-0.30292 z m -1.54355,2.83979 0.31443,0.73293 0.034,0.0201 0.0336,0.0185 0.032,0.0165 0.032,0.0166 0.03,0.0145 0.0296,0.013 0.0285,0.0125 0.0275,0.011 0.0265,0.01 0.0255,0.009 0.0236,0.007 0.023,0.006 0.022,0.005 0.0205,0.004 0.019,0.003 0.018,6.7e-4 h 0.017 l 0.0151,-6.7e-4 0.014,-0.001 0.0125,-0.004 0.011,-0.005 0.01,-0.006 0.008,-0.008 0.006,-0.008 0.005,-0.01 0.003,-0.011 10e-4,-0.0125 v -0.0131 l -0.002,-0.0155 -0.003,-0.0155 -0.005,-0.0165 -0.008,-0.0191 -0.009,-0.0195 -0.0106,-0.0195 -0.012,-0.0215 -0.0135,-0.0215 -0.015,-0.0215 -0.0165,-0.023 -0.018,-0.0225 -0.0185,-0.0236 -0.0205,-0.0245 -0.0215,-0.0246 -0.023,-0.0245 -0.0236,-0.0255 -0.025,-0.025 -0.025,-0.0246 -0.027,-0.0265 -0.0275,-0.0255 -0.0285,-0.025 -0.0291,-0.0256 -0.03,-0.0255 -0.03,-0.0255 -0.0316,-0.0255 -0.0315,-0.025 -0.0651,-0.0491 -0.0335,-0.0246 -0.0331,-0.0235 -0.0336,-0.0236 -0.034,-0.023 -0.0346,-0.0215 -0.034,-0.0225 -0.0351,-0.0205 -0.0345,-0.0205 z m 0.31443,0.73293 -0.31443,-0.73293 -0.85613,-0.52419 -0.85013,-0.5703 -0.84259,-0.61379 -0.83311,-0.65539 -0.81863,-0.6914 -0.79802,-0.72344 -0.77252,-0.74903 -0.73751,-0.76949 -0.69693,-0.78255 -0.64832,-0.788 -0.59379,-0.78806 -0.52971,-0.78053 -0.45963,-0.76653 -0.38444,-0.74451 -0.30091,-0.71739 -0.2113,-0.68346 -0.11565,-0.6428 -0.0125,-0.59534 0.0956,-0.54169 0.21232,-0.48212 0.33248,-0.41554 0.46158,-0.3425 0.59575,-0.26381 0.73697,-0.17725 0.88521,-0.0856 1.03935,0.0135 1.20058,0.11915 1.36833,0.23082 1.54208,0.34897 1.72275,0.47559 1.91103,0.60631 2.1053,0.74499 -0.83916,-0.98982 -2.16084,-0.7645 -1.96556,-0.62483 -1.77788,-0.48912 -1.59559,-0.36148 -1.41888,-0.23985 -1.24918,-0.12312 -1.08345,-0.0145 -0.92472,0.0891 -0.77353,0.18674 -0.62678,0.27633 -0.48615,0.36101 -0.352,0.43911 -0.22376,0.51065 -0.10164,0.57576 0.0125,0.63384 0.12312,0.68643 0.22686,0.73145 0.32392,0.77151 0.41352,0.80456 0.49968,0.83108 0.57872,0.85262 0.65243,0.8667 0.72041,0.87611 0.78356,0.87821 0.8401,0.87611 0.89167,0.86515 0.93872,0.85067 0.97884,0.82657 1.01284,0.79709 1.03888,0.75549 1.05289,0.70688 z m 3.43304,-13.0883 -0.83916,-0.98982 -0.0275,-0.009 -0.026,-0.009 -0.0246,-0.007 -0.023,-0.005 -0.0216,-0.005 -0.0205,-0.003 -0.018,-6.8e-4 h -0.017 l -0.0155,6.8e-4 -0.014,0.002 -0.013,0.004 -0.011,0.004 -0.01,0.005 -0.008,0.008 -0.006,0.008 -0.005,0.01 -0.003,0.011 -0.001,0.0115 -4.7e-4,0.012 0.001,0.0145 0.003,0.0145 0.005,0.0155 0.007,0.017 0.008,0.0185 0.01,0.0185 0.0105,0.0195 0.0131,0.0205 0.014,0.0226 0.016,0.0225 0.0175,0.0235 0.019,0.024 0.021,0.0246 0.022,0.0265 0.0236,0.0255 0.0245,0.0265 0.0256,0.025 0.0265,0.0265 0.0271,0.0266 0.028,0.026 0.029,0.0256 0.0291,0.0265 0.0305,0.0255 0.0301,0.0265 0.0315,0.024 0.031,0.0256 0.0326,0.0245 0.032,0.0245 0.0331,0.0236 0.032,0.0236 0.0331,0.023 0.033,0.0215 0.0326,0.0225 0.0335,0.0205 0.0326,0.0205 0.0331,0.0195 0.032,0.0191 0.032,0.0185 0.0315,0.0165 0.0316,0.0166 0.031,0.0145 0.0305,0.0151 0.0296,0.0125 0.0296,0.0125 0.0281,0.011 z m -0.83916,-0.98982 0.83916,0.98982 0.78053,0.30992 0.70191,0.3209 0.62031,0.32143 0.53368,0.3149 0.44961,0.30043 0.37851,0.28637 0.32992,0.2834 0.29895,0.29437 0.2733,0.31288 0.24288,0.32797 0.20477,0.33691 0.1592,0.33746 0.10966,0.33146 0.057,0.31894 0.003,0.30037 -0.0536,0.27835 -0.10818,0.25136 -0.16519,0.22126 -0.22033,0.1858 -0.27687,0.14769 -0.33092,0.10663 -0.38599,0.0626 -0.44011,0.0135 -0.49262,-0.036 -0.54472,-0.0901 -0.59528,-0.14567 -0.64535,-0.20329 -0.69443,-0.26536 -0.74351,-0.32743 -0.79251,-0.39501 -0.84414,-0.46461 -0.89867,-0.53967 0.16923,0.64529 1.05989,0.63788 1.00079,0.55024 0.93724,0.46758 0.87268,0.38505 0.80705,0.30837 0.74149,0.23332 0.67639,0.16674 0.6123,0.10064 0.54876,0.0411 0.48616,-0.016 0.42456,-0.0681 0.36243,-0.11666 0.30245,-0.16223 0.24133,-0.20323 0.18121,-0.24281 0.11962,-0.2764 0.0591,-0.30992 -0.003,-0.34042 -0.066,-0.36747 -0.13018,-0.39454 -0.19879,-0.42005 -0.27182,-0.44611 -0.35098,-0.47309 -0.43911,-0.50171 -0.53166,-0.52318 -0.62085,-0.53321 -0.68992,-0.52217 -0.73799,-0.49268 -0.774,-0.4556 -0.80658,-0.41951 -0.84508,-0.38552 -0.88621,-0.353 z m -2.0812,5.13278 -0.16923,-0.64529 -2.44425,-1.57311 -2.09379,-1.43693 -1.75479,-1.30121 -1.43491,-1.1645 -1.13703,-1.03687 -0.8741,-0.92276 -0.64441,-0.8321 -0.43258,-0.75501 -0.22779,-0.6809 -0.025,-0.60531 0.16768,-0.52567 0.35496,-0.44509 0.52924,-0.36398 0.69039,-0.28441 0.83714,-0.20726 0.97077,-0.13114 1.09146,-0.0576 1.19506,0.0115 1.28566,0.0807 1.36234,0.14365 1.42387,0.20431 1.46998,0.26286 1.50249,0.31888 1.52046,0.3695 1.52256,0.41756 1.50949,0.46259 1.48196,0.50366 1.43686,0.53974 1.37486,0.57225 1.2932,0.59629 1.18806,0.6123 1.05942,0.61487 -0.1903,-0.6599 -1.29267,-0.75098 -1.35379,-0.69746 -1.41087,-0.65081 -1.46197,-0.60833 -1.50397,-0.56525 -1.53555,-0.52217 -1.55405,-0.47613 -1.56106,-0.4286 -1.55352,-0.37751 -1.53305,-0.32439 -1.49798,-0.26785 -1.45039,-0.20929 -1.38839,-0.14668 -1.31118,-0.0811 -1.22165,-0.0121 -1.11745,0.0596 -0.99836,0.13423 -0.86561,0.21426 -0.71846,0.29586 -0.55671,0.38356 -0.37751,0.47512 -0.18377,0.5742 0.0305,0.67942 0.26683,0.79608 0.52722,0.9192 0.81055,1.04636 1.10399,1.16456 1.39128,1.26817 1.67623,1.36133 1.9626,1.4549 2.26148,1.55304 z m 13.83975,-7.91844 0.1903,0.65989 0.0345,0.0205 0.0341,0.0205 0.0335,0.0186 0.0325,0.018 0.032,0.0166 0.0306,0.0155 0.0306,0.0145 0.0285,0.013 0.0285,0.0125 0.027,0.011 0.0265,0.009 0.0246,0.008 0.024,0.008 0.023,0.006 0.0215,0.005 0.0205,0.004 0.019,0.002 0.018,4.7e-4 h 0.017 l 0.015,-4.7e-4 0.0135,-0.002 0.0125,-0.004 0.011,-0.005 0.009,-0.006 0.007,-0.008 0.006,-0.009 0.005,-0.009 0.003,-0.012 0.001,-0.0115 -5.4e-4,-0.0151 -0.002,-0.0145 -0.004,-0.0166 -0.006,-0.0175 -0.008,-0.0185 -0.008,-0.0185 -0.011,-0.0205 -0.0121,-0.0205 -0.0135,-0.0215 -0.0155,-0.0215 -0.0165,-0.0225 -0.0176,-0.0235 -0.019,-0.0236 -0.0205,-0.0235 -0.0215,-0.0246 -0.0225,-0.0245 -0.024,-0.025 -0.0245,-0.0245 -0.0255,-0.0256 -0.0271,-0.0255 -0.0275,-0.0265 -0.0286,-0.025 -0.029,-0.0255 -0.0306,-0.0256 -0.0306,-0.0255 -0.0315,-0.025 -0.0316,-0.0255 -0.0325,-0.0256 -0.0331,-0.0245 -0.0336,-0.0245 -0.034,-0.024 -0.0341,-0.0236 -0.0345,-0.0225 -0.0701,-0.045" /></g></svg>