<?xml version="1.0" encoding="UTF-8" standalone="no"?>
<!-- Created with Inkscape (http://www.inkscape.org/) -->

<svg
   xmlns:dc="http://purl.org/dc/elements/1.1/"
   xmlns:cc="http://creativecommons.org/ns#"
   xmlns:rdf="http://www.w3.org/1999/02/22-rdf-syntax-ns#"
   xmlns:svg="http://www.w3.org/2000/svg"
   xmlns="http://www.w3.org/2000/svg"
   xmlns:sodipodi="http://sodipodi.sourceforge.net/DTD/sodipodi-0.dtd"
   xmlns:inkscape="http://www.inkscape.org/namespaces/inkscape"
   version="1.1"
   id="svg2"
   xml:space="preserve"
   width="253"
   height="253"
   viewBox="0 0 253 252.99999"
   sodipodi:docname="2-1-2-misi3.svg"
   inkscape:version="0.92.2 5c3e80d, 2017-08-06"><metadata
     id="metadata8"><rdf:RDF><cc:Work
         rdf:about=""><dc:format>image/svg+xml</dc:format><dc:type
           rdf:resource="http://purl.org/dc/dcmitype/StillImage" /><dc:title></dc:title></cc:Work></rdf:RDF></metadata><defs
     id="defs6"><clipPath
       clipPathUnits="userSpaceOnUse"
       id="clipPath20"><path
         d="M 0.044625,101.1875 H 594.94052 V 740.2941 H 0.044625 Z"
         id="path18"
         inkscape:connector-curvature="0" /></clipPath><clipPath
       clipPathUnits="userSpaceOnUse"
       id="clipPath30"><path
         d="m 0,101.1875 h 595 v 639.625 H 0 Z"
         id="path28"
         inkscape:connector-curvature="0" /></clipPath><clipPath
       clipPathUnits="userSpaceOnUse"
       id="clipPath42"><path
         d="M 0.044625,101.1875 H 594.94052 V 740.2941 H 0.044625 Z"
         id="path40"
         inkscape:connector-curvature="0" /></clipPath><clipPath
       clipPathUnits="userSpaceOnUse"
       id="clipPath56"><path
         d="m 0,101.1875 h 595 v 639.625 H 0 Z"
         id="path54"
         inkscape:connector-curvature="0" /></clipPath><clipPath
       clipPathUnits="userSpaceOnUse"
       id="clipPath70"><path
         d="M 0.044625,101.1875 H 594.94052 V 740.2941 H 0.044625 Z"
         id="path68"
         inkscape:connector-curvature="0" /></clipPath><clipPath
       clipPathUnits="userSpaceOnUse"
       id="clipPath82"><path
         d="m 0,101.1875 h 595 v 639.625 H 0 Z"
         id="path80"
         inkscape:connector-curvature="0" /></clipPath><clipPath
       clipPathUnits="userSpaceOnUse"
       id="clipPath94"><path
         d="M 0.044625,101.1875 H 594.94052 V 740.2941 H 0.044625 Z"
         id="path92"
         inkscape:connector-curvature="0" /></clipPath><clipPath
       clipPathUnits="userSpaceOnUse"
       id="clipPath106"><path
         d="m 0,101.1875 h 595 v 639.625 H 0 Z"
         id="path104"
         inkscape:connector-curvature="0" /></clipPath><clipPath
       clipPathUnits="userSpaceOnUse"
       id="clipPath182"><path
         d="M 0.044625,101.1875 H 594.94052 V 740.2941 H 0.044625 Z"
         id="path180"
         inkscape:connector-curvature="0" /></clipPath><clipPath
       clipPathUnits="userSpaceOnUse"
       id="clipPath196"><path
         d="m 0,101.1875 h 595 v 639.625 H 0 Z"
         id="path194"
         inkscape:connector-curvature="0" /></clipPath><clipPath
       clipPathUnits="userSpaceOnUse"
       id="clipPath220"><path
         d="M 0.044625,101.1875 H 594.94052 V 740.2941 H 0.044625 Z"
         id="path218"
         inkscape:connector-curvature="0" /></clipPath><clipPath
       clipPathUnits="userSpaceOnUse"
       id="clipPath234"><path
         d="m 0,101.1875 h 595 v 639.625 H 0 Z"
         id="path232"
         inkscape:connector-curvature="0" /></clipPath><clipPath
       clipPathUnits="userSpaceOnUse"
       id="clipPath248"><path
         d="M 0.044625,101.1875 H 594.94052 V 740.2941 H 0.044625 Z"
         id="path246"
         inkscape:connector-curvature="0" /></clipPath><clipPath
       clipPathUnits="userSpaceOnUse"
       id="clipPath274"><path
         d="m 0,101.1875 h 595 v 639.625 H 0 Z"
         id="path272"
         inkscape:connector-curvature="0" /></clipPath></defs><sodipodi:namedview
     pagecolor="#ffffff"
     bordercolor="#666666"
     borderopacity="1"
     objecttolerance="10"
     gridtolerance="10"
     guidetolerance="10"
     inkscape:pageopacity="0"
     inkscape:pageshadow="2"
     inkscape:window-width="1366"
     inkscape:window-height="746"
     id="namedview4"
     showgrid="false"
     inkscape:zoom="1.6817101"
     inkscape:cx="220.92206"
     inkscape:cy="106.80289"
     inkscape:window-x="0"
     inkscape:window-y="0"
     inkscape:window-maximized="1"
     inkscape:current-layer="g10" /><g
     id="g10"
     inkscape:groupmode="layer"
     inkscape:label="33638-NZEIQE"
     transform="matrix(1.3333333,0,0,-1.3333333,0,252.99995)"><path
       d="M 3.860134e-6,-4.1172128e-5 H 189.75001 V 189.7492 H 3.860134e-6 Z"
       style="fill:#ec7b59;fill-opacity:1;fill-rule:nonzero;stroke:none;stroke-width:0.9568218"
       id="path108"
       inkscape:connector-curvature="0" /><g
       id="g1886"
       transform="matrix(0.70353677,0,0,0.70353677,-19.916572,22.297333)"><path
         inkscape:connector-curvature="0"
         id="path506"
         style="fill:#ffbca8;fill-opacity:1;fill-rule:evenodd;stroke:none;stroke-width:0.9568218"
         d="m 119.28669,165.65107 1.60258,-34.49084 34.52146,-0.76431 -23.25632,-25.52284 23.86907,-24.949225 -34.49238,-1.604016 -0.76287,-34.52012 -25.523508,23.256319 -24.949223,-23.868972 -1.602677,34.490842 -34.520694,0.764309 23.255553,25.522833 -23.868972,24.94923 34.491512,1.60401 0.763639,34.52003 25.522838,-23.25622 24.949992,23.86897" /><path
         inkscape:connector-curvature="0"
         id="path508"
         style="fill:#f7a288;fill-opacity:1;fill-rule:evenodd;stroke:none;stroke-width:0.9568218"
         d="m 94.79138,170.36992 14.29894,-31.42872 32.33531,12.11135 -12.11346,-32.33321 31.42872,-14.2996 L 129.31217,90.120131 141.42563,57.785487 109.09032,69.896842 94.79138,38.468213 80.491774,69.896842 48.157226,57.785487 60.26925,90.120131 28.840526,104.41974 60.26925,118.71934 48.157226,151.05255 80.491774,138.9412 94.79138,170.36992" /><path
         inkscape:connector-curvature="0"
         id="path510"
         style="fill:#ffffff;fill-opacity:1;fill-rule:evenodd;stroke:none;stroke-width:0.9568218"
         d="m 94.79138,141.75865 c 21.30718,0 38.57924,-17.27427 38.57924,-38.58001 0,-10.193402 -3.95387,-19.463187 -10.41194,-26.359671 l 0.002,-0.0029 c -6.63815,-7.893492 -15.11798,-15.450279 -15.11798,-24.9741 0,-9.521047 -13.04215,-9.78934 -13.050762,-9.78934 -0.01,0 -13.052101,0.268293 -13.052101,9.78934 0,9.523821 -8.479163,17.080608 -15.117306,24.9741 l 7.66e-4,0.0029 c -6.456729,6.897919 -10.411943,16.166269 -10.411943,26.359671 0,21.30574 17.272833,38.58001 38.580584,38.58001" /><path
         inkscape:connector-curvature="0"
         id="path512"
         style="fill:#427599;fill-opacity:1;fill-rule:evenodd;stroke:none;stroke-width:0.9568218"
         d="M 107.84214,51.841998 V 36.832143 c 0,-2.512805 -2.05592,-4.568728 -4.56729,-4.568728 H 86.307241 c -2.51204,0 -4.567963,2.055923 -4.567963,4.568728 v 15.009855 h 26.102862" /><path
         inkscape:connector-curvature="0"
         id="path520"
         style="fill:#427599;fill-opacity:1;fill-rule:nonzero;stroke:none;stroke-width:0.9568218"
         d="m 95.075364,49.326322 1.532159,0.561463 -0.03205,-0.0377 -0.03339,-0.03559 -0.03636,-0.0377 -0.03559,-0.0377 -0.0377,-0.03779 -0.03913,-0.0355 -0.0398,-0.03779 -0.04057,-0.0377 -0.04344,-0.03626 -0.04124,-0.03703 -0.04488,-0.03626 -0.04411,-0.03626 -0.04488,-0.03492 -0.04555,-0.03483 -0.04622,-0.03416 -0.04554,-0.03349 -0.04698,-0.03339 -0.04621,-0.03205 -0.04698,-0.03205 -0.04775,-0.03062 -0.04554,-0.03052 -0.04765,-0.02775 -0.04555,-0.02784 -0.04554,-0.02631 -0.04621,-0.02631 -0.04411,-0.02421 -0.04487,-0.02201 -0.04411,-0.0221 -0.04344,-0.01923 -0.042,-0.0199 -0.04124,-0.01636 -0.0399,-0.01569 -0.03913,-0.01206 -0.03626,-0.01282 -0.03483,-0.0096 -0.03205,-0.0067 -0.03062,-0.0057 -0.02842,-0.0038 -0.02564,-9.57e-4 h -0.02421 l -0.02134,9.57e-4 -0.01923,0.0029 -0.01847,0.0057 -0.01493,0.0067 -0.01359,0.0096 -0.01139,0.01 -0.0086,0.01282 -0.0067,0.01215 -0.0048,0.0156 -0.0019,0.0178 v 0.0178 l 0.0019,0.0199 0.0048,0.02067 0.0067,0.02344 0.0086,0.02354 0.01139,0.02698 0.01416,0.02641 0.01502,0.02918 0.01847,0.02918 0.02067,0.03052 0.02277,0.03205 0.02555,0.03416 0.02708,0.03492 0.03062,0.03483 z m 1.532159,0.561463 -1.532159,-0.561463 0.899509,1.080252 0.860374,1.081017 0.816264,1.078816 0.77139,1.074607 0.72087,1.063125 0.671784,1.051834 0.618395,1.033941 0.5629,1.01337 0.50463,0.989928 0.44473,0.961415 0.38215,0.930126 0.31671,0.895202 0.25049,0.857504 0.18075,0.81416 0.11099,0.769954 0.0363,0.721635 -0.0377,0.668914 -0.11529,0.612749 -0.19424,0.552947 -0.27681,0.491041 -0.35871,0.426264 -0.44473,0.355842 -0.5295,0.285325 -0.61983,0.209926 -0.710253,0.130224 -0.802008,0.05052 -0.896637,-0.03626 -0.993468,-0.122377 -1.091638,-0.214233 -1.192679,-0.308862 -1.296589,-0.405596 -1.40337,-0.507403 1.159955,1.394089 1.511587,0.547972 1.397629,0.43765 1.287308,0.332305 1.175647,0.230594 1.068866,0.132328 0.96352,0.03703 0.86037,-0.05272 0.75723,-0.140174 0.6604,-0.222748 0.56433,-0.302452 0.46971,-0.377083 0.37928,-0.450472 0.29107,-0.516683 0.20418,-0.582131 0.12171,-0.644037 0.0406,-0.698766 -0.0391,-0.755124 -0.1153,-0.803443 -0.18859,-0.850328 -0.26112,-0.893863 -0.33096,-0.933667 -0.39919,-0.96926 -0.46262,-1.003419 -0.52654,-1.032506 -0.58711,-1.057575 -0.64757,-1.081687 -0.70317,-1.102259 -0.75934,-1.115846 -0.809753,-1.131537 -0.863245,-1.140723 -0.912999,-1.147134 z m -4.347415,17.04444 1.159955,1.394089 0.0399,0.0156 0.03693,0.01215 0.03559,0.01 0.03349,0.01 0.03129,0.0048 0.02918,0.0057 0.02775,0.0029 0.02497,9.56e-4 0.02344,-9.56e-4 0.02067,-9.57e-4 0.01847,-0.0038 0.01713,-0.0067 0.01416,-0.0067 0.01282,-0.01005 0.01,-0.01062 0.0077,-0.01282 0.0057,-0.01426 0.0038,-0.01493 0.0019,-0.0178 -7.65e-4,-0.0199 -0.0038,-0.01923 -0.0048,-0.02201 -0.0077,-0.02421 -0.01,-0.02497 -0.01206,-0.02631 -0.01502,-0.02775 -0.01703,-0.02918 -0.01923,-0.02918 -0.02134,-0.03196 -0.02421,-0.03349 -0.02708,-0.03492 -0.02842,-0.03406 -0.03062,-0.03636 -0.03272,-0.0377 -0.03416,-0.03626 -0.03483,-0.03703 -0.03703,-0.03626 -0.03846,-0.0378 -0.03913,-0.0377 -0.0398,-0.03559 -0.042,-0.0377 -0.04201,-0.03626 -0.04344,-0.0377 -0.04334,-0.03559 -0.04488,-0.03492 -0.04478,-0.03626 -0.04631,-0.03483 -0.04554,-0.03349 -0.04698,-0.03339 -0.04622,-0.03349 -0.04698,-0.03129 -0.04698,-0.03062 -0.04621,-0.03062 -0.04775,-0.02918 -0.04621,-0.02918 -0.04631,-0.02698 -0.04555,-0.02641 -0.04621,-0.02488 -0.04487,-0.02344 -0.04411,-0.0221 -0.04334,-0.02134 -0.04344,-0.01923 -0.04133,-0.0178 -0.04124,-0.01703 z m 1.159955,1.394089 -1.159955,-1.394089 -0.939312,-0.380719 -0.86535,-0.392106 -0.787847,-0.392871 -0.706613,-0.39067 -0.620594,-0.377179 -0.53649,-0.357947 -0.456883,-0.33661 -0.39,-0.319483 -0.338715,-0.308862 -0.298911,-0.307427 -0.262648,-0.309628 -0.222652,-0.313072 -0.177969,-0.310967 -0.125248,-0.300346 -0.06688,-0.284655 -0.0048,-0.262551 0.06334,-0.234135 0.132424,-0.19854 0.203516,-0.160842 0.277478,-0.116732 0.350197,-0.06975 0.426264,-0.01703 0.503862,0.0377 0.581365,0.09606 0.659633,0.160076 0.740197,0.226288 0.821145,0.297476 0.904483,0.370769 0.989928,0.449036 1.076712,0.532376 1.165696,0.619829 1.258125,0.710153 -0.446932,-1.041787 -1.403275,-0.794163 -1.311611,-0.697427 -1.220426,-0.602032 -1.127901,-0.513144 -1.036143,-0.424829 -0.945148,-0.342255 -0.854634,-0.261212 -0.763543,-0.185049 -0.675421,-0.112427 -0.58634,-0.04411 -0.500322,0.02067 -0.413443,0.08181 -0.329434,0.138739 -0.246286,0.193565 -0.161511,0.244851 -0.07903,0.291735 0.0057,0.337375 0.08965,0.38426 0.177873,0.424829 0.269728,0.469704 0.365123,0.510177 0.466068,0.550842 0.567204,0.583566 0.661068,0.603467 0.743737,0.605573 0.807654,0.596387 0.856068,0.572849 0.898839,0.545867 0.937206,0.517353 0.977777,0.488841 1.01978,0.461858 1.06389,0.430569 z m 2.193992,-4.036448 -0.446931,-1.041787 -0.04832,-0.02851 -0.04774,-0.02631 -0.04555,-0.02344 -0.04555,-0.02354 -0.04267,-0.02067 -0.042,-0.01847 -0.04057,-0.0178 -0.03913,-0.0156 -0.0377,-0.01359 -0.03626,-0.01282 -0.03349,-0.01062 -0.03272,-0.0086 -0.03129,-0.0067 -0.02918,-0.0057 -0.02708,-0.0038 -0.02564,-9.57e-4 h -0.02411 l -0.02143,9.57e-4 -0.0199,0.0019 -0.0178,0.0057 -0.0156,0.0077 -0.01359,0.0086 -0.01139,0.01072 -0.0086,0.01139 -0.0067,0.01349 -0.0048,0.0156 -0.0019,0.0178 v 0.01856 l 0.0029,0.02201 0.0048,0.0221 0.0077,0.02344 0.01072,0.02708 0.01273,0.02775 0.01502,0.02775 0.01703,0.03062 0.01923,0.03062 0.02134,0.03062 0.02344,0.03272 0.02564,0.03196 0.02631,0.03349 0.02918,0.03483 0.03062,0.03492 0.03272,0.03483 0.03349,0.03626 0.03559,0.03559 0.03559,0.03492 0.03837,0.0377 0.03913,0.03626 0.04057,0.03559 0.04133,0.03636 0.04268,0.03626 0.04267,0.03626 0.04487,0.03626 0.04478,0.03559 0.09252,0.06975 0.04765,0.03492 0.04698,0.03339 0.04775,0.03349 0.04832,0.03272 0.04918,0.03062 0.04832,0.03196 0.04985,0.02918 0.04909,0.02918 z m -0.446931,-1.041787 0.446931,1.041787 1.216886,0.745077 1.20837,0.81062 1.197654,0.87243 1.184165,0.931561 1.16359,0.982752 1.13431,1.028296 1.09805,1.064656 1.04829,1.093743 0.9906,1.112305 0.92152,1.120056 0.84401,1.120151 0.75292,1.109435 0.65332,1.089533 0.54644,1.058245 0.4277,1.019685 0.30035,0.971461 0.16438,0.913669 0.0178,0.846213 -0.13587,0.769955 -0.30179,0.685275 -0.47257,0.590646 -0.65609,0.486831 -0.84679,0.374979 -1.04753,0.251931 -1.25822,0.121708 -1.47733,-0.01923 -1.70649,-0.169358 -1.94493,-0.328094 -2.191892,-0.496017 -2.448698,-0.675994 -2.716322,-0.861809 -2.99246,-1.058915 1.192774,1.406911 3.071398,1.086662 2.793824,0.888122 2.527062,0.695227 2.267954,0.513813 2.01679,0.340916 1.77557,0.175002 1.54001,0.02067 1.31438,-0.126684 1.09949,-0.265422 0.8909,-0.392775 0.69101,-0.513144 0.50032,-0.624135 0.31805,-0.725845 0.14448,-0.818369 -0.0178,-0.900944 -0.175,-0.975671 -0.32245,-1.039682 -0.46042,-1.096614 -0.58778,-1.143593 -0.71024,-1.181292 -0.82258,-1.211911 -0.92736,-1.231908 -1.02399,-1.245303 -1.11374,-1.24827 -1.19411,-1.245303 -1.26741,-1.229708 -1.33428,-1.209135 -1.39132,-1.174882 -1.439633,-1.132973 -1.476663,-1.073841 -1.496565,-1.004758 z m -4.879696,18.603581 1.192774,1.406911 0.03913,0.01349 0.03693,0.01282 0.03492,0.0096 0.03272,0.0067 0.03062,0.0067 0.02918,0.0048 0.02564,9.57e-4 h 0.02411 l 0.0221,-9.57e-4 0.0199,-0.0029 0.01856,-0.0057 0.0156,-0.0057 0.01359,-0.0077 0.01139,-0.01139 0.0086,-0.01139 0.0077,-0.01359 0.0048,-0.0156 0.0019,-0.01636 6.7e-4,-0.01713 -0.0019,-0.02067 -0.0038,-0.02057 -0.0067,-0.0221 -0.0096,-0.02421 -0.01072,-0.02631 -0.01349,-0.02631 -0.01493,-0.02775 -0.01856,-0.02918 -0.0199,-0.03205 -0.02277,-0.03205 -0.02488,-0.03339 -0.02708,-0.03416 -0.02985,-0.03492 -0.03129,-0.0377 -0.03349,-0.03626 -0.03483,-0.0377 -0.03636,-0.03559 -0.0377,-0.0377 -0.03846,-0.03779 -0.0398,-0.03693 -0.04124,-0.03636 -0.04134,-0.0377 -0.04334,-0.03626 -0.04277,-0.0377 -0.04478,-0.03416 -0.04411,-0.03636 -0.04631,-0.03483 -0.04555,-0.03483 -0.04698,-0.03349 -0.04554,-0.03349 -0.04698,-0.03272 -0.04688,-0.03052 -0.04631,-0.03205 -0.04765,-0.02918 -0.04631,-0.02918 -0.04698,-0.02775 -0.04555,-0.02708 -0.04555,-0.02631 -0.04478,-0.02344 -0.04488,-0.02354 -0.04411,-0.02057 -0.04334,-0.02143 -0.042,-0.0178 -0.04201,-0.0177 -0.0399,-0.01569 z m 1.192774,1.406911 -1.192774,-1.406911 -1.109434,-0.440521 -0.997679,-0.456117 -0.881711,-0.456882 -0.758568,-0.447601 -0.639061,-0.42703 -0.538021,-0.407032 -0.468939,-0.402822 -0.424924,-0.418418 -0.38847,-0.444731 -0.345221,-0.466163 -0.291065,-0.47889 -0.226289,-0.479654 -0.155866,-0.47114 -0.08104,-0.453342 -0.0038,-0.426934 0.07616,-0.395645 0.153761,-0.357278 0.234804,-0.314507 0.313168,-0.264083 0.393541,-0.209926 0.470374,-0.151561 0.548641,-0.08898 0.62557,-0.01914 0.700202,0.05119 0.774261,0.128119 0.846117,0.207056 0.917305,0.28896 0.987057,0.377179 1.05681,0.465398 1.126466,0.561463 1.199855,0.660399 1.277357,0.767084 -0.240545,-0.91721 -1.506516,-0.906684 -1.422507,-0.782106 -1.332183,-0.664609 -1.240424,-0.547302 -1.147133,-0.43832 -1.053939,-0.331634 -0.961415,-0.237005 -0.870325,-0.143045 -0.780001,-0.05837 -0.691017,0.02277 -0.603467,0.09683 -0.515153,0.165817 -0.4299,0.230594 -0.343021,0.288865 -0.257576,0.345125 -0.170027,0.392871 -0.08401,0.440521 0.0048,0.483865 0.09386,0.522329 0.185049,0.560793 0.28255,0.597057 0.386364,0.634086 0.498887,0.672454 0.624135,0.713119 0.755698,0.743642 0.882477,0.757899 0.980646,0.742206 1.048964,0.700298 1.100154,0.647577 1.146464,0.596291 1.201194,0.547972 1.259655,0.501758 z m 2.958206,-7.295671 0.240545,0.91721 3.47422,2.235996 2.976097,2.042432 2.49424,1.849537 2.03957,1.655206 1.61616,1.473792 1.24244,1.311611 0.91596,1.182728 0.61486,1.073171 0.32378,0.967825 0.0355,0.860375 -0.23834,0.747182 -0.50453,0.63265 -0.75226,0.517354 -0.98131,0.404257 -1.18991,0.294605 -1.37983,0.186389 -1.55139,0.0819 -1.69865,-0.01636 -1.82743,-0.114628 -1.936416,-0.204185 -2.02387,-0.290396 -2.089412,-0.373639 -2.135626,-0.453246 -2.161173,-0.5252 -2.16414,-0.593516 -2.145577,-0.657528 -2.106443,-0.715894 -2.042336,-0.76718 -1.954213,-0.813394 -1.83815,-0.847553 -1.688695,-0.870325 -1.505846,-0.873961 0.270494,0.937972 1.837385,1.067431 1.924264,0.991363 2.005403,0.925055 2.078025,0.86468 2.137731,0.803443 2.182606,0.742207 2.208919,0.67676 2.21887,0.609208 2.208153,0.536586 2.179066,0.461092 2.129216,0.38072 2.061568,0.297476 1.973447,0.208491 1.8637,0.115297 1.73644,0.01713 1.58832,-0.08468 1.41906,-0.190791 1.23038,-0.304556 1.02121,-0.420523 0.7913,-0.545197 0.53658,-0.675325 0.26121,-0.816169 -0.0434,-0.96572 -0.37928,-1.131538 -0.74938,-1.30654 -1.15211,-1.487284 -1.56919,-1.655301 -1.97756,-1.802557 -2.38258,-1.93498 -2.78961,-2.067979 -3.214447,-2.207484 z m -19.671681,11.25519 -0.270494,-0.937972 -0.04909,-0.02918 -0.04842,-0.02909 -0.04765,-0.02641 -0.04621,-0.02555 -0.04554,-0.02354 -0.04344,-0.02201 -0.04344,-0.02067 -0.04057,-0.01847 -0.04057,-0.0178 -0.03837,-0.01569 -0.0377,-0.01349 -0.03492,-0.01139 -0.03416,-0.01072 -0.03272,-0.0086 -0.03062,-0.0067 -0.02918,-0.0057 -0.02698,-0.0029 -0.02564,-6.69e-4 h -0.02421 l -0.02134,6.69e-4 -0.01923,0.0029 -0.0178,0.0057 -0.01569,0.0067 -0.01349,0.0086 -0.01062,0.01072 -0.0086,0.01282 -0.0067,0.01349 -0.0048,0.01703 -0.0019,0.01636 7.66e-4,0.02143 0.0029,0.02057 0.0057,0.02354 0.0086,0.02488 0.01072,0.02631 0.01206,0.02631 0.01569,0.02918 0.01713,0.02918 0.01914,0.03062 0.0221,0.03062 0.02344,0.03205 0.02497,0.03339 0.02698,0.03349 0.02918,0.03339 0.03062,0.03492 0.03205,0.03483 0.03416,0.03559 0.03483,0.03483 0.03626,0.03636 0.03846,0.03626 0.03913,0.0377 0.04057,0.03559 0.04124,0.03626 0.04344,0.03636 0.04344,0.03626 0.04478,0.03559 0.04488,0.03626 0.04621,0.03636 0.04698,0.03483 0.04775,0.03483 0.04832,0.03416 0.04842,0.03349 0.04908,0.03205 0.0997,0.06401" /></g><path
       inkscape:connector-curvature="0"
       id="path1888"
       style="fill:#ffbca8;fill-opacity:1;fill-rule:evenodd;stroke:none;stroke-width:0.6731593"
       d="m 159.80276,138.83895 1.12747,-24.26557 24.28712,-0.53772 -16.36168,-17.956259 16.79277,-17.552697 -24.26666,-1.128484 -0.53671,-24.286174 -17.95672,16.361675 -17.5527,-16.792699 -1.12754,24.265575 -24.286577,0.53772 16.361137,17.956251 -16.7927,17.552702 24.26605,1.12848 0.53724,24.28611 17.95626,-16.36161 17.55324,16.7927" /><path
       inkscape:connector-curvature="0"
       id="path1890"
       style="fill:#f7a288;fill-opacity:1;fill-rule:evenodd;stroke:none;stroke-width:0.6731593"
       d="m 142.56941,142.15884 10.05983,-22.11126 22.74907,8.52078 -8.52226,-22.74761 22.11126,-10.06029 -22.11126,-10.060301 8.52226,-22.748611 -22.74907,8.520783 -10.05983,-22.111196 -10.0603,22.111196 -22.74855,-8.520783 8.52126,22.748611 -22.111265,10.060301 22.111265,10.06029 -8.52126,22.74761 22.74855,-8.52078 10.0603,22.11126" /><path
       inkscape:connector-curvature="0"
       id="path1892"
       style="fill:#ffffff;fill-opacity:1;fill-rule:evenodd;stroke:none;stroke-width:0.6731593"
       d="m 142.56941,122.02976 c 14.99038,0 27.14191,-12.15309 27.14191,-27.14246 0,-7.171433 -2.78169,-13.693068 -7.32518,-18.544998 l 10e-4,-0.002 C 157.71736,70.7869 151.75149,65.470423 151.75149,58.770064 c 0,-6.698406 -9.17563,-6.88716 -9.18169,-6.88716 -0.007,0 -9.18264,0.188754 -9.18264,6.88716 0,6.700359 -5.9654,12.016836 -10.63558,17.570198 l 5.4e-4,0.002 c -4.54254,4.85294 -7.32518,11.373565 -7.32518,18.544998 0,14.98937 12.15207,27.14246 27.14286,27.14246" /><path
       inkscape:connector-curvature="0"
       id="path1894"
       style="fill:#ff0000;fill-opacity:1;fill-rule:evenodd;stroke:none;stroke-width:0.6731593"
       d="M 151.75109,58.770085 V 48.2101 c 0,-1.767851 -1.44641,-3.214268 -3.21325,-3.214268 H 136.6005 c -1.76731,0 -3.21373,1.446417 -3.21373,3.214268 v 10.559985 h 18.36432" /><path
       inkscape:connector-curvature="0"
       id="path1896"
       style="fill:#ff0000;fill-opacity:1;fill-rule:nonzero;stroke:none;stroke-width:0.6731593"
       d="m 142.7692,57.000214 1.07793,0.39501 -0.0225,-0.02652 -0.0235,-0.02504 -0.0256,-0.02652 -0.025,-0.02652 -0.0265,-0.02659 -0.0275,-0.02498 -0.028,-0.02659 -0.0285,-0.02652 -0.0306,-0.02551 -0.029,-0.02605 -0.0316,-0.02551 -0.031,-0.02551 -0.0316,-0.02457 -0.032,-0.0245 -0.0325,-0.02403 -0.032,-0.02356 -0.0331,-0.02349 -0.0325,-0.02255 -0.0331,-0.02255 -0.0336,-0.02154 -0.032,-0.02147 -0.0335,-0.01952 -0.032,-0.01959 -0.032,-0.01851 -0.0325,-0.01851 -0.031,-0.01703 -0.0316,-0.01549 -0.031,-0.01555 -0.0306,-0.01353 -0.0296,-0.014 -0.029,-0.01151 -0.0281,-0.01104 -0.0275,-0.0085 -0.0255,-0.009 -0.0245,-0.0068 -0.0225,-0.0047 -0.0216,-0.004 -0.02,-0.0027 -0.018,-6.73e-4 h -0.017 l -0.015,6.73e-4 -0.0135,0.002 -0.013,0.004 -0.0105,0.0047 -0.01,0.0068 -0.008,0.007 -0.006,0.009 -0.005,0.0085 -0.003,0.01098 -0.001,0.01252 v 0.01252 l 0.001,0.014 0.003,0.01454 0.005,0.01649 0.006,0.01656 0.008,0.01898 0.01,0.01858 0.0106,0.02053 0.013,0.02053 0.0145,0.02147 0.016,0.02255 0.018,0.02403 0.019,0.02457 0.0215,0.02451 z m 1.07793,0.39501 -1.07793,-0.39501 0.63284,0.759997 0.6053,0.760535 0.57427,0.758987 0.5427,0.756026 0.50716,0.747947 0.47263,0.740004 0.43506,0.727416 0.39602,0.712943 0.35503,0.69645 0.31288,0.676391 0.26886,0.654378 0.22282,0.629808 0.17622,0.603285 0.12717,0.572792 0.0781,0.541691 0.0255,0.507696 -0.0265,0.470606 -0.0811,0.431091 -0.13666,0.389019 -0.19474,0.345465 -0.25237,0.299893 -0.31288,0.250348 -0.37253,0.200736 -0.43607,0.147691 -0.49969,0.09162 -0.56424,0.03554 -0.63082,-0.02551 -0.69894,-0.0861 -0.76801,-0.150721 -0.83909,-0.217295 -0.9122,-0.285352 -0.98732,-0.356977 0.81607,0.980793 1.06346,0.385519 0.98328,0.307902 0.90567,0.233789 0.82711,0.162232 0.75199,0.0931 0.67787,0.02605 0.6053,-0.03709 0.53274,-0.09862 0.46462,-0.156711 0.39702,-0.212786 0.33046,-0.265292 0.26684,-0.316924 0.20478,-0.363505 0.14365,-0.409551 0.0856,-0.453104 0.0286,-0.491607 -0.0275,-0.531258 -0.0811,-0.565251 -0.13268,-0.598237 -0.18371,-0.628866 -0.23284,-0.656869 -0.28084,-0.68191 -0.32547,-0.705942 -0.37044,-0.726406 -0.41306,-0.744043 -0.45559,-0.761007 -0.4947,-0.775479 -0.53423,-0.785039 -0.56969,-0.796078 -0.60732,-0.80254 -0.64233,-0.807051 z m -3.05857,11.99139 0.81607,0.980793 0.0281,0.01098 0.026,0.0085 0.025,0.007 0.0236,0.007 0.022,0.0034 0.0205,0.004 0.0195,0.002 0.0176,6.72e-4 0.0165,-6.72e-4 0.0145,-6.74e-4 0.013,-0.0027 0.012,-0.0047 0.01,-0.0047 0.009,-0.0071 0.007,-0.0075 0.005,-0.009 0.004,-0.01003 0.003,-0.0105 0.001,-0.01252 -5.4e-4,-0.014 -0.003,-0.01353 -0.003,-0.01548 -0.005,-0.01703 -0.007,-0.01757 -0.008,-0.01851 -0.0106,-0.01952 -0.012,-0.02053 -0.0135,-0.02053 -0.015,-0.02248 -0.017,-0.02356 -0.019,-0.02457 -0.02,-0.02396 -0.0215,-0.02558 -0.023,-0.02652 -0.024,-0.02551 -0.0245,-0.02605 -0.026,-0.02551 -0.0271,-0.02659 -0.0275,-0.02652 -0.028,-0.02504 -0.0296,-0.02652 -0.0296,-0.02551 -0.0306,-0.02652 -0.0305,-0.02504 -0.0316,-0.02457 -0.0315,-0.02551 -0.0326,-0.0245 -0.032,-0.02356 -0.0331,-0.02349 -0.0325,-0.02356 -0.033,-0.02201 -0.0331,-0.02154 -0.0325,-0.02154 -0.0336,-0.02053 -0.0325,-0.02053 -0.0326,-0.01898 -0.032,-0.01858 -0.0325,-0.0175 -0.0316,-0.01649 -0.031,-0.01555 -0.0305,-0.01501 -0.0306,-0.01353 -0.0291,-0.01252 -0.029,-0.01198 z m 0.81607,0.980793 -0.81607,-0.980793 -0.66084,-0.267849 -0.6088,-0.275861 -0.55428,-0.2764 -0.49713,-0.27485 -0.43661,-0.26536 -0.37744,-0.251828 -0.32144,-0.236818 -0.27438,-0.224768 -0.23829,-0.217296 -0.2103,-0.216286 -0.18478,-0.217835 -0.15665,-0.220257 -0.1252,-0.218777 -0.0881,-0.211305 -0.0471,-0.200265 -0.003,-0.184714 0.0446,-0.164723 0.0932,-0.13968 0.14318,-0.113158 0.19521,-0.08213 0.24638,-0.04907 0.29989,-0.01198 0.35449,0.02652 0.40901,0.06758 0.46408,0.112619 0.52075,0.159202 0.57771,0.209285 0.63634,0.26085 0.69645,0.315913 0.7575,0.374546 0.82011,0.436073 0.88514,0.499619 -0.31443,-0.732936 -0.98726,-0.558723 -0.92277,-0.490665 -0.85861,-0.423552 -0.79352,-0.361016 -0.72896,-0.298882 -0.66495,-0.240789 -0.60127,-0.183773 -0.53718,-0.130188 -0.47518,-0.0791 -0.41251,-0.03103 -0.352,0.01454 -0.29087,0.05756 -0.23177,0.09761 -0.17327,0.13618 -0.11363,0.172261 -0.0556,0.205247 0.004,0.237355 0.0631,0.270341 0.12514,0.298883 0.18977,0.330454 0.25687,0.358929 0.3279,0.387537 0.39905,0.41056 0.46508,0.424561 0.52325,0.426043 0.56821,0.419581 0.60228,0.40302 0.63237,0.384037 0.65936,0.363977 0.6879,0.343918 0.71745,0.324934 0.74849,0.302921 z m 1.54356,-2.839789 -0.31443,-0.732936 -0.034,-0.02006 -0.0336,-0.01851 -0.032,-0.01649 -0.032,-0.01656 -0.03,-0.01454 -0.0296,-0.01299 -0.0285,-0.01252 -0.0275,-0.01098 -0.0265,-0.0096 -0.0255,-0.009 -0.0236,-0.0075 -0.023,-0.0061 -0.022,-0.0047 -0.0205,-0.004 -0.019,-0.0027 -0.018,-6.73e-4 h -0.017 l -0.0151,6.73e-4 -0.014,0.0013 -0.0125,0.004 -0.011,0.0054 -0.01,0.0061 -0.008,0.0075 -0.006,0.008 -0.005,0.0095 -0.003,0.01098 -0.001,0.01252 v 0.01306 l 0.002,0.01549 0.003,0.01555 0.005,0.01649 0.008,0.01905 0.009,0.01952 0.0106,0.01952 0.012,0.02154 0.0135,0.02154 0.015,0.02154 0.0165,0.02302 0.018,0.02249 0.0185,0.02356 0.0205,0.0245 0.0215,0.02457 0.023,0.0245 0.0236,0.02551 0.025,0.02504 0.025,0.02457 0.027,0.02652 0.0275,0.02551 0.0285,0.02504 0.0291,0.02558 0.03,0.02551 0.03,0.02551 0.0316,0.02551 0.0315,0.02504 0.0651,0.04907 0.0335,0.02457 0.0331,0.02349 0.0336,0.02356 0.034,0.02302 0.0346,0.02154 0.034,0.02249 0.0351,0.02053 0.0345,0.02053 z m -0.31443,-0.732936 0.31443,0.732936 0.85612,0.524189 0.85013,0.570301 0.8426,0.613786 0.8331,0.655388 0.81863,0.691402 0.79803,0.723444 0.77252,0.749025 0.73751,0.769488 0.69692,0.782547 0.64832,0.788001 0.5938,0.788067 0.5297,0.780529 0.45964,0.766526 0.38444,0.744515 0.3009,0.717385 0.21131,0.683459 0.11565,0.6428 0.0125,0.595342 -0.0956,0.541691 -0.21232,0.482117 -0.33247,0.415541 -0.46158,0.342503 -0.59575,0.263812 -0.73698,0.177242 -0.8852,0.08563 -1.03936,-0.01353 -1.20058,-0.119149 -1.36833,-0.230826 -1.54207,-0.348967 -1.72275,-0.475586 -1.91103,-0.606314 -2.10531,-0.744986 0.83916,0.989814 2.16084,0.764506 1.96556,0.624827 1.77788,0.489117 1.59559,0.361487 1.41889,0.239847 1.24917,0.12312 1.08346,0.01454 0.92471,-0.08913 0.77353,-0.186734 0.62678,-0.276331 0.48616,-0.361016 0.35199,-0.439102 0.22376,-0.510659 0.10165,-0.575752 -0.0125,-0.633848 -0.12312,-0.68642 -0.22685,-0.731455 -0.32392,-0.771508 -0.41353,-0.80456 -0.49968,-0.831082 -0.57871,-0.852624 -0.65244,-0.866692 -0.72041,-0.876117 -0.78356,-0.878204 -0.8401,-0.876116 -0.89167,-0.865145 -0.93871,-0.850671 -0.97885,-0.826573 -1.01283,-0.797088 -1.03889,-0.755486 -1.05289,-0.706885 z m -3.43305,13.088303 0.83916,0.989814 0.0275,0.0095 0.026,0.009 0.0246,0.0068 0.023,0.0047 0.0215,0.0047 0.0205,0.0034 0.018,6.74e-4 h 0.017 l 0.0156,-6.74e-4 0.014,-0.002 0.0131,-0.004 0.011,-0.004 0.01,-0.0054 0.008,-0.008 0.006,-0.008 0.005,-0.0096 0.003,-0.01098 0.001,-0.01151 4.7e-4,-0.01205 -0.001,-0.01454 -0.003,-0.01447 -0.005,-0.01555 -0.007,-0.01703 -0.008,-0.01851 -0.009,-0.01851 -0.0105,-0.01952 -0.013,-0.02053 -0.014,-0.02255 -0.016,-0.02255 -0.0175,-0.02349 -0.0191,-0.02403 -0.021,-0.02457 -0.022,-0.02652 -0.0236,-0.02551 -0.0245,-0.02652 -0.0256,-0.02504 -0.0265,-0.02652 -0.0271,-0.02659 -0.028,-0.02598 -0.029,-0.02558 -0.0291,-0.02652 -0.0305,-0.02551 -0.0301,-0.02652 -0.0315,-0.02403 -0.031,-0.02558 -0.0326,-0.0245 -0.032,-0.0245 -0.0331,-0.02356 -0.032,-0.02356 -0.0331,-0.02302 -0.033,-0.02147 -0.0326,-0.02255 -0.0335,-0.02053 -0.0326,-0.02053 -0.0331,-0.01952 -0.032,-0.01905 -0.032,-0.01851 -0.0315,-0.01649 -0.0316,-0.01656 -0.031,-0.01447 -0.0305,-0.01508 -0.0296,-0.01252 -0.0296,-0.01245 -0.0281,-0.01104 z m 0.83916,0.989814 -0.83916,-0.989814 -0.78053,-0.309922 -0.7019,-0.320895 -0.62032,-0.321434 -0.53368,-0.314903 -0.4496,-0.300432 -0.37852,-0.286362 -0.32991,-0.2834 -0.29895,-0.294372 -0.27331,-0.312885 -0.24287,-0.327963 -0.20478,-0.336916 -0.1592,-0.337455 -0.10966,-0.331464 -0.057,-0.318943 -0.003,-0.300363 0.0536,-0.278351 0.10817,-0.251358 0.16519,-0.221268 0.22033,-0.185792 0.27687,-0.14769 0.33093,-0.106629 0.38599,-0.0626 0.44011,-0.01347 0.49261,0.03602 0.54473,0.09014 0.59527,0.145671 0.64536,0.203294 0.69443,0.26536 0.7435,0.327424 0.79251,0.39501 0.84415,0.464615 0.89866,0.539672 -0.16923,-0.645291 -1.05989,-0.637886 -1.00078,-0.55024 -0.93724,-0.467577 -0.87269,-0.385047 -0.80705,-0.308374 -0.74148,-0.233317 -0.67639,-0.166741 -0.61231,-0.100638 -0.54876,-0.04107 -0.48615,0.01602 -0.42457,0.06812 -0.36242,0.116658 -0.30246,0.162231 -0.24132,0.203228 -0.18122,0.242808 -0.11962,0.276399 -0.0591,0.309923 0.003,0.340416 0.066,0.367478 0.13019,0.394539 0.19878,0.420051 0.27182,0.446103 0.35099,0.473096 0.4391,0.501705 0.53166,0.52318 0.62086,0.53321 0.68992,0.522169 0.73798,0.492685 0.774,0.455595 0.80658,0.419512 0.84508,0.385519 0.88622,0.353005 z m 2.08121,-5.132773 0.16923,0.645291 2.44424,1.573106 2.09379,1.436926 1.75479,1.301217 1.43492,1.164498 1.13702,1.036867 0.87411,0.922767 0.64441,0.832092 0.43257,0.755016 0.2278,0.6809 0.025,0.605306 -0.16768,0.52567 -0.35496,0.445092 -0.52924,0.363978 -0.69039,0.284409 -0.83714,0.207266 -0.97076,0.131131 -1.09146,0.05762 -1.19506,-0.01151 -1.28567,-0.08064 -1.36234,-0.143652 -1.42387,-0.204304 -1.46997,-0.262869 -1.5025,-0.318875 -1.52046,-0.369497 -1.52255,-0.417561 -1.50949,-0.462595 -1.48196,-0.503658 -1.43686,-0.539739 -1.37486,-0.572253 -1.29321,-0.596284 -1.18806,-0.612306 -1.05942,-0.614864 0.19031,0.659898 1.29266,0.750977 1.35379,0.69746 1.41088,0.650811 1.46197,0.608334 1.50397,0.565252 1.53554,0.522169 1.55406,0.476126 1.56105,0.4286 1.55352,0.377508 1.53305,0.324395 1.49799,0.267851 1.45038,0.209285 1.3884,0.146681 1.31118,0.08112 1.22165,0.01205 1.11744,-0.05958 0.99836,-0.134228 0.86562,-0.214267 0.71846,-0.295853 0.55671,-0.383566 0.3775,-0.475116 0.18377,-0.574205 -0.0305,-0.67942 -0.26684,-0.796078 -0.52722,-0.919199 -0.81055,-1.046359 -1.10398,-1.164565 -1.39129,-1.268165 -1.67623,-1.36133 -1.96259,-1.454899 -2.26149,-1.553046 z m -13.83975,7.91844 -0.19031,-0.659897 -0.0345,-0.02053 -0.0341,-0.02047 -0.0335,-0.01858 -0.0325,-0.01797 -0.032,-0.01656 -0.0306,-0.01548 -0.0306,-0.01454 -0.0285,-0.01299 -0.0285,-0.01252 -0.027,-0.01104 -0.0265,-0.0095 -0.0246,-0.008 -0.024,-0.0075 -0.023,-0.0061 -0.0215,-0.0047 -0.0205,-0.004 -0.019,-0.002 -0.018,-4.7e-4 h -0.017 l -0.015,4.7e-4 -0.0135,0.002 -0.0125,0.004 -0.011,0.0047 -0.009,0.0061 -0.007,0.0075 -0.006,0.009 -0.005,0.0095 -0.003,0.01198 -0.001,0.01151 5.4e-4,0.01508 0.002,0.01447 0.004,0.01656 0.006,0.0175 0.008,0.01851 0.008,0.01851 0.011,0.02053 0.0121,0.02053 0.0135,0.02154 0.0155,0.02154 0.0165,0.02255 0.0176,0.02349 0.019,0.02356 0.0205,0.02349 0.0216,0.02457 0.0225,0.0245 0.024,0.02504 0.0245,0.0245 0.0255,0.02558 0.0271,0.02551 0.0275,0.02652 0.0285,0.02504 0.029,0.02551 0.0306,0.02558 0.0306,0.02551 0.0315,0.02504 0.0316,0.02551 0.0325,0.02558 0.0331,0.02451 0.0336,0.0245 0.034,0.02403 0.0341,0.02356 0.0345,0.02255 0.0702,0.04503" /></g></svg>