<?xml version="1.0" encoding="UTF-8" standalone="no"?>
<svg
   xmlns:dc="http://purl.org/dc/elements/1.1/"
   xmlns:cc="http://creativecommons.org/ns#"
   xmlns:rdf="http://www.w3.org/1999/02/22-rdf-syntax-ns#"
   xmlns:svg="http://www.w3.org/2000/svg"
   xmlns="http://www.w3.org/2000/svg"
   id="svg4975"
   version="1.1"
   viewBox="0 0 297 210"
   height="210mm"
   width="297mm">
  <defs
     id="defs4969" />
  <metadata
     id="metadata4972">
    <rdf:RDF>
      <cc:Work
         rdf:about="">
        <dc:format>image/svg+xml</dc:format>
        <dc:type
           rdf:resource="http://purl.org/dc/dcmitype/StillImage" />
        <dc:title></dc:title>
      </cc:Work>
    </rdf:RDF>
  </metadata>
  <g
     transform="translate(0,-87)"
     id="layer1">
    <path
       transform="matrix(1.424702,0,0,1.424702,-6.2599857,25.882609)"
       id="path5747"
       d="m 17.161749,107.07663 c 2.429141,-4.24722 6.044164,-9.845749 10.385287,-13.696899 1.660141,-1.472765 3.381871,-2.652769 5.159158,-3.450652 1.694976,-0.760931 3.402497,-1.157289 5.121649,-1.163117 1.71891,-0.0058 3.413951,0.378857 5.086352,1.131355 1.75391,0.789173 3.443725,1.965276 5.068066,3.444925 4.256664,3.877494 7.73952,9.559788 10.108302,13.940328 2.313835,3.9297 5.479739,8.87037 9.071428,12.69867 1.503282,1.60232 3.1289,3.06408 4.86099,4.20832 1.600244,1.05715 3.306697,1.85365 5.111253,2.23453 1.69996,0.35881 3.492106,0.34998 5.371655,-0.1624 1.793541,-0.48893 3.667554,-1.4365 5.62173,-2.9633 3.715683,-2.90305 7.731781,-7.90773 12.064581,-15.89115 3.05399,-5.45215 6.2214,-10.046635 9.50537,-13.359049 1.61262,-1.626591 3.24953,-2.940234 4.91232,-3.897147 1.65465,-0.952226 3.33157,-1.549289 5.03332,-1.753013 1.70169,-0.203719 3.42633,-0.0139 5.17685,0.604655 1.75948,0.621724 3.54092,1.675134 5.34637,3.189636 3.68193,3.088583 7.42351,8.061138 11.2408,15.045988 2.94393,5.41949 5.88046,9.80777 8.88104,13.00563 1.57246,1.67586 3.14506,3.00584 4.72526,3.98566 1.65606,1.02686 3.30703,1.66073 4.95863,1.91388 1.75475,0.26896 3.4943,0.10565 5.22186,-0.45244 1.87149,-0.60458 3.71084,-1.66672 5.51671,-3.10969 4.4196,-3.53144 8.50236,-9.24037 12.0619,-15.3617 -3.55976,6.1217 -7.64538,11.82833 -12.06791,15.35418 -1.80692,1.44056 -3.64633,2.49902 -5.51637,3.09959 -1.72607,0.55433 -3.46227,0.71352 -5.21179,0.44157 -1.64662,-0.25596 -3.29189,-0.89171 -4.94183,-1.9195 -1.57446,-0.98078 -3.1414,-2.31114 -4.70834,-3.98725 -2.99016,-3.19851 -5.91655,-7.58663 -8.85073,-13.00716 -3.81143,-6.99224 -7.55216,-11.981872 -11.24179,-15.089 -1.80992,-1.524185 -3.60041,-2.589423 -5.37419,-3.221096 -1.76541,-0.628696 -3.50886,-0.825956 -5.23202,-0.624328 -1.72292,0.201599 -3.41921,0.801226 -5.09047,1.757706 -1.67911,0.960974 -3.32954,2.280199 -4.95296,3.911235 -3.30525,3.320738 -6.48899,7.924733 -9.55543,13.381393 -4.335846,7.97006 -8.343077,12.94211 -12.031773,15.81396 -1.938455,1.5092 -3.788656,2.43795 -5.549932,2.91416 -1.844638,0.49874 -3.599747,0.50319 -5.263939,0.14836 -1.768037,-0.37696 -3.445161,-1.16215 -5.024375,-2.20911 -1.709619,-1.13341 -3.318497,-2.58321 -4.810758,-4.17745 -3.566614,-3.81036 -6.718317,-8.73346 -9.027093,-12.65439 -2.369867,-4.38273 -5.888873,-10.086453 -10.196094,-13.967642 -1.645185,-1.482456 -3.359444,-2.660085 -5.140094,-3.445882 -1.698516,-0.749551 -3.418144,-1.125238 -5.157883,-1.105322 -1.739328,0.01991 -3.458997,0.434754 -5.158338,1.212288 -1.781408,0.815083 -3.501571,2.010925 -5.156256,3.494785 -4.325505,3.878952 -7.922164,9.490043 -10.350516,13.735883 z"
       style="fill:#000000;fill-rule:nonzero;stroke:#ffffff;stroke-width:2;stroke-linecap:butt;stroke-linejoin:miter;stroke-miterlimit:4;stroke-dasharray:none;stroke-dashoffset:4.4000001;stroke-opacity:1" />
    <path
       transform="matrix(1.424702,0,0,1.424702,-6.2599857,25.882609)"
       id="path5751"
       d="m 17.161749,107.07663 c 36.954966,0 147.819861,0.13229 184.774831,0.13229 0,0 0,-0.13229 0,-0.13229 0,0 0,-0.13229 0,-0.13229 -36.95497,0 -147.819865,0.13229 -184.774831,0.13229 z"
       style="fill:#000000;fill-rule:nonzero;stroke:#ffffff;stroke-width:2;stroke-linecap:butt;stroke-linejoin:miter;stroke-miterlimit:4;stroke-dasharray:none;stroke-dashoffset:4.4000001;stroke-opacity:1" />
    <path
       transform="matrix(1.7999584,0,0,1.7999584,-12.592707,-24.393446)"
       id="path5755"
       d="m 16.87572,86.196502 c 0,12.814106 -0.132292,51.256418 -0.132292,64.070528 0,0 0.132292,0 0.132292,0 0,0 0.132292,0 0.132292,0 0,-12.81411 -0.132292,-51.256422 -0.132292,-64.070528 z"
       style="fill:#000000;fill-rule:nonzero;stroke:#ffffff;stroke-width:1.58303881;stroke-linecap:butt;stroke-linejoin:miter;stroke-miterlimit:4;stroke-dasharray:none;stroke-dashoffset:3.48268557;stroke-opacity:1" />
    <path
       transform="matrix(1.424702,0,0,1.424702,-6.2599857,25.882609)"
       id="path5759"
       d="m 37.469818,106.7906 c -0.05721,-3.60397 -0.09655,-14.417967 -0.153753,-18.021934 0,0 -0.132275,0.0021 -0.132275,0.0021 0,0 -0.132275,0.0021 -0.132275,0.0021 0.05721,3.603966 0.361097,14.413764 0.418303,18.017734 z"
       style="fill:#000000;fill-rule:nonzero;stroke:#ffffff;stroke-width:2;stroke-linecap:butt;stroke-linejoin:miter;stroke-miterlimit:4;stroke-dasharray:2.00000006, 6.00000016999999986;stroke-dashoffset:4.5999999;stroke-opacity:1" />
    <path
       id="path5759-0"
       d="m 37.469818,106.7906 c -0.05721,-3.60397 -0.09655,-14.417967 -0.153753,-18.021934 0,0 -0.132275,0.0021 -0.132275,0.0021 0,0 -0.132275,0.0021 -0.132275,0.0021 0.05721,3.603966 0.361097,14.413764 0.418303,18.017734 z"
       style="fill:#000000;fill-rule:nonzero;stroke:#ffffff;stroke-width:2;stroke-linecap:butt;stroke-linejoin:miter;stroke-miterlimit:4;stroke-dasharray:4.00000011, 2.00000006000000008;stroke-dashoffset:20;stroke-opacity:1"
       transform="matrix(1.424702,0,0,1.424702,53.539568,52.931915)" />
    <path
       id="path5759-1"
       d="m 37.469818,106.7906 c -0.05721,-3.60397 -0.09655,-14.417967 -0.153753,-18.021934 0,0 -0.132275,0.0021 -0.132275,0.0021 0,0 -0.132275,0.0021 -0.132275,0.0021 0.05721,3.603966 0.361097,14.413764 0.418303,18.017734 z"
       style="fill:#000000;fill-rule:nonzero;stroke:#ffffff;stroke-width:2;stroke-linecap:butt;stroke-linejoin:miter;stroke-miterlimit:4;stroke-dasharray:4.00000011, 2.00000006000000008;stroke-dashoffset:20;stroke-opacity:1"
       transform="matrix(1.424702,0,0,1.424702,113.0355,26.036497)" />
    <path
       id="path5759-2"
       d="m 37.469818,106.7906 c -0.05721,-3.60397 -0.09655,-14.417967 -0.153753,-18.021934 0,0 -0.132275,0.0021 -0.132275,0.0021 0,0 -0.132275,0.0021 -0.132275,0.0021 0.05721,3.603966 0.361097,14.413764 0.418303,18.017734 z"
       style="fill:#000000;fill-rule:nonzero;stroke:#ffffff;stroke-width:2;stroke-linecap:butt;stroke-linejoin:miter;stroke-miterlimit:4;stroke-dasharray:4.00000011, 2.00000006000000008;stroke-dashoffset:20;stroke-opacity:1"
       transform="matrix(1.424702,0,0,1.424702,172.1239,53.339419)" />
  </g>
</svg>
