<?xml version="1.0" encoding="UTF-8" standalone="no"?>
<svg
   xmlns:dc="http://purl.org/dc/elements/1.1/"
   xmlns:cc="http://creativecommons.org/ns#"
   xmlns:rdf="http://www.w3.org/1999/02/22-rdf-syntax-ns#"
   xmlns:svg="http://www.w3.org/2000/svg"
   xmlns="http://www.w3.org/2000/svg"
   id="svg8"
   version="1.1"
   viewBox="0 0 210 297"
   height="297mm"
   width="210mm">
  <defs
     id="defs2" />
  <metadata
     id="metadata5">
    <rdf:RDF>
      <cc:Work
         rdf:about="">
        <dc:format>image/svg+xml</dc:format>
        <dc:type
           rdf:resource="http://purl.org/dc/dcmitype/StillImage" />
        <dc:title></dc:title>
      </cc:Work>
    </rdf:RDF>
  </metadata>
  <g
     id="layer1">
    <circle
       style="fill:#ffffff;fill-opacity:1;stroke:#ffffff;stroke-width:1;stroke-miterlimit:4;stroke-dasharray:none;stroke-opacity:1"
       r="18.898811"
       cy="221.40475"
       cx="108.47916"
       id="path3723" />
    <path
       transform="matrix(0.68290553,0,0,0.68290553,179.72084,-3.874734)"
       id="path3729-5-4"
       d="m -104.32143,75.505952 c 0,45.205948 -0.13229,180.823798 -0.13229,226.029748 0,0 0.13229,0 0.13229,0 0,0 0.13229,0 0.13229,0 0,-45.20595 -0.13229,-180.8238 -0.13229,-226.029748 z"
       style="opacity:0.98999999;fill:#ffffff;fill-opacity:1;fill-rule:nonzero;stroke:#ffffff;stroke-width:1.46433138;stroke-linecap:butt;stroke-linejoin:miter;stroke-miterlimit:4;stroke-dasharray:none;stroke-dashoffset:0;stroke-opacity:1" />
    <circle
       r="1.5"
       cy="57.363094"
       cx="108.10119"
       style="fill:#ffffff;stroke:#ffffff;stroke-opacity:1"
       id="path4610" />
    <path
       transform="matrix(1.1396373,0,0,0.99943533,-15.067574,0.0645144)"
       id="path4614"
       d="m 108.10119,59.630952 c 10.06705,17.436639 21.61939,37.401358 32.43996,55.945588 10.74758,18.41913 18.25542,31.12055 23.33157,39.56709 4.21108,7.00708 6.2461,10.2493 7.24327,11.78757 0.56948,0.8785 0.84272,1.26638 0.975,1.44449 0.0794,0.10688 0.12316,0.15869 0.14925,0.18575 0.0149,0.0154 0.0302,0.0294 0.048,0.0399 0.01,0.006 0.0257,0.0135 0.0462,0.0171 0.0114,0.002 0.0251,0.003 0.0404,7.9e-4 0.0163,-0.002 0.0329,-0.008 0.0485,-0.0165 0,0 -0.0662,-0.11457 -0.0662,-0.11457 0,0 -0.0661,-0.11457 -0.0661,-0.11457 0.0155,-0.009 0.032,-0.0142 0.048,-0.0164 0.015,-0.002 0.0282,-0.001 0.0388,7.2e-4 0.0192,0.003 0.0324,0.0103 0.0383,0.0138 0.009,0.006 0.014,0.0119 0.003,0.003 -0.0145,-0.0117 -0.0528,-0.0492 -0.13376,-0.14972 -0.13456,-0.16717 -0.41153,-0.5389 -0.99227,-1.41067 -1.01859,-1.52905 -3.06787,-4.74018 -7.30746,-11.73929 -5.09168,-8.40583 -12.6525,-21.13589 -23.40914,-39.51961 -10.74926,-18.371088 -22.5013,-38.648628 -32.47566,-55.924728 z"
       style="fill:#ffffff;fill-rule:nonzero;stroke:#ffffff;stroke-width:1.00000002;stroke-linecap:butt;stroke-linejoin:miter;stroke-miterlimit:4;stroke-dasharray:12.00000029, 12.00000028999999913;stroke-opacity:1;stroke-dashoffset:0" />
    <circle
       style="fill:#ffffff;stroke:#ffffff;stroke-width:2;stroke-linecap:butt;stroke-linejoin:miter;stroke-miterlimit:4;stroke-dasharray:none;stroke-opacity:1;paint-order:stroke fill markers"
       r="18.898811"
       cy="188.14285"
       cx="29.482151"
       id="path3723-2" />
    <path
       id="path4614-2"
       d="m 108.10119,59.630952 c 10.06705,17.436639 21.61939,37.401358 32.43996,55.945588 10.74758,18.41913 18.25542,31.12055 23.33157,39.56709 4.21108,7.00708 6.2461,10.2493 7.24327,11.78757 0.56948,0.8785 0.84272,1.26638 0.975,1.44449 0.0794,0.10688 0.12316,0.15869 0.14925,0.18575 0.0149,0.0154 0.0302,0.0294 0.048,0.0399 0.01,0.006 0.0257,0.0135 0.0462,0.0171 0.0114,0.002 0.0251,0.003 0.0404,7.9e-4 0.0163,-0.002 0.0329,-0.008 0.0485,-0.0165 0,0 -0.0662,-0.11457 -0.0662,-0.11457 0,0 -0.0661,-0.11457 -0.0661,-0.11457 0.0155,-0.009 0.032,-0.0142 0.048,-0.0164 0.015,-0.002 0.0282,-0.001 0.0388,7.2e-4 0.0192,0.003 0.0324,0.0103 0.0383,0.0138 0.009,0.006 0.014,0.0119 0.003,0.003 -0.0145,-0.0117 -0.0528,-0.0492 -0.13376,-0.14972 -0.13456,-0.16717 -0.41153,-0.5389 -0.99227,-1.41067 -1.01859,-1.52905 -3.06787,-4.74018 -7.30746,-11.73929 -5.09168,-8.40583 -12.6525,-21.13589 -23.40914,-39.51961 -10.74926,-18.371088 -22.5013,-38.648628 -32.47566,-55.924728 z"
       style="fill:#ffffff;fill-rule:nonzero;stroke:#ffffff;stroke-width:0.99999995;stroke-linecap:butt;stroke-linejoin:miter;stroke-miterlimit:4;stroke-dasharray:11.99999937, 11.99999936999999939;stroke-opacity:1;stroke-dashoffset:0"
       transform="matrix(-1.1265352,0,0,0.99948682,229.96665,0.62346536)" />
    <circle
       style="fill:#ffffff;stroke:#ffffff;stroke-width:2;stroke-linecap:butt;stroke-linejoin:miter;stroke-miterlimit:4;stroke-dasharray:none;stroke-opacity:1;paint-order:stroke fill markers"
       r="18.898811"
       cy="188.14285"
       cx="185.96428"
       id="path3723-2-7" />
    <path
       id="path4913"
       d="m 30.994048,217.625 c -0.0748,3.88964 0.329312,8.22985 1.918203,12.19909 1.208203,3.01823 3.02235,5.62606 5.542023,7.71206 2.240605,1.85496 4.928406,3.2053 7.981177,4.1046 2.904326,0.85557 6.034325,1.27199 9.219554,1.37477 6.512761,0.21014 12.951371,-0.90156 17.353577,-1.89976 5.330851,-1.20878 8.786168,-2.50878 7.922935,-2.19956 0,0 -0.04461,-0.12454 -0.04461,-0.12454 0,0 -0.04461,-0.12454 -0.04461,-0.12454 0.0024,-8.7e-4 -2.009934,0.87887 -7.881195,2.24167 -4.388051,1.01852 -10.804912,2.15562 -17.302111,1.97449 -3.176856,-0.0886 -6.299372,-0.49013 -9.197934,-1.33012 -3.046452,-0.88285 -5.731905,-2.21699 -7.973546,-4.05732 -2.521223,-2.06985 -4.342443,-4.66592 -5.558078,-7.67866 -1.598825,-3.9624 -2.010192,-8.30199 -1.935381,-12.19218 z"
       style="fill:#ffffff;fill-rule:nonzero;stroke:#ffffff;stroke-width:1;stroke-linecap:butt;stroke-linejoin:miter;stroke-opacity:1;stroke-miterlimit:4;stroke-dasharray:none;fill-opacity:1" />
    <path
       id="path4913-4"
       d="m 30.994048,217.625 c -0.0748,3.88964 0.329312,8.22985 1.918203,12.19909 1.208203,3.01823 3.02235,5.62606 5.542023,7.71206 2.240605,1.85496 4.928406,3.2053 7.981177,4.1046 2.904326,0.85557 6.034325,1.27199 9.219554,1.37477 6.512761,0.21014 12.951371,-0.90156 17.353577,-1.89976 5.330851,-1.20878 8.786168,-2.50878 7.922935,-2.19956 0,0 -0.04461,-0.12454 -0.04461,-0.12454 0,0 -0.04461,-0.12454 -0.04461,-0.12454 0.0024,-8.7e-4 -2.009934,0.87887 -7.881195,2.24167 -4.388051,1.01852 -10.804912,2.15562 -17.302111,1.97449 -3.176856,-0.0886 -6.299372,-0.49013 -9.197934,-1.33012 -3.046452,-0.88285 -5.731905,-2.21699 -7.973546,-4.05732 -2.521223,-2.06985 -4.342443,-4.66592 -5.558078,-7.67866 -1.598825,-3.9624 -2.010192,-8.30199 -1.935381,-12.19218 z"
       style="fill:#ffffff;fill-rule:nonzero;stroke:#ffffff;stroke-width:1;stroke-linecap:butt;stroke-linejoin:miter;stroke-miterlimit:4;stroke-dasharray:none;stroke-opacity:1;fill-opacity:1"
       transform="rotate(-46.746928,102.73728,107.57376)" />
    <text
       id="text4937"
       y="260.71429"
       x="101.29761"
       style="font-style:normal;font-weight:normal;font-size:10.58333302px;line-height:1.25;font-family:sans-serif;letter-spacing:0px;word-spacing:0px;fill:#ffffff;fill-opacity:1;stroke:#ffffff;stroke-width:0.26458332;stroke-opacity:1;"
       xml:space="preserve"><tspan
         style="font-style:normal;font-variant:normal;font-weight:normal;font-stretch:normal;font-size:19.75555611px;font-family:sans-serif;-inkscape-font-specification:'sans-serif, Normal';font-variant-ligatures:normal;font-variant-caps:normal;font-variant-numeric:normal;font-feature-settings:normal;text-align:start;writing-mode:lr-tb;text-anchor:start;stroke-width:0.26458332;stroke:#ffffff;stroke-opacity:1;fill:#ffffff;fill-opacity:1;"
         y="260.71429"
         x="101.29761"
         id="tspan4935">A</tspan></text>
    <text
       id="text4937-6"
       y="228.5864"
       x="189.03929"
       style="font-style:normal;font-weight:normal;font-size:19.75555556px;line-height:1.25;font-family:sans-serif;letter-spacing:0px;word-spacing:0px;fill:#ffffff;fill-opacity:1;stroke:#ffffff;stroke-width:0.26458332;-inkscape-font-specification:'sans-serif, Normal';font-stretch:normal;font-variant:normal;text-anchor:start;text-align:start;writing-mode:lr;font-variant-ligatures:normal;font-variant-caps:normal;font-variant-numeric:normal;font-feature-settings:normal;stroke-opacity:1;"
       xml:space="preserve"><tspan
         id="tspan4957">C</tspan></text>
    <text
       id="text4937-5"
       y="224.80664"
       x="8.3666611"
       style="font-style:normal;font-weight:normal;font-size:19.75555556px;line-height:1.25;font-family:sans-serif;letter-spacing:0px;word-spacing:0px;fill:#ffffff;fill-opacity:1;stroke:#ffffff;stroke-width:0.26458332;-inkscape-font-specification:'sans-serif, Normal';font-stretch:normal;font-variant:normal;text-anchor:start;text-align:start;writing-mode:lr;font-variant-ligatures:normal;font-variant-caps:normal;font-variant-numeric:normal;font-feature-settings:normal;stroke-opacity:1;"
       xml:space="preserve"><tspan
         id="tspan4967">B</tspan></text>
    <rect
       style="fill:#ffffff;fill-opacity:1;stroke:#ffffff;stroke-width:0.26458332;stroke-opacity:1"
       y="39.976189"
       x="36.285709"
       height="18.898809"
       width="148.92261"
       id="rect3713" />
  </g>
</svg>
