<?xml version="1.0" encoding="UTF-8" standalone="no"?>
<svg
   xmlns:dc="http://purl.org/dc/elements/1.1/"
   xmlns:cc="http://creativecommons.org/ns#"
   xmlns:rdf="http://www.w3.org/1999/02/22-rdf-syntax-ns#"
   xmlns:svg="http://www.w3.org/2000/svg"
   xmlns="http://www.w3.org/2000/svg"
   id="svg5803"
   version="1.1"
   viewBox="0 0 297 210"
   height="210mm"
   width="297mm">
  <defs
     id="defs5797" />
  <metadata
     id="metadata5800">
    <rdf:RDF>
      <cc:Work
         rdf:about="">
        <dc:format>image/svg+xml</dc:format>
        <dc:type
           rdf:resource="http://purl.org/dc/dcmitype/StillImage" />
        <dc:title></dc:title>
      </cc:Work>
    </rdf:RDF>
  </metadata>
  <g
     transform="translate(0,-87)"
     id="layer1">
    <path
       id="path28-7-5-3"
       d="m 186.819,255.18058 a 23.193165,100.06115 0 0 0 0,-136.30823 l -4.14097,16.08579 c 0.44309,2.12792 10.73691,52.65743 0,104.13669 z"
       style="fill:#ff0000;stroke-width:5.78805733" />
    <path
       id="path28-7-5"
       d="m 158.38433,238.3494 a 33.35211,81.382137 0 0 0 0,-110.86274 l -5.95474,13.08295 c 0.63715,1.73071 15.43981,42.82755 0,84.69688 z"
       style="fill:#ff0000;stroke-width:6.25959539" />
    <g
       transform="matrix(0.13359656,0,0,0.12082629,219.4785,170.91311)"
       id="g5911">
      <path
         style="fill:#6e7093"
         d="m 407.5,186.79297 c -1.33203,24.88281 -31.79297,73.02734 -44.83203,78.1289 -12.5586,-1.66796 -47.125,-15.33984 -56.00781,-20.02343 l -12.08985,94.5625 c 61.33594,-44.50391 91.125,20.91406 97.39844,44.69531 0.47266,1.79297 2.80859,2.23437 3.92187,0.75391 41.01563,-54.60938 85.66797,30.64062 98.83594,61.04687 0.875,2.02344 3.85156,1.67969 4.23438,-0.49219 15.47265,-88.40625 1.91015,-215.45312 -88.22657,-260.53906 -1.44531,-0.71875 -3.14843,0.25391 -3.23437,1.86719 z m 0,0"
         id="path5849" />
      <path
         style="fill:#4e5173"
         d="m 410.73047,184.92969 c -1.44141,-0.72266 -3.14063,0.2539 -3.23047,1.86328 -0.0859,1.64453 -0.30469,3.39453 -0.63672,5.22265 59.91406,43.67579 75.32813,139.61719 69.83203,219.23438 8.01172,13.01953 14.28906,26.07422 18.02735,34.70703 0.8789,2.02344 3.85546,1.67969 4.23437,-0.49219 15.47266,-88.40625 1.91406,-215.45312 -88.22656,-260.53515 z m 0,0"
         id="path5851" />
      <path
         style="fill:#4e5173"
         d="m 353.71484,262.89062 c -15.53906,-4.39843 -39.8164,-14.17968 -47.05468,-17.99218 l -12.09375,94.5625 c 24.17187,-17.53907 43.4375,-18 58.30078,-10.67188 3.67969,-10.32422 5.83594,-21.41797 5.83594,-32.97656 0,-12.28516 -1.76954,-23.26172 -4.98829,-32.92188 z m 0,0"
         id="path5853" />
      <path
         style="fill:#6e7093"
         d="m 104.5,186.79297 c 1.33203,24.88281 31.79297,73.02734 44.83203,78.1289 12.55469,-1.66796 47.125,-15.33984 56.00391,-20.02343 l 12.09375,94.5625 c -61.33594,-44.50391 -91.125,20.91406 -97.39844,44.69531 -0.47266,1.79297 -2.80859,2.23437 -3.92187,0.75391 -41.01563,-54.60938 -85.67188,30.64062 -98.835942,61.04687 -0.875,2.02344 -3.851563,1.67969 -4.234376,-0.49219 -15.472656,-88.40625 -1.910156,-215.45312 88.226568,-260.53906 1.44531,-0.71875 3.14453,0.25391 3.23437,1.86719 z m 0,0"
         id="path5855" />
      <path
         style="fill:#4e5173"
         d="m 158.28125,262.89062 c 15.54297,-4.39843 39.82031,-14.17968 47.05859,-17.99218 l 12.08985,94.5625 c -24.16797,-17.53907 -43.4375,-18 -58.30078,-10.67188 -3.67579,-10.32422 -5.83204,-21.41797 -5.83204,-32.97656 0,-12.28516 1.76954,-23.26172 4.98438,-32.92188 z m 0,0"
         id="path5857" />
      <path
         style="fill:#6e7093"
         d="m 334.70703,295.8125 c 0,54.98437 -48.67187,99.55859 -78.70703,99.55859 -30.03906,0 -78.70703,-44.57422 -78.70703,-99.55859 0,-54.98438 35.23828,-84.02734 78.70703,-84.02734 43.46875,0 78.70703,29.04296 78.70703,84.02734 z m 0,0"
         id="path5859" />
      <path
         style="fill:#4e5173"
         d="M 331.625,269.48828 C 322.16797,231.61719 291.90234,211.78516 256,211.78516 c -31.57813,0 -58.80078,15.34375 -71.33594,44.80859 21.34766,20.05078 50.07422,32.33594 81.67188,32.33594 24.09765,0 46.52734,-7.15235 65.28906,-19.44141 z m 0,0"
         id="path5861" />
      <path
         style="fill:#6e7093"
         d="m 377.22656,20.371094 -8.1914,-11.53125 C 368.60938,8.238281 367.88672,7.921875 367.15234,8.015625 L 353.125,9.808594 C 333.03516,12.375 314.55859,22.246094 301.29297,37.269531 287.32422,31.535156 272.03516,28.363281 256,28.363281 c -16.03516,0 -31.32422,3.171875 -45.29297,8.90625 C 197.44141,22.246094 178.96484,12.375 158.875,9.808594 L 144.84766,8.015625 c -0.73438,-0.09375 -1.45704,0.222656 -1.88282,0.824219 l -8.1914,11.53125 C 116.26562,46.425781 116.75,82 135.97656,108.89844 c 1.60547,2.24609 3.32422,4.39453 5.13281,6.45703 -3.03125,10.79297 -4.58593,22.20312 -4.42578,34.0039 0.89844,65.47266 55.24219,118.40235 120.71485,117.64844 65.25781,-0.75 117.92968,-53.88281 117.92968,-119.32031 0,-11.20313 -1.54687,-22.05078 -4.4375,-32.33594 1.8125,-2.05859 3.53125,-4.20703 5.13672,-6.45703 C 395.25391,82 395.73437,46.425781 377.22656,20.371094 Z m 0,0"
         id="path5863" />
      <path
         style="fill:#4e5173"
         d="M 377.22656,20.371094 369.03516,8.84375 c -0.42578,-0.601562 -1.14844,-0.921875 -1.88282,-0.828125 l -11.3125,1.445313 0.29297,0.414062 c 18.50781,26.054688 18.02735,61.628906 -1.19922,88.527344 -1.60937,2.246096 -3.32812,4.394536 -5.13672,6.457036 2.88672,10.28125 4.4375,21.1289 4.4375,32.33203 0,65.90234 -53.42578,119.32812 -119.32812,119.32812 -14.89453,0 -29.14844,-2.73828 -42.29688,-7.72265 18.71485,11.75781 40.92188,18.47265 64.71485,18.21093 63.30859,-0.6875 115.51172,-51.42187 117.91406,-114.68359 0.48828,-12.85547 -1.0625,-25.27344 -4.34766,-36.96875 1.8086,-2.0625 3.52735,-4.21094 5.13282,-6.45703 C 395.25391,82 395.73437,46.425781 377.22656,20.371094 Z m 0,0"
         id="path5865" />
      <path
         style="fill:#fdeaaf"
         d="m 339.42187,139.53906 c -1.19921,-3.24609 -5.33593,-4.1914 -7.79687,-1.76172 -11.11328,10.95313 -27.20703,17.19532 -44.53516,15.72266 -1.52734,-0.12891 -3.03125,-0.31641 -4.51562,-0.5625 -3.34375,-0.54688 -6.16797,2.55078 -5.33203,5.83984 3.40234,13.42578 15.20312,23.77344 29.93359,24.53516 16.98047,0.87891 31.97266,-11.73828 34.00391,-28.62109 0.64062,-5.32032 -0.0352,-10.47657 -1.75782,-15.15235 z m 0,0"
         id="path5867" />
      <path
         style="fill:#fdeaaf"
         d="m 172.57812,139.53906 c 1.19922,-3.24609 5.33204,-4.1914 7.79688,-1.76172 11.11328,10.95313 27.20703,17.19532 44.53516,15.72266 1.52734,-0.12891 3.03125,-0.31641 4.51562,-0.5625 3.34375,-0.54688 6.16406,2.55078 5.33203,5.83984 -3.40234,13.42578 -15.20312,23.77344 -29.93359,24.53516 -16.98438,0.87891 -31.97266,-11.73828 -34.00391,-28.62109 -0.64062,-5.32032 0.0352,-10.47657 1.75781,-15.15235 z m 0,0"
         id="path5869" />
      <path
         style="fill:#b78358"
         d="M 187.43359,50.023438 C 178.48437,41.757812 167.23437,36.671875 155.63281,35.1875 c -10.59765,14.917969 -11.97656,35.058594 -2.76953,52.464844 8.69141,-14.898438 20.51563,-27.742188 34.57031,-37.628906 z m 0,0"
         id="path5871" />
      <path
         style="fill:#b78358"
         d="m 359.13672,87.652344 c 9.20703,-17.40625 7.82812,-37.546875 -2.76953,-52.464844 -11.60547,1.484375 -22.85156,6.570312 -31.80469,14.835938 14.05859,9.886718 25.88281,22.730468 34.57422,37.628906 z m 0,0"
         id="path5873" />
      <path
         d="m 486.94922,255.89062 c -1.76172,-3.74609 -6.22656,-5.35156 -9.97656,-3.59375 -3.7461,1.76563 -5.35547,6.23047 -3.59375,9.98047 20.85156,44.32422 28.33593,104.87891 20.76562,164.83203 -12.70312,-25.08203 -36.78125,-63.93359 -65.37109,-67.3125 -7.23047,-0.85156 -14.15625,0.50782 -20.73047,4.05469 0.5625,-6.60547 0.60547,-12.58984 0.55859,-16.1914 -0.10937,-7.9961 -0.95312,-27.5 -6.46484,-35.8125 -2.28906,-3.44922 -6.94141,-4.39063 -10.39453,-2.10157 -3.44922,2.28907 -4.39063,6.94141 -2.10156,10.39063 3.03515,4.58203 5.05859,26.88281 3.29687,44.57031 -3.16406,-7.09765 -7.61328,-15.31641 -13.66797,-23.07812 -11.17969,-14.32813 -24.625,-22.62891 -39.33203,-24.4336 1.46484,-6.91015 2.26562,-14.05859 2.26562,-21.3789 0,-10.71875 -1.25,-20.72266 -3.73046,-29.9375 8.24218,2.875 17.33203,5.69531 23.21093,6.47656 0.32813,0.043 0.65625,0.0625 0.98828,0.0625 0.92969,0 1.85938,-0.17188 2.73438,-0.51563 11.82031,-4.63281 26.33984,-27.80078 30.51172,-34.78906 4.63672,-7.78515 14.625,-25.80859 17.99219,-41.98047 17.70312,10.13282 32.88671,24.28907 45.20312,42.16797 2.35156,3.41016 7.01953,4.27344 10.42969,1.92188 3.41015,-2.34766 4.26953,-7.01953 1.92187,-10.42969 -15.26562,-22.15234 -34.57031,-39.16797 -57.38281,-50.57422 -2.94531,-1.47266 -6.40234,-1.36719 -9.24219,0.28125 -2.83984,1.64844 -4.64453,4.59375 -4.82812,7.89453 -0.52735,9.86719 -7.03125,26.35938 -16.97656,43.03516 -9.17188,15.3789 -17.5,24.73437 -21.63282,27.66406 -5.875,-1.22266 -16.16406,-4.53906 -27.90234,-8.98828 4.42969,-3.42969 8.66016,-7.17578 12.66406,-11.22656 23.64063,-23.89844 36.66016,-55.57422 36.66016,-89.19141 0,-10.3125 -1.24219,-20.54687 -3.69531,-30.48437 1.04687,-1.30079 2.05078,-2.6211 2.99609,-3.94532 21.08594,-29.496091 21.57422,-68.57031 1.21484,-97.22656 L 375.14844,4.5 C 373.11328,1.632812 369.68359,0.132812 366.20313,0.578125 L 352.17578,2.371094 C 332.07031,4.9375 313.48047,14.140625 299.28125,28.453125 285.42578,23.414062 270.89062,20.863281 256,20.863281 c -14.89063,0 -29.42578,2.550781 -43.28125,7.589844 C 198.51953,14.140625 179.92969,4.9375 159.82422,2.371094 L 145.80078,0.578125 C 142.3125,0.132812 138.88281,1.632812 136.85156,4.5 l -8.1914,11.527344 c -20.35938,28.660156 -19.8711,67.734375 1.21484,97.230466 0.94531,1.32422 1.94531,2.64453 2.99609,3.94532 -2.59375,10.50781 -3.83203,21.33984 -3.68359,32.25781 0.19531,14.3164 2.79297,28.35937 7.72266,41.73828 1.42968,3.88672 5.74218,5.875 9.625,4.44531 3.88671,-1.42969 5.8789,-5.74219 4.44531,-9.62891 -4.33594,-11.77734 -6.625,-24.14843 -6.79688,-36.76171 -0.14843,-10.82422 1.2461,-21.54688 4.14844,-31.8711 0.6875,-2.44922 0.0898,-5.07422 -1.58984,-6.98047 -1.67969,-1.91015 -3.25,-3.88671 -4.66797,-5.86718 -17.36719,-24.292972 -17.84375,-56.375004 -1.1875,-79.820316 l 6.28125,-8.84375 10.75781,1.375 c 18.24219,2.332031 34.99219,11.207031 47.16406,24.988281 2.11328,2.390625 5.51563,3.1875 8.46875,1.96875 13.48438,-5.535156 27.76563,-8.34375 42.44532,-8.34375 14.67968,0 28.96093,2.808594 42.44531,8.34375 2.95312,1.21875 6.35156,0.421875 8.46875,-1.96875 12.17187,-13.78125 28.92187,-22.65625 47.16015,-24.988281 l 10.75782,-1.375 6.28125,8.84375 c 16.65625,23.449218 16.17968,55.527344 -1.1875,79.820316 -1.41407,1.98047 -2.98828,3.95703 -4.66797,5.86718 -1.67578,1.90625 -2.27344,4.53125 -1.58594,6.98047 2.75781,9.82032 4.15625,20.01953 4.15625,30.30469 0,29.64453 -11.48047,57.57422 -32.32422,78.64453 -5.19922,5.25781 -10.83203,9.93359 -16.8164,14 -0.0625,0.0352 -0.1211,0.0703 -0.17969,0.10547 -0.26953,0.16406 -0.52735,0.34375 -0.76953,0.53125 -17.78125,11.82031 -38.60938,18.29297 -60.42578,18.54297 -22.70313,0.25 -44.53907,-6.41406 -62.95704,-18.65625 -0.24218,-0.19141 -0.5,-0.3711 -0.76953,-0.53516 -0.0664,-0.043 -0.13281,-0.082 -0.19922,-0.12109 -11.375,-7.73047 -21.41015,-17.60938 -29.49218,-29.31641 -2.35547,-3.41015 -7.02344,-4.26172 -10.42969,-1.91015 -3.41016,2.35546 -4.26563,7.02343 -1.91016,10.43359 7.63282,11.05078 16.80469,20.66797 27.11328,28.63672 -11.80859,4.48437 -22.16796,7.82031 -28.07031,9.05078 -4.13281,-2.92969 -12.46094,-12.28516 -21.63281,-27.66406 -9.94531,-16.67578 -16.44922,-33.16407 -16.98047,-43.05078 -0.17969,-3.28516 -1.98437,-6.23047 -4.82422,-7.875 -2.84375,-1.65235 -6.29687,-1.75391 -9.242185,-0.28516 -22.8125,11.41016 -42.121094,28.42187 -57.382813,50.57422 -2.351562,3.41015 -1.488281,8.08203 1.921876,10.42969 3.40625,2.35156 8.078124,1.49218 10.425781,-1.92188 12.320312,-17.87891 27.507812,-32.03906 45.210937,-42.16797 3.367184,16.17969 13.351564,34.19922 17.988284,41.98047 4.17187,6.98828 18.6875,30.15625 30.51172,34.78906 0.875,0.34375 1.80078,0.51953 2.73437,0.51953 0.32813,0 0.66016,-0.0234 0.98828,-0.0664 5.87891,-0.78125 14.96875,-3.60156 23.21094,-6.47656 -2.48047,9.21484 -3.73047,19.21875 -3.73047,29.9375 0,7.32031 0.80078,14.46875 2.26563,21.3789 -14.70704,1.80078 -28.15235,10.10547 -39.33204,24.4336 -6.05468,7.76171 -10.5039,15.98437 -13.66796,23.08203 -1.76172,-17.6875 0.25781,-39.99219 3.29687,-44.57422 2.28906,-3.44922 1.34766,-8.10156 -2.10547,-10.39063 -3.44922,-2.29297 -8.10547,-1.34765 -10.39062,2.10157 -5.51172,8.3125 -6.35547,27.8164 -6.46485,35.8164 -0.0469,3.60156 -0.004,9.58594 0.5586,16.19141 -6.578128,-3.55078 -13.503909,-4.91016 -20.730471,-4.0586 -28.59375,3.37891 -52.675781,42.23829 -65.371094,67.3125 -7.570313,-59.95312 -0.08594,-120.51171 20.773437,-164.84375 1.761719,-3.74609 0.152344,-8.21484 -3.59375,-9.97656 -3.746093,-1.76172 -8.214843,-0.15625 -9.976562,3.58985 -24.109375,51.23437 -31.363281,122.58984 -19.410156,190.8789 0.742187,4.25391 4.128906,7.45703 8.417968,7.96875 0.398438,0.0469 0.792969,0.0703 1.183594,0.0703 3.84375,0 7.328125,-2.24609 8.902344,-5.86328 14.121094,-32.60156 38.523438,-71.60547 60.832031,-74.24609 8.695313,-1.03516 16.910159,3.78906 25.140629,14.74609 2.26953,3 5.96875,4.40235 9.65625,3.67969 3.67187,-0.73047 6.54296,-3.42969 7.49218,-7.04297 4.9375,-18.70312 21.29688,-52.625 49,-54.19922 15.01953,41.375 52.96875,71.00391 79.72266,71.00391 26.75391,0 64.69922,-29.62891 79.72266,-71.00391 27.71484,1.57032 44.05859,35.4961 48.99609,54.19141 0.95312,3.62109 3.82422,6.32031 7.49609,7.04687 3.65235,0.72266 7.31641,-0.65234 9.60938,-3.61718 v -0.004 c 0.0234,-0.0234 0.043,-0.0508 0.0625,-0.0781 8.21094,-10.9375 16.42578,-15.75782 25.12109,-14.72266 22.3086,2.63672 46.71094,41.64453 60.83985,74.26172 1.5664,3.60156 5.05078,5.84765 8.89453,5.84765 0.39453,0 0.78906,-0.0234 1.18359,-0.0742 4.29297,-0.51172 7.67578,-3.71094 8.42188,-7.96485 11.95312,-68.28515 4.70312,-139.63672 -19.39844,-190.86719 z M 300.99609,361.25 C 286.69922,377.42578 269.03906,387.87891 256,387.87891 c -13.03906,0 -30.69922,-10.45313 -44.99609,-26.62891 -6.67188,-7.55078 -16.42579,-20.74609 -21.95704,-38.24219 -0.10156,-0.51562 -0.25781,-1.01562 -0.46093,-1.49219 -2.32032,-7.78515 -3.79297,-16.38671 -3.79297,-25.69921 0,-14.55469 2.58984,-27.45313 7.71094,-38.45704 19.0625,11.09375 40.90234,17.15625 63.52734,17.15625 0.48437,0 0.96875,-0.004 1.45312,-0.008 22.14844,-0.2539 43.39844,-6.16015 62.07422,-17.00781 5.07813,10.97266 7.64844,23.82422 7.64844,38.31641 0,9.3125 -1.47266,17.91406 -3.79297,25.69921 -0.20312,0.47657 -0.35937,0.97657 -0.45703,1.49219 -5.53516,17.4961 -15.28906,30.69141 -21.96094,38.24219 z m 0,0"
         id="path5875" />
      <path
         d="m 287.72266,146.02734 c -1.32422,-0.11328 -2.64844,-0.27734 -3.94141,-0.48828 -4.06641,-0.66797 -8.16406,0.75781 -10.96094,3.80469 -2.80078,3.05078 -3.86328,7.26953 -2.84765,11.27344 4.33984,17.14062 19.13281,29.26953 36.8125,30.18359 0.69531,0.0352 1.38672,0.0547 2.07422,0.0547 20.07812,-0.004 37.33984,-15.12891 39.76562,-35.26563 0.76563,-6.38281 0.0391,-12.65625 -2.16797,-18.64062 -1.44922,-3.9336 -4.7539,-6.82422 -8.83984,-7.73828 -4.07422,-0.91016 -8.28516,0.29687 -11.26172,3.22656 -10.01172,9.87109 -24.10156,14.82031 -38.63281,13.58984 z m 45.78515,0.1836 c 0.45703,2.47656 0.53516,5.01562 0.22656,7.58203 -1.57031,13.03125 -13.07421,22.70703 -26.17187,22.03125 -9.64453,-0.5 -17.91406,-6.32422 -21.68359,-14.90625 0.1914,0.0195 0.38281,0.0352 0.57421,0.0508 17.33985,1.48047 34.23438,-3.87109 47.05469,-14.75781 z m 0,0"
         id="path5877" />
      <path
         d="m 174.38281,129.21094 c -4.08594,0.91015 -7.39062,3.80468 -8.83984,7.73828 -2.20703,5.98437 -2.9375,12.25781 -2.16797,18.64062 2.42578,20.14063 19.68359,35.26563 39.76172,35.26563 0.6875,0 1.3789,-0.0195 2.07422,-0.0547 17.67968,-0.91406 32.47265,-13.04297 36.8164,-30.18359 1.01563,-4.00782 -0.0508,-8.22266 -2.85156,-11.27344 -2.79687,-3.04688 -6.89453,-4.47656 -10.96484,-3.80469 -1.28516,0.21094 -2.60938,0.375 -3.9375,0.48828 -14.53907,1.22657 -28.61719,-3.71875 -38.63282,-13.58984 -2.97656,-2.93359 -7.17968,-4.14063 -11.25781,-3.22656 z m 51.16406,31.75781 c 0.19141,-0.0156 0.38282,-0.0312 0.57422,-0.0508 -3.76953,8.58203 -12.03906,14.40625 -21.68359,14.90625 -13.09375,0.67969 -24.60156,-8.9961 -26.17188,-22.03125 -0.30859,-2.57031 -0.23437,-5.10547 0.22657,-7.58203 12.8164,10.88672 29.70703,16.23437 47.05468,14.75781 z m 0,0"
         id="path5879" />
      <path
         d="M 192.51953,44.511719 C 182.65625,35.40625 169.89062,29.453125 156.58203,27.75 c -2.74219,-0.355469 -5.46094,0.839844 -7.0625,3.097656 -12.44141,17.511719 -13.69922,40.621094 -3.28516,60.308594 1.27344,2.40625 3.75,3.933594 6.47266,3.992188 h 0.15625 c 2.66016,0 5.12891,-1.414063 6.47656,-3.71875 8.07422,-13.84375 19.28125,-26.042969 32.41016,-35.273438 1.85156,-1.304688 3.01562,-3.375 3.16797,-5.636719 0.14844,-2.261719 -0.73047,-4.46875 -2.39844,-6.007812 z M 154.9375,71.085938 c -1.74219,-9.53125 -0.26563,-19.261719 4.35156,-27.644532 5.59766,1.265625 10.98047,3.503906 15.83985,6.566406 -7.49219,6.21875 -14.29297,13.324219 -20.19141,21.078126 z m 0,0"
         id="path5881" />
      <path
         d="m 320.25,56.15625 c 13.125,9.234375 24.33594,21.429688 32.41016,35.273438 1.34765,2.308593 3.8125,3.722656 6.47656,3.722656 0.0508,0 0.10547,-0.0039 0.15625,-0.0039 2.72265,-0.05859 5.19922,-1.585938 6.47265,-3.988282 10.41407,-19.691406 9.15625,-42.800781 -3.28515,-60.3125 -1.60156,-2.257812 -4.32031,-3.449218 -7.0625,-3.09375 -13.3125,1.699219 -26.07422,7.652344 -35.94141,16.761719 -1.66406,1.535156 -2.54297,3.742187 -2.39453,6.003906 0.15235,2.261719 1.31641,4.332031 3.16797,5.636719 z m 32.46094,-12.714844 c 4.61718,8.382813 6.09375,18.113282 4.35156,27.644532 -5.89844,-7.753907 -12.69922,-14.859376 -20.19141,-21.078126 4.85938,-3.0625 10.24219,-5.300781 15.83985,-6.566406 z m 0,0"
         id="path5883" />
    </g>
    <g
       transform="matrix(-1.3878457,0,0,1.6062588,55.941536,160.72705)"
       id="g6374">
      <g
         id="g6315">
	<g
   id="g6313">
		<path
   d="m 31.957,25.278 c -0.095,-0.678 -0.308,-1.334 -0.624,-1.937 0.007,-0.042 0.016,-0.078 0.021,-0.122 0.02,-0.119 0.036,-0.249 0.052,-0.385 0.005,-0.068 0.022,-0.142 0.007,-0.208 -0.019,-0.066 -0.06,-0.127 -0.074,-0.196 -0.167,-0.544 -0.406,-1.174 -0.782,-1.808 -0.374,-0.63 -0.904,-1.271 -1.605,-1.729 l -0.27,-0.162 -0.302,-0.152 -0.245,-0.104 c -0.133,-0.052 -0.191,-0.065 -0.29,-0.101 -0.354,-0.125 -0.717,-0.221 -1.072,-0.29 -0.354,-0.07 -0.705,-0.116 -1.04,-0.131 -0.27,-0.02 -0.523,-0.011 -0.77,0.004 l 0.036,-0.047 c 0.09,-0.128 0.161,-0.252 0.242,-0.378 l 0.236,-0.377 0.131,-0.251 c 0.036,-0.073 0.075,-0.146 0.108,-0.218 0.537,-1.176 0.833,-2.437 0.819,-3.751 C 26.521,12.28 26.426,11.6 26.133,10.94 25.862,10.282 25.303,9.651 24.584,9.341 23.863,9.037 23.112,9.046 22.454,9.158 21.788,9.275 21.173,9.49 20.6,9.756 c -0.58,0.257 -1.117,0.568 -1.646,0.887 L 18.398,11.01 C 18.253,9.781 18.001,8.56 17.597,7.372 17.327,6.593 16.993,5.83 16.575,5.102 16.153,4.378 15.653,3.683 15.013,3.084 14.375,2.496 13.597,1.972 12.631,1.79 12.152,1.706 11.638,1.723 11.154,1.863 10.664,1.998 10.238,2.278 9.883,2.591 9.17,3.233 8.753,4.055 8.463,4.86 8.177,5.652 8.029,6.529 7.981,7.352 c -0.085,1.666 0.132,3.279 0.4,4.863 0.142,0.793 0.371,1.563 0.598,2.329 0.235,0.765 0.479,1.522 0.747,2.271 0.234,0.67 0.483,1.332 0.742,1.989 C 9.593,17.408 8.762,15.989 8.001,14.534 7.15,12.893 6.375,11.207 5.82,9.473 L 5.623,8.822 5.456,8.167 C 5.36,7.729 5.274,7.292 5.228,6.856 5.178,6.418 5.16,5.987 5.184,5.566 5.182,5.352 5.237,5.156 5.257,4.949 5.287,4.763 5.347,4.591 5.393,4.413 L 5.494,4.253 C 5.537,4.189 5.569,4.109 5.622,4.065 L 5.762,3.911 C 5.81,3.859 5.874,3.848 5.92,3.804 5.966,3.76 6.01,3.718 6.059,3.682 6.106,3.643 6.153,3.591 6.217,3.569 6.278,3.546 6.333,3.495 6.407,3.483 6.477,3.468 6.55,3.44 6.628,3.43 L 6.874,3.409 7.136,3.423 c 0.18,0.019 0.364,0.05 0.55,0.101 0.185,0.05 0.37,0.113 0.558,0.183 C 8.429,3.78 8.616,3.86 8.794,3.958 8.546,3.633 8.26,3.323 7.919,3.065 7.749,2.932 7.564,2.815 7.365,2.706 7.264,2.657 7.158,2.607 7.051,2.562 L 6.705,2.459 C 6.586,2.431 6.457,2.423 6.329,2.407 6.201,2.386 6.066,2.411 5.931,2.417 5.793,2.42 5.662,2.462 5.527,2.503 5.39,2.54 5.255,2.584 5.148,2.673 5.04,2.753 4.926,2.84 4.837,2.934 L 4.579,3.223 C 4.484,3.319 4.435,3.425 4.366,3.527 L 4.177,3.838 4.153,3.878 4.141,3.922 C 4.072,4.181 3.983,4.441 3.939,4.703 3.908,4.962 3.846,5.227 3.846,5.483 3.815,6 3.839,6.51 3.896,7.007 3.95,7.505 4.046,7.99 4.15,8.47 l 0.182,0.711 0.211,0.697 c 0.592,1.848 1.396,3.588 2.271,5.278 0.884,1.688 1.849,3.321 2.868,4.919 L 9.991,20.548 9.79,20.252 C 9.717,20.223 9.643,20.197 9.562,20.181 9.218,20.112 8.879,20.164 8.585,20.306 7.351,18.271 3.13,15.691 1.897,15.771 1.44,15.8 1.102,15.954 0.893,16.226 c -0.357,0.465 -0.22,1.152 -0.175,1.379 0.039,0.194 0.149,0.357 0.318,0.47 0.315,0.21 0.782,0.21 1.114,0.141 C 2.624,18.117 2.902,17.934 2.827,17.327 2.803,17.133 2.7,16.977 2.531,16.881 2.27,16.731 1.886,16.752 1.659,16.848 l 0.132,0.31 C 1.923,17.1 2.193,17.075 2.364,17.173 2.441,17.218 2.483,17.28 2.494,17.371 2.539,17.725 2.473,17.809 2.082,17.89 1.828,17.945 1.451,17.952 1.221,17.798 1.125,17.736 1.068,17.652 1.047,17.542 1.009,17.354 0.894,16.776 1.158,16.432 c 0.147,-0.191 0.403,-0.301 0.76,-0.324 1.117,-0.072 5.246,2.51 6.383,4.379 -0.024,0.02 -0.048,0.037 -0.07,0.057 -2.023,-0.827 -6.75,-1.674 -7.749,-0.727 -0.333,0.314 -0.494,0.647 -0.481,0.991 0.021,0.524 0.438,0.92 0.748,1.173 0.093,0.074 0.197,0.125 0.309,0.146 0.076,0.016 0.155,0.021 0.236,0.011 C 1.671,22.096 2.03,21.798 2.24,21.534 2.542,21.156 2.638,20.836 2.192,20.419 2.049,20.284 1.871,20.231 1.68,20.265 1.382,20.317 1.101,20.578 0.988,20.796 l 0.298,0.153 c 0.065,-0.127 0.26,-0.322 0.451,-0.355 0.088,-0.016 0.159,0.007 0.227,0.069 0.261,0.244 0.263,0.35 0.015,0.664 C 1.818,21.528 1.533,21.776 1.258,21.806 1.144,21.819 1.046,21.789 0.96,21.72 0.81,21.598 0.354,21.23 0.337,20.795 0.327,20.553 0.453,20.306 0.712,20.06 c 0.787,-0.745 5.18,-0.07 7.277,0.747 -0.119,0.168 -0.208,0.362 -0.252,0.578 -0.173,0.836 0.364,1.652 1.199,1.825 0.393,0.081 0.778,10e-4 1.098,-0.188 l -0.009,0.009 c 0,0 1.367,1.853 2.875,3.896 1.508,2.043 6.853,3.807 7.505,3.221 0.116,-0.105 -0.423,-1.052 -2.069,-2.299 0.249,0.084 0.497,0.167 0.746,0.254 0.803,0.256 1.604,0.516 2.415,0.758 0.817,0.221 1.616,0.477 2.457,0.668 0.836,0.181 1.694,0.42 2.519,0.517 l 0.623,0.095 0.312,0.043 0.155,0.021 0.04,0.006 0.02,0.002 0.055,0.005 0.091,0.003 c 0.479,0.022 0.976,-0.046 1.455,-0.188 0.479,-0.148 0.95,-0.382 1.343,-0.716 0.396,-0.33 0.714,-0.743 0.941,-1.189 0.456,-0.906 0.566,-1.908 0.449,-2.85 z m -6.298,-5.986 c 0.271,0.011 0.56,0.05 0.854,0.109 0.295,0.056 0.599,0.136 0.9,0.241 l 0.205,0.069 0.24,0.103 0.171,0.087 0.186,0.112 c 0.439,0.287 0.807,0.701 1.096,1.152 -0.187,-0.116 -0.379,-0.227 -0.582,-0.323 -0.391,-0.188 -0.863,-0.362 -1.332,-0.446 -0.468,-0.104 -0.934,-0.117 -1.393,-0.121 -0.915,0.021 -1.795,0.181 -2.645,0.403 -0.47,0.125 -0.929,0.272 -1.383,0.434 0.054,-0.047 0.108,-0.095 0.162,-0.142 0.449,-0.406 0.895,-0.82 1.32,-1.262 0.164,-0.157 0.317,-0.329 0.473,-0.501 0.081,0.018 0.169,0.038 0.257,0.06 -0.104,-0.021 -0.24,-0.051 0.378,0.092 0.103,-0.036 0.213,-0.052 0.33,-0.059 0.236,-0.016 0.492,-0.027 0.763,-0.008 z M 9.73,11.96 C 9.586,11.205 9.445,10.445 9.383,9.685 9.314,8.929 9.278,8.171 9.319,7.429 9.367,6.68 9.482,5.989 9.731,5.297 c 0.238,-0.67 0.577,-1.29 1.046,-1.707 0.459,-0.426 1.024,-0.584 1.618,-0.479 0.598,0.107 1.191,0.479 1.702,0.953 0.515,0.479 0.948,1.076 1.317,1.71 0.368,0.639 0.671,1.324 0.916,2.033 0.482,1.424 0.74,2.933 0.839,4.454 l 0.077,1.205 0.989,-0.707 0.706,-0.503 0.721,-0.473 c 0.487,-0.294 0.98,-0.58 1.488,-0.803 0.504,-0.237 1.023,-0.411 1.527,-0.5 0.503,-0.087 0.99,-0.07 1.373,0.092 0.374,0.171 0.671,0.475 0.856,0.913 0.192,0.429 0.278,0.949 0.285,1.479 0.017,1.063 -0.239,2.175 -0.691,3.155 -0.027,0.063 -0.062,0.121 -0.09,0.182 l -0.046,0.09 -0.022,0.045 -0.013,0.023 -0.003,0.008 -0.227,0.357 c -0.08,0.123 -0.157,0.258 -0.238,0.371 l -0.249,0.314 -0.244,0.316 -0.285,0.317 c -0.191,0.212 -0.374,0.429 -0.585,0.629 -0.4,0.413 -0.825,0.809 -1.256,1.2 -0.439,0.384 -0.876,0.771 -1.334,1.137 -0.905,0.743 -1.843,1.455 -2.798,2.143 -0.541,0.39 -1.089,0.771 -1.642,1.146 -0.351,0.224 -0.701,0.457 -1.051,0.696 -0.003,-0.004 -0.012,-0.011 -0.012,-0.011 0,0 -1.134,-0.854 -1.115,-0.874 0,0 -0.147,-0.103 -0.337,-0.232 -0.226,-0.841 -0.452,-1.739 -0.681,-2.238 -0.086,-0.184 -0.163,-0.371 -0.254,-0.55 l -0.045,-0.139 c -0.472,-1.501 -0.906,-3.011 -1.292,-4.525 -0.195,-0.757 -0.364,-1.52 -0.524,-2.281 z m 0.839,10.526 c 0.087,-0.146 0.157,-0.305 0.193,-0.479 0.017,-0.077 0.019,-0.154 0.021,-0.229 0.019,0.029 0.036,0.061 0.056,0.09 0.15,0.185 0.331,0.348 0.495,0.521 0.226,0.23 0.454,0.595 0.686,0.997 -0.7,-0.477 -1.436,-0.914 -1.436,-0.914 z m 19.744,5.022 c -0.306,0.604 -0.823,1.051 -1.477,1.225 -0.325,0.087 -0.671,0.128 -1.031,0.113 L 26.594,28.778 C 25.74,28.758 24.96,28.609 24.141,28.514 23.329,28.41 22.503,28.233 21.682,28.094 20.863,27.931 20.045,27.751 19.226,27.575 L 17.3,27.116 c -0.337,-0.232 -1.066,-0.735 -1.712,-1.188 0.202,-0.134 0.406,-0.268 0.606,-0.402 0.273,-0.175 0.549,-0.348 0.825,-0.516 0.707,-0.426 1.427,-0.831 2.157,-1.209 1.461,-0.754 2.974,-1.414 4.524,-1.828 0.772,-0.203 1.558,-0.343 2.32,-0.359 0.378,0.007 0.758,0.017 1.111,0.097 0.358,0.064 0.68,0.182 1.045,0.355 0.625,0.302 1.228,0.789 1.646,1.377 0.433,0.586 0.701,1.29 0.803,2.007 0.093,0.717 -0.002,1.455 -0.312,2.058 z"
   id="path6307" />

		<path
   d="m 19.98,17.135 c -1.317,-2.419 -3.707,0.408 -3.707,0.408 0,0 -0.446,-4.466 -2.828,-3.796 -2.383,0.67 1.19,9.864 1.19,9.864 0,0 6.665,-4.058 5.345,-6.476 z"
   id="path6309" />

		<path
   d="m 23.141,23.798 c -2.438,-0.671 -6.159,2.121 -6.159,2.121 0,0 4.058,1.675 5.808,1.415 1.748,-0.26 2.79,-2.867 0.351,-3.536 z"
   id="path6311" />

	</g>

</g>
      <g
         id="g6317">
</g>
      <g
         id="g6319">
</g>
      <g
         id="g6321">
</g>
      <g
         id="g6323">
</g>
      <g
         id="g6325">
</g>
      <g
         id="g6327">
</g>
      <g
         id="g6329">
</g>
      <g
         id="g6331">
</g>
      <g
         id="g6333">
</g>
      <g
         id="g6335">
</g>
      <g
         id="g6337">
</g>
      <g
         id="g6339">
</g>
      <g
         id="g6341">
</g>
      <g
         id="g6343">
</g>
      <g
         id="g6345">
</g>
    </g>
    <path
       id="path28"
       d="m 134.77431,226.2423 a 24.740173,60.36824 0 0 0 0,-82.23658 l -4.41716,9.70478 c 0.47265,1.2838 11.45307,31.76893 0,62.82707 z"
       style="fill:#ff0000;stroke-width:4.64328909" />
    <path
       style="fill:#00ff00;stroke-width:5.03885221"
       d="m 182.67803,239.09483 a 24.749306,71.065717 0 0 1 0,-96.80922 l 4.41879,11.42447 c -0.47281,1.51132 -11.4573,37.39852 0,73.96027 z"
       id="path6384" />
    <path
       style="fill:#00ff00;stroke-width:0.75325054;stroke-miterlimit:4;stroke-dasharray:none"
       d="m 158.38433,249.12275 a 31.874882,89.290617 0 0 1 0,-121.63609 l 5.69098,14.3543 c -0.60893,1.8989 -14.75598,46.9894 0,92.92747 z"
       id="path6386" />
    <path
       style="fill:#00ff00;stroke-width:7.43781662"
       d="m 133.28937,264.25154 a 33.666383,113.82937 0 0 1 0,-155.06403 l 6.01085,18.29915 c -0.64314,2.42074 -15.58531,59.90301 0,118.46572 z"
       id="path6384-1" />
    <path
       style="fill:#00ff00;stroke-width:3.38406086"
       d="m 201.82295,220.92882 a 18.873697,42.031921 0 0 1 0,-57.25797 l 3.36973,6.75703 c -0.36056,0.89385 -8.73727,22.1194 0,43.7439 z"
       id="path6386-0" />
    <path
       id="path28-0"
       d="m 111.68872,227.03749 a 22.958773,56.021461 0 0 0 0,-76.31518 l -4.0991,9.00598 c 0.4386,1.19137 10.62838,29.48144 0,58.30326 z"
       style="fill:#ff0000;stroke-width:4.30895185" />
    <path
       id="path28-0-8"
       d="m 90.616744,214.53473 a 14.051771,34.287582 0 0 0 0,-46.70821 l -2.50884,5.51204 c 0.26846,0.72918 6.50506,18.04393 0,35.68413 z"
       style="fill:#ff0000;stroke-width:2.6372664" />
    <path
       id="path28-0-8-7"
       d="m 69.544714,215.63468 a 14.051771,34.287583 0 0 0 0,-46.70823 l -2.50883,5.51205 c 0.26845,0.72917 6.50505,18.04394 0,35.68414 z"
       style="fill:#ff0000;stroke-width:2.6372664" />
    <path
       style="fill:#00ff00;stroke-width:7.43781662"
       d="m 112.22883,263.45121 a 33.666382,113.82937 0 0 1 0,-155.06401 l 6.01086,18.29913 c -0.64316,2.42074 -15.58532,59.90303 0,118.46572 z"
       id="path6384-1-7" />
    <path
       style="fill:#00ff00;stroke-width:7.43781662"
       d="m 88.373694,264.24638 a 33.666382,113.82937 0 0 1 0,-155.06401 l 6.01086,18.29913 c -0.64314,2.42074 -15.58532,59.90303 0,118.46572 z"
       id="path6384-1-3" />
  </g>
</svg>
